<?xml version="1.0" standalone="no"?>
<!DOCTYPE svg PUBLIC "-//W3C//DTD SVG 1.1//EN" "http://www.w3.org/Graphics/SVG/1.1/DTD/svg11.dtd" >
<svg xmlns="http://www.w3.org/2000/svg" xmlns:xlink="http://www.w3.org/1999/xlink" version="1.1">
<metadata>
Created by FontForge 20201107 at Thu Feb 23 17:15:55 2023
 By Unknown
Copyright (c) 2022 by PangramPangramFoundry. All rights reserved.
</metadata>
<defs>
<font id="PPSIGFlow-Regular" horiz-adv-x="0" >
  <font-face 
    font-family="PP SIG Flow"
    font-weight="400"
    font-stretch="normal"
    units-per-em="1000"
    panose-1="0 0 5 0 0 0 0 0 0 0"
    ascent="800"
    descent="-200"
    x-height="530"
    cap-height="700"
    bbox="-454 -389 2089 1207"
    underline-thickness="50"
    underline-position="-100"
    unicode-range="U+000D-1F318"
  />
<missing-glyph horiz-adv-x="581" 
d="M526 0h-471v700h471v-700zM98 676l192 -302l193 302h-385zM81 655v-609l194 304zM306 350l194 -304v609zM291 327l-194 -303h387z" />
    <glyph glyph-name="f_f" unicode="ff" horiz-adv-x="703" 
d="M127 0v460h-98v70h98v74q0 71 38.5 108.5t112.5 37.5h118v-70h-118q-33 0 -50.5 -19.5t-17.5 -56.5v-74h216v74q0 71 38.5 108.5t112.5 37.5h118v-70h-118q-33 0 -50.5 -19.5t-17.5 -56.5v-74h172v-70h-172v-460h-83v460h-216v-460h-83z" />
    <glyph glyph-name="f_t" unicode="ft" horiz-adv-x="706" 
d="M127 0v460h-98v70h98v74q0 71 38.5 108.5t112.5 37.5h118v-70h-118q-33 0 -50.5 -19.5t-17.5 -56.5v-74h240v181h83v-181h143v-70h-143v-309q0 -40 19 -60.5t56 -20.5h59v-70h-59q-77 0 -117.5 38.5t-40.5 112.5v309h-240v-460h-83z" />
    <glyph glyph-name="t_f" unicode="tf" horiz-adv-x="679" 
d="M285 0q-77 0 -117.5 38.5t-40.5 112.5v309h-98v70h98v181h83v-181h192v74q0 71 38.5 108.5t112.5 37.5h118v-70h-118q-33 0 -50.5 -19.5t-17.5 -56.5v-74h172v-70h-172v-460h-83v460h-192v-309q0 -40 19 -60.5t56 -20.5h59v-70h-59z" />
    <glyph glyph-name="t_t" unicode="tt" horiz-adv-x="672" 
d="M285 0q-77 0 -117.5 38.5t-40.5 112.5v309h-98v70h98v181h83v-181h206v181h83v-181h143v-70h-143v-309q0 -40 19 -60.5t56 -20.5h59v-70h-59q-77 0 -117.5 38.5t-40.5 112.5v309h-206v-309q0 -40 19 -60.5t56 -20.5h59v-70h-59z" />
    <glyph glyph-name=".notdef" horiz-adv-x="581" 
d="M526 0h-471v700h471v-700zM98 676l192 -302l193 302h-385zM81 655v-609l194 304zM306 350l194 -304v609zM291 327l-194 -303h387z" />
    <glyph glyph-name=".null" horiz-adv-x="600" 
 />
    <glyph glyph-name="nonmarkingreturn" unicode="&#xd;" horiz-adv-x="600" 
 />
    <glyph glyph-name="space" unicode=" " horiz-adv-x="225" 
 />
    <glyph glyph-name="A" unicode="A" horiz-adv-x="718" 
d="M115 0h-87l288 700h85l289 -700h-87l-82 200h-324zM359 593l-130 -317h260z" />
    <glyph glyph-name="Aacute" unicode="&#xc1;" horiz-adv-x="718" 
d="M115 0h-87l288 700h85l289 -700h-87l-82 200h-324zM359 593l-130 -317h260zM606 960l-267 -220l-47 52l267 220z" />
    <glyph glyph-name="Abreve" unicode="&#x102;" horiz-adv-x="718" 
d="M115 0h-87l288 700h85l289 -700h-87l-82 200h-324zM359 593l-130 -317h260zM239.5 809.5q-46.5 40.5 -46.5 105.5v13h72v-13q0 -37 26.5 -60t67.5 -23t66.5 23t25.5 60v13h72v-13q0 -65 -45.5 -105.5t-118.5 -40.5t-119.5 40.5z" />
    <glyph glyph-name="Acircumflex" unicode="&#xc2;" horiz-adv-x="718" 
d="M115 0h-87l288 700h85l289 -700h-87l-82 200h-324zM359 593l-130 -317h260zM358 894l-153 -143l-51 48l175 160h59l175 -160l-51 -48z" />
    <glyph glyph-name="Adieresis" unicode="&#xc4;" horiz-adv-x="718" 
d="M115 0h-87l288 700h85l289 -700h-87l-82 200h-324zM359 593l-130 -317h260zM211.5 783.5q-18.5 18.5 -18.5 44.5t18.5 44t44.5 18t44 -18t18 -44t-18 -44.5t-44 -18.5t-44.5 18.5zM417.5 783.5q-18.5 18.5 -18.5 44.5t18.5 44t44.5 18t44 -18t18 -44t-18 -44.5t-44 -18.5
t-44.5 18.5z" />
    <glyph glyph-name="Agrave" unicode="&#xc0;" horiz-adv-x="718" 
d="M115 0h-87l288 700h85l289 -700h-87l-82 200h-324zM359 593l-130 -317h260zM426 792l-47 -52l-267 220l47 52z" />
    <glyph glyph-name="Amacron" unicode="&#x100;" horiz-adv-x="718" 
d="M115 0h-87l288 700h85l289 -700h-87l-82 200h-324zM359 593l-130 -317h260zM541 808h-364v67h364v-67z" />
    <glyph glyph-name="Aogonek" unicode="&#x104;" horiz-adv-x="718" 
d="M699 -201q-30 -11 -64 -11q-48 0 -76 23.5t-28 61.5q0 32 20.5 66t58.5 61h-7l-82 200h-324l-82 -200h-87l288 700h85l289 -700h-9q-41 -27 -62 -54t-21 -51q0 -18 12 -28t33 -10q20 0 45 9zM359 593l-130 -317h260z" />
    <glyph glyph-name="Aring" unicode="&#xc5;" horiz-adv-x="718" 
d="M115 0h-87l288 700h85l289 -700h-87l-82 200h-324zM359 593l-130 -317h260zM287.5 774q-28.5 27 -28.5 68t28.5 68t71.5 27t71.5 -27t28.5 -68t-28.5 -68t-71.5 -27t-71.5 27zM395 806q14 14 14 36t-14 36t-36 14t-36 -14t-14 -36t14 -36t36 -14t36 14z" />
    <glyph glyph-name="uni01CD" unicode="&#x1cd;" horiz-adv-x="718" 
d="M115 0h-87l288 700h85l289 -700h-87l-82 200h-324zM359 593l-130 -317h260zM388 766h-59l-175 160l51 48l153 -143l154 143l51 -48z" />
    <glyph glyph-name="Atilde" unicode="&#xc3;" horiz-adv-x="718" 
d="M115 0h-87l288 700h85l289 -700h-87l-82 200h-324zM359 593l-130 -317h260zM398.5 791.5q-23.5 12.5 -55.5 35.5q-22 16 -34.5 23t-23.5 7q-19 0 -31 -20t-12 -52h-68q0 61 27 99t71 38q26 0 47.5 -11.5t52.5 -33.5q23 -17 37 -25t28 -8q18 0 28.5 17t10.5 52h68
q0 -63 -25 -98.5t-69 -35.5q-28 0 -51.5 12.5z" />
    <glyph glyph-name="AE" unicode="&#xc6;" horiz-adv-x="981" 
d="M112 0h-84l264 700h631v-77h-395v-221h355v-75h-355v-250h404v-77h-487v206h-255zM346 620l-128 -338h227v338h-99z" />
    <glyph glyph-name="B" unicode="B" horiz-adv-x="681" 
d="M85 0v700h321q60 0 107 -22.5t73.5 -62.5t26.5 -91q0 -56 -36.5 -99.5t-98.5 -63.5q69 -14 110 -60t41 -110q0 -56 -27 -99.5t-76 -67.5t-112 -24h-329zM401 394q56 0 91.5 34t35.5 87q0 48 -32 78t-82 30h-246v-229h233zM423 77q53 0 86 34t33 89q0 56 -38.5 87.5
t-97.5 31.5h-238v-242h255z" />
    <glyph glyph-name="C" unicode="C" horiz-adv-x="778" 
d="M212.5 35q-77.5 46 -118.5 128.5t-41 188.5q0 104 41 185.5t118.5 127.5t182.5 46q133 0 220 -74t110 -206h-87q-19 96 -83.5 149.5t-159.5 53.5q-78 0 -135 -34.5t-88 -98t-31 -149.5q0 -134 68 -210t186 -76q98 0 160.5 52t82.5 151h87q-23 -136 -108 -208t-222 -72
q-105 0 -182.5 46z" />
    <glyph glyph-name="Cacute" unicode="&#x106;" horiz-adv-x="778" 
d="M212.5 35q-77.5 46 -118.5 128.5t-41 188.5q0 104 41 185.5t118.5 127.5t182.5 46q133 0 220 -74t110 -206h-87q-19 96 -83.5 149.5t-159.5 53.5q-78 0 -135 -34.5t-88 -98t-31 -149.5q0 -134 68 -210t186 -76q98 0 160.5 52t82.5 151h87q-23 -136 -108 -208t-222 -72
q-105 0 -182.5 46zM642 960l-267 -220l-47 52l267 220z" />
    <glyph glyph-name="Ccaron" unicode="&#x10c;" horiz-adv-x="778" 
d="M212.5 35q-77.5 46 -118.5 128.5t-41 188.5q0 104 41 185.5t118.5 127.5t182.5 46q133 0 220 -74t110 -206h-87q-19 96 -83.5 149.5t-159.5 53.5q-78 0 -135 -34.5t-88 -98t-31 -149.5q0 -134 68 -210t186 -76q98 0 160.5 52t82.5 151h87q-23 -136 -108 -208t-222 -72
q-105 0 -182.5 46zM424 766h-59l-175 160l51 48l153 -143l154 143l51 -48z" />
    <glyph glyph-name="Ccedilla" unicode="&#xc7;" horiz-adv-x="778" 
d="M555.5 118q62.5 52 82.5 151h87q-22 -128 -98 -199.5t-199 -79.5l-67 -202l-68 13l63 190q-94 8 -162.5 56t-104.5 126.5t-36 178.5q0 104 41 185.5t118.5 127.5t182.5 46q133 0 220 -74t110 -206h-87q-19 96 -83.5 149.5t-159.5 53.5q-78 0 -135 -34.5t-88 -98
t-31 -149.5q0 -134 68 -210t186 -76q98 0 160.5 52z" />
    <glyph glyph-name="Cdotaccent" unicode="&#x10a;" horiz-adv-x="778" 
d="M212.5 35q-77.5 46 -118.5 128.5t-41 188.5q0 104 41 185.5t118.5 127.5t182.5 46q133 0 220 -74t110 -206h-87q-19 96 -83.5 149.5t-159.5 53.5q-78 0 -135 -34.5t-88 -98t-31 -149.5q0 -134 68 -210t186 -76q98 0 160.5 52t82.5 151h87q-23 -136 -108 -208t-222 -72
q-105 0 -182.5 46zM350 783q-18 18 -18 45q0 26 18 44t45 18t45 -18t18 -44q0 -27 -18 -45t-45 -18t-45 18z" />
    <glyph glyph-name="D" unicode="D" horiz-adv-x="726" 
d="M85 0v700h247q99 0 176.5 -44t121 -122.5t43.5 -179.5q0 -103 -43.5 -183.5t-121 -125.5t-176.5 -45h-247zM337 77q72 0 128 35t87.5 98t31.5 144q0 75 -31.5 136.5t-88 97t-127.5 35.5h-168v-546h168z" />
    <glyph glyph-name="Eth" unicode="&#xd0;" horiz-adv-x="746" 
d="M105 0v322h-104v67h104v311h247q99 0 176.5 -44t121 -122.5t43.5 -179.5q0 -103 -43.5 -183.5t-121 -125.5t-176.5 -45h-247zM357 77q72 0 128 35t87.5 98t31.5 144q0 75 -31.5 136.5t-88 97t-127.5 35.5h-168v-234h236v-67h-236v-245h168z" />
    <glyph glyph-name="Dcaron" unicode="&#x10e;" horiz-adv-x="726" 
d="M85 0v700h247q99 0 176.5 -44t121 -122.5t43.5 -179.5q0 -103 -43.5 -183.5t-121 -125.5t-176.5 -45h-247zM337 77q72 0 128 35t87.5 98t31.5 144q0 75 -31.5 136.5t-88 97t-127.5 35.5h-168v-546h168zM355 766h-59l-175 160l51 48l153 -143l154 143l51 -48z" />
    <glyph glyph-name="Dcroat" unicode="&#x110;" horiz-adv-x="746" 
d="M105 0v322h-104v67h104v311h247q99 0 176.5 -44t121 -122.5t43.5 -179.5q0 -103 -43.5 -183.5t-121 -125.5t-176.5 -45h-247zM357 77q72 0 128 35t87.5 98t31.5 144q0 75 -31.5 136.5t-88 97t-127.5 35.5h-168v-234h236v-67h-236v-245h168z" />
    <glyph glyph-name="E" unicode="E" horiz-adv-x="621" 
d="M572 0h-487v700h478v-77h-395v-221h355v-75h-355v-250h404v-77z" />
    <glyph glyph-name="Eacute" unicode="&#xc9;" horiz-adv-x="621" 
d="M572 0h-487v700h478v-77h-395v-221h355v-75h-355v-250h404v-77zM578 960l-267 -220l-47 52l267 220z" />
    <glyph glyph-name="Ecaron" unicode="&#x11a;" horiz-adv-x="621" 
d="M572 0h-487v700h478v-77h-395v-221h355v-75h-355v-250h404v-77zM360 766h-59l-175 160l51 48l153 -143l154 143l51 -48z" />
    <glyph glyph-name="Ecircumflex" unicode="&#xca;" horiz-adv-x="621" 
d="M572 0h-487v700h478v-77h-395v-221h355v-75h-355v-250h404v-77zM330 894l-153 -143l-51 48l175 160h59l175 -160l-51 -48z" />
    <glyph glyph-name="Edieresis" unicode="&#xcb;" horiz-adv-x="621" 
d="M572 0h-487v700h478v-77h-395v-221h355v-75h-355v-250h404v-77zM183.5 783.5q-18.5 18.5 -18.5 44.5t18.5 44t44.5 18t44 -18t18 -44t-18 -44.5t-44 -18.5t-44.5 18.5zM389.5 783.5q-18.5 18.5 -18.5 44.5t18.5 44t44.5 18t44 -18t18 -44t-18 -44.5t-44 -18.5t-44.5 18.5
z" />
    <glyph glyph-name="Edotaccent" unicode="&#x116;" horiz-adv-x="621" 
d="M572 0h-487v700h478v-77h-395v-221h355v-75h-355v-250h404v-77zM286 783q-18 18 -18 45q0 26 18 44t45 18t45 -18t18 -44q0 -27 -18 -45t-45 -18t-45 18z" />
    <glyph glyph-name="Egrave" unicode="&#xc8;" horiz-adv-x="621" 
d="M572 0h-487v700h478v-77h-395v-221h355v-75h-355v-250h404v-77zM398 792l-47 -52l-267 220l47 52z" />
    <glyph glyph-name="Emacron" unicode="&#x112;" horiz-adv-x="621" 
d="M572 0h-487v700h478v-77h-395v-221h355v-75h-355v-250h404v-77zM513 808h-364v67h364v-67z" />
    <glyph glyph-name="Eogonek" unicode="&#x118;" horiz-adv-x="621" 
d="M551 0q-41 -27 -62 -54t-21 -51q0 -18 12 -28t33 -10q20 0 45 9l11 -67q-30 -11 -64 -11q-48 0 -76 23.5t-28 61.5q0 32 20.5 66t58.5 61h-395v700h478v-77h-395v-221h355v-75h-355v-250h404v-77h-21z" />
    <glyph glyph-name="F" unicode="F" horiz-adv-x="604" 
d="M169 0h-84v700h477v-77h-393v-227h363v-77h-363v-319z" />
    <glyph glyph-name="G" unicode="G" horiz-adv-x="786" 
d="M213 34q-75 45 -117.5 127t-42.5 191q0 104 41 185.5t118 127.5t181 46q133 0 220.5 -75t109.5 -205h-87q-20 96 -83.5 149.5t-159.5 53.5q-77 0 -134 -34t-87.5 -97.5t-30.5 -150.5t30.5 -152t85.5 -99.5t127 -34.5q64 0 112.5 27.5t75 76.5t26.5 112h-236v72h246
q55 0 83.5 -27t28.5 -78v-249h-75v239h-2q-10 -117 -77 -183.5t-182 -66.5q-96 0 -171 45z" />
    <glyph glyph-name="Gbreve" unicode="&#x11e;" horiz-adv-x="786" 
d="M213 34q-75 45 -117.5 127t-42.5 191q0 104 41 185.5t118 127.5t181 46q133 0 220.5 -75t109.5 -205h-87q-20 96 -83.5 149.5t-159.5 53.5q-77 0 -134 -34t-87.5 -97.5t-30.5 -150.5t30.5 -152t85.5 -99.5t127 -34.5q64 0 112.5 27.5t75 76.5t26.5 112h-236v72h246
q55 0 83.5 -27t28.5 -78v-249h-75v239h-2q-10 -117 -77 -183.5t-182 -66.5q-96 0 -171 45zM273.5 809.5q-46.5 40.5 -46.5 105.5v13h72v-13q0 -37 26.5 -60t67.5 -23t66.5 23t25.5 60v13h72v-13q0 -65 -45.5 -105.5t-118.5 -40.5t-119.5 40.5z" />
    <glyph glyph-name="uni0122" unicode="&#x122;" horiz-adv-x="786" 
d="M213 34q-75 45 -117.5 127t-42.5 191q0 104 41 185.5t118 127.5t181 46q133 0 220.5 -75t109.5 -205h-87q-20 96 -83.5 149.5t-159.5 53.5q-77 0 -134 -34t-87.5 -97.5t-30.5 -150.5t30.5 -152t85.5 -99.5t127 -34.5q64 0 112.5 27.5t75 76.5t26.5 112h-236v72h246
q55 0 83.5 -27t28.5 -78v-249h-75v239h-2q-10 -117 -77 -183.5t-182 -66.5q-96 0 -171 45zM434 -55l-109 -334l-67 21l105 335z" />
    <glyph glyph-name="Gdotaccent" unicode="&#x120;" horiz-adv-x="786" 
d="M213 34q-75 45 -117.5 127t-42.5 191q0 104 41 185.5t118 127.5t181 46q133 0 220.5 -75t109.5 -205h-87q-20 96 -83.5 149.5t-159.5 53.5q-77 0 -134 -34t-87.5 -97.5t-30.5 -150.5t30.5 -152t85.5 -99.5t127 -34.5q64 0 112.5 27.5t75 76.5t26.5 112h-236v72h246
q55 0 83.5 -27t28.5 -78v-249h-75v239h-2q-10 -117 -77 -183.5t-182 -66.5q-96 0 -171 45zM348 783q-18 18 -18 45q0 26 18 44t45 18t45 -18t18 -44q0 -27 -18 -45t-45 -18t-45 18z" />
    <glyph glyph-name="H" unicode="H" horiz-adv-x="768" 
d="M169 0h-84v700h84v-301h430v301h84v-700h-84v322h-430v-322z" />
    <glyph glyph-name="Hbar" unicode="&#x126;" horiz-adv-x="816" 
d="M193 0h-84v533h-124v67h124v100h84v-100h430v100h84v-100h124v-67h-124v-533h-84v322h-430v-322zM193 533v-134h430v134h-430z" />
    <glyph glyph-name="I" unicode="I" horiz-adv-x="254" 
d="M169 0h-84v700h84v-700z" />
    <glyph glyph-name="Iacute" unicode="&#xcd;" horiz-adv-x="254" 
d="M169 0h-84v700h84v-700zM374 960l-267 -220l-47 52l267 220z" />
    <glyph glyph-name="Icircumflex" unicode="&#xce;" horiz-adv-x="254" 
d="M169 0h-84v700h84v-700zM126 894l-153 -143l-51 48l175 160h59l175 -160l-51 -48z" />
    <glyph glyph-name="Idieresis" unicode="&#xcf;" horiz-adv-x="254" 
d="M169 0h-84v700h84v-700zM-20.5 783.5q-18.5 18.5 -18.5 44.5t18.5 44t44.5 18t44 -18t18 -44t-18 -44.5t-44 -18.5t-44.5 18.5zM185.5 783.5q-18.5 18.5 -18.5 44.5t18.5 44t44.5 18t44 -18t18 -44t-18 -44.5t-44 -18.5t-44.5 18.5z" />
    <glyph glyph-name="Idotaccent" unicode="&#x130;" horiz-adv-x="254" 
d="M169 0h-84v700h84v-700zM82 783q-18 18 -18 45q0 26 18 44t45 18t45 -18t18 -44q0 -27 -18 -45t-45 -18t-45 18z" />
    <glyph glyph-name="Igrave" unicode="&#xcc;" horiz-adv-x="254" 
d="M169 0h-84v700h84v-700zM194 792l-47 -52l-267 220l47 52z" />
    <glyph glyph-name="Imacron" unicode="&#x12a;" horiz-adv-x="254" 
d="M169 0h-84v700h84v-700zM309 808h-364v67h364v-67z" />
    <glyph glyph-name="Iogonek" unicode="&#x12e;" horiz-adv-x="254" 
d="M181 -201q-30 -11 -64 -11q-48 0 -76 23.5t-28 61.5q0 32 20.5 66t58.5 61h-7v700h84v-700h-6q-41 -27 -62 -54t-21 -51q0 -18 12 -28t33 -10q20 0 45 9z" />
    <glyph glyph-name="uni01CF" unicode="&#x1cf;" horiz-adv-x="254" 
d="M169 0h-84v700h84v-700zM156 766h-59l-175 160l51 48l153 -143l154 143l51 -48z" />
    <glyph glyph-name="J" unicode="J" horiz-adv-x="580" 
d="M155.5 14q-52.5 25 -82 70t-29.5 103v100h83v-99q0 -54 41.5 -88t106.5 -34q63 0 102.5 36.5t39.5 95.5v502h84v-504q0 -60 -28.5 -107t-80 -73.5t-117.5 -26.5q-67 0 -119.5 25z" />
    <glyph glyph-name="K" unicode="K" horiz-adv-x="679" 
d="M169 0h-84v700h84v-383l361 383h109l-279 -292l298 -408h-104l-252 347l-133 -139v-208z" />
    <glyph glyph-name="uni0136" unicode="&#x136;" horiz-adv-x="679" 
d="M169 0h-84v700h84v-383l361 383h109l-279 -292l298 -408h-104l-252 347l-133 -139v-208zM382 -55l-109 -334l-67 21l105 335z" />
    <glyph glyph-name="L" unicode="L" horiz-adv-x="584" 
d="M544 0h-459v700h84v-623h375v-77z" />
    <glyph glyph-name="Lacute" unicode="&#x139;" horiz-adv-x="584" 
d="M544 0h-459v700h84v-623h375v-77zM374 960l-267 -220l-47 52l267 220z" />
    <glyph glyph-name="Lcaron" unicode="&#x13d;" horiz-adv-x="584" 
d="M353 424h-76v326h76v-326zM544 0h-459v700h84v-623h375v-77z" />
    <glyph glyph-name="uni013B" unicode="&#x13b;" horiz-adv-x="584" 
d="M544 0h-459v700h84v-623h375v-77zM360 -55l-109 -334l-67 21l105 335z" />
    <glyph glyph-name="Lslash" unicode="&#x141;" horiz-adv-x="632" 
d="M592 0h-459v333l-112 -68l-30 55l142 87v293h84v-241l146 89l30 -56l-176 -107v-308h375v-77z" />
    <glyph glyph-name="M" unicode="M" horiz-adv-x="874" 
d="M169 0h-84v700h105l247 -600l246 600h106v-700h-84v554l-228 -554h-81l-227 552v-552z" />
    <glyph glyph-name="N" unicode="N" horiz-adv-x="746" 
d="M169 0h-84v700h96l396 -580v580h84v-700h-96l-396 580v-580z" />
    <glyph glyph-name="Nacute" unicode="&#x143;" horiz-adv-x="746" 
d="M169 0h-84v700h96l396 -580v580h84v-700h-96l-396 580v-580zM620 960l-267 -220l-47 52l267 220z" />
    <glyph glyph-name="Ncaron" unicode="&#x147;" horiz-adv-x="746" 
d="M169 0h-84v700h96l396 -580v580h84v-700h-96l-396 580v-580zM402 766h-59l-175 160l51 48l153 -143l154 143l51 -48z" />
    <glyph glyph-name="uni0145" unicode="&#x145;" horiz-adv-x="746" 
d="M169 0h-84v700h96l396 -580v580h84v-700h-96l-396 580v-580zM414 -55l-109 -334l-67 21l105 335z" />
    <glyph glyph-name="Eng" unicode="&#x14a;" horiz-adv-x="746" 
d="M429 -200v70h74q37 0 56 20.5t19 60.5v49h-13l-396 580v-580h-84v700h96l396 -580v580h84v-749q0 -74 -40.5 -112.5t-117.5 -38.5h-74z" />
    <glyph glyph-name="Ntilde" unicode="&#xd1;" horiz-adv-x="746" 
d="M169 0h-84v700h96l396 -580v580h84v-700h-96l-396 580v-580zM412.5 791.5q-23.5 12.5 -55.5 35.5q-22 16 -34.5 23t-23.5 7q-19 0 -31 -20t-12 -52h-68q0 61 27 99t71 38q26 0 47.5 -11.5t52.5 -33.5q23 -17 37 -25t28 -8q18 0 28.5 17t10.5 52h68q0 -63 -25 -98.5
t-69 -35.5q-28 0 -51.5 12.5z" />
    <glyph glyph-name="O" unicode="O" horiz-adv-x="782" 
d="M214.5 33.5q-76.5 44.5 -119 127t-42.5 191.5q0 104 40.5 185.5t117 127.5t179.5 46q100 0 177 -44.5t119.5 -126t42.5 -188.5q0 -105 -41 -187.5t-117.5 -129t-180.5 -46.5q-99 0 -175.5 44.5zM524.5 101q57.5 35 88 99.5t30.5 151.5q0 86 -31 149.5t-88 98t-134 34.5
q-76 0 -133 -34.5t-87.5 -98t-30.5 -149.5q0 -87 30.5 -151.5t87.5 -99.5t133 -35q77 0 134.5 35z" />
    <glyph glyph-name="Oacute" unicode="&#xd3;" horiz-adv-x="782" 
d="M214.5 33.5q-76.5 44.5 -119 127t-42.5 191.5q0 104 40.5 185.5t117 127.5t179.5 46q100 0 177 -44.5t119.5 -126t42.5 -188.5q0 -105 -41 -187.5t-117.5 -129t-180.5 -46.5q-99 0 -175.5 44.5zM524.5 101q57.5 35 88 99.5t30.5 151.5q0 86 -31 149.5t-88 98t-134 34.5
q-76 0 -133 -34.5t-87.5 -98t-30.5 -149.5q0 -87 30.5 -151.5t87.5 -99.5t133 -35q77 0 134.5 35zM637 960l-267 -220l-47 52l267 220z" />
    <glyph glyph-name="Ocircumflex" unicode="&#xd4;" horiz-adv-x="782" 
d="M214.5 33.5q-76.5 44.5 -119 127t-42.5 191.5q0 104 40.5 185.5t117 127.5t179.5 46q100 0 177 -44.5t119.5 -126t42.5 -188.5q0 -105 -41 -187.5t-117.5 -129t-180.5 -46.5q-99 0 -175.5 44.5zM524.5 101q57.5 35 88 99.5t30.5 151.5q0 86 -31 149.5t-88 98t-134 34.5
q-76 0 -133 -34.5t-87.5 -98t-30.5 -149.5q0 -87 30.5 -151.5t87.5 -99.5t133 -35q77 0 134.5 35zM389 894l-153 -143l-51 48l175 160h59l175 -160l-51 -48z" />
    <glyph glyph-name="Odieresis" unicode="&#xd6;" horiz-adv-x="782" 
d="M214.5 33.5q-76.5 44.5 -119 127t-42.5 191.5q0 104 40.5 185.5t117 127.5t179.5 46q100 0 177 -44.5t119.5 -126t42.5 -188.5q0 -105 -41 -187.5t-117.5 -129t-180.5 -46.5q-99 0 -175.5 44.5zM524.5 101q57.5 35 88 99.5t30.5 151.5q0 86 -31 149.5t-88 98t-134 34.5
q-76 0 -133 -34.5t-87.5 -98t-30.5 -149.5q0 -87 30.5 -151.5t87.5 -99.5t133 -35q77 0 134.5 35zM242.5 783.5q-18.5 18.5 -18.5 44.5t18.5 44t44.5 18t44 -18t18 -44t-18 -44.5t-44 -18.5t-44.5 18.5zM448.5 783.5q-18.5 18.5 -18.5 44.5t18.5 44t44.5 18t44 -18t18 -44
t-18 -44.5t-44 -18.5t-44.5 18.5z" />
    <glyph glyph-name="Ograve" unicode="&#xd2;" horiz-adv-x="782" 
d="M214.5 33.5q-76.5 44.5 -119 127t-42.5 191.5q0 104 40.5 185.5t117 127.5t179.5 46q100 0 177 -44.5t119.5 -126t42.5 -188.5q0 -105 -41 -187.5t-117.5 -129t-180.5 -46.5q-99 0 -175.5 44.5zM524.5 101q57.5 35 88 99.5t30.5 151.5q0 86 -31 149.5t-88 98t-134 34.5
q-76 0 -133 -34.5t-87.5 -98t-30.5 -149.5q0 -87 30.5 -151.5t87.5 -99.5t133 -35q77 0 134.5 35zM457 792l-47 -52l-267 220l47 52z" />
    <glyph glyph-name="Ohungarumlaut" unicode="&#x150;" horiz-adv-x="782" 
d="M214.5 33.5q-76.5 44.5 -119 127t-42.5 191.5q0 104 40.5 185.5t117 127.5t179.5 46q100 0 177 -44.5t119.5 -126t42.5 -188.5q0 -105 -41 -187.5t-117.5 -129t-180.5 -46.5q-99 0 -175.5 44.5zM524.5 101q57.5 35 88 99.5t30.5 151.5q0 86 -31 149.5t-88 98t-134 34.5
q-76 0 -133 -34.5t-87.5 -98t-30.5 -149.5q0 -87 30.5 -151.5t87.5 -99.5t133 -35q77 0 134.5 35zM545 1004l-206 -260l-62 36l208 259zM679 985l-206 -260l-62 36l208 259z" />
    <glyph glyph-name="Omacron" unicode="&#x14c;" horiz-adv-x="782" 
d="M214.5 33.5q-76.5 44.5 -119 127t-42.5 191.5q0 104 40.5 185.5t117 127.5t179.5 46q100 0 177 -44.5t119.5 -126t42.5 -188.5q0 -105 -41 -187.5t-117.5 -129t-180.5 -46.5q-99 0 -175.5 44.5zM524.5 101q57.5 35 88 99.5t30.5 151.5q0 86 -31 149.5t-88 98t-134 34.5
q-76 0 -133 -34.5t-87.5 -98t-30.5 -149.5q0 -87 30.5 -151.5t87.5 -99.5t133 -35q77 0 134.5 35zM572 808h-364v67h364v-67z" />
    <glyph glyph-name="Oslash" unicode="&#xd8;" horiz-adv-x="782" 
d="M634 615q46 -48 70.5 -115t24.5 -148q0 -105 -41 -187.5t-117.5 -129t-180.5 -46.5q-117 0 -202 62l-86 -110l-43 33l89 112q-46 49 -70.5 116.5t-24.5 149.5q0 104 40.5 185.5t117 127.5t179.5 46q117 0 203 -61l88 112l43 -33zM200 152l343 435q-64 47 -153 47
q-76 0 -133 -34.5t-87.5 -98t-30.5 -149.5q0 -123 61 -200zM524.5 101q57.5 35 88 99.5t30.5 151.5q0 60 -15.5 110.5t-45.5 86.5l-344 -435q63 -48 152 -48q77 0 134.5 35z" />
    <glyph glyph-name="uni01D1" unicode="&#x1d1;" horiz-adv-x="782" 
d="M214.5 33.5q-76.5 44.5 -119 127t-42.5 191.5q0 104 40.5 185.5t117 127.5t179.5 46q100 0 177 -44.5t119.5 -126t42.5 -188.5q0 -105 -41 -187.5t-117.5 -129t-180.5 -46.5q-99 0 -175.5 44.5zM524.5 101q57.5 35 88 99.5t30.5 151.5q0 86 -31 149.5t-88 98t-134 34.5
q-76 0 -133 -34.5t-87.5 -98t-30.5 -149.5q0 -87 30.5 -151.5t87.5 -99.5t133 -35q77 0 134.5 35zM419 766h-59l-175 160l51 48l153 -143l154 143l51 -48z" />
    <glyph glyph-name="Otilde" unicode="&#xd5;" horiz-adv-x="782" 
d="M214.5 33.5q-76.5 44.5 -119 127t-42.5 191.5q0 104 40.5 185.5t117 127.5t179.5 46q100 0 177 -44.5t119.5 -126t42.5 -188.5q0 -105 -41 -187.5t-117.5 -129t-180.5 -46.5q-99 0 -175.5 44.5zM524.5 101q57.5 35 88 99.5t30.5 151.5q0 86 -31 149.5t-88 98t-134 34.5
q-76 0 -133 -34.5t-87.5 -98t-30.5 -149.5q0 -87 30.5 -151.5t87.5 -99.5t133 -35q77 0 134.5 35zM429.5 791.5q-23.5 12.5 -55.5 35.5q-22 16 -34.5 23t-23.5 7q-19 0 -31 -20t-12 -52h-68q0 61 27 99t71 38q26 0 47.5 -11.5t52.5 -33.5q23 -17 37 -25t28 -8q18 0 28.5 17
t10.5 52h68q0 -63 -25 -98.5t-69 -35.5q-28 0 -51.5 12.5z" />
    <glyph glyph-name="OE" unicode="&#x152;" horiz-adv-x="1183" 
d="M214.5 33.5q-76.5 44.5 -119 127t-42.5 191.5q0 104 40.5 185.5t117 127.5t179.5 46q81 0 147.5 -34t109.5 -96v119h478v-77h-395v-221h355v-75h-355v-250h404v-77h-487v121q-43 -63 -109 -97.5t-148 -34.5q-99 0 -175.5 44.5zM524.5 101q57.5 35 88 99.5t30.5 151.5
q0 86 -31 149.5t-88 98t-134 34.5q-76 0 -133 -34.5t-87.5 -98t-30.5 -149.5q0 -87 30.5 -151.5t87.5 -99.5t133 -35q77 0 134.5 35z" />
    <glyph glyph-name="P" unicode="P" horiz-adv-x="680" 
d="M85 0v700h331q71 0 121.5 -27.5t76.5 -74t26 -103.5q0 -69 -29.5 -118t-80.5 -74.5t-114 -25.5h-247v-277h-84zM420 354q63 0 98.5 40t35.5 101q0 60 -38 94t-96 34h-251v-269h251z" />
    <glyph glyph-name="Thorn" unicode="&#xde;" horiz-adv-x="679" 
d="M85 0v700h84v-135h246q71 0 121.5 -27.5t76.5 -74t26 -103.5q0 -69 -29.5 -118t-80.5 -74.5t-114 -25.5h-246v-142h-84zM419 219q63 0 98.5 40t35.5 101q0 60 -38 94t-96 34h-250v-269h250z" />
    <glyph glyph-name="Q" unicode="Q" horiz-adv-x="782" 
d="M509 7q-54 -18 -119 -18q-99 0 -175.5 44.5t-119 127t-42.5 191.5q0 104 40.5 185.5t117 127.5t179.5 46q100 0 177 -44.5t119.5 -126t42.5 -188.5q0 -105 -40 -186.5t-114 -127.5l78 -137l-64 -33zM469 77l-105 183l65 33l106 -185q52 35 80 98t28 146q0 86 -31 149.5
t-88 98t-134 34.5q-76 0 -133 -34.5t-87.5 -98t-30.5 -149.5q0 -87 30.5 -151.5t87.5 -99.5t133 -35q41 0 79 11z" />
    <glyph glyph-name="R" unicode="R" horiz-adv-x="692" 
d="M85 0v700h319q65 0 116 -24.5t79 -68.5t28 -100q0 -62 -38.5 -111t-102.5 -69q56 -15 76 -69l97 -258h-90l-90 243q-8 22 -25.5 34t-42.5 12h-242v-289h-84zM408 364q63 0 98.5 38t35.5 97t-37.5 91.5t-96.5 32.5h-239v-259h239z" />
    <glyph glyph-name="Racute" unicode="&#x154;" horiz-adv-x="692" 
d="M85 0v700h319q65 0 116 -24.5t79 -68.5t28 -100q0 -62 -38.5 -111t-102.5 -69q56 -15 76 -69l97 -258h-90l-90 243q-8 22 -25.5 34t-42.5 12h-242v-289h-84zM408 364q63 0 98.5 38t35.5 97t-37.5 91.5t-96.5 32.5h-239v-259h239zM566 960l-267 -220l-47 52l267 220z" />
    <glyph glyph-name="Rcaron" unicode="&#x158;" horiz-adv-x="692" 
d="M85 0v700h319q65 0 116 -24.5t79 -68.5t28 -100q0 -62 -38.5 -111t-102.5 -69q56 -15 76 -69l97 -258h-90l-90 243q-8 22 -25.5 34t-42.5 12h-242v-289h-84zM408 364q63 0 98.5 38t35.5 97t-37.5 91.5t-96.5 32.5h-239v-259h239zM348 766h-59l-175 160l51 48l153 -143
l154 143l51 -48z" />
    <glyph glyph-name="uni0156" unicode="&#x156;" horiz-adv-x="692" 
d="M85 0v700h319q65 0 116 -24.5t79 -68.5t28 -100q0 -62 -38.5 -111t-102.5 -69q56 -15 76 -69l97 -258h-90l-90 243q-8 22 -25.5 34t-42.5 12h-242v-289h-84zM408 364q63 0 98.5 38t35.5 97t-37.5 91.5t-96.5 32.5h-239v-259h239zM385 -55l-109 -334l-67 21l105 335z" />
    <glyph glyph-name="S" unicode="S" horiz-adv-x="647" 
d="M201 17q-68 28 -107.5 78.5t-43.5 116.5h88q7 -67 66.5 -107t151.5 -40q79 0 121 31t42 86q0 48 -33.5 74t-95.5 45l-121 38q-7 2 -62.5 19t-95 60.5t-39.5 105.5q0 56 29.5 98.5t83 65.5t125.5 23q121 0 191.5 -59.5t78.5 -170.5h-87q-5 74 -54 114t-133 40
q-67 0 -108.5 -28.5t-41.5 -78.5q0 -35 20.5 -56.5t41.5 -29.5t78 -26l113 -35q60 -19 100 -38.5t68 -57.5t28 -99q0 -92 -66.5 -144.5t-182.5 -52.5q-87 0 -155 28z" />
    <glyph glyph-name="Sacute" unicode="&#x15a;" horiz-adv-x="647" 
d="M201 17q-68 28 -107.5 78.5t-43.5 116.5h88q7 -67 66.5 -107t151.5 -40q79 0 121 31t42 86q0 48 -33.5 74t-95.5 45l-121 38q-7 2 -62.5 19t-95 60.5t-39.5 105.5q0 56 29.5 98.5t83 65.5t125.5 23q121 0 191.5 -59.5t78.5 -170.5h-87q-5 74 -54 114t-133 40
q-67 0 -108.5 -28.5t-41.5 -78.5q0 -35 20.5 -56.5t41.5 -29.5t78 -26l113 -35q60 -19 100 -38.5t68 -57.5t28 -99q0 -92 -66.5 -144.5t-182.5 -52.5q-87 0 -155 28zM567 960l-267 -220l-47 52l267 220z" />
    <glyph glyph-name="Scaron" unicode="&#x160;" horiz-adv-x="647" 
d="M201 17q-68 28 -107.5 78.5t-43.5 116.5h88q7 -67 66.5 -107t151.5 -40q79 0 121 31t42 86q0 48 -33.5 74t-95.5 45l-121 38q-7 2 -62.5 19t-95 60.5t-39.5 105.5q0 56 29.5 98.5t83 65.5t125.5 23q121 0 191.5 -59.5t78.5 -170.5h-87q-5 74 -54 114t-133 40
q-67 0 -108.5 -28.5t-41.5 -78.5q0 -35 20.5 -56.5t41.5 -29.5t78 -26l113 -35q60 -19 100 -38.5t68 -57.5t28 -99q0 -92 -66.5 -144.5t-182.5 -52.5q-87 0 -155 28zM349 766h-59l-175 160l51 48l153 -143l154 143l51 -48z" />
    <glyph glyph-name="Scedilla" unicode="&#x15e;" horiz-adv-x="647" 
d="M544 46q-61 -52 -168 -57l-67 -201l-68 13l63 191q-110 12 -179 71.5t-75 148.5h88q7 -67 66.5 -107t151.5 -40q79 0 121 31t42 86q0 48 -33.5 74t-95.5 45l-121 38q-7 2 -62.5 19t-95 60.5t-39.5 105.5q0 56 29.5 98.5t83 65.5t125.5 23q121 0 191.5 -59.5t78.5 -170.5
h-87q-5 74 -54 114t-133 40q-67 0 -108.5 -28.5t-41.5 -78.5q0 -35 20.5 -56.5t41.5 -29.5t78 -26l113 -35q60 -19 100 -38.5t68 -57.5t28 -99q0 -88 -61 -140z" />
    <glyph glyph-name="uni0218" unicode="&#x218;" horiz-adv-x="647" 
d="M201 17q-68 28 -107.5 78.5t-43.5 116.5h88q7 -67 66.5 -107t151.5 -40q79 0 121 31t42 86q0 48 -33.5 74t-95.5 45l-121 38q-7 2 -62.5 19t-95 60.5t-39.5 105.5q0 56 29.5 98.5t83 65.5t125.5 23q121 0 191.5 -59.5t78.5 -170.5h-87q-5 74 -54 114t-133 40
q-67 0 -108.5 -28.5t-41.5 -78.5q0 -35 20.5 -56.5t41.5 -29.5t78 -26l113 -35q60 -19 100 -38.5t68 -57.5t28 -99q0 -92 -66.5 -144.5t-182.5 -52.5q-87 0 -155 28zM384 -55l-109 -334l-67 21l105 335z" />
    <glyph glyph-name="uni1E9E" unicode="&#x1e9e;" horiz-adv-x="715" 
d="M269 19v77q85 -35 155 -35q69 0 109.5 37.5t40.5 100.5q0 52 -29 91.5t-81.5 61t-121.5 21.5v62l161 188h-244q-45 0 -68.5 -22t-23.5 -65v-536h-82v536q0 80 44.5 122t129.5 42h348v-70l-178 -208q104 -11 166.5 -72t62.5 -154q0 -61 -28.5 -108t-81 -73t-120.5 -26
q-73 0 -159 30z" />
    <glyph glyph-name="T" unicode="T" horiz-adv-x="638" 
d="M361 0h-84v623h-242v77h568v-77h-242v-623z" />
    <glyph glyph-name="Tbar" unicode="&#x166;" horiz-adv-x="638" 
d="M361 0h-84v346h-193v67h193v210h-242v77h568v-77h-242v-210h193v-67h-193v-346z" />
    <glyph glyph-name="Tcaron" unicode="&#x164;" horiz-adv-x="638" 
d="M361 0h-84v623h-242v77h568v-77h-242v-623zM348 766h-59l-175 160l51 48l153 -143l154 143l51 -48z" />
    <glyph glyph-name="uni0162" unicode="&#x162;" horiz-adv-x="638" 
d="M35 623v77h568v-77h-242v-623h-6l-70 -212l-68 13l66 199h-6v623h-242z" />
    <glyph glyph-name="uni021A" unicode="&#x21a;" horiz-adv-x="638" 
d="M361 0h-84v623h-242v77h568v-77h-242v-623zM360 -55l-109 -334l-67 21l105 335z" />
    <glyph glyph-name="U" unicode="U" horiz-adv-x="716" 
d="M208.5 22q-63.5 33 -96.5 89t-33 124v465h84v-463q0 -80 55.5 -125t139.5 -45t139.5 45t55.5 125v463h84v-465q0 -67 -32.5 -123t-95.5 -89.5t-149 -33.5q-88 0 -151.5 33z" />
    <glyph glyph-name="Uacute" unicode="&#xda;" horiz-adv-x="716" 
d="M208.5 22q-63.5 33 -96.5 89t-33 124v465h84v-463q0 -80 55.5 -125t139.5 -45t139.5 45t55.5 125v463h84v-465q0 -67 -32.5 -123t-95.5 -89.5t-149 -33.5q-88 0 -151.5 33zM605 960l-267 -220l-47 52l267 220z" />
    <glyph glyph-name="Ubreve" unicode="&#x16c;" horiz-adv-x="716" 
d="M208.5 22q-63.5 33 -96.5 89t-33 124v465h84v-463q0 -80 55.5 -125t139.5 -45t139.5 45t55.5 125v463h84v-465q0 -67 -32.5 -123t-95.5 -89.5t-149 -33.5q-88 0 -151.5 33zM238.5 809.5q-46.5 40.5 -46.5 105.5v13h72v-13q0 -37 26.5 -60t67.5 -23t66.5 23t25.5 60v13h72
v-13q0 -65 -45.5 -105.5t-118.5 -40.5t-119.5 40.5z" />
    <glyph glyph-name="Ucircumflex" unicode="&#xdb;" horiz-adv-x="716" 
d="M208.5 22q-63.5 33 -96.5 89t-33 124v465h84v-463q0 -80 55.5 -125t139.5 -45t139.5 45t55.5 125v463h84v-465q0 -67 -32.5 -123t-95.5 -89.5t-149 -33.5q-88 0 -151.5 33zM357 894l-153 -143l-51 48l175 160h59l175 -160l-51 -48z" />
    <glyph glyph-name="Udieresis" unicode="&#xdc;" horiz-adv-x="716" 
d="M208.5 22q-63.5 33 -96.5 89t-33 124v465h84v-463q0 -80 55.5 -125t139.5 -45t139.5 45t55.5 125v463h84v-465q0 -67 -32.5 -123t-95.5 -89.5t-149 -33.5q-88 0 -151.5 33zM210.5 783.5q-18.5 18.5 -18.5 44.5t18.5 44t44.5 18t44 -18t18 -44t-18 -44.5t-44 -18.5
t-44.5 18.5zM416.5 783.5q-18.5 18.5 -18.5 44.5t18.5 44t44.5 18t44 -18t18 -44t-18 -44.5t-44 -18.5t-44.5 18.5z" />
    <glyph glyph-name="Ugrave" unicode="&#xd9;" horiz-adv-x="716" 
d="M208.5 22q-63.5 33 -96.5 89t-33 124v465h84v-463q0 -80 55.5 -125t139.5 -45t139.5 45t55.5 125v463h84v-465q0 -67 -32.5 -123t-95.5 -89.5t-149 -33.5q-88 0 -151.5 33zM425 792l-47 -52l-267 220l47 52z" />
    <glyph glyph-name="Uhungarumlaut" unicode="&#x170;" horiz-adv-x="716" 
d="M208.5 22q-63.5 33 -96.5 89t-33 124v465h84v-463q0 -80 55.5 -125t139.5 -45t139.5 45t55.5 125v463h84v-465q0 -67 -32.5 -123t-95.5 -89.5t-149 -33.5q-88 0 -151.5 33zM513 1004l-206 -260l-62 36l208 259zM647 985l-206 -260l-62 36l208 259z" />
    <glyph glyph-name="Umacron" unicode="&#x16a;" horiz-adv-x="716" 
d="M208.5 22q-63.5 33 -96.5 89t-33 124v465h84v-463q0 -80 55.5 -125t139.5 -45t139.5 45t55.5 125v463h84v-465q0 -67 -32.5 -123t-95.5 -89.5t-149 -33.5q-88 0 -151.5 33zM540 808h-364v67h364v-67z" />
    <glyph glyph-name="Uogonek" unicode="&#x172;" horiz-adv-x="716" 
d="M553 700h84v-465q0 -74 -39 -134t-110 -89q-40 -26 -61 -53t-21 -51q0 -18 12 -28t33 -10q20 0 45 9l11 -67q-30 -11 -64 -11q-48 0 -76 23.5t-28 61.5q0 25 13.5 52.5t38.5 51.5q-11 -1 -33 -1q-87 0 -150.5 33t-96 89t-32.5 124v465h84v-463q0 -80 55.5 -125t139.5 -45
t139.5 45t55.5 125v463z" />
    <glyph glyph-name="Uring" unicode="&#x16e;" horiz-adv-x="716" 
d="M208.5 22q-63.5 33 -96.5 89t-33 124v465h84v-463q0 -80 55.5 -125t139.5 -45t139.5 45t55.5 125v463h84v-465q0 -67 -32.5 -123t-95.5 -89.5t-149 -33.5q-88 0 -151.5 33zM286.5 774q-28.5 27 -28.5 68t28.5 68t71.5 27t71.5 -27t28.5 -68t-28.5 -68t-71.5 -27t-71.5 27
zM394 806q14 14 14 36t-14 36t-36 14t-36 -14t-14 -36t14 -36t36 -14t36 14z" />
    <glyph glyph-name="uni01D3" unicode="&#x1d3;" horiz-adv-x="716" 
d="M208.5 22q-63.5 33 -96.5 89t-33 124v465h84v-463q0 -80 55.5 -125t139.5 -45t139.5 45t55.5 125v463h84v-465q0 -67 -32.5 -123t-95.5 -89.5t-149 -33.5q-88 0 -151.5 33zM387 766h-59l-175 160l51 48l153 -143l154 143l51 -48z" />
    <glyph glyph-name="uni01D7" unicode="&#x1d7;" horiz-adv-x="716" 
d="M208.5 22q-63.5 33 -96.5 89t-33 124v465h84v-463q0 -80 55.5 -125t139.5 -45t139.5 45t55.5 125v463h84v-465q0 -67 -32.5 -123t-95.5 -89.5t-149 -33.5q-88 0 -151.5 33zM210.5 783.5q-18.5 18.5 -18.5 44.5t18.5 44t44.5 18t44 -18t18 -44t-18 -44.5t-44 -18.5
t-44.5 18.5zM416.5 783.5q-18.5 18.5 -18.5 44.5t18.5 44t44.5 18t44 -18t18 -44t-18 -44.5t-44 -18.5t-44.5 18.5zM605 1155l-267 -220l-47 52l267 220z" />
    <glyph glyph-name="uni01D9" unicode="&#x1d9;" horiz-adv-x="716" 
d="M208.5 22q-63.5 33 -96.5 89t-33 124v465h84v-463q0 -80 55.5 -125t139.5 -45t139.5 45t55.5 125v463h84v-465q0 -67 -32.5 -123t-95.5 -89.5t-149 -33.5q-88 0 -151.5 33zM210.5 783.5q-18.5 18.5 -18.5 44.5t18.5 44t44.5 18t44 -18t18 -44t-18 -44.5t-44 -18.5
t-44.5 18.5zM416.5 783.5q-18.5 18.5 -18.5 44.5t18.5 44t44.5 18t44 -18t18 -44t-18 -44.5t-44 -18.5t-44.5 18.5zM387 961h-59l-175 160l51 48l153 -143l154 143l51 -48z" />
    <glyph glyph-name="uni01DB" unicode="&#x1db;" horiz-adv-x="716" 
d="M208.5 22q-63.5 33 -96.5 89t-33 124v465h84v-463q0 -80 55.5 -125t139.5 -45t139.5 45t55.5 125v463h84v-465q0 -67 -32.5 -123t-95.5 -89.5t-149 -33.5q-88 0 -151.5 33zM210.5 783.5q-18.5 18.5 -18.5 44.5t18.5 44t44.5 18t44 -18t18 -44t-18 -44.5t-44 -18.5
t-44.5 18.5zM416.5 783.5q-18.5 18.5 -18.5 44.5t18.5 44t44.5 18t44 -18t18 -44t-18 -44.5t-44 -18.5t-44.5 18.5zM425 987l-47 -52l-267 220l47 52z" />
    <glyph glyph-name="uni01D5" unicode="&#x1d5;" horiz-adv-x="716" 
d="M208.5 22q-63.5 33 -96.5 89t-33 124v465h84v-463q0 -80 55.5 -125t139.5 -45t139.5 45t55.5 125v463h84v-465q0 -67 -32.5 -123t-95.5 -89.5t-149 -33.5q-88 0 -151.5 33zM210.5 783.5q-18.5 18.5 -18.5 44.5t18.5 44t44.5 18t44 -18t18 -44t-18 -44.5t-44 -18.5
t-44.5 18.5zM416.5 783.5q-18.5 18.5 -18.5 44.5t18.5 44t44.5 18t44 -18t18 -44t-18 -44.5t-44 -18.5t-44.5 18.5zM540 1003h-364v67h364v-67z" />
    <glyph glyph-name="V" unicode="V" horiz-adv-x="666" 
d="M382 0h-90l-272 700h90l227 -584l220 584h89z" />
    <glyph glyph-name="W" unicode="W" horiz-adv-x="946" 
d="M312 0h-94l-198 700h87l162 -574l162 574h82l164 -576l162 576h87l-198 -700h-94l-162 570z" />
    <glyph glyph-name="Wacute" unicode="&#x1e82;" horiz-adv-x="946" 
d="M312 0h-94l-198 700h87l162 -574l162 574h82l164 -576l162 576h87l-198 -700h-94l-162 570zM719 960l-267 -220l-47 52l267 220z" />
    <glyph glyph-name="Wcircumflex" unicode="&#x174;" horiz-adv-x="946" 
d="M312 0h-94l-198 700h87l162 -574l162 574h82l164 -576l162 576h87l-198 -700h-94l-162 570zM471 894l-153 -143l-51 48l175 160h59l175 -160l-51 -48z" />
    <glyph glyph-name="Wdieresis" unicode="&#x1e84;" horiz-adv-x="946" 
d="M312 0h-94l-198 700h87l162 -574l162 574h82l164 -576l162 576h87l-198 -700h-94l-162 570zM324.5 783.5q-18.5 18.5 -18.5 44.5t18.5 44t44.5 18t44 -18t18 -44t-18 -44.5t-44 -18.5t-44.5 18.5zM530.5 783.5q-18.5 18.5 -18.5 44.5t18.5 44t44.5 18t44 -18t18 -44
t-18 -44.5t-44 -18.5t-44.5 18.5z" />
    <glyph glyph-name="Wgrave" unicode="&#x1e80;" horiz-adv-x="946" 
d="M312 0h-94l-198 700h87l162 -574l162 574h82l164 -576l162 576h87l-198 -700h-94l-162 570zM539 792l-47 -52l-267 220l47 52z" />
    <glyph glyph-name="X" unicode="X" horiz-adv-x="694" 
d="M132 0h-102l266 352l-258 348h102l208 -282l207 282h102l-256 -346l263 -354h-102l-213 288z" />
    <glyph glyph-name="Y" unicode="Y" horiz-adv-x="651" 
d="M367 0h-84v309l-266 391h99l210 -311l209 311h99l-267 -391v-309z" />
    <glyph glyph-name="Yacute" unicode="&#xdd;" horiz-adv-x="651" 
d="M367 0h-84v309l-266 391h99l210 -311l209 311h99l-267 -391v-309zM572 960l-267 -220l-47 52l267 220z" />
    <glyph glyph-name="Ycircumflex" unicode="&#x176;" horiz-adv-x="651" 
d="M367 0h-84v309l-266 391h99l210 -311l209 311h99l-267 -391v-309zM325 914l-167 -155l-51 47l189 173h59l188 -172l-51 -48z" />
    <glyph glyph-name="Ydieresis" unicode="&#x178;" horiz-adv-x="651" 
d="M367 0h-84v309l-266 391h99l210 -311l209 311h99l-267 -391v-309zM177.5 783.5q-18.5 18.5 -18.5 44.5t18.5 44t44.5 18t44 -18t18 -44t-18 -44.5t-44 -18.5t-44.5 18.5zM383.5 783.5q-18.5 18.5 -18.5 44.5t18.5 44t44.5 18t44 -18t18 -44t-18 -44.5t-44 -18.5
t-44.5 18.5z" />
    <glyph glyph-name="Ygrave" unicode="&#x1ef2;" horiz-adv-x="651" 
d="M367 0h-84v309l-266 391h99l210 -311l209 311h99l-267 -391v-309zM392 792l-47 -52l-267 220l47 52z" />
    <glyph glyph-name="Z" unicode="Z" horiz-adv-x="616" 
d="M564 0h-512v77l403 546h-385v77h484v-77l-403 -546h413v-77z" />
    <glyph glyph-name="Zacute" unicode="&#x179;" horiz-adv-x="616" 
d="M564 0h-512v77l403 546h-385v77h484v-77l-403 -546h413v-77zM553 960l-267 -220l-47 52l267 220z" />
    <glyph glyph-name="Zcaron" unicode="&#x17d;" horiz-adv-x="616" 
d="M564 0h-512v77l403 546h-385v77h484v-77l-403 -546h413v-77zM335 766h-59l-175 160l51 48l153 -143l154 143l51 -48z" />
    <glyph glyph-name="Zdotaccent" unicode="&#x17b;" horiz-adv-x="616" 
d="M564 0h-512v77l403 546h-385v77h484v-77l-403 -546h413v-77zM261 783q-18 18 -18 45q0 26 18 44t45 18t45 -18t18 -44q0 -27 -18 -45t-45 -18t-45 18z" />
    <glyph glyph-name="a" unicode="a" horiz-adv-x="581" 
d="M95.5 35q-53.5 43 -53.5 116q0 57 31.5 89.5t79 46t113.5 20.5l33 3q63 6 90.5 14t28.5 33q-1 50 -38.5 82t-97.5 32q-58 0 -98.5 -29.5t-47.5 -76.5h-82q5 51 36 91.5t81.5 63t112.5 22.5q65 0 113.5 -24t75 -67t26.5 -99v-258q0 -26 27 -26h30v-68h-47q-43 0 -65 19
t-22 56v16q-24 -47 -70 -73t-113 -26q-90 0 -143.5 43zM371.5 105.5q46.5 42.5 46.5 108.5v69q-15 -21 -49 -29t-98 -15q-47 -5 -76.5 -12t-49.5 -24.5t-20 -49.5q0 -41 34.5 -65.5t91.5 -24.5q74 0 120.5 42.5z" />
    <glyph glyph-name="aacute" unicode="&#xe1;" horiz-adv-x="581" 
d="M95.5 35q-53.5 43 -53.5 116q0 57 31.5 89.5t79 46t113.5 20.5l33 3q63 6 90.5 14t28.5 33q-1 50 -38.5 82t-97.5 32q-58 0 -98.5 -29.5t-47.5 -76.5h-82q5 51 36 91.5t81.5 63t112.5 22.5q65 0 113.5 -24t75 -67t26.5 -99v-258q0 -26 27 -26h30v-68h-47q-43 0 -65 19
t-22 56v16q-24 -47 -70 -73t-113 -26q-90 0 -143.5 43zM371.5 105.5q46.5 42.5 46.5 108.5v69q-15 -21 -49 -29t-98 -15q-47 -5 -76.5 -12t-49.5 -24.5t-20 -49.5q0 -41 34.5 -65.5t91.5 -24.5q74 0 120.5 42.5zM539 817l-281 -227l-47 52l281 227z" />
    <glyph glyph-name="abreve" unicode="&#x103;" horiz-adv-x="581" 
d="M95.5 35q-53.5 43 -53.5 116q0 57 31.5 89.5t79 46t113.5 20.5l33 3q63 6 90.5 14t28.5 33q-1 50 -38.5 82t-97.5 32q-58 0 -98.5 -29.5t-47.5 -76.5h-82q5 51 36 91.5t81.5 63t112.5 22.5q65 0 113.5 -24t75 -67t26.5 -99v-258q0 -26 27 -26h30v-68h-47q-43 0 -65 19
t-22 56v16q-24 -47 -70 -73t-113 -26q-90 0 -143.5 43zM371.5 105.5q46.5 42.5 46.5 108.5v69q-15 -21 -49 -29t-98 -15q-47 -5 -76.5 -12t-49.5 -24.5t-20 -49.5q0 -41 34.5 -65.5t91.5 -24.5q74 0 120.5 42.5zM158.5 649.5q-46.5 40.5 -46.5 105.5v13h72v-13
q0 -37 26.5 -60t67.5 -23t66.5 23t25.5 60v13h72v-13q0 -65 -45.5 -105.5t-118.5 -40.5t-119.5 40.5z" />
    <glyph glyph-name="acircumflex" unicode="&#xe2;" horiz-adv-x="581" 
d="M95.5 35q-53.5 43 -53.5 116q0 57 31.5 89.5t79 46t113.5 20.5l33 3q63 6 90.5 14t28.5 33q-1 50 -38.5 82t-97.5 32q-58 0 -98.5 -29.5t-47.5 -76.5h-82q5 51 36 91.5t81.5 63t112.5 22.5q65 0 113.5 -24t75 -67t26.5 -99v-258q0 -26 27 -26h30v-68h-47q-43 0 -65 19
t-22 56v16q-24 -47 -70 -73t-113 -26q-90 0 -143.5 43zM371.5 105.5q46.5 42.5 46.5 108.5v69q-15 -21 -49 -29t-98 -15q-47 -5 -76.5 -12t-49.5 -24.5t-20 -49.5q0 -41 34.5 -65.5t91.5 -24.5q74 0 120.5 42.5zM278 744l-167 -155l-51 47l189 173h59l188 -172l-51 -48z" />
    <glyph glyph-name="adieresis" unicode="&#xe4;" horiz-adv-x="581" 
d="M95.5 35q-53.5 43 -53.5 116q0 57 31.5 89.5t79 46t113.5 20.5l33 3q63 6 90.5 14t28.5 33q-1 50 -38.5 82t-97.5 32q-58 0 -98.5 -29.5t-47.5 -76.5h-82q5 51 36 91.5t81.5 63t112.5 22.5q65 0 113.5 -24t75 -67t26.5 -99v-258q0 -26 27 -26h30v-68h-47q-43 0 -65 19
t-22 56v16q-24 -47 -70 -73t-113 -26q-90 0 -143.5 43zM371.5 105.5q46.5 42.5 46.5 108.5v69q-15 -21 -49 -29t-98 -15q-47 -5 -76.5 -12t-49.5 -24.5t-20 -49.5q0 -41 34.5 -65.5t91.5 -24.5q74 0 120.5 42.5zM130.5 623.5q-18.5 18.5 -18.5 44.5t18.5 44t44.5 18t44 -18
t18 -44t-18 -44.5t-44 -18.5t-44.5 18.5zM336.5 623.5q-18.5 18.5 -18.5 44.5t18.5 44t44.5 18t44 -18t18 -44t-18 -44.5t-44 -18.5t-44.5 18.5z" />
    <glyph glyph-name="agrave" unicode="&#xe0;" horiz-adv-x="581" 
d="M95.5 35q-53.5 43 -53.5 116q0 57 31.5 89.5t79 46t113.5 20.5l33 3q63 6 90.5 14t28.5 33q-1 50 -38.5 82t-97.5 32q-58 0 -98.5 -29.5t-47.5 -76.5h-82q5 51 36 91.5t81.5 63t112.5 22.5q65 0 113.5 -24t75 -67t26.5 -99v-258q0 -26 27 -26h30v-68h-47q-43 0 -65 19
t-22 56v16q-24 -47 -70 -73t-113 -26q-90 0 -143.5 43zM371.5 105.5q46.5 42.5 46.5 108.5v69q-15 -21 -49 -29t-98 -15q-47 -5 -76.5 -12t-49.5 -24.5t-20 -49.5q0 -41 34.5 -65.5t91.5 -24.5q74 0 120.5 42.5zM345 642l-47 -52l-281 227l47 52z" />
    <glyph glyph-name="amacron" unicode="&#x101;" horiz-adv-x="581" 
d="M95.5 35q-53.5 43 -53.5 116q0 57 31.5 89.5t79 46t113.5 20.5l33 3q63 6 90.5 14t28.5 33q-1 50 -38.5 82t-97.5 32q-58 0 -98.5 -29.5t-47.5 -76.5h-82q5 51 36 91.5t81.5 63t112.5 22.5q65 0 113.5 -24t75 -67t26.5 -99v-258q0 -26 27 -26h30v-68h-47q-43 0 -65 19
t-22 56v16q-24 -47 -70 -73t-113 -26q-90 0 -143.5 43zM371.5 105.5q46.5 42.5 46.5 108.5v69q-15 -21 -49 -29t-98 -15q-47 -5 -76.5 -12t-49.5 -24.5t-20 -49.5q0 -41 34.5 -65.5t91.5 -24.5q74 0 120.5 42.5zM460 636h-364v67h364v-67z" />
    <glyph glyph-name="aogonek" unicode="&#x105;" horiz-adv-x="581" 
d="M574 -201q-30 -11 -64 -11q-48 0 -76 23.5t-28 61.5q0 32 21 66.5t60 61.5q-32 4 -48.5 23t-16.5 51v16q-24 -47 -70 -73t-113 -26q-90 0 -143.5 43t-53.5 116q0 57 31.5 89.5t79 46t113.5 20.5l33 3q63 6 90.5 14t28.5 33q-1 50 -38.5 82t-97.5 32q-58 0 -98.5 -29.5
t-47.5 -76.5h-82q5 51 36 91.5t81.5 63t112.5 22.5q65 0 113.5 -24t75 -67t26.5 -99v-258q0 -26 27 -26h30v-68q-41 -27 -62 -54t-21 -51q0 -18 12 -28t33 -10q20 0 45 9zM418 283q-15 -21 -49 -29t-98 -15q-47 -5 -76.5 -12t-49.5 -24.5t-20 -49.5q0 -41 34.5 -65.5
t91.5 -24.5q74 0 120.5 42.5t46.5 108.5v69z" />
    <glyph glyph-name="aring" unicode="&#xe5;" horiz-adv-x="581" 
d="M95.5 35q-53.5 43 -53.5 116q0 57 31.5 89.5t79 46t113.5 20.5l33 3q63 6 90.5 14t28.5 33q-1 50 -38.5 82t-97.5 32q-58 0 -98.5 -29.5t-47.5 -76.5h-82q5 51 36 91.5t81.5 63t112.5 22.5q65 0 113.5 -24t75 -67t26.5 -99v-258q0 -26 27 -26h30v-68h-47q-43 0 -65 19
t-22 56v16q-24 -47 -70 -73t-113 -26q-90 0 -143.5 43zM371.5 105.5q46.5 42.5 46.5 108.5v69q-15 -21 -49 -29t-98 -15q-47 -5 -76.5 -12t-49.5 -24.5t-20 -49.5q0 -41 34.5 -65.5t91.5 -24.5q74 0 120.5 42.5zM206.5 614q-28.5 27 -28.5 68t28.5 68t71.5 27t71.5 -27
t28.5 -68t-28.5 -68t-71.5 -27t-71.5 27zM310 650q13 13 13 32q0 20 -13 32.5t-32 12.5q-20 0 -32.5 -12.5t-12.5 -32.5q0 -19 12.5 -32t32.5 -13q19 0 32 13z" />
    <glyph glyph-name="uni01CE" unicode="&#x1ce;" horiz-adv-x="581" 
d="M95.5 35q-53.5 43 -53.5 116q0 57 31.5 89.5t79 46t113.5 20.5l33 3q63 6 90.5 14t28.5 33q-1 50 -38.5 82t-97.5 32q-58 0 -98.5 -29.5t-47.5 -76.5h-82q5 51 36 91.5t81.5 63t112.5 22.5q65 0 113.5 -24t75 -67t26.5 -99v-258q0 -26 27 -26h30v-68h-47q-43 0 -65 19
t-22 56v16q-24 -47 -70 -73t-113 -26q-90 0 -143.5 43zM371.5 105.5q46.5 42.5 46.5 108.5v69q-15 -21 -49 -29t-98 -15q-47 -5 -76.5 -12t-49.5 -24.5t-20 -49.5q0 -41 34.5 -65.5t91.5 -24.5q74 0 120.5 42.5zM308 607h-59l-189 173l51 47l167 -155l167 155l51 -48z" />
    <glyph glyph-name="atilde" unicode="&#xe3;" horiz-adv-x="581" 
d="M95.5 35q-53.5 43 -53.5 116q0 57 31.5 89.5t79 46t113.5 20.5l33 3q63 6 90.5 14t28.5 33q-1 50 -38.5 82t-97.5 32q-58 0 -98.5 -29.5t-47.5 -76.5h-82q5 51 36 91.5t81.5 63t112.5 22.5q65 0 113.5 -24t75 -67t26.5 -99v-258q0 -26 27 -26h30v-68h-47q-43 0 -65 19
t-22 56v16q-24 -47 -70 -73t-113 -26q-90 0 -143.5 43zM371.5 105.5q46.5 42.5 46.5 108.5v69q-15 -21 -49 -29t-98 -15q-47 -5 -76.5 -12t-49.5 -24.5t-20 -49.5q0 -41 34.5 -65.5t91.5 -24.5q74 0 120.5 42.5zM316.5 651.5q-24.5 12.5 -53.5 34.5q-22 16 -35 23.5t-25 7.5
q-19 0 -30.5 -20t-11.5 -52h-68q0 61 27 99t71 38q26 0 47.5 -11.5t52.5 -33.5q23 -17 37 -25t28 -8q18 0 28.5 17t10.5 52h68q0 -63 -25 -98.5t-69 -35.5q-28 0 -52.5 12.5z" />
    <glyph glyph-name="ae" unicode="&#xe6;" horiz-adv-x="953" 
d="M535 28.5q-61 39.5 -92 109.5q-18 -69 -69.5 -107.5t-134.5 -38.5q-90 0 -143.5 43t-53.5 116q0 57 31.5 89.5t79 46t113.5 20.5l33 3q63 6 90.5 14t28.5 33q-1 50 -38.5 82t-97.5 32q-58 0 -98.5 -29.5t-47.5 -76.5h-82q5 51 36 91.5t81.5 63t112.5 22.5q66 0 115 -25
t75 -69q35 46 85.5 70t109.5 24q110 0 175.5 -71t67.5 -197v-23h-411q4 -86 51.5 -138t126.5 -52q56 0 95 27.5t55 78.5h81q-18 -82 -79.5 -130t-151.5 -48q-83 0 -144 39.5zM825 320q-11 70 -52 110t-104 40t-106.5 -39.5t-56.5 -110.5h319zM371.5 105.5
q46.5 42.5 46.5 108.5v69q-15 -21 -49 -29t-98 -15q-47 -5 -76.5 -12t-49.5 -24.5t-20 -49.5q0 -41 34.5 -65.5t91.5 -24.5q74 0 120.5 42.5z" />
    <glyph glyph-name="a.ss02" horiz-adv-x="616" 
d="M157 24.5q-55 35.5 -85.5 98.5t-30.5 145q0 80 30.5 142.5t85 97t124.5 34.5q63 0 114 -27.5t79 -75.5l8 91h66v-530h-82v88q-28 -46 -76 -72.5t-108 -26.5q-70 0 -125 35.5zM384 87.5q39 26.5 60.5 74t21.5 108.5q0 59 -21 104.5t-59 71t-86 25.5q-50 0 -89.5 -25.5
t-61.5 -72t-22 -105.5q0 -60 21.5 -107t59.5 -73.5t87 -26.5q50 0 89 26.5z" />
    <glyph glyph-name="aacute.ss02" horiz-adv-x="616" 
d="M157 24.5q-55 35.5 -85.5 98.5t-30.5 145q0 80 30.5 142.5t85 97t124.5 34.5q63 0 114 -27.5t79 -75.5l8 91h66v-530h-82v88q-28 -46 -76 -72.5t-108 -26.5q-70 0 -125 35.5zM384 87.5q39 26.5 60.5 74t21.5 108.5q0 59 -21 104.5t-59 71t-86 25.5q-50 0 -89.5 -25.5
t-61.5 -72t-22 -105.5q0 -60 21.5 -107t59.5 -73.5t87 -26.5q50 0 89 26.5zM566 817l-281 -227l-47 52l281 227z" />
    <glyph glyph-name="abreve.ss02" horiz-adv-x="616" 
d="M157 24.5q-55 35.5 -85.5 98.5t-30.5 145q0 80 30.5 142.5t85 97t124.5 34.5q63 0 114 -27.5t79 -75.5l8 91h66v-530h-82v88q-28 -46 -76 -72.5t-108 -26.5q-70 0 -125 35.5zM384 87.5q39 26.5 60.5 74t21.5 108.5q0 59 -21 104.5t-59 71t-86 25.5q-50 0 -89.5 -25.5
t-61.5 -72t-22 -105.5q0 -60 21.5 -107t59.5 -73.5t87 -26.5q50 0 89 26.5zM185.5 649.5q-46.5 40.5 -46.5 105.5v13h72v-13q0 -37 26.5 -60t67.5 -23t66.5 23t25.5 60v13h72v-13q0 -65 -45.5 -105.5t-118.5 -40.5t-119.5 40.5z" />
    <glyph glyph-name="acircumflex.ss02" horiz-adv-x="616" 
d="M157 24.5q-55 35.5 -85.5 98.5t-30.5 145q0 80 30.5 142.5t85 97t124.5 34.5q63 0 114 -27.5t79 -75.5l8 91h66v-530h-82v88q-28 -46 -76 -72.5t-108 -26.5q-70 0 -125 35.5zM384 87.5q39 26.5 60.5 74t21.5 108.5q0 59 -21 104.5t-59 71t-86 25.5q-50 0 -89.5 -25.5
t-61.5 -72t-22 -105.5q0 -60 21.5 -107t59.5 -73.5t87 -26.5q50 0 89 26.5zM305 744l-167 -155l-51 47l189 173h59l188 -172l-51 -48z" />
    <glyph glyph-name="adieresis.ss02" horiz-adv-x="616" 
d="M157 24.5q-55 35.5 -85.5 98.5t-30.5 145q0 80 30.5 142.5t85 97t124.5 34.5q63 0 114 -27.5t79 -75.5l8 91h66v-530h-82v88q-28 -46 -76 -72.5t-108 -26.5q-70 0 -125 35.5zM384 87.5q39 26.5 60.5 74t21.5 108.5q0 59 -21 104.5t-59 71t-86 25.5q-50 0 -89.5 -25.5
t-61.5 -72t-22 -105.5q0 -60 21.5 -107t59.5 -73.5t87 -26.5q50 0 89 26.5zM157.5 623.5q-18.5 18.5 -18.5 44.5t18.5 44t44.5 18t44 -18t18 -44t-18 -44.5t-44 -18.5t-44.5 18.5zM363.5 623.5q-18.5 18.5 -18.5 44.5t18.5 44t44.5 18t44 -18t18 -44t-18 -44.5t-44 -18.5
t-44.5 18.5z" />
    <glyph glyph-name="agrave.ss02" horiz-adv-x="616" 
d="M157 24.5q-55 35.5 -85.5 98.5t-30.5 145q0 80 30.5 142.5t85 97t124.5 34.5q63 0 114 -27.5t79 -75.5l8 91h66v-530h-82v88q-28 -46 -76 -72.5t-108 -26.5q-70 0 -125 35.5zM384 87.5q39 26.5 60.5 74t21.5 108.5q0 59 -21 104.5t-59 71t-86 25.5q-50 0 -89.5 -25.5
t-61.5 -72t-22 -105.5q0 -60 21.5 -107t59.5 -73.5t87 -26.5q50 0 89 26.5zM372 642l-47 -52l-281 227l47 52z" />
    <glyph glyph-name="amacron.ss02" horiz-adv-x="616" 
d="M157 24.5q-55 35.5 -85.5 98.5t-30.5 145q0 80 30.5 142.5t85 97t124.5 34.5q63 0 114 -27.5t79 -75.5l8 91h66v-530h-82v88q-28 -46 -76 -72.5t-108 -26.5q-70 0 -125 35.5zM384 87.5q39 26.5 60.5 74t21.5 108.5q0 59 -21 104.5t-59 71t-86 25.5q-50 0 -89.5 -25.5
t-61.5 -72t-22 -105.5q0 -60 21.5 -107t59.5 -73.5t87 -26.5q50 0 89 26.5zM487 636h-364v67h364v-67z" />
    <glyph glyph-name="aogonek.ss02" horiz-adv-x="616" 
d="M559 -201q-30 -11 -64 -11q-48 0 -76 23.5t-28 61.5q0 32 20.5 66t58.5 61h-4v88q-28 -46 -76 -72.5t-108 -26.5q-70 0 -125 35.5t-85.5 98.5t-30.5 145q0 80 30.5 142.5t85 97t124.5 34.5q63 0 114 -27.5t79 -75.5l8 91h66v-530h-7q-41 -27 -62 -54t-21 -51
q0 -18 12 -28t33 -10q20 0 45 9zM384 87.5q39 26.5 60.5 74t21.5 108.5q0 59 -21 104.5t-59 71t-86 25.5q-50 0 -89.5 -25.5t-61.5 -72t-22 -105.5q0 -60 21.5 -107t59.5 -73.5t87 -26.5q50 0 89 26.5z" />
    <glyph glyph-name="aring.ss02" horiz-adv-x="616" 
d="M157 24.5q-55 35.5 -85.5 98.5t-30.5 145q0 80 30.5 142.5t85 97t124.5 34.5q63 0 114 -27.5t79 -75.5l8 91h66v-530h-82v88q-28 -46 -76 -72.5t-108 -26.5q-70 0 -125 35.5zM384 87.5q39 26.5 60.5 74t21.5 108.5q0 59 -21 104.5t-59 71t-86 25.5q-50 0 -89.5 -25.5
t-61.5 -72t-22 -105.5q0 -60 21.5 -107t59.5 -73.5t87 -26.5q50 0 89 26.5zM233.5 614q-28.5 27 -28.5 68t28.5 68t71.5 27t71.5 -27t28.5 -68t-28.5 -68t-71.5 -27t-71.5 27zM337 650q13 13 13 32q0 20 -13 32.5t-32 12.5q-20 0 -32.5 -12.5t-12.5 -32.5q0 -19 12.5 -32
t32.5 -13q19 0 32 13z" />
    <glyph glyph-name="atilde.ss02" horiz-adv-x="616" 
d="M157 24.5q-55 35.5 -85.5 98.5t-30.5 145q0 80 30.5 142.5t85 97t124.5 34.5q63 0 114 -27.5t79 -75.5l8 91h66v-530h-82v88q-28 -46 -76 -72.5t-108 -26.5q-70 0 -125 35.5zM384 87.5q39 26.5 60.5 74t21.5 108.5q0 59 -21 104.5t-59 71t-86 25.5q-50 0 -89.5 -25.5
t-61.5 -72t-22 -105.5q0 -60 21.5 -107t59.5 -73.5t87 -26.5q50 0 89 26.5zM343.5 651.5q-24.5 12.5 -53.5 34.5q-22 16 -35 23.5t-25 7.5q-19 0 -30.5 -20t-11.5 -52h-68q0 61 27 99t71 38q26 0 47.5 -11.5t52.5 -33.5q23 -17 37 -25t28 -8q18 0 28.5 17t10.5 52h68
q0 -63 -25 -98.5t-69 -35.5q-28 0 -52.5 12.5z" />
    <glyph glyph-name="b" unicode="b" horiz-adv-x="619" 
d="M224 19q-51 30 -78 82l-9 -101h-66v750h83v-303q30 44 78.5 69.5t107.5 25.5q69 0 123.5 -34.5t84.5 -97t30 -142.5q0 -81 -30 -144.5t-84.5 -99t-123.5 -35.5q-65 0 -116 30zM412.5 87q37.5 26 58.5 73.5t21 107.5q0 59 -21 105t-58.5 71.5t-86.5 25.5q-50 0 -89 -25
t-61 -70t-22 -103q0 -61 22 -109t61.5 -75t89.5 -27q48 0 85.5 26z" />
    <glyph glyph-name="c" unicode="c" horiz-adv-x="586" 
d="M162 26q-60 37 -90.5 100.5t-30.5 141.5q0 86 34.5 148t94 94t132.5 32q101 0 166.5 -57.5t76.5 -158.5h-81q-11 67 -54.5 105.5t-109.5 38.5q-79 0 -127 -54.5t-48 -147.5q0 -65 24 -112t65.5 -71t91.5 -24q64 0 105.5 38.5t52.5 107.5h81q-11 -103 -74 -160.5
t-166 -57.5q-83 0 -143 37z" />
    <glyph glyph-name="cacute" unicode="&#x107;" horiz-adv-x="586" 
d="M162 26q-60 37 -90.5 100.5t-30.5 141.5q0 86 34.5 148t94 94t132.5 32q101 0 166.5 -57.5t76.5 -158.5h-81q-11 67 -54.5 105.5t-109.5 38.5q-79 0 -127 -54.5t-48 -147.5q0 -65 24 -112t65.5 -71t91.5 -24q64 0 105.5 38.5t52.5 107.5h81q-11 -103 -74 -160.5
t-166 -57.5q-83 0 -143 37zM561 817l-281 -227l-47 52l281 227z" />
    <glyph glyph-name="ccaron" unicode="&#x10d;" horiz-adv-x="586" 
d="M162 26q-60 37 -90.5 100.5t-30.5 141.5q0 86 34.5 148t94 94t132.5 32q101 0 166.5 -57.5t76.5 -158.5h-81q-11 67 -54.5 105.5t-109.5 38.5q-79 0 -127 -54.5t-48 -147.5q0 -65 24 -112t65.5 -71t91.5 -24q64 0 105.5 38.5t52.5 107.5h81q-11 -103 -74 -160.5
t-166 -57.5q-83 0 -143 37zM330 607h-59l-189 173l51 47l167 -155l167 155l51 -48z" />
    <glyph glyph-name="ccedilla" unicode="&#xe7;" horiz-adv-x="586" 
d="M411.5 99.5q41.5 38.5 52.5 107.5h81q-10 -94 -64 -150.5t-143 -65.5l-67 -203l-68 13l63 190q-71 9 -122 47.5t-77 98t-26 131.5q0 86 34.5 148t94 94t132.5 32q101 0 166.5 -57.5t76.5 -158.5h-81q-11 67 -54.5 105.5t-109.5 38.5q-79 0 -127 -54.5t-48 -147.5
q0 -65 24 -112t65.5 -71t91.5 -24q64 0 105.5 38.5z" />
    <glyph glyph-name="cdotaccent" unicode="&#x10b;" horiz-adv-x="586" 
d="M162 26q-60 37 -90.5 100.5t-30.5 141.5q0 86 34.5 148t94 94t132.5 32q101 0 166.5 -57.5t76.5 -158.5h-81q-11 67 -54.5 105.5t-109.5 38.5q-79 0 -127 -54.5t-48 -147.5q0 -65 24 -112t65.5 -71t91.5 -24q64 0 105.5 38.5t52.5 107.5h81q-11 -103 -74 -160.5
t-166 -57.5q-83 0 -143 37zM255 623q-18 18 -18 45q0 26 18 44t45 18t45 -18t18 -44q0 -27 -18 -45t-45 -18t-45 18z" />
    <glyph glyph-name="d" unicode="d" horiz-adv-x="620" 
d="M157 24.5q-55 35.5 -85.5 98.5t-30.5 145q0 80 30.5 142.5t85 97t124.5 34.5q59 0 107.5 -24t77.5 -67v299h83v-750h-66l-9 102q-27 -52 -77.5 -82.5t-114.5 -30.5q-70 0 -125 35.5zM384 87.5q39 26.5 60.5 74t21.5 108.5q0 59 -21 104.5t-59 71t-86 25.5
q-50 0 -89.5 -25.5t-61.5 -72t-22 -105.5q0 -60 21.5 -107t59.5 -73.5t87 -26.5q50 0 89 26.5z" />
    <glyph glyph-name="eth" unicode="&#xf0;" horiz-adv-x="587" 
d="M158 21.5q-55 32.5 -86 91t-31 132.5q0 73 30 129.5t83 87.5t120 31q54 0 98 -21t74 -58q-13 51 -45.5 96.5t-83.5 80.5l-181 -70l-27 62l132 51q-56 25 -123 41l18 71q112 -23 200 -75l178 69l27 -61l-141 -55q137 -119 137 -321q0 -96 -31.5 -167t-89 -109t-133.5 -38
q-70 0 -125 32.5zM402 112.5q44 51.5 44 134.5q0 76 -44.5 124.5t-115.5 48.5t-115.5 -49t-44.5 -127q0 -52 20.5 -94t57.5 -65.5t84 -23.5q70 0 114 51.5z" />
    <glyph glyph-name="dcaron" unicode="&#x10f;" horiz-adv-x="708" 
d="M157 24.5q-55 35.5 -85.5 98.5t-30.5 145q0 80 30.5 142.5t85 97t124.5 34.5q59 0 107.5 -24t77.5 -67v299h83v-750h-66l-9 102q-27 -52 -77.5 -82.5t-114.5 -30.5q-70 0 -125 35.5zM708 424h-78v326h78v-326zM384 87.5q39 26.5 60.5 74t21.5 108.5q0 59 -21 104.5
t-59 71t-86 25.5q-50 0 -89.5 -25.5t-61.5 -72t-22 -105.5q0 -60 21.5 -107t59.5 -73.5t87 -26.5q50 0 89 26.5z" />
    <glyph glyph-name="dcroat" unicode="&#x111;" horiz-adv-x="652" 
d="M157 24.5q-55 35.5 -85.5 98.5t-30.5 145q0 80 30.5 142.5t85 97t124.5 34.5q59 0 107.5 -24t77.5 -67v168h-242v67h242v64h83v-64h104v-67h-104v-619h-66l-9 102q-27 -52 -77.5 -82.5t-114.5 -30.5q-70 0 -125 35.5zM384 87.5q39 26.5 60.5 74t21.5 108.5
q0 59 -21 104.5t-59 71t-86 25.5q-50 0 -89.5 -25.5t-61.5 -72t-22 -105.5q0 -60 21.5 -107t59.5 -73.5t87 -26.5q50 0 89 26.5z" />
    <glyph glyph-name="e" unicode="e" horiz-adv-x="576" 
d="M165.5 24q-59.5 35 -92 97.5t-32.5 141.5q0 87 34 150.5t91.5 96t125.5 32.5q110 0 175.5 -71t67.5 -197v-23h-411q4 -86 51.5 -138t126.5 -52q56 0 95 27.5t55 78.5h81q-18 -82 -79.5 -130t-151.5 -48q-77 0 -136.5 35zM448 320q-11 70 -52 110t-104 40t-106.5 -39.5
t-56.5 -110.5h319z" />
    <glyph glyph-name="eacute" unicode="&#xe9;" horiz-adv-x="576" 
d="M165.5 24q-59.5 35 -92 97.5t-32.5 141.5q0 87 34 150.5t91.5 96t125.5 32.5q110 0 175.5 -71t67.5 -197v-23h-411q4 -86 51.5 -138t126.5 -52q56 0 95 27.5t55 78.5h81q-18 -82 -79.5 -130t-151.5 -48q-77 0 -136.5 35zM448 320q-11 70 -52 110t-104 40t-106.5 -39.5
t-56.5 -110.5h319zM551 817l-281 -227l-47 52l281 227z" />
    <glyph glyph-name="ecaron" unicode="&#x11b;" horiz-adv-x="576" 
d="M165.5 24q-59.5 35 -92 97.5t-32.5 141.5q0 87 34 150.5t91.5 96t125.5 32.5q110 0 175.5 -71t67.5 -197v-23h-411q4 -86 51.5 -138t126.5 -52q56 0 95 27.5t55 78.5h81q-18 -82 -79.5 -130t-151.5 -48q-77 0 -136.5 35zM448 320q-11 70 -52 110t-104 40t-106.5 -39.5
t-56.5 -110.5h319zM320 607h-59l-189 173l51 47l167 -155l167 155l51 -48z" />
    <glyph glyph-name="ecircumflex" unicode="&#xea;" horiz-adv-x="576" 
d="M165.5 24q-59.5 35 -92 97.5t-32.5 141.5q0 87 34 150.5t91.5 96t125.5 32.5q110 0 175.5 -71t67.5 -197v-23h-411q4 -86 51.5 -138t126.5 -52q56 0 95 27.5t55 78.5h81q-18 -82 -79.5 -130t-151.5 -48q-77 0 -136.5 35zM448 320q-11 70 -52 110t-104 40t-106.5 -39.5
t-56.5 -110.5h319zM290 744l-167 -155l-51 47l189 173h59l188 -172l-51 -48z" />
    <glyph glyph-name="edieresis" unicode="&#xeb;" horiz-adv-x="576" 
d="M165.5 24q-59.5 35 -92 97.5t-32.5 141.5q0 87 34 150.5t91.5 96t125.5 32.5q110 0 175.5 -71t67.5 -197v-23h-411q4 -86 51.5 -138t126.5 -52q56 0 95 27.5t55 78.5h81q-18 -82 -79.5 -130t-151.5 -48q-77 0 -136.5 35zM448 320q-11 70 -52 110t-104 40t-106.5 -39.5
t-56.5 -110.5h319zM142.5 623.5q-18.5 18.5 -18.5 44.5t18.5 44t44.5 18t44 -18t18 -44t-18 -44.5t-44 -18.5t-44.5 18.5zM348.5 623.5q-18.5 18.5 -18.5 44.5t18.5 44t44.5 18t44 -18t18 -44t-18 -44.5t-44 -18.5t-44.5 18.5z" />
    <glyph glyph-name="edotaccent" unicode="&#x117;" horiz-adv-x="576" 
d="M165.5 24q-59.5 35 -92 97.5t-32.5 141.5q0 87 34 150.5t91.5 96t125.5 32.5q110 0 175.5 -71t67.5 -197v-23h-411q4 -86 51.5 -138t126.5 -52q56 0 95 27.5t55 78.5h81q-18 -82 -79.5 -130t-151.5 -48q-77 0 -136.5 35zM448 320q-11 70 -52 110t-104 40t-106.5 -39.5
t-56.5 -110.5h319zM245 623q-18 18 -18 45q0 26 18 44t45 18t45 -18t18 -44q0 -27 -18 -45t-45 -18t-45 18z" />
    <glyph glyph-name="egrave" unicode="&#xe8;" horiz-adv-x="576" 
d="M165.5 24q-59.5 35 -92 97.5t-32.5 141.5q0 87 34 150.5t91.5 96t125.5 32.5q110 0 175.5 -71t67.5 -197v-23h-411q4 -86 51.5 -138t126.5 -52q56 0 95 27.5t55 78.5h81q-18 -82 -79.5 -130t-151.5 -48q-77 0 -136.5 35zM448 320q-11 70 -52 110t-104 40t-106.5 -39.5
t-56.5 -110.5h319zM357 642l-47 -52l-281 227l47 52z" />
    <glyph glyph-name="emacron" unicode="&#x113;" horiz-adv-x="576" 
d="M165.5 24q-59.5 35 -92 97.5t-32.5 141.5q0 87 34 150.5t91.5 96t125.5 32.5q110 0 175.5 -71t67.5 -197v-23h-411q4 -86 51.5 -138t126.5 -52q56 0 95 27.5t55 78.5h81q-18 -82 -79.5 -130t-151.5 -48q-77 0 -136.5 35zM448 320q-11 70 -52 110t-104 40t-106.5 -39.5
t-56.5 -110.5h319zM472 636h-364v67h364v-67z" />
    <glyph glyph-name="eogonek" unicode="&#x119;" horiz-adv-x="576" 
d="M535 251h-411q4 -86 51.5 -138t126.5 -52q56 0 95 27.5t55 78.5h81q-12 -55 -44 -95t-80 -62q-38 -26 -57 -51.5t-19 -48.5q0 -18 12 -28t33 -10q20 0 45 9l11 -67q-30 -11 -64 -11q-48 0 -76 23.5t-28 61.5q0 25 12.5 51t36.5 50h-13q-77 0 -136.5 35t-92 97.5
t-32.5 141.5q0 87 34 150.5t91.5 96t125.5 32.5q110 0 175.5 -71t67.5 -197v-23zM448 320q-11 70 -52 110t-104 40t-106.5 -39.5t-56.5 -110.5h319z" />
    <glyph glyph-name="f" unicode="f" horiz-adv-x="404" 
d="M127 0v460h-98v70h98v74q0 71 38.5 108.5t112.5 37.5h118v-70h-118q-33 0 -50.5 -19.5t-17.5 -56.5v-74h172v-70h-172v-460h-83z" />
    <glyph glyph-name="g" unicode="g" horiz-adv-x="615" 
d="M125 -163q-66 49 -66 132h83q0 -48 44 -79.5t113 -31.5q80 0 123 43t43 113v86q-29 -42 -76 -66.5t-106 -24.5q-70 0 -125 33.5t-86 93.5t-31 137q0 78 31 139.5t86.5 95.5t124.5 34q63 0 113 -27.5t77 -76.5l9 92h65v-516q0 -67 -29.5 -118t-85 -79.5t-133.5 -28.5
q-108 0 -174 49zM383 105.5q39 24.5 60.5 69t21.5 101.5q0 56 -21.5 100.5t-60.5 69t-88 24.5t-87 -25t-59.5 -69.5t-21.5 -101.5q0 -56 21.5 -100t59.5 -68.5t87 -24.5t88 24.5z" />
    <glyph glyph-name="gbreve" unicode="&#x11f;" horiz-adv-x="615" 
d="M125 -163q-66 49 -66 132h83q0 -48 44 -79.5t113 -31.5q80 0 123 43t43 113v86q-29 -42 -76 -66.5t-106 -24.5q-70 0 -125 33.5t-86 93.5t-31 137q0 78 31 139.5t86.5 95.5t124.5 34q63 0 113 -27.5t77 -76.5l9 92h65v-516q0 -67 -29.5 -118t-85 -79.5t-133.5 -28.5
q-108 0 -174 49zM383 105.5q39 24.5 60.5 69t21.5 101.5q0 56 -21.5 100.5t-60.5 69t-88 24.5t-87 -25t-59.5 -69.5t-21.5 -101.5q0 -56 21.5 -100t59.5 -68.5t87 -24.5t88 24.5zM174.5 649.5q-46.5 40.5 -46.5 105.5v13h72v-13q0 -37 26.5 -60t67.5 -23t66.5 23t25.5 60v13
h72v-13q0 -65 -45.5 -105.5t-118.5 -40.5t-119.5 40.5z" />
    <glyph glyph-name="uni0123" unicode="&#x123;" horiz-adv-x="615" 
d="M253 585l109 334l67 -21l-105 -335zM125 -163q-66 49 -66 132h83q0 -48 44 -79.5t113 -31.5q80 0 123 43t43 113v86q-29 -42 -76 -66.5t-106 -24.5q-70 0 -125 33.5t-86 93.5t-31 137q0 78 31 139.5t86.5 95.5t124.5 34q63 0 113 -27.5t77 -76.5l9 92h65v-516
q0 -67 -29.5 -118t-85 -79.5t-133.5 -28.5q-108 0 -174 49zM383 105.5q39 24.5 60.5 69t21.5 101.5q0 56 -21.5 100.5t-60.5 69t-88 24.5t-87 -25t-59.5 -69.5t-21.5 -101.5q0 -56 21.5 -100t59.5 -68.5t87 -24.5t88 24.5z" />
    <glyph glyph-name="gdotaccent" unicode="&#x121;" horiz-adv-x="615" 
d="M125 -163q-66 49 -66 132h83q0 -48 44 -79.5t113 -31.5q80 0 123 43t43 113v86q-29 -42 -76 -66.5t-106 -24.5q-70 0 -125 33.5t-86 93.5t-31 137q0 78 31 139.5t86.5 95.5t124.5 34q63 0 113 -27.5t77 -76.5l9 92h65v-516q0 -67 -29.5 -118t-85 -79.5t-133.5 -28.5
q-108 0 -174 49zM383 105.5q39 24.5 60.5 69t21.5 101.5q0 56 -21.5 100.5t-60.5 69t-88 24.5t-87 -25t-59.5 -69.5t-21.5 -101.5q0 -56 21.5 -100t59.5 -68.5t87 -24.5t88 24.5zM249 623q-18 18 -18 45q0 26 18 44t45 18t45 -18t18 -44q0 -27 -18 -45t-45 -18t-45 18z" />
    <glyph glyph-name="g.ss03" horiz-adv-x="557" 
d="M94.5 -170.5q-64.5 41.5 -64.5 110.5q0 40 22.5 69.5t63.5 43.5q-41 28 -41 74q0 33 22 57t61 36q-39 25 -60 64.5t-21 82.5q0 45 22 85.5t64.5 65t100.5 24.5q40 0 76 -12h208v-64h-128q44 -49 44 -113q0 -47 -24 -84t-67.5 -58t-99.5 -21q-32 0 -57 6q-32 -4 -50.5 -18
t-18.5 -36q0 -20 15 -32t41 -12h156q74 0 118.5 -36.5t44.5 -98.5q0 -52 -32.5 -92t-90.5 -61.5t-133 -21.5q-107 0 -171.5 41.5zM355.5 289q32.5 30 32.5 77q0 48 -32.5 78.5t-83.5 30.5t-83.5 -30t-32.5 -78t32.5 -78t83.5 -30t83.5 30zM398 -115q48 28 48 75
q0 33 -24.5 51t-66.5 18h-163q-39 0 -63.5 -21t-24.5 -55q0 -45 45 -70.5t122 -25.5q79 0 127 28z" />
    <glyph glyph-name="gbreve.ss03" horiz-adv-x="557" 
d="M94.5 -170.5q-64.5 41.5 -64.5 110.5q0 40 22.5 69.5t63.5 43.5q-41 28 -41 74q0 33 22 57t61 36q-39 25 -60 64.5t-21 82.5q0 45 22 85.5t64.5 65t100.5 24.5q40 0 76 -12h208v-64h-128q44 -49 44 -113q0 -47 -24 -84t-67.5 -58t-99.5 -21q-32 0 -57 6q-32 -4 -50.5 -18
t-18.5 -36q0 -20 15 -32t41 -12h156q74 0 118.5 -36.5t44.5 -98.5q0 -52 -32.5 -92t-90.5 -61.5t-133 -21.5q-107 0 -171.5 41.5zM355.5 289q32.5 30 32.5 77q0 48 -32.5 78.5t-83.5 30.5t-83.5 -30t-32.5 -78t32.5 -78t83.5 -30t83.5 30zM398 -115q48 28 48 75
q0 33 -24.5 51t-66.5 18h-163q-39 0 -63.5 -21t-24.5 -55q0 -45 45 -70.5t122 -25.5q79 0 127 28zM152.5 649.5q-46.5 40.5 -46.5 105.5v13h72v-13q0 -37 26.5 -60t67.5 -23t66.5 23t25.5 60v13h72v-13q0 -65 -45.5 -105.5t-118.5 -40.5t-119.5 40.5z" />
    <glyph glyph-name="uni0123.ss03" horiz-adv-x="557" 
d="M231 585l109 334l67 -21l-105 -335zM94.5 -170.5q-64.5 41.5 -64.5 110.5q0 40 22.5 69.5t63.5 43.5q-41 28 -41 74q0 33 22 57t61 36q-39 25 -60 64.5t-21 82.5q0 45 22 85.5t64.5 65t100.5 24.5q40 0 76 -12h208v-64h-128q44 -49 44 -113q0 -47 -24 -84t-67.5 -58
t-99.5 -21q-32 0 -57 6q-32 -4 -50.5 -18t-18.5 -36q0 -20 15 -32t41 -12h156q74 0 118.5 -36.5t44.5 -98.5q0 -52 -32.5 -92t-90.5 -61.5t-133 -21.5q-107 0 -171.5 41.5zM355.5 289q32.5 30 32.5 77q0 48 -32.5 78.5t-83.5 30.5t-83.5 -30t-32.5 -78t32.5 -78t83.5 -30
t83.5 30zM398 -115q48 28 48 75q0 33 -24.5 51t-66.5 18h-163q-39 0 -63.5 -21t-24.5 -55q0 -45 45 -70.5t122 -25.5q79 0 127 28z" />
    <glyph glyph-name="gdotaccent.ss03" horiz-adv-x="557" 
d="M94.5 -170.5q-64.5 41.5 -64.5 110.5q0 40 22.5 69.5t63.5 43.5q-41 28 -41 74q0 33 22 57t61 36q-39 25 -60 64.5t-21 82.5q0 45 22 85.5t64.5 65t100.5 24.5q40 0 76 -12h208v-64h-128q44 -49 44 -113q0 -47 -24 -84t-67.5 -58t-99.5 -21q-32 0 -57 6q-32 -4 -50.5 -18
t-18.5 -36q0 -20 15 -32t41 -12h156q74 0 118.5 -36.5t44.5 -98.5q0 -52 -32.5 -92t-90.5 -61.5t-133 -21.5q-107 0 -171.5 41.5zM355.5 289q32.5 30 32.5 77q0 48 -32.5 78.5t-83.5 30.5t-83.5 -30t-32.5 -78t32.5 -78t83.5 -30t83.5 30zM398 -115q48 28 48 75
q0 33 -24.5 51t-66.5 18h-163q-39 0 -63.5 -21t-24.5 -55q0 -45 45 -70.5t122 -25.5q79 0 127 28zM227 623q-18 18 -18 45q0 26 18 44t45 18t45 -18t18 -44q0 -27 -18 -45t-45 -18t-45 18z" />
    <glyph glyph-name="h" unicode="h" horiz-adv-x="581" 
d="M71 0v750h83v-288q29 37 75.5 58.5t99.5 21.5q86 0 138 -52t52 -139v-351h-83v348q0 55 -33.5 88t-89.5 33q-73 0 -115.5 -42t-43.5 -105v-322h-83z" />
    <glyph glyph-name="hbar" unicode="&#x127;" horiz-adv-x="616" 
d="M106 0v619h-107v67h107v64h83v-64h235v-67h-235v-157q29 37 75.5 58.5t99.5 21.5q86 0 138 -52t52 -139v-351h-83v348q0 55 -33.5 88t-89.5 33q-73 0 -115.5 -42t-43.5 -105v-322h-83z" />
    <glyph glyph-name="i" unicode="i" horiz-adv-x="219" 
d="M66 637q-18 18 -18 44t18 43.5t44 17.5t43.5 -17.5t17.5 -43.5t-17.5 -44t-43.5 -18t-44 18zM151 0h-83v530h83v-530z" />
    <glyph glyph-name="dotlessi" unicode="&#x131;" horiz-adv-x="220" 
d="M151 0h-83l1 530h83z" />
    <glyph glyph-name="iacute" unicode="&#xed;" horiz-adv-x="220" 
d="M151 0h-83l1 530h83zM372 817l-281 -227l-47 52l281 227z" />
    <glyph glyph-name="icircumflex" unicode="&#xee;" horiz-adv-x="220" 
d="M151 0h-83l1 530h83zM111 744l-167 -155l-51 47l189 173h59l188 -172l-51 -48z" />
    <glyph glyph-name="idieresis" unicode="&#xef;" horiz-adv-x="220" 
d="M151 0h-83l1 530h83zM-36.5 623.5q-18.5 18.5 -18.5 44.5t18.5 44t44.5 18t44 -18t18 -44t-18 -44.5t-44 -18.5t-44.5 18.5zM169.5 623.5q-18.5 18.5 -18.5 44.5t18.5 44t44.5 18t44 -18t18 -44t-18 -44.5t-44 -18.5t-44.5 18.5z" />
    <glyph glyph-name="i.loclTRK" horiz-adv-x="220" 
d="M151 0h-83l1 530h83zM66 623q-18 18 -18 45q0 26 18 44t45 18t45 -18t18 -44q0 -27 -18 -45t-45 -18t-45 18z" />
    <glyph glyph-name="igrave" unicode="&#xec;" horiz-adv-x="220" 
d="M151 0h-83l1 530h83zM178 642l-47 -52l-281 227l47 52z" />
    <glyph glyph-name="imacron" unicode="&#x12b;" horiz-adv-x="220" 
d="M151 0h-83l1 530h83zM293 636h-364v67h364v-67z" />
    <glyph glyph-name="uni01D0" unicode="&#x1d0;" horiz-adv-x="220" 
d="M151 0h-83l1 530h83zM141 607h-59l-189 173l51 47l167 -155l167 155l51 -48z" />
    <glyph glyph-name="iogonek" unicode="&#x12f;" horiz-adv-x="219" 
d="M66 637q-18 18 -18 44t18 43.5t44 17.5t43.5 -17.5t17.5 -43.5t-17.5 -44t-43.5 -18t-44 18zM152 -134l11 -67q-30 -11 -64 -11q-48 0 -76 23.5t-28 61.5q0 32 20.5 66t58.5 61h-6v530h83v-530h-6q-41 -27 -62 -54t-21 -51q0 -18 12 -28t33 -10q20 0 45 9z" />
    <glyph glyph-name="j" unicode="j" horiz-adv-x="219" 
d="M65.5 636.5q-17.5 17.5 -17.5 44.5q0 26 17.5 43.5t44.5 17.5q26 0 43.5 -17.5t17.5 -43.5q0 -27 -17.5 -44.5t-43.5 -17.5q-27 0 -44.5 17.5zM-81 -200v70h74q37 0 56 20.5t19 60.5v579h83v-579q0 -74 -40.5 -112.5t-117.5 -38.5h-74z" />
    <glyph glyph-name="k" unicode="k" horiz-adv-x="543" 
d="M154 0h-83v750h83v-481l258 261h100l-191 -193l220 -337h-97l-180 279l-110 -111v-168z" />
    <glyph glyph-name="uni0137" unicode="&#x137;" horiz-adv-x="543" 
d="M154 0h-83v750h83v-481l258 261h100l-191 -193l220 -337h-97l-180 279l-110 -111v-168zM327 -55l-109 -334l-67 21l105 335z" />
    <glyph glyph-name="l" unicode="l" horiz-adv-x="225" 
d="M154 0h-83v750h83v-750z" />
    <glyph glyph-name="lacute" unicode="&#x13a;" horiz-adv-x="225" 
d="M154 0h-83v750h83v-750zM360 1010l-267 -220l-47 52l267 220z" />
    <glyph glyph-name="lcaron" unicode="&#x13e;" horiz-adv-x="313" 
d="M154 0h-83v750h83v-750zM313 424h-78v326h78v-326z" />
    <glyph glyph-name="uni013C" unicode="&#x13c;" horiz-adv-x="225" 
d="M154 0h-83v750h83v-750zM154 -55l-109 -334l-67 21l105 335z" />
    <glyph glyph-name="lslash" unicode="&#x142;" horiz-adv-x="383" 
d="M233 0h-83v344l-129 -79l-31 54l160 98v333h83v-282l129 79l31 -55l-160 -98v-394z" />
    <glyph glyph-name="m" unicode="m" horiz-adv-x="924" 
d="M68 0v530h66l8 -82q27 43 75.5 68.5t105.5 25.5q59 0 102.5 -28t64.5 -77q26 47 77 76t111 29q55 0 97 -24t64.5 -66.5t22.5 -96.5v-355h-83v352q0 53 -31 85t-84 32q-72 0 -114.5 -42t-43.5 -105v-322h-82v352q0 53 -31 85t-84 32q-72 0 -114.5 -42t-43.5 -105v-322h-83
z" />
    <glyph glyph-name="n" unicode="n" horiz-adv-x="578" 
d="M68 0v530h66l8 -81q27 43 76.5 68t107.5 25q86 0 138 -52t52 -139v-351h-83v348q0 56 -34 88.5t-94 32.5q-69 0 -111 -42t-43 -105v-322h-83z" />
    <glyph glyph-name="nacute" unicode="&#x144;" horiz-adv-x="578" 
d="M68 0v530h66l8 -81q27 43 76.5 68t107.5 25q86 0 138 -52t52 -139v-351h-83v348q0 56 -34 88.5t-94 32.5q-69 0 -111 -42t-43 -105v-322h-83zM560 817l-281 -227l-47 52l281 227z" />
    <glyph glyph-name="ncaron" unicode="&#x148;" horiz-adv-x="578" 
d="M68 0v530h66l8 -81q27 43 76.5 68t107.5 25q86 0 138 -52t52 -139v-351h-83v348q0 56 -34 88.5t-94 32.5q-69 0 -111 -42t-43 -105v-322h-83zM329 607h-59l-189 173l51 47l167 -155l167 155l51 -48z" />
    <glyph glyph-name="uni0146" unicode="&#x146;" horiz-adv-x="578" 
d="M68 0v530h66l8 -81q27 43 76.5 68t107.5 25q86 0 138 -52t52 -139v-351h-83v348q0 56 -34 88.5t-94 32.5q-69 0 -111 -42t-43 -105v-322h-83zM333 -55l-109 -334l-67 21l105 335z" />
    <glyph glyph-name="eng" unicode="&#x14b;" horiz-adv-x="578" 
d="M284 -200v70h74q37 0 56 20.5t19 60.5v397q0 56 -34 88.5t-94 32.5q-69 0 -111 -42t-43 -105v-322h-83v530h66l8 -81q27 43 76.5 68t107.5 25q86 0 138 -52t52 -139v-400q0 -74 -40.5 -112.5t-117.5 -38.5h-74z" />
    <glyph glyph-name="ntilde" unicode="&#xf1;" horiz-adv-x="578" 
d="M68 0v530h66l8 -81q27 43 76.5 68t107.5 25q86 0 138 -52t52 -139v-351h-83v348q0 56 -34 88.5t-94 32.5q-69 0 -111 -42t-43 -105v-322h-83zM337.5 651.5q-24.5 12.5 -53.5 34.5q-22 16 -35 23.5t-25 7.5q-19 0 -30.5 -20t-11.5 -52h-68q0 61 27 99t71 38
q26 0 47.5 -11.5t52.5 -33.5q23 -17 37 -25t28 -8q18 0 28.5 17t10.5 52h68q0 -63 -25 -98.5t-69 -35.5q-28 0 -52.5 12.5z" />
    <glyph glyph-name="o" unicode="o" horiz-adv-x="602" 
d="M159.5 25.5q-58.5 36.5 -88.5 100t-30 144.5q0 86 34.5 147.5t93.5 93t132 31.5q82 0 140.5 -36t89 -98t30.5 -138q0 -89 -33.5 -152.5t-92.5 -96t-134 -32.5q-83 0 -141.5 36.5zM395.5 89q39.5 28 60 75.5t20.5 105.5q0 90 -48 145t-127 55t-127 -55t-48 -145
q0 -66 23.5 -113t63 -71.5t88.5 -24.5q55 0 94.5 28z" />
    <glyph glyph-name="oacute" unicode="&#xf3;" horiz-adv-x="602" 
d="M159.5 25.5q-58.5 36.5 -88.5 100t-30 144.5q0 86 34.5 147.5t93.5 93t132 31.5q82 0 140.5 -36t89 -98t30.5 -138q0 -89 -33.5 -152.5t-92.5 -96t-134 -32.5q-83 0 -141.5 36.5zM395.5 89q39.5 28 60 75.5t20.5 105.5q0 90 -48 145t-127 55t-127 -55t-48 -145
q0 -66 23.5 -113t63 -71.5t88.5 -24.5q55 0 94.5 28zM562 817l-281 -227l-47 52l281 227z" />
    <glyph glyph-name="ocircumflex" unicode="&#xf4;" horiz-adv-x="602" 
d="M159.5 25.5q-58.5 36.5 -88.5 100t-30 144.5q0 86 34.5 147.5t93.5 93t132 31.5q82 0 140.5 -36t89 -98t30.5 -138q0 -89 -33.5 -152.5t-92.5 -96t-134 -32.5q-83 0 -141.5 36.5zM395.5 89q39.5 28 60 75.5t20.5 105.5q0 90 -48 145t-127 55t-127 -55t-48 -145
q0 -66 23.5 -113t63 -71.5t88.5 -24.5q55 0 94.5 28zM301 744l-167 -155l-51 47l189 173h59l188 -172l-51 -48z" />
    <glyph glyph-name="odieresis" unicode="&#xf6;" horiz-adv-x="602" 
d="M159.5 25.5q-58.5 36.5 -88.5 100t-30 144.5q0 86 34.5 147.5t93.5 93t132 31.5q82 0 140.5 -36t89 -98t30.5 -138q0 -89 -33.5 -152.5t-92.5 -96t-134 -32.5q-83 0 -141.5 36.5zM395.5 89q39.5 28 60 75.5t20.5 105.5q0 90 -48 145t-127 55t-127 -55t-48 -145
q0 -66 23.5 -113t63 -71.5t88.5 -24.5q55 0 94.5 28zM153.5 623.5q-18.5 18.5 -18.5 44.5t18.5 44t44.5 18t44 -18t18 -44t-18 -44.5t-44 -18.5t-44.5 18.5zM359.5 623.5q-18.5 18.5 -18.5 44.5t18.5 44t44.5 18t44 -18t18 -44t-18 -44.5t-44 -18.5t-44.5 18.5z" />
    <glyph glyph-name="ograve" unicode="&#xf2;" horiz-adv-x="602" 
d="M159.5 25.5q-58.5 36.5 -88.5 100t-30 144.5q0 86 34.5 147.5t93.5 93t132 31.5q82 0 140.5 -36t89 -98t30.5 -138q0 -89 -33.5 -152.5t-92.5 -96t-134 -32.5q-83 0 -141.5 36.5zM395.5 89q39.5 28 60 75.5t20.5 105.5q0 90 -48 145t-127 55t-127 -55t-48 -145
q0 -66 23.5 -113t63 -71.5t88.5 -24.5q55 0 94.5 28zM368 642l-47 -52l-281 227l47 52z" />
    <glyph glyph-name="ohungarumlaut" unicode="&#x151;" horiz-adv-x="602" 
d="M159.5 25.5q-58.5 36.5 -88.5 100t-30 144.5q0 86 34.5 147.5t93.5 93t132 31.5q82 0 140.5 -36t89 -98t30.5 -138q0 -89 -33.5 -152.5t-92.5 -96t-134 -32.5q-83 0 -141.5 36.5zM395.5 89q39.5 28 60 75.5t20.5 105.5q0 90 -48 145t-127 55t-127 -55t-48 -145
q0 -66 23.5 -113t63 -71.5t88.5 -24.5q55 0 94.5 28zM456 854l-206 -260l-62 36l208 259zM590 835l-206 -260l-62 36l208 259z" />
    <glyph glyph-name="omacron" unicode="&#x14d;" horiz-adv-x="602" 
d="M159.5 25.5q-58.5 36.5 -88.5 100t-30 144.5q0 86 34.5 147.5t93.5 93t132 31.5q82 0 140.5 -36t89 -98t30.5 -138q0 -89 -33.5 -152.5t-92.5 -96t-134 -32.5q-83 0 -141.5 36.5zM395.5 89q39.5 28 60 75.5t20.5 105.5q0 90 -48 145t-127 55t-127 -55t-48 -145
q0 -66 23.5 -113t63 -71.5t88.5 -24.5q55 0 94.5 28zM483 636h-364v67h364v-67z" />
    <glyph glyph-name="oslash" unicode="&#xf8;" horiz-adv-x="602" 
d="M492 465q34 -37 51.5 -87t17.5 -108q0 -89 -33.5 -152.5t-92.5 -96t-134 -32.5q-88 0 -150 42l-59 -75l-42 29l62 79q-35 38 -53 90.5t-18 115.5q0 86 34.5 147.5t93.5 93t132 31.5q88 0 152 -43l56 72l43 -29zM164 131l240 306q-44 33 -103 33q-79 0 -127 -55t-48 -145
q0 -85 38 -139zM395.5 89q39.5 28 60 75.5t20.5 105.5q0 77 -36 129l-240 -305q44 -33 101 -33q55 0 94.5 28z" />
    <glyph glyph-name="uni01D2" unicode="&#x1d2;" horiz-adv-x="602" 
d="M159.5 25.5q-58.5 36.5 -88.5 100t-30 144.5q0 86 34.5 147.5t93.5 93t132 31.5q82 0 140.5 -36t89 -98t30.5 -138q0 -89 -33.5 -152.5t-92.5 -96t-134 -32.5q-83 0 -141.5 36.5zM395.5 89q39.5 28 60 75.5t20.5 105.5q0 90 -48 145t-127 55t-127 -55t-48 -145
q0 -66 23.5 -113t63 -71.5t88.5 -24.5q55 0 94.5 28zM331 607h-59l-189 173l51 47l167 -155l167 155l51 -48z" />
    <glyph glyph-name="otilde" unicode="&#xf5;" horiz-adv-x="602" 
d="M159.5 25.5q-58.5 36.5 -88.5 100t-30 144.5q0 86 34.5 147.5t93.5 93t132 31.5q82 0 140.5 -36t89 -98t30.5 -138q0 -89 -33.5 -152.5t-92.5 -96t-134 -32.5q-83 0 -141.5 36.5zM395.5 89q39.5 28 60 75.5t20.5 105.5q0 90 -48 145t-127 55t-127 -55t-48 -145
q0 -66 23.5 -113t63 -71.5t88.5 -24.5q55 0 94.5 28zM339.5 651.5q-24.5 12.5 -53.5 34.5q-22 16 -35 23.5t-25 7.5q-19 0 -30.5 -20t-11.5 -52h-68q0 61 27 99t71 38q26 0 47.5 -11.5t52.5 -33.5q23 -17 37 -25t28 -8q18 0 28.5 17t10.5 52h68q0 -63 -25 -98.5t-69 -35.5
q-28 0 -52.5 12.5z" />
    <glyph glyph-name="oe" unicode="&#x153;" horiz-adv-x="1030" 
d="M159.5 25.5q-58.5 36.5 -88.5 100t-30 144.5q0 86 34.5 147.5t93.5 93t132 31.5q80 0 138 -34.5t90 -95.5q32 63 89.5 96.5t127.5 33.5q110 0 175.5 -71t67.5 -197v-23h-411q4 -86 51.5 -138t126.5 -52q56 0 95 27.5t55 78.5h81q-18 -82 -79.5 -130t-151.5 -48
q-77 0 -136 34.5t-91 96.5q-33 -64 -92 -97.5t-136 -33.5q-83 0 -141.5 36.5zM395.5 89q39.5 28 60 75.5t20.5 105.5q0 90 -48 145t-127 55t-127 -55t-48 -145q0 -66 23.5 -113t63 -71.5t88.5 -24.5q55 0 94.5 28zM902 320q-11 70 -52 110t-104 40t-106.5 -39.5
t-56.5 -110.5h319z" />
    <glyph glyph-name="p" unicode="p" horiz-adv-x="618" 
d="M70 -200v730h66l9 -96q29 50 79.5 79t114.5 29q69 0 123.5 -34.5t84.5 -97t30 -142.5q0 -81 -30 -144.5t-84.5 -99t-123.5 -35.5q-60 0 -108.5 26t-77.5 73v-288h-83zM411.5 87q37.5 26 58.5 73.5t21 107.5q0 59 -21 105t-58.5 71.5t-86.5 25.5q-50 0 -89 -25t-61 -70
t-22 -103q0 -61 22 -109t61.5 -75t89.5 -27q48 0 85.5 26z" />
    <glyph glyph-name="thorn" unicode="&#xfe;" horiz-adv-x="618" 
d="M71 -200v950h82v-303q30 44 78.5 69.5t107.5 25.5q69 0 123.5 -34.5t84.5 -97t30 -142.5q0 -81 -30 -144.5t-84.5 -99t-123.5 -35.5q-60 0 -108.5 26t-77.5 73v-288h-82zM411.5 87q37.5 26 58.5 73.5t21 107.5q0 59 -21 105t-58.5 71.5t-86.5 25.5q-50 0 -89 -25t-61 -70
t-22 -103q0 -61 22 -109t61.5 -75t89.5 -27q48 0 85.5 26z" />
    <glyph glyph-name="q" unicode="q" horiz-adv-x="619" 
d="M466 88q-28 -46 -76 -72.5t-108 -26.5q-70 0 -125 35.5t-85.5 98.5t-30.5 145q0 80 30.5 142.5t85 97t124.5 34.5q64 0 115 -28t78 -76l9 92h66v-730h-83v288zM384 87.5q39 26.5 60.5 74t21.5 108.5q0 59 -21 104.5t-59 71t-86 25.5q-50 0 -89.5 -25.5t-61.5 -72
t-22 -105.5q0 -60 21.5 -107t59.5 -73.5t87 -26.5q50 0 89 26.5z" />
    <glyph glyph-name="r" unicode="r" horiz-adv-x="373" 
d="M68 0v530h66l10 -101q52 104 184 104h18v-82h-18q-84 0 -130.5 -45.5t-46.5 -127.5v-278h-83z" />
    <glyph glyph-name="racute" unicode="&#x155;" horiz-adv-x="373" 
d="M68 0v530h66l10 -101q52 104 184 104h18v-82h-18q-84 0 -130.5 -45.5t-46.5 -127.5v-278h-83zM479 817l-281 -227l-47 52l281 227z" />
    <glyph glyph-name="rcaron" unicode="&#x159;" horiz-adv-x="373" 
d="M68 0v530h66l10 -101q52 104 184 104h18v-82h-18q-84 0 -130.5 -45.5t-46.5 -127.5v-278h-83zM248 607h-59l-189 173l51 47l167 -155l167 155l51 -48z" />
    <glyph glyph-name="uni0157" unicode="&#x157;" horiz-adv-x="373" 
d="M68 0v530h66l10 -101q52 104 184 104h18v-82h-18q-84 0 -130.5 -45.5t-46.5 -127.5v-278h-83zM151 -55l-109 -334l-67 21l105 335z" />
    <glyph glyph-name="r.ss04" horiz-adv-x="389" 
d="M151 0h-83v530h66l13 -136l184 148l49 -56l-229 -181v-305z" />
    <glyph glyph-name="racute.ss04" horiz-adv-x="389" 
d="M151 0h-83v530h66l13 -136l184 148l49 -56l-229 -181v-305zM489 817l-281 -227l-47 52l281 227z" />
    <glyph glyph-name="rcaron.ss04" horiz-adv-x="389" 
d="M151 0h-83v530h66l13 -136l184 148l49 -56l-229 -181v-305zM258 607h-59l-189 173l51 47l167 -155l167 155l51 -48z" />
    <glyph glyph-name="uni0157.ss04" horiz-adv-x="389" 
d="M151 0h-83v530h66l13 -136l184 148l49 -56l-229 -181v-305zM150 -55l-109 -334l-67 21l105 335z" />
    <glyph glyph-name="s" unicode="s" horiz-adv-x="497" 
d="M107.5 36.5q-62.5 47.5 -67.5 130.5h81q4 -50 45.5 -78.5t103.5 -28.5q111 0 111 82q0 24 -11.5 38t-28.5 21.5t-54 20.5l-77 26q-54 18 -84 32t-51 41.5t-21 72.5q0 68 50 108t136 40q89 0 145 -47t66 -134h-81q-7 54 -42 82t-91 28q-48 0 -75.5 -20t-27.5 -55
q0 -32 22 -47t47 -23t33 -11l72 -24q81 -27 118 -59t37 -94q0 -71 -50.5 -110t-146.5 -39t-158.5 47.5z" />
    <glyph glyph-name="sacute" unicode="&#x15b;" horiz-adv-x="497" 
d="M107.5 36.5q-62.5 47.5 -67.5 130.5h81q4 -50 45.5 -78.5t103.5 -28.5q111 0 111 82q0 24 -11.5 38t-28.5 21.5t-54 20.5l-77 26q-54 18 -84 32t-51 41.5t-21 72.5q0 68 50 108t136 40q89 0 145 -47t66 -134h-81q-7 54 -42 82t-91 28q-48 0 -75.5 -20t-27.5 -55
q0 -32 22 -47t47 -23t33 -11l72 -24q81 -27 118 -59t37 -94q0 -71 -50.5 -110t-146.5 -39t-158.5 47.5zM510 817l-281 -227l-47 52l281 227z" />
    <glyph glyph-name="scaron" unicode="&#x161;" horiz-adv-x="497" 
d="M107.5 36.5q-62.5 47.5 -67.5 130.5h81q4 -50 45.5 -78.5t103.5 -28.5q111 0 111 82q0 24 -11.5 38t-28.5 21.5t-54 20.5l-77 26q-54 18 -84 32t-51 41.5t-21 72.5q0 68 50 108t136 40q89 0 145 -47t66 -134h-81q-7 54 -42 82t-91 28q-48 0 -75.5 -20t-27.5 -55
q0 -32 22 -47t47 -23t33 -11l72 -24q81 -27 118 -59t37 -94q0 -71 -50.5 -110t-146.5 -39t-158.5 47.5zM279 607h-59l-189 173l51 47l167 -155l167 155l51 -48z" />
    <glyph glyph-name="scedilla" unicode="&#x15f;" horiz-adv-x="497" 
d="M423 37q-40 -38 -117 -46l-67 -203l-68 13l63 189q-84 8 -137 55t-57 122h81q4 -50 45.5 -78.5t103.5 -28.5q111 0 111 82q0 24 -11.5 38t-28.5 21.5t-54 20.5l-77 26q-54 18 -84 32t-51 41.5t-21 72.5q0 68 50 108t136 40q89 0 145 -47t66 -134h-81q-7 54 -42 82t-91 28
q-48 0 -75.5 -20t-27.5 -55q0 -32 22 -47t47 -23t33 -11l72 -24q81 -27 118 -59t37 -94q0 -63 -40 -101z" />
    <glyph glyph-name="uni0219" unicode="&#x219;" horiz-adv-x="497" 
d="M107.5 36.5q-62.5 47.5 -67.5 130.5h81q4 -50 45.5 -78.5t103.5 -28.5q111 0 111 82q0 24 -11.5 38t-28.5 21.5t-54 20.5l-77 26q-54 18 -84 32t-51 41.5t-21 72.5q0 68 50 108t136 40q89 0 145 -47t66 -134h-81q-7 54 -42 82t-91 28q-48 0 -75.5 -20t-27.5 -55
q0 -32 22 -47t47 -23t33 -11l72 -24q81 -27 118 -59t37 -94q0 -71 -50.5 -110t-146.5 -39t-158.5 47.5zM314 -55l-109 -334l-67 21l105 335z" />
    <glyph glyph-name="germandbls" unicode="&#xdf;" horiz-adv-x="589" 
d="M221 5v74q52 -19 99 -19q64 0 102 34.5t38 92.5q0 61 -42 98.5t-110 37.5h-51v72h51q55 0 89.5 33.5t34.5 86.5q0 55 -37.5 89.5t-96.5 34.5q-68 0 -106 -42t-38 -118v-479h-83v479q0 109 60 170.5t167 61.5q64 0 113.5 -23t77.5 -65t28 -95q0 -62 -39 -106t-103 -57
q76 -16 122 -67.5t46 -123.5q0 -54 -26.5 -96t-75.5 -65.5t-113 -23.5q-54 0 -107 16z" />
    <glyph glyph-name="t" unicode="t" horiz-adv-x="383" 
d="M285 0q-77 0 -117.5 38.5t-40.5 112.5v309h-98v70h98v181h83v-181h143v-70h-143v-309q0 -40 19 -60.5t56 -20.5h59v-70h-59z" />
    <glyph glyph-name="tbar" unicode="&#x167;" horiz-adv-x="383" 
d="M285 0q-77 0 -117.5 38.5t-40.5 112.5v114h-98v67h98v128h-98v70h98v181h83v-181h143v-70h-143v-128h143v-67h-143v-114q0 -40 19 -60.5t56 -20.5h59v-70h-59z" />
    <glyph glyph-name="tcaron" unicode="&#x165;" horiz-adv-x="383" 
d="M327 570h-78v245h78v-245zM285 0q-77 0 -117.5 38.5t-40.5 112.5v309h-98v70h98v181h83v-181h143v-70h-143v-309q0 -40 19 -60.5t56 -20.5h59v-70h-59z" />
    <glyph glyph-name="uni0163" unicode="&#x163;" horiz-adv-x="383" 
d="M353 460h-143v-309q0 -40 19 -60.5t56 -20.5h59v-70h-52l-70 -212l-68 13l69 207q-47 14 -71.5 50t-24.5 93v309h-98v70h98v181h83v-181h143v-70z" />
    <glyph glyph-name="uni021B" unicode="&#x21b;" horiz-adv-x="383" 
d="M285 0q-77 0 -117.5 38.5t-40.5 112.5v309h-98v70h98v181h83v-181h143v-70h-143v-309q0 -40 19 -60.5t56 -20.5h59v-70h-59zM297 -55l-109 -334l-67 21l105 335z" />
    <glyph glyph-name="u" unicode="u" horiz-adv-x="574" 
d="M112 41q-54 52 -54 135v354h83v-351q0 -56 35 -86.5t93 -30.5q72 0 112.5 41.5t41.5 104.5v322h83v-530h-66l-7 80q-26 -44 -71 -67.5t-101 -23.5q-95 0 -149 52z" />
    <glyph glyph-name="uacute" unicode="&#xfa;" horiz-adv-x="574" 
d="M112 41q-54 52 -54 135v354h83v-351q0 -56 35 -86.5t93 -30.5q72 0 112.5 41.5t41.5 104.5v322h83v-530h-66l-7 80q-26 -44 -71 -67.5t-101 -23.5q-95 0 -149 52zM543 817l-281 -227l-47 52l281 227z" />
    <glyph glyph-name="ubreve" unicode="&#x16d;" horiz-adv-x="574" 
d="M112 41q-54 52 -54 135v354h83v-351q0 -56 35 -86.5t93 -30.5q72 0 112.5 41.5t41.5 104.5v322h83v-530h-66l-7 80q-26 -44 -71 -67.5t-101 -23.5q-95 0 -149 52zM162.5 649.5q-46.5 40.5 -46.5 105.5v13h72v-13q0 -37 26.5 -60t67.5 -23t66.5 23t25.5 60v13h72v-13
q0 -65 -45.5 -105.5t-118.5 -40.5t-119.5 40.5z" />
    <glyph glyph-name="ucircumflex" unicode="&#xfb;" horiz-adv-x="574" 
d="M112 41q-54 52 -54 135v354h83v-351q0 -56 35 -86.5t93 -30.5q72 0 112.5 41.5t41.5 104.5v322h83v-530h-66l-7 80q-26 -44 -71 -67.5t-101 -23.5q-95 0 -149 52zM282 744l-167 -155l-51 47l189 173h59l188 -172l-51 -48z" />
    <glyph glyph-name="udieresis" unicode="&#xfc;" horiz-adv-x="574" 
d="M112 41q-54 52 -54 135v354h83v-351q0 -56 35 -86.5t93 -30.5q72 0 112.5 41.5t41.5 104.5v322h83v-530h-66l-7 80q-26 -44 -71 -67.5t-101 -23.5q-95 0 -149 52zM134.5 623.5q-18.5 18.5 -18.5 44.5t18.5 44t44.5 18t44 -18t18 -44t-18 -44.5t-44 -18.5t-44.5 18.5z
M340.5 623.5q-18.5 18.5 -18.5 44.5t18.5 44t44.5 18t44 -18t18 -44t-18 -44.5t-44 -18.5t-44.5 18.5z" />
    <glyph glyph-name="ugrave" unicode="&#xf9;" horiz-adv-x="574" 
d="M112 41q-54 52 -54 135v354h83v-351q0 -56 35 -86.5t93 -30.5q72 0 112.5 41.5t41.5 104.5v322h83v-530h-66l-7 80q-26 -44 -71 -67.5t-101 -23.5q-95 0 -149 52zM349 642l-47 -52l-281 227l47 52z" />
    <glyph glyph-name="uhungarumlaut" unicode="&#x171;" horiz-adv-x="574" 
d="M112 41q-54 52 -54 135v354h83v-351q0 -56 35 -86.5t93 -30.5q72 0 112.5 41.5t41.5 104.5v322h83v-530h-66l-7 80q-26 -44 -71 -67.5t-101 -23.5q-95 0 -149 52zM437 854l-206 -260l-62 36l208 259zM571 835l-206 -260l-62 36l208 259z" />
    <glyph glyph-name="umacron" unicode="&#x16b;" horiz-adv-x="574" 
d="M112 41q-54 52 -54 135v354h83v-351q0 -56 35 -86.5t93 -30.5q72 0 112.5 41.5t41.5 104.5v322h83v-530h-66l-7 80q-26 -44 -71 -67.5t-101 -23.5q-95 0 -149 52zM464 636h-364v67h364v-67z" />
    <glyph glyph-name="uogonek" unicode="&#x173;" horiz-adv-x="574" 
d="M524 -201q-30 -11 -64 -11q-48 0 -76 23.5t-28 61.5q0 33 22 68t62 62l-7 77q-26 -44 -71 -67.5t-101 -23.5q-95 0 -149 52t-54 135v354h83v-351q0 -56 35 -86.5t93 -30.5q72 0 112.5 41.5t41.5 104.5v322h83v-530q-41 -27 -62 -54t-21 -51q0 -18 12 -28t33 -10
q20 0 45 9z" />
    <glyph glyph-name="uring" unicode="&#x16f;" horiz-adv-x="574" 
d="M112 41q-54 52 -54 135v354h83v-351q0 -56 35 -86.5t93 -30.5q72 0 112.5 41.5t41.5 104.5v322h83v-530h-66l-7 80q-26 -44 -71 -67.5t-101 -23.5q-95 0 -149 52zM210.5 614q-28.5 27 -28.5 68t28.5 68t71.5 27t71.5 -27t28.5 -68t-28.5 -68t-71.5 -27t-71.5 27zM314 650
q13 13 13 32q0 20 -13 32.5t-32 12.5q-20 0 -32.5 -12.5t-12.5 -32.5q0 -19 12.5 -32t32.5 -13q19 0 32 13z" />
    <glyph glyph-name="uni01D4" unicode="&#x1d4;" horiz-adv-x="574" 
d="M112 41q-54 52 -54 135v354h83v-351q0 -56 35 -86.5t93 -30.5q72 0 112.5 41.5t41.5 104.5v322h83v-530h-66l-7 80q-26 -44 -71 -67.5t-101 -23.5q-95 0 -149 52zM312 607h-59l-189 173l51 47l167 -155l167 155l51 -48z" />
    <glyph glyph-name="uni01D8" unicode="&#x1d8;" horiz-adv-x="574" 
d="M112 41q-54 52 -54 135v354h83v-351q0 -56 35 -86.5t93 -30.5q72 0 112.5 41.5t41.5 104.5v322h83v-530h-66l-7 80q-26 -44 -71 -67.5t-101 -23.5q-95 0 -149 52zM134.5 623.5q-18.5 18.5 -18.5 44.5t18.5 44t44.5 18t44 -18t18 -44t-18 -44.5t-44 -18.5t-44.5 18.5z
M340.5 623.5q-18.5 18.5 -18.5 44.5t18.5 44t44.5 18t44 -18t18 -44t-18 -44.5t-44 -18.5t-44.5 18.5zM543 1012l-281 -227l-47 52l281 227z" />
    <glyph glyph-name="uni01DA" unicode="&#x1da;" horiz-adv-x="574" 
d="M112 41q-54 52 -54 135v354h83v-351q0 -56 35 -86.5t93 -30.5q72 0 112.5 41.5t41.5 104.5v322h83v-530h-66l-7 80q-26 -44 -71 -67.5t-101 -23.5q-95 0 -149 52zM134.5 623.5q-18.5 18.5 -18.5 44.5t18.5 44t44.5 18t44 -18t18 -44t-18 -44.5t-44 -18.5t-44.5 18.5z
M340.5 623.5q-18.5 18.5 -18.5 44.5t18.5 44t44.5 18t44 -18t18 -44t-18 -44.5t-44 -18.5t-44.5 18.5zM312 802h-59l-189 173l51 47l167 -155l167 155l51 -48z" />
    <glyph glyph-name="uni01DC" unicode="&#x1dc;" horiz-adv-x="574" 
d="M112 41q-54 52 -54 135v354h83v-351q0 -56 35 -86.5t93 -30.5q72 0 112.5 41.5t41.5 104.5v322h83v-530h-66l-7 80q-26 -44 -71 -67.5t-101 -23.5q-95 0 -149 52zM134.5 623.5q-18.5 18.5 -18.5 44.5t18.5 44t44.5 18t44 -18t18 -44t-18 -44.5t-44 -18.5t-44.5 18.5z
M340.5 623.5q-18.5 18.5 -18.5 44.5t18.5 44t44.5 18t44 -18t18 -44t-18 -44.5t-44 -18.5t-44.5 18.5zM349 837l-47 -52l-281 227l47 52z" />
    <glyph glyph-name="uni01D6" unicode="&#x1d6;" horiz-adv-x="574" 
d="M112 41q-54 52 -54 135v354h83v-351q0 -56 35 -86.5t93 -30.5q72 0 112.5 41.5t41.5 104.5v322h83v-530h-66l-7 80q-26 -44 -71 -67.5t-101 -23.5q-95 0 -149 52zM134.5 623.5q-18.5 18.5 -18.5 44.5t18.5 44t44.5 18t44 -18t18 -44t-18 -44.5t-44 -18.5t-44.5 18.5z
M340.5 623.5q-18.5 18.5 -18.5 44.5t18.5 44t44.5 18t44 -18t18 -44t-18 -44.5t-44 -18.5t-44.5 18.5zM464 831h-364v67h364v-67z" />
    <glyph glyph-name="v" unicode="v" horiz-adv-x="569" 
d="M328 0h-87l-221 530h90l175 -433l174 433h90z" />
    <glyph glyph-name="w" unicode="w" horiz-adv-x="761" 
d="M269 0h-92l-157 530h85l122 -427l118 427h72l118 -425l121 425h85l-157 -530h-91l-112 404z" />
    <glyph glyph-name="wacute" unicode="&#x1e83;" horiz-adv-x="761" 
d="M269 0h-92l-157 530h85l122 -427l118 427h72l118 -425l121 425h85l-157 -530h-91l-112 404zM642 817l-281 -227l-47 52l281 227z" />
    <glyph glyph-name="wcircumflex" unicode="&#x175;" horiz-adv-x="761" 
d="M269 0h-92l-157 530h85l122 -427l118 427h72l118 -425l121 425h85l-157 -530h-91l-112 404zM381 744l-167 -155l-51 47l189 173h59l188 -172l-51 -48z" />
    <glyph glyph-name="wdieresis" unicode="&#x1e85;" horiz-adv-x="761" 
d="M269 0h-92l-157 530h85l122 -427l118 427h72l118 -425l121 425h85l-157 -530h-91l-112 404zM233.5 623.5q-18.5 18.5 -18.5 44.5t18.5 44t44.5 18t44 -18t18 -44t-18 -44.5t-44 -18.5t-44.5 18.5zM439.5 623.5q-18.5 18.5 -18.5 44.5t18.5 44t44.5 18t44 -18t18 -44
t-18 -44.5t-44 -18.5t-44.5 18.5z" />
    <glyph glyph-name="wgrave" unicode="&#x1e81;" horiz-adv-x="761" 
d="M269 0h-92l-157 530h85l122 -427l118 427h72l118 -425l121 425h85l-157 -530h-91l-112 404zM448 642l-47 -52l-281 227l47 52z" />
    <glyph glyph-name="x" unicode="x" horiz-adv-x="529" 
d="M120 0h-94l192 263l-190 267h93l144 -205l143 205h93l-190 -266l192 -264h-94l-144 204z" />
    <glyph glyph-name="y" unicode="y" horiz-adv-x="552" 
d="M47 -200v70h85q39 0 59 12.5t30 38.5l29 79h-20l-210 530h89l172 -447l166 447h85l-238 -641q-17 -44 -56 -66.5t-106 -22.5h-85z" />
    <glyph glyph-name="yacute" unicode="&#xfd;" horiz-adv-x="552" 
d="M47 -200v70h85q39 0 59 12.5t30 38.5l29 79h-20l-210 530h89l172 -447l166 447h85l-238 -641q-17 -44 -56 -66.5t-106 -22.5h-85zM539 817l-281 -227l-47 52l281 227z" />
    <glyph glyph-name="ycircumflex" unicode="&#x177;" horiz-adv-x="552" 
d="M47 -200v70h85q39 0 59 12.5t30 38.5l29 79h-20l-210 530h89l172 -447l166 447h85l-238 -641q-17 -44 -56 -66.5t-106 -22.5h-85zM278 744l-167 -155l-51 47l189 173h59l188 -172l-51 -48z" />
    <glyph glyph-name="ydieresis" unicode="&#xff;" horiz-adv-x="552" 
d="M47 -200v70h85q39 0 59 12.5t30 38.5l29 79h-20l-210 530h89l172 -447l166 447h85l-238 -641q-17 -44 -56 -66.5t-106 -22.5h-85zM130.5 623.5q-18.5 18.5 -18.5 44.5t18.5 44t44.5 18t44 -18t18 -44t-18 -44.5t-44 -18.5t-44.5 18.5zM336.5 623.5q-18.5 18.5 -18.5 44.5
t18.5 44t44.5 18t44 -18t18 -44t-18 -44.5t-44 -18.5t-44.5 18.5z" />
    <glyph glyph-name="ygrave" unicode="&#x1ef3;" horiz-adv-x="552" 
d="M47 -200v70h85q39 0 59 12.5t30 38.5l29 79h-20l-210 530h89l172 -447l166 447h85l-238 -641q-17 -44 -56 -66.5t-106 -22.5h-85zM345 642l-47 -52l-281 227l47 52z" />
    <glyph glyph-name="y.ss05" horiz-adv-x="558" 
d="M282 82l171 448h85l-285 -742l-77 18l74 194h-20l-210 530h89z" />
    <glyph glyph-name="yacute.ss05" horiz-adv-x="558" 
d="M282 82l171 448h85l-285 -742l-77 18l74 194h-20l-210 530h89zM542 817l-281 -227l-47 52l281 227z" />
    <glyph glyph-name="ycircumflex.ss05" horiz-adv-x="558" 
d="M282 82l171 448h85l-285 -742l-77 18l74 194h-20l-210 530h89zM281 744l-167 -155l-51 47l189 173h59l188 -172l-51 -48z" />
    <glyph glyph-name="ydieresis.ss05" horiz-adv-x="558" 
d="M282 82l171 448h85l-285 -742l-77 18l74 194h-20l-210 530h89zM133.5 623.5q-18.5 18.5 -18.5 44.5t18.5 44t44.5 18t44 -18t18 -44t-18 -44.5t-44 -18.5t-44.5 18.5zM339.5 623.5q-18.5 18.5 -18.5 44.5t18.5 44t44.5 18t44 -18t18 -44t-18 -44.5t-44 -18.5t-44.5 18.5z
" />
    <glyph glyph-name="ygrave.ss05" horiz-adv-x="558" 
d="M282 82l171 448h85l-285 -742l-77 18l74 194h-20l-210 530h89zM348 642l-47 -52l-281 227l47 52z" />
    <glyph glyph-name="z" unicode="z" horiz-adv-x="505" 
d="M458 0h-411v75l312 380h-303v75h398v-75l-312 -380h316v-75z" />
    <glyph glyph-name="zacute" unicode="&#x17a;" horiz-adv-x="505" 
d="M458 0h-411v75l312 380h-303v75h398v-75l-312 -380h316v-75zM516 817l-281 -227l-47 52l281 227z" />
    <glyph glyph-name="zcaron" unicode="&#x17e;" horiz-adv-x="505" 
d="M458 0h-411v75l312 380h-303v75h398v-75l-312 -380h316v-75zM285 607h-59l-189 173l51 47l167 -155l167 155l51 -48z" />
    <glyph glyph-name="zdotaccent" unicode="&#x17c;" horiz-adv-x="505" 
d="M458 0h-411v75l312 380h-303v75h398v-75l-312 -380h316v-75zM210 623q-18 18 -18 45q0 26 18 44t45 18t45 -18t18 -44q0 -27 -18 -45t-45 -18t-45 18z" />
    <glyph glyph-name="f_f_i" horiz-adv-x="882" 
d="M127 0v460h-98v70h98v74q0 71 38.5 108.5t112.5 37.5h118v-70h-118q-33 0 -50.5 -19.5t-17.5 -56.5v-74h223v74q0 71 38.5 108.5t112.5 37.5h78v-70h-78q-33 0 -50.5 -19.5t-17.5 -56.5v-74h299v-530h-83v460h-216v-460h-83v460h-223v-460h-83zM729 635q-18 18 -18 44
t18 43.5t44 17.5t43.5 -17.5t17.5 -43.5t-17.5 -44t-43.5 -18t-44 18z" />
    <glyph glyph-name="f_i" horiz-adv-x="576" 
d="M127 0v460h-98v70h98v74q0 71 38.5 108.5t112.5 37.5h78v-70h-78q-33 0 -50.5 -19.5t-17.5 -56.5v-74h299v-530h-83v460h-216v-460h-83zM423 635q-18 18 -18 44t18 43.5t44 17.5t43.5 -17.5t17.5 -43.5t-17.5 -44t-43.5 -18t-44 18z" />
    <glyph glyph-name="fi" unicode="&#xfb01;" horiz-adv-x="576" 
d="M127 0v460h-98v70h98v74q0 71 38.5 108.5t112.5 37.5h78v-70h-78q-33 0 -50.5 -19.5t-17.5 -56.5v-74h299v-530h-83v460h-216v-460h-83zM423 635q-18 18 -18 44t18 43.5t44 17.5t43.5 -17.5t17.5 -43.5t-17.5 -44t-43.5 -18t-44 18z" />
    <glyph glyph-name="f_l" horiz-adv-x="587" 
d="M127 0v460h-98v70h98v74q0 71 38.5 108.5t112.5 37.5h238v-750h-83v680h-155q-33 0 -50.5 -19.5t-17.5 -56.5v-74h172v-70h-172v-460h-83z" />
    <glyph glyph-name="fl" unicode="&#xfb02;" horiz-adv-x="587" 
d="M127 0v460h-98v70h98v74q0 71 38.5 108.5t112.5 37.5h238v-750h-83v680h-155q-33 0 -50.5 -19.5t-17.5 -56.5v-74h172v-70h-172v-460h-83z" />
    <glyph glyph-name="w_w_w" horiz-adv-x="2109" 
d="M269 0h-92l-157 530h85l122 -427l118 427h72l118 -425l121 425h123l122 -427l118 427h72l118 -425l121 425h123l122 -427l118 427h72l118 -425l121 425h85l-157 -530h-91l-112 404l-112 -404h-92l-133 451l-134 -451h-91l-112 404l-112 -404h-92l-133 451l-134 -451h-91
l-112 404z" />
    <glyph glyph-name="ordfeminine" unicode="&#xaa;" horiz-adv-x="463" 
d="M82 340.5q-40 31.5 -40 84.5q0 59 43.5 82t114.5 31l30 3q46 4 66.5 10.5t20.5 25.5q0 33 -24 54t-64 21q-47 0 -76 -18.5t-34 -52.5h-69q6 60 54 95t126 35q70 0 112 -38t42 -101v-181q0 -9 5.5 -14t14.5 -5h22v-58h-31q-35 0 -54.5 16.5t-19.5 45.5v8
q-19 -35 -53.5 -55t-82.5 -20q-63 0 -103 31.5zM282 396q35 29 35 75v45q-10 -17 -32.5 -22t-75.5 -11q-50 -6 -74.5 -17t-24.5 -42q0 -28 23.5 -42.5t62.5 -14.5q51 0 86 29z" />
    <glyph glyph-name="ordmasculine" unicode="&#xba;" horiz-adv-x="462" 
d="M90.5 362.5q-50.5 57.5 -50.5 148.5q0 63 25 108t68.5 68.5t97.5 23.5q60 0 103 -26.5t65.5 -72t22.5 -101.5q0 -98 -53 -152t-138 -54q-90 0 -140.5 57.5zM321 406q33 42 33 105q0 64 -33.5 102.5t-89.5 38.5t-89.5 -38.5t-33.5 -102.5q0 -68 35.5 -107.5t87.5 -39.5
q57 0 90 42z" />
    <glyph glyph-name="zero" unicode="0" horiz-adv-x="650" 
d="M183.5 33.5q-60.5 44.5 -93 126.5t-32.5 192q0 109 32.5 190t93 125t141.5 44t141.5 -44t93 -125t32.5 -190q0 -110 -32.5 -192t-93 -126.5t-141.5 -44.5t-141.5 44.5zM420.5 101q40.5 35 63 100t22.5 151q0 85 -22.5 149t-63 98.5t-95.5 34.5t-95.5 -34.5t-63 -98.5
t-22.5 -149q0 -86 22.5 -151t63 -100t95.5 -35t95.5 35z" />
    <glyph glyph-name="one" unicode="1" horiz-adv-x="650" 
d="M367 77h172v-77h-428v77h172v468q-49 -66 -160 -66h-12v82h12q79 0 120 33t41 96v10h83v-623z" />
    <glyph glyph-name="two" unicode="2" horiz-adv-x="650" 
d="M533 409.5q-27 -42.5 -65 -71t-103 -65.5q-57 -33 -91.5 -57.5t-57.5 -59t-23 -79.5h357v-77h-446v66q0 64 28.5 111t69 78t107.5 70q57 34 89 57t53.5 55t21.5 73q0 56 -37 90t-99 34q-69 0 -114 -43.5t-46 -124.5h-88q4 78 37 133t88 83.5t124 28.5q66 0 116.5 -25
t78 -71t27.5 -105q0 -58 -27 -100.5z" />
    <glyph glyph-name="three" unicode="3" horiz-adv-x="650" 
d="M198.5 17.5q-60.5 28.5 -96 81.5t-39.5 124h87q5 -72 55.5 -114.5t132.5 -42.5q75 0 120 36.5t45 96.5q0 59 -44.5 92.5t-123.5 33.5h-94v69h94q62 0 101.5 33t39.5 86t-39.5 87t-102.5 34q-65 0 -110 -38.5t-55 -102.5h-87q14 100 83.5 159t173.5 59q64 0 114.5 -23
t78.5 -64.5t28 -93.5q0 -60 -36 -104t-95 -60q75 -17 116 -63t41 -113q0 -59 -31 -104.5t-87.5 -71t-130.5 -25.5q-78 0 -138.5 28.5z" />
    <glyph glyph-name="four" unicode="4" horiz-adv-x="650" 
d="M479 0h-84v175h-347v75l346 450h85v-448h123v-77h-123v-175zM395 583l-255 -331h255v331z" />
    <glyph glyph-name="five" unicode="5" horiz-adv-x="650" 
d="M152.5 49.5q-70.5 60.5 -81.5 161.5h87q8 -66 55 -105.5t116 -39.5q74 0 119.5 45t45.5 117q0 71 -45 116t-116 45q-80 0 -145 -69h-93l57 380h397v-77h-327l-36 -236q68 74 169 74q65 0 116 -29.5t79.5 -82.5t28.5 -120q0 -70 -31.5 -124.5t-88 -85t-130.5 -30.5
q-106 0 -176.5 60.5z" />
    <glyph glyph-name="six" unicode="6" horiz-adv-x="650" 
d="M187.5 36q-65.5 47 -98.5 129.5t-33 189.5q0 111 35.5 191.5t100.5 122.5t153 42q66 0 120 -27.5t88 -77t40 -113.5h-87q-8 62 -52.5 101.5t-108.5 39.5q-101 0 -156.5 -78t-55.5 -206q0 -14 2 -40q19 65 80 109t144 44q66 0 118 -30t81.5 -83.5t29.5 -121.5
q0 -70 -30.5 -124t-85.5 -84.5t-126 -30.5q-93 0 -158.5 47zM419 83.5q37 18.5 60 55.5t23 89q0 53 -22.5 89.5t-59 55t-78.5 18.5t-80.5 -19t-62 -56t-23.5 -89q0 -51 23 -88t61 -55.5t80 -18.5t79 18.5z" />
    <glyph glyph-name="seven" unicode="7" horiz-adv-x="650" 
d="M236 0h-96l327 623h-377v77h470v-77z" />
    <glyph glyph-name="eight" unicode="8" horiz-adv-x="650" 
d="M186.5 14q-60.5 25 -94 71.5t-33.5 108.5q0 60 36.5 105.5t101.5 69.5q-50 23 -78 63.5t-28 91.5q0 54 29.5 96.5t83 66.5t122.5 24q68 0 121 -24t82.5 -66.5t29.5 -96.5q0 -51 -27.5 -91t-77.5 -64q64 -24 100.5 -69.5t36.5 -105.5t-32.5 -106.5t-92.5 -72.5t-140 -26
q-79 0 -139.5 25zM433.5 432q41.5 34 41.5 88q0 51 -41.5 83.5t-107.5 32.5q-67 0 -109 -32.5t-42 -83.5q0 -54 42 -88t109 -34q66 0 107.5 34zM454.5 103q49.5 37 49.5 96t-49.5 96.5t-128.5 37.5q-80 0 -130 -37.5t-50 -96.5t50.5 -96t129.5 -37t128.5 37z" />
    <glyph glyph-name="nine" unicode="9" horiz-adv-x="650" 
d="M148.5 44.5q-67.5 55.5 -81.5 154.5h87q10 -64 52.5 -98.5t112.5 -34.5q90 0 138.5 74t48.5 207q0 11 -2 31q-14 -60 -65 -98t-125 -38q-71 0 -126.5 30t-86.5 83.5t-31 121.5t31 121.5t86.5 83t125.5 29.5q130 0 200 -97.5t70 -266.5q0 -168 -68.5 -263t-195.5 -95
q-103 0 -170.5 55.5zM390 333q36 18 58.5 54t22.5 87q0 52 -22 88.5t-57.5 54.5t-76.5 18q-42 0 -79 -18.5t-60 -55.5t-23 -88q0 -50 22.5 -86t59.5 -54t78 -18t77 18z" />
    <glyph glyph-name="uni2080" unicode="&#x2080;" horiz-adv-x="415" 
d="M95 -54.5q-42 54.5 -42 147.5q0 92 42 147t113 55q70 0 112 -54t42 -146q0 -93 -42 -148.5t-112 -55.5q-71 0 -113 54.5zM271 -11q23 39 23 105q0 65 -23 103.5t-63 38.5q-39 0 -63 -38.5t-24 -103.5q0 -67 23.5 -105.5t63.5 -38.5t63 39z" />
    <glyph glyph-name="uni2081" unicode="&#x2081;" horiz-adv-x="278" 
d="M126 184q-23 -34 -79 -34h-17v68h17q79 0 79 62v6h67v-386h-67v284z" />
    <glyph glyph-name="uni2082" unicode="&#x2082;" horiz-adv-x="377" 
d="M63 -64q0 38 15.5 65t37.5 44.5t57 39.5q42 25 62 45t20 49q0 24 -16 40.5t-44 16.5q-33 0 -52.5 -19t-23.5 -50h-69q7 60 47 94t102 34q56 0 90 -31.5t34 -81.5q0 -31 -15 -55.5t-36.5 -41t-56.5 -39.5q-41 -27 -60.5 -45t-19.5 -42h196v-59h-268v36z" />
    <glyph glyph-name="uni2083" unicode="&#x2083;" horiz-adv-x="388" 
d="M86.5 -73.5q-43.5 35.5 -46.5 97.5h68q3 -36 28.5 -55.5t65.5 -19.5q34 0 54.5 16.5t20.5 46.5q0 27 -21 43t-58 16h-60v54h60q31 0 47.5 17t16.5 40t-15.5 39.5t-49.5 16.5q-29 0 -51 -18.5t-27 -50.5h-69q8 60 49 93t102 33q57 0 93 -29.5t36 -75.5q0 -31 -18.5 -54
t-51.5 -34q40 -10 62.5 -36t22.5 -61q0 -51 -40 -82.5t-105 -31.5q-70 0 -113.5 35.5z" />
    <glyph glyph-name="uni2084" unicode="&#x2084;" horiz-adv-x="376" 
d="M290 -100h-67v79h-183v66l183 241h67v-250h61v-57h-61v-79zM223 199l-124 -163h124v163z" />
    <glyph glyph-name="uni2085" unicode="&#x2085;" horiz-adv-x="386" 
d="M96 -75q-40 34 -47 93h69q4 -29 25 -49t55 -20t55.5 22t21.5 57q0 33 -21 54t-54 21q-38 0 -68 -27h-67l29 210h234v-59h-181l-14 -100q33 29 85 29q55 0 89 -35.5t34 -92.5q0 -61 -40 -99t-104 -38q-61 0 -101 34z" />
    <glyph glyph-name="uni2086" unicode="&#x2086;" horiz-adv-x="412" 
d="M97 -54.5q-44 54.5 -44 146.5t46 147.5t122 55.5q61 0 99.5 -33t44.5 -90h-68q-3 27 -23 46t-53 19q-49 0 -77 -40.5t-28 -112.5q14 36 44.5 55.5t69.5 19.5q57 0 93.5 -36.5t36.5 -96.5t-40.5 -97.5t-104.5 -37.5q-74 0 -118 54.5zM273 -30.5q21 21.5 21 56.5
q0 34 -21 55.5t-55 21.5t-55.5 -22.5t-21.5 -57.5q0 -33 21.5 -54t55.5 -21t55 21.5z" />
    <glyph glyph-name="uni2087" unicode="&#x2087;" horiz-adv-x="343" 
d="M144 -100h-76l179 327h-218v59h286v-66z" />
    <glyph glyph-name="uni2088" unicode="&#x2088;" horiz-adv-x="399" 
d="M88.5 -77q-43.5 32 -43.5 83q0 33 21.5 58.5t58.5 38.5q-29 13 -46 36t-17 52q0 45 38.5 74.5t98.5 29.5q61 0 99 -29t38 -76q0 -29 -16 -51.5t-45 -35.5q37 -13 58 -38t21 -59q0 -51 -43 -83t-111 -32t-111.5 32zM253 145q20 15 20 39q0 23 -20 37.5t-53 14.5t-53 -14.5
t-20 -37.5q0 -24 20 -39t53 -15t53 15zM264 -34.5q24 17.5 24 45.5q0 30 -23.5 47t-64.5 17t-65 -17t-24 -47q0 -28 24.5 -45.5t64.5 -17.5t64 17.5z" />
    <glyph glyph-name="uni2089" unicode="&#x2089;" horiz-adv-x="399" 
d="M91 -75.5q-39 33.5 -44 86.5h68q2 -28 24 -45t56 -17q46 0 68 38.5t20 104.5q-9 -27 -36 -44t-61 -17q-60 0 -98 36t-38 93q0 60 39 97.5t101 37.5q74 0 115 -53.5t41 -148.5q0 -93 -40 -147.5t-116 -54.5q-60 0 -99 33.5zM246 107.5q21 21.5 21 55.5t-21 54.5t-54 20.5
q-34 0 -55 -21t-21 -54q0 -34 20.5 -55.5t54.5 -21.5t55 21.5z" />
    <glyph glyph-name="uni2070" unicode="&#x2070;" horiz-adv-x="415" 
d="M95 459.5q-42 54.5 -42 147.5q0 92 42 147t113 55q70 0 112 -54t42 -146q0 -93 -42 -148.5t-112 -55.5q-71 0 -113 54.5zM271 503q23 39 23 105q0 65 -23 103.5t-63 38.5q-39 0 -63 -38.5t-24 -103.5q0 -67 23.5 -105.5t63.5 -38.5t63 39z" />
    <glyph glyph-name="uni00B9" unicode="&#xb9;" horiz-adv-x="278" 
d="M126 698q-23 -34 -79 -34h-17v68h17q79 0 79 62v6h67v-386h-67v284z" />
    <glyph glyph-name="uni00B2" unicode="&#xb2;" horiz-adv-x="377" 
d="M63 450q0 38 15.5 65t37.5 44.5t57 39.5q42 25 62 45t20 49q0 24 -16 40.5t-44 16.5q-33 0 -52.5 -19t-23.5 -50h-69q7 60 47 94t102 34q56 0 90 -31.5t34 -81.5q0 -31 -15 -55.5t-36.5 -41t-56.5 -39.5q-41 -27 -60.5 -45t-19.5 -42h196v-59h-268v36z" />
    <glyph glyph-name="uni00B3" unicode="&#xb3;" horiz-adv-x="388" 
d="M86.5 440.5q-43.5 35.5 -46.5 97.5h68q3 -36 28.5 -55.5t65.5 -19.5q34 0 54.5 16.5t20.5 46.5q0 27 -21 43t-58 16h-60v54h60q31 0 47.5 17t16.5 40t-15.5 39.5t-49.5 16.5q-29 0 -51 -18.5t-27 -50.5h-69q8 60 49 93t102 33q57 0 93 -29.5t36 -75.5q0 -31 -18.5 -54
t-51.5 -34q40 -10 62.5 -36t22.5 -61q0 -51 -40 -82.5t-105 -31.5q-70 0 -113.5 35.5z" />
    <glyph glyph-name="uni2074" unicode="&#x2074;" horiz-adv-x="376" 
d="M290 414h-67v79h-183v66l183 241h67v-250h61v-57h-61v-79zM223 713l-124 -163h124v163z" />
    <glyph glyph-name="uni2075" unicode="&#x2075;" horiz-adv-x="386" 
d="M96 439q-40 34 -47 93h69q4 -29 25 -49t55 -20t55.5 22t21.5 57q0 33 -21 54t-54 21q-38 0 -68 -27h-67l29 210h234v-59h-181l-14 -100q33 29 85 29q55 0 89 -35.5t34 -92.5q0 -61 -40 -99t-104 -38q-61 0 -101 34z" />
    <glyph glyph-name="uni2076" unicode="&#x2076;" horiz-adv-x="412" 
d="M97 459.5q-44 54.5 -44 146.5t46 147.5t122 55.5q61 0 99.5 -33t44.5 -90h-68q-3 27 -23 46t-53 19q-49 0 -77 -40.5t-28 -112.5q14 36 44.5 55.5t69.5 19.5q57 0 93.5 -36.5t36.5 -96.5t-40.5 -97.5t-104.5 -37.5q-74 0 -118 54.5zM273 483.5q21 21.5 21 56.5
q0 34 -21 55.5t-55 21.5t-55.5 -22.5t-21.5 -57.5q0 -33 21.5 -54t55.5 -21t55 21.5z" />
    <glyph glyph-name="uni2077" unicode="&#x2077;" horiz-adv-x="343" 
d="M144 414h-76l179 327h-218v59h286v-66z" />
    <glyph glyph-name="uni2078" unicode="&#x2078;" horiz-adv-x="399" 
d="M88.5 437q-43.5 32 -43.5 83q0 33 21.5 58.5t58.5 38.5q-29 13 -46 36t-17 52q0 45 38.5 74.5t98.5 29.5q61 0 99 -29t38 -76q0 -29 -16 -51.5t-45 -35.5q37 -13 58 -38t21 -59q0 -51 -43 -83t-111 -32t-111.5 32zM253 659q20 15 20 39q0 23 -20 37.5t-53 14.5t-53 -14.5
t-20 -37.5q0 -24 20 -39t53 -15t53 15zM264 479.5q24 17.5 24 45.5q0 30 -23.5 47t-64.5 17t-65 -17t-24 -47q0 -28 24.5 -45.5t64.5 -17.5t64 17.5z" />
    <glyph glyph-name="uni2079" unicode="&#x2079;" horiz-adv-x="399" 
d="M91 438.5q-39 33.5 -44 86.5h68q2 -28 24 -45t56 -17q46 0 68 38.5t20 104.5q-9 -27 -36 -44t-61 -17q-60 0 -98 36t-38 93q0 60 39 97.5t101 37.5q74 0 115 -53.5t41 -148.5q0 -93 -40 -147.5t-116 -54.5q-60 0 -99 33.5zM246 621.5q21 21.5 21 55.5t-21 54.5t-54 20.5
q-34 0 -55 -21t-21 -54q0 -34 20.5 -55.5t54.5 -21.5t55 21.5z" />
    <glyph glyph-name="fraction" unicode="&#x2044;" horiz-adv-x="662" 
d="M617 704l-509 -735l-63 31l509 735z" />
    <glyph glyph-name="onehalf" unicode="&#xbd;" horiz-adv-x="831" 
d="M656 704l-509 -735l-63 31l509 735zM126 598q-23 -34 -79 -34h-17v68h17q79 0 79 62v6h67v-386h-67v284zM517 36q0 38 15.5 65t37.5 44.5t57 39.5q42 25 62 45t20 49q0 24 -16 40.5t-44 16.5q-33 0 -52.5 -19t-23.5 -50h-69q7 60 47 94t102 34q56 0 90 -31.5t34 -81.5
q0 -31 -15 -55.5t-36.5 -41t-56.5 -39.5q-41 -27 -60.5 -45t-19.5 -42h196v-59h-268v36z" />
    <glyph glyph-name="onequarter" unicode="&#xbc;" horiz-adv-x="773" 
d="M656 704l-509 -735l-63 31l509 735zM126 598q-23 -34 -79 -34h-17v68h17q79 0 79 62v6h67v-386h-67v284zM687 0h-67v79h-183v66l183 241h67v-250h61v-57h-61v-79zM620 299l-124 -163h124v163z" />
    <glyph glyph-name="threequarters" unicode="&#xbe;" horiz-adv-x="882" 
d="M765 704l-509 -735l-63 31l509 735zM76.5 340.5q-43.5 35.5 -46.5 97.5h68q3 -36 28.5 -55.5t65.5 -19.5q34 0 54.5 16.5t20.5 46.5q0 27 -21 43t-58 16h-60v54h60q31 0 47.5 17t16.5 40t-15.5 39.5t-49.5 16.5q-29 0 -51 -18.5t-27 -50.5h-69q8 60 49 93t102 33
q57 0 93 -29.5t36 -75.5q0 -31 -18.5 -54t-51.5 -34q40 -10 62.5 -36t22.5 -61q0 -51 -40 -82.5t-105 -31.5q-70 0 -113.5 35.5zM796 0h-67v79h-183v66l183 241h67v-250h61v-57h-61v-79zM729 299l-124 -163h124v163z" />
    <glyph glyph-name="uni24EA" unicode="&#x24ea;" horiz-adv-x="890" 
d="M246 9.5q-89 49.5 -140 138.5t-51 202q0 110 49.5 199t138.5 140t202 51q110 0 199 -49.5t140 -138.5t51 -202q0 -110 -49.5 -199t-138.5 -140t-202 -51q-110 0 -199 49.5zM612 60q75 42 117.5 118t42.5 172q0 94 -41.5 169.5t-116 119t-169.5 43.5q-92 0 -167 -42
t-117.5 -118t-42.5 -172q0 -94 41.5 -169.5t116 -119t169.5 -43.5q92 0 167 42zM333 202.5q-42 54.5 -42 147.5q0 92 42 147t113 55q70 0 112 -54t42 -146q0 -93 -42 -148.5t-112 -55.5q-71 0 -113 54.5zM509 246q23 39 23 105q0 65 -23 103.5t-63 38.5q-39 0 -63 -38.5
t-24 -103.5q0 -67 23.5 -105.5t63.5 -38.5t63 39z" />
    <glyph glyph-name="uni2460" unicode="&#x2460;" horiz-adv-x="890" 
d="M246 9.5q-89 49.5 -140 138.5t-51 202q0 110 49.5 199t138.5 140t202 51q110 0 199 -49.5t140 -138.5t51 -202q0 -110 -49.5 -199t-138.5 -140t-202 -51q-110 0 -199 49.5zM612 60q75 42 117.5 118t42.5 172q0 94 -41.5 169.5t-116 119t-169.5 43.5q-92 0 -167 -42
t-117.5 -118t-42.5 -172q0 -94 41.5 -169.5t116 -119t169.5 -43.5q92 0 167 42zM443 441q-23 -34 -79 -34h-17v68h17q79 0 79 62v6h67v-386h-67v284z" />
    <glyph glyph-name="uni2461" unicode="&#x2461;" horiz-adv-x="890" 
d="M246 9.5q-89 49.5 -140 138.5t-51 202q0 110 49.5 199t138.5 140t202 51q110 0 199 -49.5t140 -138.5t51 -202q0 -110 -49.5 -199t-138.5 -140t-202 -51q-110 0 -199 49.5zM612 60q75 42 117.5 118t42.5 172q0 94 -41.5 169.5t-116 119t-169.5 43.5q-92 0 -167 -42
t-117.5 -118t-42.5 -172q0 -94 41.5 -169.5t116 -119t169.5 -43.5q92 0 167 42zM319 193q0 38 15.5 65t37.5 44.5t57 39.5q42 25 62 45t20 49q0 24 -16 40.5t-44 16.5q-33 0 -52.5 -19t-23.5 -50h-69q7 60 47 94t102 34q56 0 90 -31.5t34 -81.5q0 -31 -15 -55.5t-36.5 -41
t-56.5 -39.5q-41 -27 -60.5 -45t-19.5 -42h196v-59h-268v36z" />
    <glyph glyph-name="uni2462" unicode="&#x2462;" horiz-adv-x="890" 
d="M246 9.5q-89 49.5 -140 138.5t-51 202q0 110 49.5 199t138.5 140t202 51q110 0 199 -49.5t140 -138.5t51 -202q0 -110 -49.5 -199t-138.5 -140t-202 -51q-110 0 -199 49.5zM612 60q75 42 117.5 118t42.5 172q0 94 -41.5 169.5t-116 119t-169.5 43.5q-92 0 -167 -42
t-117.5 -118t-42.5 -172q0 -94 41.5 -169.5t116 -119t169.5 -43.5q92 0 167 42zM340.5 183.5q-43.5 35.5 -46.5 97.5h68q3 -36 28.5 -55.5t65.5 -19.5q34 0 54.5 16.5t20.5 46.5q0 27 -21 43t-58 16h-60v54h60q31 0 47.5 17t16.5 40t-15.5 39.5t-49.5 16.5q-29 0 -51 -18.5
t-27 -50.5h-69q8 60 49 93t102 33q57 0 93 -29.5t36 -75.5q0 -31 -18.5 -54t-51.5 -34q40 -10 62.5 -36t22.5 -61q0 -51 -40 -82.5t-105 -31.5q-70 0 -113.5 35.5z" />
    <glyph glyph-name="uni2463" unicode="&#x2463;" horiz-adv-x="890" 
d="M246 9.5q-89 49.5 -140 138.5t-51 202q0 110 49.5 199t138.5 140t202 51q110 0 199 -49.5t140 -138.5t51 -202q0 -110 -49.5 -199t-138.5 -140t-202 -51q-110 0 -199 49.5zM612 60q75 42 117.5 118t42.5 172q0 94 -41.5 169.5t-116 119t-169.5 43.5q-92 0 -167 -42
t-117.5 -118t-42.5 -172q0 -94 41.5 -169.5t116 -119t169.5 -43.5q92 0 167 42zM527 157h-67v79h-183v66l183 241h67v-250h61v-57h-61v-79zM460 456l-124 -163h124v163z" />
    <glyph glyph-name="uni2464" unicode="&#x2464;" horiz-adv-x="890" 
d="M246 9.5q-89 49.5 -140 138.5t-51 202q0 110 49.5 199t138.5 140t202 51q110 0 199 -49.5t140 -138.5t51 -202q0 -110 -49.5 -199t-138.5 -140t-202 -51q-110 0 -199 49.5zM612 60q75 42 117.5 118t42.5 172q0 94 -41.5 169.5t-116 119t-169.5 43.5q-92 0 -167 -42
t-117.5 -118t-42.5 -172q0 -94 41.5 -169.5t116 -119t169.5 -43.5q92 0 167 42zM348 182q-40 34 -47 93h69q4 -29 25 -49t55 -20t55.5 22t21.5 57q0 33 -21 54t-54 21q-38 0 -68 -27h-67l29 210h234v-59h-181l-14 -100q33 29 85 29q55 0 89 -35.5t34 -92.5q0 -61 -40 -99
t-104 -38q-61 0 -101 34z" />
    <glyph glyph-name="uni2465" unicode="&#x2465;" horiz-adv-x="890" 
d="M246 9.5q-89 49.5 -140 138.5t-51 202q0 110 49.5 199t138.5 140t202 51q110 0 199 -49.5t140 -138.5t51 -202q0 -110 -49.5 -199t-138.5 -140t-202 -51q-110 0 -199 49.5zM612 60q75 42 117.5 118t42.5 172q0 94 -41.5 169.5t-116 119t-169.5 43.5q-92 0 -167 -42
t-117.5 -118t-42.5 -172q0 -94 41.5 -169.5t116 -119t169.5 -43.5q92 0 167 42zM330 202.5q-44 54.5 -44 146.5t46 147.5t122 55.5q61 0 99.5 -33t44.5 -90h-68q-3 27 -23 46t-53 19q-49 0 -77 -40.5t-28 -112.5q14 36 44.5 55.5t69.5 19.5q57 0 93.5 -36.5t36.5 -96.5
t-40.5 -97.5t-104.5 -37.5q-74 0 -118 54.5zM506 226.5q21 21.5 21 56.5q0 34 -21 55.5t-55 21.5t-55.5 -22.5t-21.5 -57.5q0 -33 21.5 -54t55.5 -21t55 21.5z" />
    <glyph glyph-name="uni2466" unicode="&#x2466;" horiz-adv-x="890" 
d="M246 9.5q-89 49.5 -140 138.5t-51 202q0 110 49.5 199t138.5 140t202 51q110 0 199 -49.5t140 -138.5t51 -202q0 -110 -49.5 -199t-138.5 -140t-202 -51q-110 0 -199 49.5zM612 60q75 42 117.5 118t42.5 172q0 94 -41.5 169.5t-116 119t-169.5 43.5q-92 0 -167 -42
t-117.5 -118t-42.5 -172q0 -94 41.5 -169.5t116 -119t169.5 -43.5q92 0 167 42zM428 157h-76l179 327h-218v59h286v-66z" />
    <glyph glyph-name="uni2467" unicode="&#x2467;" horiz-adv-x="890" 
d="M246 9.5q-89 49.5 -140 138.5t-51 202q0 110 49.5 199t138.5 140t202 51q110 0 199 -49.5t140 -138.5t51 -202q0 -110 -49.5 -199t-138.5 -140t-202 -51q-110 0 -199 49.5zM612 60q75 42 117.5 118t42.5 172q0 94 -41.5 169.5t-116 119t-169.5 43.5q-92 0 -167 -42
t-117.5 -118t-42.5 -172q0 -94 41.5 -169.5t116 -119t169.5 -43.5q92 0 167 42zM334.5 180q-43.5 32 -43.5 83q0 33 21.5 58.5t58.5 38.5q-29 13 -46 36t-17 52q0 45 38.5 74.5t98.5 29.5q61 0 99 -29t38 -76q0 -29 -16 -51.5t-45 -35.5q37 -13 58 -38t21 -59q0 -51 -43 -83
t-111 -32t-111.5 32zM499 402q20 15 20 39q0 23 -20 37.5t-53 14.5t-53 -14.5t-20 -37.5q0 -24 20 -39t53 -15t53 15zM510 222.5q24 17.5 24 45.5q0 30 -23.5 47t-64.5 17t-65 -17t-24 -47q0 -28 24.5 -45.5t64.5 -17.5t64 17.5z" />
    <glyph glyph-name="uni2468" unicode="&#x2468;" horiz-adv-x="890" 
d="M246 9.5q-89 49.5 -140 138.5t-51 202q0 110 49.5 199t138.5 140t202 51q110 0 199 -49.5t140 -138.5t51 -202q0 -110 -49.5 -199t-138.5 -140t-202 -51q-110 0 -199 49.5zM612 60q75 42 117.5 118t42.5 172q0 94 -41.5 169.5t-116 119t-169.5 43.5q-92 0 -167 -42
t-117.5 -118t-42.5 -172q0 -94 41.5 -169.5t116 -119t169.5 -43.5q92 0 167 42zM348 181.5q-39 33.5 -44 86.5h68q2 -28 24 -45t56 -17q46 0 68 38.5t20 104.5q-9 -27 -36 -44t-61 -17q-60 0 -98 36t-38 93q0 60 39 97.5t101 37.5q74 0 115 -53.5t41 -148.5
q0 -93 -40 -147.5t-116 -54.5q-60 0 -99 33.5zM503 364.5q21 21.5 21 55.5t-21 54.5t-54 20.5q-34 0 -55 -21t-21 -54q0 -34 20.5 -55.5t54.5 -21.5t55 21.5z" />
    <glyph glyph-name="uni24FF" unicode="&#x24ff;" horiz-adv-x="890" 
d="M647 11q89 51 138.5 140t49.5 199q0 113 -51 202t-140 138.5t-199 49.5q-113 0 -202 -51t-138.5 -140t-49.5 -199q0 -113 51 -202t140 -138.5t199 -49.5q113 0 202 51zM333 202.5q-42 54.5 -42 147.5q0 92 42 147t113 55q70 0 112 -54t42 -146q0 -93 -42 -148.5
t-112 -55.5q-71 0 -113 54.5zM509 246q23 39 23 105q0 65 -23 103.5t-63 38.5q-39 0 -63 -38.5t-24 -103.5q0 -67 23.5 -105.5t63.5 -38.5t63 39z" />
    <glyph glyph-name="uni2776" unicode="&#x2776;" horiz-adv-x="890" 
d="M647 11q89 51 138.5 140t49.5 199q0 113 -51 202t-140 138.5t-199 49.5q-113 0 -202 -51t-138.5 -140t-49.5 -199q0 -113 51 -202t140 -138.5t199 -49.5q113 0 202 51zM443 441q-23 -34 -79 -34h-17v68h17q79 0 79 62v6h67v-386h-67v284z" />
    <glyph glyph-name="uni2777" unicode="&#x2777;" horiz-adv-x="890" 
d="M647 11q89 51 138.5 140t49.5 199q0 113 -51 202t-140 138.5t-199 49.5q-113 0 -202 -51t-138.5 -140t-49.5 -199q0 -113 51 -202t140 -138.5t199 -49.5q113 0 202 51zM319 193q0 38 15.5 65t37.5 44.5t57 39.5q42 25 62 45t20 49q0 24 -16 40.5t-44 16.5
q-33 0 -52.5 -19t-23.5 -50h-69q7 60 47 94t102 34q56 0 90 -31.5t34 -81.5q0 -31 -15 -55.5t-36.5 -41t-56.5 -39.5q-41 -27 -60.5 -45t-19.5 -42h196v-59h-268v36z" />
    <glyph glyph-name="uni2778" unicode="&#x2778;" horiz-adv-x="890" 
d="M647 11q89 51 138.5 140t49.5 199q0 113 -51 202t-140 138.5t-199 49.5q-113 0 -202 -51t-138.5 -140t-49.5 -199q0 -113 51 -202t140 -138.5t199 -49.5q113 0 202 51zM340.5 183.5q-43.5 35.5 -46.5 97.5h68q3 -36 28.5 -55.5t65.5 -19.5q34 0 54.5 16.5t20.5 46.5
q0 27 -21 43t-58 16h-60v54h60q31 0 47.5 17t16.5 40t-15.5 39.5t-49.5 16.5q-29 0 -51 -18.5t-27 -50.5h-69q8 60 49 93t102 33q57 0 93 -29.5t36 -75.5q0 -31 -18.5 -54t-51.5 -34q40 -10 62.5 -36t22.5 -61q0 -51 -40 -82.5t-105 -31.5q-70 0 -113.5 35.5z" />
    <glyph glyph-name="uni2779" unicode="&#x2779;" horiz-adv-x="890" 
d="M647 11q89 51 138.5 140t49.5 199q0 113 -51 202t-140 138.5t-199 49.5q-113 0 -202 -51t-138.5 -140t-49.5 -199q0 -113 51 -202t140 -138.5t199 -49.5q113 0 202 51zM527 157h-67v79h-183v66l183 241h67v-250h61v-57h-61v-79zM460 456l-124 -163h124v163z" />
    <glyph glyph-name="uni277A" unicode="&#x277a;" horiz-adv-x="890" 
d="M647 11q89 51 138.5 140t49.5 199q0 113 -51 202t-140 138.5t-199 49.5q-113 0 -202 -51t-138.5 -140t-49.5 -199q0 -113 51 -202t140 -138.5t199 -49.5q113 0 202 51zM348 182q-40 34 -47 93h69q4 -29 25 -49t55 -20t55.5 22t21.5 57q0 33 -21 54t-54 21q-38 0 -68 -27
h-67l29 210h234v-59h-181l-14 -100q33 29 85 29q55 0 89 -35.5t34 -92.5q0 -61 -40 -99t-104 -38q-61 0 -101 34z" />
    <glyph glyph-name="uni277B" unicode="&#x277b;" horiz-adv-x="890" 
d="M647 11q89 51 138.5 140t49.5 199q0 113 -51 202t-140 138.5t-199 49.5q-113 0 -202 -51t-138.5 -140t-49.5 -199q0 -113 51 -202t140 -138.5t199 -49.5q113 0 202 51zM330 202.5q-44 54.5 -44 146.5t46 147.5t122 55.5q61 0 99.5 -33t44.5 -90h-68q-3 27 -23 46t-53 19
q-49 0 -77 -40.5t-28 -112.5q14 36 44.5 55.5t69.5 19.5q57 0 93.5 -36.5t36.5 -96.5t-40.5 -97.5t-104.5 -37.5q-74 0 -118 54.5zM506 226.5q21 21.5 21 56.5q0 34 -21 55.5t-55 21.5t-55.5 -22.5t-21.5 -57.5q0 -33 21.5 -54t55.5 -21t55 21.5z" />
    <glyph glyph-name="uni277C" unicode="&#x277c;" horiz-adv-x="890" 
d="M647 11q89 51 138.5 140t49.5 199q0 113 -51 202t-140 138.5t-199 49.5q-113 0 -202 -51t-138.5 -140t-49.5 -199q0 -113 51 -202t140 -138.5t199 -49.5q113 0 202 51zM428 157h-76l179 327h-218v59h286v-66z" />
    <glyph glyph-name="uni277D" unicode="&#x277d;" horiz-adv-x="890" 
d="M647 11q89 51 138.5 140t49.5 199q0 113 -51 202t-140 138.5t-199 49.5q-113 0 -202 -51t-138.5 -140t-49.5 -199q0 -113 51 -202t140 -138.5t199 -49.5q113 0 202 51zM334.5 180q-43.5 32 -43.5 83q0 33 21.5 58.5t58.5 38.5q-29 13 -46 36t-17 52q0 45 38.5 74.5
t98.5 29.5q61 0 99 -29t38 -76q0 -29 -16 -51.5t-45 -35.5q37 -13 58 -38t21 -59q0 -51 -43 -83t-111 -32t-111.5 32zM499 402q20 15 20 39q0 23 -20 37.5t-53 14.5t-53 -14.5t-20 -37.5q0 -24 20 -39t53 -15t53 15zM510 222.5q24 17.5 24 45.5q0 30 -23.5 47t-64.5 17
t-65 -17t-24 -47q0 -28 24.5 -45.5t64.5 -17.5t64 17.5z" />
    <glyph glyph-name="uni277E" unicode="&#x277e;" horiz-adv-x="890" 
d="M647 11q89 51 138.5 140t49.5 199q0 113 -51 202t-140 138.5t-199 49.5q-113 0 -202 -51t-138.5 -140t-49.5 -199q0 -113 51 -202t140 -138.5t199 -49.5q113 0 202 51zM348 181.5q-39 33.5 -44 86.5h68q2 -28 24 -45t56 -17q46 0 68 38.5t20 104.5q-9 -27 -36 -44
t-61 -17q-60 0 -98 36t-38 93q0 60 39 97.5t101 37.5q74 0 115 -53.5t41 -148.5q0 -93 -40 -147.5t-116 -54.5q-60 0 -99 33.5zM503 364.5q21 21.5 21 55.5t-21 54.5t-54 20.5q-34 0 -55 -21t-21 -54q0 -34 20.5 -55.5t54.5 -21.5t55 21.5z" />
    <glyph glyph-name="zero.squared" horiz-adv-x="898" 
d="M810 -11h-722v722h722v-722zM150 653v-606h598v606h-598zM337 202.5q-42 54.5 -42 147.5q0 92 42 147t113 55q70 0 112 -54t42 -146q0 -93 -42 -148.5t-112 -55.5q-71 0 -113 54.5zM513 246q23 39 23 105q0 65 -23 103.5t-63 38.5q-39 0 -63 -38.5t-24 -103.5
q0 -67 23.5 -105.5t63.5 -38.5t63 39z" />
    <glyph glyph-name="one.squared" horiz-adv-x="898" 
d="M810 -11h-722v722h722v-722zM150 653v-606h598v606h-598zM450 441q-23 -34 -79 -34h-17v68h17q79 0 79 62v6h67v-386h-67v284z" />
    <glyph glyph-name="two.squared" horiz-adv-x="898" 
d="M810 -11h-722v722h722v-722zM150 653v-606h598v606h-598zM329 193q0 38 15.5 65t37.5 44.5t57 39.5q42 25 62 45t20 49q0 24 -16 40.5t-44 16.5q-33 0 -52.5 -19t-23.5 -50h-69q7 60 47 94t102 34q56 0 90 -31.5t34 -81.5q0 -31 -15 -55.5t-36.5 -41t-56.5 -39.5
q-41 -27 -60.5 -45t-19.5 -42h196v-59h-268v36z" />
    <glyph glyph-name="three.squared" horiz-adv-x="898" 
d="M810 -11h-722v722h722v-722zM150 653v-606h598v606h-598zM354.5 183.5q-43.5 35.5 -46.5 97.5h68q3 -36 28.5 -55.5t65.5 -19.5q34 0 54.5 16.5t20.5 46.5q0 27 -21 43t-58 16h-60v54h60q31 0 47.5 17t16.5 40t-15.5 39.5t-49.5 16.5q-29 0 -51 -18.5t-27 -50.5h-69
q8 60 49 93t102 33q57 0 93 -29.5t36 -75.5q0 -31 -18.5 -54t-51.5 -34q40 -10 62.5 -36t22.5 -61q0 -51 -40 -82.5t-105 -31.5q-70 0 -113.5 35.5z" />
    <glyph glyph-name="four.squared" horiz-adv-x="898" 
d="M810 -11h-722v722h722v-722zM150 653v-606h598v606h-598zM550 157h-67v79h-183v66l183 241h67v-250h61v-57h-61v-79zM483 456l-124 -163h124v163z" />
    <glyph glyph-name="five.squared" horiz-adv-x="898" 
d="M810 -11h-722v722h722v-722zM150 653v-606h598v606h-598zM343 182q-40 34 -47 93h69q4 -29 25 -49t55 -20t55.5 22t21.5 57q0 33 -21 54t-54 21q-38 0 -68 -27h-67l29 210h234v-59h-181l-14 -100q33 29 85 29q55 0 89 -35.5t34 -92.5q0 -61 -40 -99t-104 -38
q-61 0 -101 34z" />
    <glyph glyph-name="six.squared" horiz-adv-x="898" 
d="M810 -11h-722v722h722v-722zM150 653v-606h598v606h-598zM345 215.5q-44 54.5 -44 146.5t46 147.5t122 55.5q61 0 99.5 -33t44.5 -90h-68q-3 27 -23 46t-53 19q-49 0 -77 -40.5t-28 -112.5q14 36 44.5 55.5t69.5 19.5q57 0 93.5 -36.5t36.5 -96.5t-40.5 -97.5
t-104.5 -37.5q-74 0 -118 54.5zM521 239.5q21 21.5 21 56.5q0 34 -21 55.5t-55 21.5t-55.5 -22.5t-21.5 -57.5q0 -33 21.5 -54t55.5 -21t55 21.5z" />
    <glyph glyph-name="seven.squared" horiz-adv-x="898" 
d="M810 -11h-722v722h722v-722zM150 653v-606h598v606h-598zM431 157h-76l179 327h-218v59h286v-66z" />
    <glyph glyph-name="eight.squared" horiz-adv-x="898" 
d="M810 -11h-722v722h722v-722zM150 653v-606h598v606h-598zM338.5 180q-43.5 32 -43.5 83q0 33 21.5 58.5t58.5 38.5q-29 13 -46 36t-17 52q0 45 38.5 74.5t98.5 29.5q61 0 99 -29t38 -76q0 -29 -16 -51.5t-45 -35.5q37 -13 58 -38t21 -59q0 -51 -43 -83t-111 -32
t-111.5 32zM503 402q20 15 20 39q0 23 -20 37.5t-53 14.5t-53 -14.5t-20 -37.5q0 -24 20 -39t53 -15t53 15zM514 222.5q24 17.5 24 45.5q0 30 -23.5 47t-64.5 17t-65 -17t-24 -47q0 -28 24.5 -45.5t64.5 -17.5t64 17.5z" />
    <glyph glyph-name="nine.squared" horiz-adv-x="898" 
d="M810 -11h-722v722h722v-722zM150 653v-606h598v606h-598zM355 181.5q-39 33.5 -44 86.5h68q2 -28 24 -45t56 -17q46 0 68 38.5t20 104.5q-9 -27 -36 -44t-61 -17q-60 0 -98 36t-38 93q0 60 39 97.5t101 37.5q74 0 115 -53.5t41 -148.5q0 -93 -40 -147.5t-116 -54.5
q-60 0 -99 33.5zM510 364.5q21 21.5 21 55.5t-21 54.5t-54 20.5q-34 0 -55 -21t-21 -54q0 -34 20.5 -55.5t54.5 -21.5t55 21.5z" />
    <glyph glyph-name="zero.blacksquared" horiz-adv-x="898" 
d="M88 711v-722h722v722h-722zM337 202.5q-42 54.5 -42 147.5q0 92 42 147t113 55q70 0 112 -54t42 -146q0 -93 -42 -148.5t-112 -55.5q-71 0 -113 54.5zM513 246q23 39 23 105q0 65 -23 103.5t-63 38.5q-39 0 -63 -38.5t-24 -103.5q0 -67 23.5 -105.5t63.5 -38.5t63 39z
" />
    <glyph glyph-name="one.blacksquared" horiz-adv-x="898" 
d="M88 711v-722h722v722h-722zM450 441q-23 -34 -79 -34h-17v68h17q79 0 79 62v6h67v-386h-67v284z" />
    <glyph glyph-name="two.blacksquared" horiz-adv-x="898" 
d="M88 711v-722h722v722h-722zM329 193q0 38 15.5 65t37.5 44.5t57 39.5q42 25 62 45t20 49q0 24 -16 40.5t-44 16.5q-33 0 -52.5 -19t-23.5 -50h-69q7 60 47 94t102 34q56 0 90 -31.5t34 -81.5q0 -31 -15 -55.5t-36.5 -41t-56.5 -39.5q-41 -27 -60.5 -45t-19.5 -42h196v-59
h-268v36z" />
    <glyph glyph-name="three.blacksquared" horiz-adv-x="898" 
d="M88 711v-722h722v722h-722zM354.5 183.5q-43.5 35.5 -46.5 97.5h68q3 -36 28.5 -55.5t65.5 -19.5q34 0 54.5 16.5t20.5 46.5q0 27 -21 43t-58 16h-60v54h60q31 0 47.5 17t16.5 40t-15.5 39.5t-49.5 16.5q-29 0 -51 -18.5t-27 -50.5h-69q8 60 49 93t102 33q57 0 93 -29.5
t36 -75.5q0 -31 -18.5 -54t-51.5 -34q40 -10 62.5 -36t22.5 -61q0 -51 -40 -82.5t-105 -31.5q-70 0 -113.5 35.5z" />
    <glyph glyph-name="four.blacksquared" horiz-adv-x="898" 
d="M88 711v-722h722v722h-722zM550 157h-67v79h-183v66l183 241h67v-250h61v-57h-61v-79zM483 456l-124 -163h124v163z" />
    <glyph glyph-name="five.blacksquared" horiz-adv-x="898" 
d="M88 711v-722h722v722h-722zM361 182q-40 34 -47 93h69q4 -29 25 -49t55 -20t55.5 22t21.5 57q0 33 -21 54t-54 21q-38 0 -68 -27h-67l29 210h234v-59h-181l-14 -100q33 29 85 29q55 0 89 -35.5t34 -92.5q0 -61 -40 -99t-104 -38q-61 0 -101 34z" />
    <glyph glyph-name="six.blacksquared" horiz-adv-x="898" 
d="M88 711v-722h722v722h-722zM345 215.5q-44 54.5 -44 146.5t46 147.5t122 55.5q61 0 99.5 -33t44.5 -90h-68q-3 27 -23 46t-53 19q-49 0 -77 -40.5t-28 -112.5q14 36 44.5 55.5t69.5 19.5q57 0 93.5 -36.5t36.5 -96.5t-40.5 -97.5t-104.5 -37.5q-74 0 -118 54.5z
M521 239.5q21 21.5 21 56.5q0 34 -21 55.5t-55 21.5t-55.5 -22.5t-21.5 -57.5q0 -33 21.5 -54t55.5 -21t55 21.5z" />
    <glyph glyph-name="seven.blacksquared" horiz-adv-x="898" 
d="M88 711v-722h722v722h-722zM431 157h-76l179 327h-218v59h286v-66z" />
    <glyph glyph-name="eight.blacksquared" horiz-adv-x="898" 
d="M88 711v-722h722v722h-722zM338.5 180q-43.5 32 -43.5 83q0 33 21.5 58.5t58.5 38.5q-29 13 -46 36t-17 52q0 45 38.5 74.5t98.5 29.5q61 0 99 -29t38 -76q0 -29 -16 -51.5t-45 -35.5q37 -13 58 -38t21 -59q0 -51 -43 -83t-111 -32t-111.5 32zM503 402q20 15 20 39
q0 23 -20 37.5t-53 14.5t-53 -14.5t-20 -37.5q0 -24 20 -39t53 -15t53 15zM514 222.5q24 17.5 24 45.5q0 30 -23.5 47t-64.5 17t-65 -17t-24 -47q0 -28 24.5 -45.5t64.5 -17.5t64 17.5z" />
    <glyph glyph-name="nine.blacksquared" horiz-adv-x="898" 
d="M88 711v-722h722v722h-722zM355 181.5q-39 33.5 -44 86.5h68q2 -28 24 -45t56 -17q46 0 68 38.5t20 104.5q-9 -27 -36 -44t-61 -17q-60 0 -98 36t-38 93q0 60 39 97.5t101 37.5q74 0 115 -53.5t41 -148.5q0 -93 -40 -147.5t-116 -54.5q-60 0 -99 33.5zM510 364.5
q21 21.5 21 55.5t-21 54.5t-54 20.5q-34 0 -55 -21t-21 -54q0 -34 20.5 -55.5t54.5 -21.5t55 21.5z" />
    <glyph glyph-name="period" unicode="." horiz-adv-x="226" 
d="M68 8q-18 18 -18 45q0 26 18 44t45 18t45 -18t18 -44q0 -27 -18 -45t-45 -18t-45 18z" />
    <glyph glyph-name="comma" unicode="," horiz-adv-x="252" 
d="M203 151l-109 -334l-67 21l105 335z" />
    <glyph glyph-name="colon" unicode=":" horiz-adv-x="226" 
d="M68 8q-18 18 -18 45q0 26 18 44t45 18t45 -18t18 -44q0 -27 -18 -45t-45 -18t-45 18zM68 435q-18 18 -18 45q0 26 18 44t45 18t45 -18t18 -44q0 -27 -18 -45t-45 -18t-45 18z" />
    <glyph glyph-name="semicolon" unicode=";" horiz-adv-x="275" 
d="M98 435q-18 18 -18 45q0 26 18 44t45 18t45 -18t18 -44q0 -27 -18 -45t-45 -18t-45 18zM211 151l-109 -334l-67 21l105 335z" />
    <glyph glyph-name="ellipsis" unicode="&#x2026;" horiz-adv-x="640" 
d="M482 8q-18 18 -18 45q0 26 18 44t45 18t45 -18t18 -44q0 -27 -18 -45t-45 -18t-45 18zM68 8q-18 18 -18 45q0 26 18 44t45 18t45 -18t18 -44q0 -27 -18 -45t-45 -18t-45 18zM275 8q-18 18 -18 45q0 26 18 44t45 18t45 -18t18 -44q0 -27 -18 -45t-45 -18t-45 18z" />
    <glyph glyph-name="exclam" unicode="!" horiz-adv-x="252" 
d="M168 180h-83v570h83v-570zM81 8q-18 18 -18 45q0 26 18 44t45 18t45 -18t18 -44q0 -27 -18 -45t-45 -18t-45 18z" />
    <glyph glyph-name="exclamdown" unicode="&#xa1;" horiz-adv-x="252" 
d="M81 435q-18 18 -18 44q0 27 18 45t45 18t45 -18t18 -45q0 -26 -18 -44t-45 -18t-45 18zM168 -218h-83v570h83v-570z" />
    <glyph glyph-name="question" unicode="?" horiz-adv-x="563" 
d="M240 211q0 40 14 71t34.5 52t53.5 50q44 37 65.5 65.5t21.5 69.5q0 50 -38 82.5t-100 32.5q-69 0 -114 -43.5t-46 -124.5h-88q4 78 37 133t88 83.5t124 28.5q66 0 116.5 -24.5t78 -68t27.5 -98.5q0 -41 -14.5 -72t-34.5 -52t-55 -50q-45 -37 -66.5 -65t-21.5 -70v-38h-82
v38zM236 8q-18 18 -18 45q0 26 18 44t45 18t45 -18t18 -44q0 -27 -18 -45t-45 -18t-45 18z" />
    <glyph glyph-name="questiondown" unicode="&#xbf;" horiz-adv-x="563" 
d="M327 524q18 -18 18 -45q0 -26 -18 -44t-45 -18t-45 18t-18 44q0 27 18 45t45 18t45 -18zM323 321q0 -40 -14 -71t-34.5 -52t-53.5 -50q-44 -37 -65.5 -65.5t-21.5 -69.5q0 -50 38 -82.5t100 -32.5q69 0 114 43.5t46 124.5h88q-4 -78 -37 -133t-88 -83.5t-124 -28.5
q-66 0 -116.5 24.5t-78 68t-27.5 98.5q0 41 14.5 72t34.5 52t55 50q45 37 66.5 65t21.5 70v38h82v-38z" />
    <glyph glyph-name="periodcentered" unicode="&#xb7;" horiz-adv-x="246" 
d="M78 266q-18 18 -18 45q0 26 18 44t45 18t45 -18t18 -44q0 -27 -18 -45t-45 -18t-45 18z" />
    <glyph glyph-name="bullet" unicode="&#x2022;" horiz-adv-x="318" 
d="M88.5 240.5q-28.5 28.5 -28.5 70.5t28.5 70.5t70.5 28.5t70.5 -28.5t28.5 -70.5t-28.5 -70.5t-70.5 -28.5t-70.5 28.5z" />
    <glyph glyph-name="asterisk" unicode="*" horiz-adv-x="495" 
d="M279 298h-62v163l-149 -87l-31 54l150 88l-150 87l31 54l149 -87v163h62v-164l150 88l29 -55l-148 -86l148 -87l-30 -54l-149 87v-164z" />
    <glyph glyph-name="numbersign" unicode="#" horiz-adv-x="816" 
d="M281 184l-49 -204l-69 20l44 184h-168v64h183l50 208h-168v64h183l48 200l69 -20l-43 -180h174l48 200l69 -20l-43 -180h168v-64h-183l-50 -208h168v-64h-183l-49 -204l-69 20l44 184h-174zM346 456l-50 -208h174l50 208h-174z" />
    <glyph glyph-name="slash" unicode="/" horiz-adv-x="359" 
d="M353 767l-266 -880l-74 23l265 878z" />
    <glyph glyph-name="backslash" unicode="\" horiz-adv-x="359" 
d="M346 -90l-74 -23l-266 880l75 21z" />
    <glyph glyph-name="parenleft" unicode="(" horiz-adv-x="318" 
d="M231 -130q-76 85 -115 196.5t-39 237.5q0 128 39 244.5t115 208.5l66 -26q-72 -84 -108 -192.5t-36 -229.5q0 -120 37 -227.5t109 -188.5z" />
    <glyph glyph-name="parenright" unicode=")" horiz-adv-x="318" 
d="M19 -107q72 81 109 188.5t37 227.5q0 121 -36 229.5t-108 192.5l66 26q76 -92 115 -208.5t39 -244.5q0 -126 -39 -237.5t-115 -196.5z" />
    <glyph glyph-name="braceleft" unicode="{" horiz-adv-x="363" 
d="M270 -128q-72 0 -110 37t-38 104v207q0 30 -22 47.5t-62 17.5v66q39 0 61.5 19.5t22.5 54.5v197q0 68 38 105t110 37h68v-64h-68q-36 0 -55 -20t-19 -58v-197q0 -41 -20 -70t-55 -37q34 -8 54.5 -34t20.5 -64v-207q0 -37 19.5 -57t54.5 -20h68v-64h-68z" />
    <glyph glyph-name="braceright" unicode="}" horiz-adv-x="363" 
d="M25 -128v64h68q35 0 54.5 20t19.5 57v207q0 38 20.5 64t54.5 34q-35 8 -55 37t-20 70v197q0 38 -19 58t-55 20h-68v64h68q72 0 110 -37t38 -105v-197q0 -35 22.5 -54.5t61.5 -19.5v-66q-40 0 -62 -17.5t-22 -47.5v-207q0 -67 -38 -104t-110 -37h-68z" />
    <glyph glyph-name="bracketleft" unicode="[" horiz-adv-x="359" 
d="M334 -128h-234v892h234v-64h-160v-764h160v-64z" />
    <glyph glyph-name="bracketright" unicode="]" horiz-adv-x="359" 
d="M259 764v-892h-234v64h160v764h-160v64h234z" />
    <glyph glyph-name="uni3010" unicode="&#x3010;" horiz-adv-x="372" 
d="M100 -88v893h220v-9q-65 -84 -98.5 -198.5t-33.5 -238.5q0 -125 33.5 -240t98.5 -198v-9h-220z" />
    <glyph glyph-name="uni3011" unicode="&#x3011;" horiz-adv-x="372" 
d="M272 -88h-220v9q65 83 98.5 198t33.5 240q0 124 -33.5 238.5t-98.5 198.5v9h220v-893z" />
    <glyph glyph-name="hyphen" unicode="-" horiz-adv-x="398" 
d="M353 276h-308v70h308v-70z" />
    <glyph glyph-name="endash" unicode="&#x2013;" horiz-adv-x="538" 
d="M493 276h-448v70h448v-70z" />
    <glyph glyph-name="emdash" unicode="&#x2014;" horiz-adv-x="883" 
d="M838 276h-793v70h793v-70z" />
    <glyph glyph-name="underscore" unicode="_" horiz-adv-x="538" 
d="M493 -81h-448v70h448v-70z" />
    <glyph glyph-name="uni301C" unicode="&#x301c;" horiz-adv-x="1177" 
d="M723.5 234q-54.5 17 -129.5 51t-130 51.5t-123 17.5t-134 -24t-116 -64l-43 58q62 47 139 75t154 28q82 0 144 -19t145 -56q67 -31 114.5 -46t101.5 -15q65 0 119 25t111 90l53 -48q-65 -78 -133 -109.5t-151 -31.5q-67 0 -121.5 17z" />
    <glyph glyph-name="quotesinglbase" unicode="&#x201a;" horiz-adv-x="252" 
d="M203 151l-109 -334l-67 21l105 335z" />
    <glyph glyph-name="quotedblbase" unicode="&#x201e;" horiz-adv-x="419" 
d="M370 151l-109 -334l-67 21l105 335zM203 151l-109 -334l-67 21l105 335z" />
    <glyph glyph-name="quotedblleft" unicode="&#x201c;" horiz-adv-x="422" 
d="M52 437l109 334l67 -21l-105 -335zM219 437l109 334l67 -21l-105 -335z" />
    <glyph glyph-name="quotedblright" unicode="&#x201d;" horiz-adv-x="422" 
d="M395 751l-109 -334l-67 21l105 335zM228 751l-109 -334l-67 21l105 335z" />
    <glyph glyph-name="quoteleft" unicode="&#x2018;" horiz-adv-x="255" 
d="M52 437l109 334l67 -21l-105 -335z" />
    <glyph glyph-name="quoteright" unicode="&#x2019;" horiz-adv-x="255" 
d="M228 751l-109 -334l-67 21l105 335z" />
    <glyph glyph-name="quotedbl" unicode="&#x22;" horiz-adv-x="376" 
d="M146 419h-75v331h75v-331zM305 419h-75v331h75v-331z" />
    <glyph glyph-name="quotesingle" unicode="'" horiz-adv-x="217" 
d="M146 418h-75v332h75v-332z" />
    <glyph glyph-name="guillemotleft" unicode="&#xab;" horiz-adv-x="556" 
d="M312 76l-53 -48l-214 214v74l214 214l53 -48l-204 -203zM519 76l-53 -48l-214 214v74l214 214l53 -48l-204 -203z" />
    <glyph glyph-name="guillemotright" unicode="&#xbb;" horiz-adv-x="556" 
d="M304 242l-214 -214l-53 48l204 203l-204 203l53 48l214 -214v-74zM511 242l-214 -214l-53 48l204 203l-204 203l53 48l214 -214v-74z" />
    <glyph glyph-name="guilsinglleft" unicode="&#x2039;" horiz-adv-x="349" 
d="M312 76l-53 -48l-214 214v74l214 214l53 -48l-204 -203z" />
    <glyph glyph-name="guilsinglright" unicode="&#x203a;" horiz-adv-x="349" 
d="M304 242l-214 -214l-53 48l204 203l-204 203l53 48l214 -214v-74z" />
    <glyph glyph-name="cent" unicode="&#xa2;" horiz-adv-x="586" 
d="M259 76q-103 15 -160.5 91.5t-57.5 184.5q0 116 60.5 187t157.5 84v119h67v-117q91 -7 150 -63.5t69 -151.5h-81q-10 60 -46 97.5t-92 44.5v-406q56 6 92 43.5t46 101.5h81q-10 -97 -67.5 -154t-151.5 -63v-125h-67v127zM259 550q-62 -14 -98 -66t-36 -132q0 -82 37 -134
t97 -67v399z" />
    <glyph glyph-name="currency" unicode="&#xa4;" horiz-adv-x="564" 
d="M84 71l-39 36l78 78q-41 52 -41 125q0 72 40 121l-77 77l39 36l77 -77q52 35 121 35q72 0 121 -35l77 77l39 -36l-77 -77q41 -50 41 -122q0 -74 -42 -124l78 -78l-39 -36l-78 78q-51 -34 -120 -34t-120 34zM371 218.5q34 34.5 34 90.5q0 55 -34 89.5t-89 34.5
q-54 0 -88 -34.5t-34 -89.5t34 -90t88 -35q55 0 89 34.5z" />
    <glyph glyph-name="dollar" unicode="$" horiz-adv-x="650" 
d="M537 43q-65 -52 -179 -54v-124h-67v128q-107 14 -172.5 73t-71.5 146h88q6 -55 47.5 -92.5t108.5 -49.5v261l-25 8q-7 2 -62.5 19t-95 60.5t-39.5 105.5q0 82 60 132t162 55v116h67v-119q98 -12 155 -70.5t64 -156.5h-87q-4 61 -38.5 99t-93.5 50v-234l48 -15
q60 -19 100 -38.5t68 -57.5t28 -99q0 -91 -65 -143zM173 472q20 -21 44 -30.5t74 -24.5v218q-63 -3 -100.5 -31.5t-37.5 -75.5q0 -35 20 -56zM358 65q77 1 117.5 31.5t40.5 85.5q0 48 -33.5 74t-95.5 45l-29 9v-245z" />
    <glyph glyph-name="Euro" unicode="&#x20ac;" horiz-adv-x="650" 
d="M490.5 115.5q32.5 49.5 37.5 153.5h87q-8 -140 -63 -210t-167 -70q-110 0 -173 67.5t-81 188.5h-97v64h90q-1 14 -1 43q0 21 1 31h-90v64h95q16 123 80 193.5t176 70.5q109 0 165.5 -72.5t64.5 -207.5h-87q-5 100 -39 151.5t-104 51.5q-74 0 -115 -48t-53 -139h200v-64
h-205q-1 -10 -1 -31q0 -29 1 -43h205v-64h-199q13 -88 54 -133.5t113 -45.5q73 0 105.5 49.5z" />
    <glyph glyph-name="sterling" unicode="&#xa3;" horiz-adv-x="650" 
d="M51 77q76 0 110 30t34 80q0 25 -8 50t-23 56h-113v74h75q-35 72 -35 131q0 62 30.5 110.5t85 75.5t124.5 27q101 0 166.5 -59t76.5 -165h-87q-13 71 -53.5 109t-103.5 38q-65 0 -106.5 -38t-41.5 -98q0 -30 10.5 -61t29.5 -70h213v-74h-177q26 -57 26 -98
q0 -45 -25.5 -76.5t-69.5 -41.5h233q45 0 69 21.5t24 62.5v101h83v-101q0 -79 -45 -120t-131 -41h-371v77z" />
    <glyph glyph-name="yen" unicode="&#xa5;" horiz-adv-x="650" 
d="M367 0h-84v107h-208v64h208v74h-208v64h208l-266 391h99l210 -311l209 311h99l-267 -391h209v-64h-209v-74h209v-64h-209v-107z" />
    <glyph glyph-name="plus" unicode="+" horiz-adv-x="564" 
d="M320 86h-76v190h-199v70h199v190h76v-190h199v-70h-199v-190z" />
    <glyph glyph-name="minus" unicode="&#x2212;" horiz-adv-x="534" 
d="M489 276h-444v70h444v-70z" />
    <glyph glyph-name="multiply" unicode="&#xd7;" horiz-adv-x="513" 
d="M257 242l-167 -167l-50 50l167 167l-167 166l50 50l167 -166l166 166l50 -50l-166 -166l166 -167l-50 -50z" />
    <glyph glyph-name="divide" unicode="&#xf7;" horiz-adv-x="574" 
d="M242 448q-18 18 -18 45q0 26 18 44t45 18t45 -18t18 -44q0 -27 -18 -45t-45 -18t-45 18zM529 276h-484v70h484v-70zM242 85q-18 18 -18 45q0 26 18 44t45 18t45 -18t18 -44q0 -27 -18 -45t-45 -18t-45 18z" />
    <glyph glyph-name="equal" unicode="=" horiz-adv-x="572" 
d="M522 364h-472v70h472v-70zM522 152h-472v70h472v-70z" />
    <glyph glyph-name="notequal" unicode="&#x2260;" horiz-adv-x="572" 
d="M224 152l-71 -113l-39 28l54 85h-118v70h162l90 142h-252v70h297l68 108l38 -27l-51 -81h120v-70h-164l-90 -142h254v-70h-298z" />
    <glyph glyph-name="greater" unicode="&#x3e;" horiz-adv-x="570" 
d="M525 238l-446 -232l-39 62l406 211l-406 211l39 62l446 -232v-82z" />
    <glyph glyph-name="less" unicode="&#x3c;" horiz-adv-x="570" 
d="M530 68l-39 -62l-446 232v82l446 232l39 -62l-406 -211z" />
    <glyph glyph-name="greaterequal" unicode="&#x2265;" horiz-adv-x="632" 
d="M567 309l-483 -161l-19 69l390 130l-390 129l19 69l483 -161v-75zM567 33h-499v70h499v-70z" />
    <glyph glyph-name="lessequal" unicode="&#x2264;" horiz-adv-x="632" 
d="M567 217l-19 -69l-483 161v75l483 161l19 -69l-390 -129zM564 33h-499v70h499v-70z" />
    <glyph glyph-name="plusminus" unicode="&#xb1;" horiz-adv-x="602" 
d="M339 154h-76v156h-213v70h213v156h76v-156h213v-70h-213v-156zM552 33h-502v70h502v-70z" />
    <glyph glyph-name="approxequal" unicode="&#x2248;" horiz-adv-x="594" 
d="M347 309.5q-35 18.5 -79 52.5q-31 23 -49.5 34t-35.5 11q-31 0 -47 -25t-16 -73h-75q0 84 34.5 128.5t99.5 44.5q31 0 61.5 -16.5t70.5 -46.5q37 -27 60.5 -40t46.5 -13q27 0 41.5 24.5t14.5 70.5h75q0 -82 -33 -126t-93 -44q-41 0 -76 18.5zM347 73.5q-35 18.5 -79 52.5
q-31 23 -49.5 34t-35.5 11q-31 0 -47 -25t-16 -73h-75q0 84 34.5 128.5t99.5 44.5q31 0 61.5 -16.5t70.5 -46.5q37 -27 60.5 -40t46.5 -13q27 0 41.5 24.5t14.5 70.5h75q0 -82 -33 -126t-93 -44q-41 0 -76 18.5z" />
    <glyph glyph-name="asciitilde" unicode="~" horiz-adv-x="594" 
d="M347 213.5q-35 18.5 -79 52.5q-31 23 -49.5 34t-35.5 11q-31 0 -47 -25t-16 -73h-75q0 84 34.5 128.5t99.5 44.5q31 0 61.5 -16.5t70.5 -46.5q37 -27 60.5 -40t46.5 -13q27 0 41.5 24.5t14.5 70.5h75q0 -82 -33 -126t-93 -44q-41 0 -76 18.5z" />
    <glyph glyph-name="logicalnot" unicode="&#xac;" horiz-adv-x="573" 
d="M513 17h-76v239h-392v70h468v-309z" />
    <glyph glyph-name="asciicircum" unicode="^" horiz-adv-x="472" 
d="M127 432h-87l156 268h79l157 -268h-87l-109 191z" />
    <glyph glyph-name="emptyset" unicode="&#x2205;" horiz-adv-x="736" 
d="M588 574q45 -43 70 -102t25 -128q0 -89 -41 -161t-113 -113t-161 -41q-97 0 -174 49l-79 -99l-45 31l81 102q-46 43 -72 103t-26 129q0 89 41 161t113 113t161 41q97 0 177 -51l76 96l45 -31zM147.5 249q18.5 -44 51.5 -77l298 375q-58 36 -129 36q-67 0 -121.5 -31.5
t-86 -86t-31.5 -121.5q0 -51 18.5 -95zM490 136.5q55 31.5 86 86t31 121.5q0 50 -17.5 93.5t-50.5 76.5l-297 -375q56 -34 126 -34q67 0 122 31.5z" />
    <glyph glyph-name="integral" unicode="&#x222b;" horiz-adv-x="613" 
d="M45 -147v77h96q61 0 72 59l101 575q12 67 52.5 101.5t105.5 34.5h96v-77h-96q-30 0 -48.5 -15t-23.5 -44l-101 -575q-12 -67 -52.5 -101.5t-105.5 -34.5h-96z" />
    <glyph glyph-name="summation" unicode="&#x2211;" horiz-adv-x="592" 
d="M537 0h-482v77l242 281l-242 265v77h482v-77h-378l211 -230v-72l-211 -244h378v-77z" />
    <glyph glyph-name="radical" unicode="&#x221a;" horiz-adv-x="662" 
d="M425 0h-90l-158 453h-155v77h216l140 -413l205 648l82 -15z" />
    <glyph glyph-name="partialdiff" unicode="&#x2202;" horiz-adv-x="599" 
d="M155.5 21q-53.5 32 -83.5 88.5t-30 129.5q0 74 31 132t86.5 90t126.5 32q100 0 170 -68q-17 100 -85.5 169t-180.5 102l20 76q163 -42 249.5 -152t86.5 -280q0 -103 -32 -182.5t-92.5 -124t-142.5 -44.5q-70 0 -123.5 32zM375 97q41 33 63.5 96t22.5 149q-74 79 -165 79
q-76 0 -122.5 -50t-46.5 -131q0 -78 42.5 -127t110.5 -49q54 0 95 33z" />
    <glyph glyph-name="product" unicode="&#x220f;" horiz-adv-x="748" 
d="M292 0h-84v623h-130v77h592v-77h-130v-623h-84v623h-164v-623z" />
    <glyph glyph-name="percent" unicode="%" horiz-adv-x="906" 
d="M741 705l-502 -725l-63 31l501 724zM117.5 368q-36.5 23 -57 64.5t-20.5 94.5q0 54 20.5 95.5t56.5 65t83 23.5q46 0 82.5 -23t57 -64t20.5 -94q0 -54 -20.5 -96t-57 -65.5t-82.5 -23.5t-82.5 23zM268.5 439q26.5 35 26.5 90t-26.5 89t-68.5 34t-68.5 -34.5t-26.5 -89.5
t26.5 -89.5t68.5 -34.5t68.5 35zM623.5 12q-36.5 23 -57 64.5t-20.5 94.5q0 54 20.5 95.5t56.5 65t83 23.5q46 0 82.5 -23t57 -64t20.5 -94q0 -54 -20.5 -96t-57 -65.5t-82.5 -23.5t-82.5 23zM774.5 83q26.5 35 26.5 90t-26.5 89t-68.5 34t-68.5 -34.5t-26.5 -89.5
t26.5 -89.5t68.5 -34.5t68.5 35z" />
    <glyph glyph-name="perthousand" unicode="&#x2030;" horiz-adv-x="1252" 
d="M741 705l-502 -725l-63 31l501 724zM117.5 368q-36.5 23 -57 64.5t-20.5 94.5q0 54 20.5 95.5t56.5 65t83 23.5q46 0 82.5 -23t57 -64t20.5 -94q0 -54 -20.5 -96t-57 -65.5t-82.5 -23.5t-82.5 23zM268.5 439q26.5 35 26.5 90t-26.5 89t-68.5 34t-68.5 -34.5t-26.5 -89.5
t26.5 -89.5t68.5 -34.5t68.5 35zM623.5 12q-36.5 23 -57 64.5t-20.5 94.5q0 54 20.5 95.5t56.5 65t83 23.5q46 0 82.5 -23t57 -64t20.5 -94q0 -54 -20.5 -96t-57 -65.5t-82.5 -23.5t-82.5 23zM969.5 12q-36.5 23 -57 64.5t-20.5 94.5q0 54 20.5 95.5t56.5 65t83 23.5
q46 0 82.5 -23t57 -64t20.5 -94q0 -54 -20.5 -96t-57 -65.5t-82.5 -23.5t-82.5 23zM1122 81.5q27 35.5 27 91.5q0 55 -27 90t-70 35t-70 -35t-27 -91t27 -91t70 -35t70 35.5zM774.5 83q26.5 35 26.5 90t-26.5 89t-68.5 34t-68.5 -34.5t-26.5 -89.5t26.5 -89.5t68.5 -34.5
t68.5 35z" />
    <glyph glyph-name="arrowup" unicode="&#x2191;" horiz-adv-x="782" 
d="M431 -70h-80v686l-258 -258l-54 52l312 311h80l312 -311l-54 -52l-258 258v-686z" />
    <glyph glyph-name="uni2197" unicode="&#x2197;" horiz-adv-x="816" 
d="M654 557l-558 -557l-57 56l559 558h-398v76h474l57 -56v-474h-77v397z" />
    <glyph glyph-name="arrowright" unicode="&#x2192;" horiz-adv-x="946" 
d="M896 300l-312 -312l-57 50l263 262h-745v76h745l-263 262l57 50l312 -312v-76z" />
    <glyph glyph-name="uni2198" unicode="&#x2198;" horiz-adv-x="816" 
d="M674 10h-474v76h398l-559 558l57 56l558 -557v397h77v-474z" />
    <glyph glyph-name="arrowdown" unicode="&#x2193;" horiz-adv-x="782" 
d="M431 -21h-80l-312 311l54 52l258 -258v686h80v-686l258 258l54 -52z" />
    <glyph glyph-name="uni2199" unicode="&#x2199;" horiz-adv-x="816" 
d="M616 10h-474l-57 56v474h77v-397l558 557l57 -56l-559 -558h398v-76z" />
    <glyph glyph-name="arrowleft" unicode="&#x2190;" horiz-adv-x="946" 
d="M419 38l-57 -50l-312 312v76l312 312l57 -50l-263 -262h745v-76h-745z" />
    <glyph glyph-name="uni2196" unicode="&#x2196;" horiz-adv-x="816" 
d="M777 57l-57 -56l-558 557v-397h-77v474l57 56h474v-76h-398z" />
    <glyph glyph-name="arrowboth" unicode="&#x2194;" horiz-adv-x="1057" 
d="M418 38l-56 -50l-312 312v76l312 312l56 -50l-263 -262h747l-263 262l56 50l312 -312v-76l-312 -312l-56 50l263 262h-747z" />
    <glyph glyph-name="uni21B0" unicode="&#x21b0;" horiz-adv-x="926" 
d="M845 0h-77v389h-610l169 -168l-53 -52l-220 220v76l223 224l54 -52l-173 -172h687v-465z" />
    <glyph glyph-name="uni21B1" unicode="&#x21b1;" horiz-adv-x="926" 
d="M158 0h-77v465h687l-173 172l54 52l223 -224v-76l-220 -220l-53 52l169 168h-610v-389z" />
    <glyph glyph-name="uni21B2" unicode="&#x21b2;" horiz-adv-x="926" 
d="M331 63l-54 -52l-223 224v76l220 220l53 -52l-169 -168h610v389h77v-465h-687z" />
    <glyph glyph-name="uni21B3" unicode="&#x21b3;" horiz-adv-x="926" 
d="M876 235l-223 -224l-54 52l173 172h-687v465h77v-389h610l-169 168l53 52l220 -220v-76z" />
    <glyph glyph-name="lozenge" unicode="&#x25ca;" horiz-adv-x="568" 
d="M323 0h-79l-204 350l204 350h79l205 -350zM127 350l157 -268l157 268l-157 268z" />
    <glyph glyph-name="at" unicode="@" horiz-adv-x="891" 
d="M254.5 -57q-93.5 45 -144.5 129.5t-51 199.5q0 118 52 211t145 145.5t211 52.5q108 0 192.5 -45t131.5 -126t47 -184q0 -70 -21.5 -124.5t-60 -85t-88.5 -30.5q-45 0 -72.5 24.5t-27.5 64.5q-24 -42 -64 -65.5t-90 -23.5q-75 0 -120.5 51t-45.5 132q0 65 26.5 118.5
t72.5 84.5t101 31q48 0 85.5 -23.5t56.5 -63.5l17 73h40l-30 -285q-3 -31 11 -49.5t42 -18.5q49 0 79.5 52.5t30.5 133.5q0 89 -39.5 157.5t-110.5 106t-162 37.5q-100 0 -179 -45t-123 -125t-44 -180q0 -98 43.5 -169.5t123.5 -110t187 -38.5q116 0 210 47v-63
q-96 -41 -214 -41q-124 0 -217.5 45zM498 164q32 23 50.5 63.5t18.5 90.5q0 58 -31.5 94t-82.5 36q-40 0 -72.5 -23t-51.5 -62.5t-19 -88.5q0 -59 32 -96t84 -37q40 0 72 23z" />
    <glyph glyph-name="ampersand" unicode="&#x26;" horiz-adv-x="709" 
d="M175 15.5q-59 26.5 -92 73.5t-33 107q0 77 45 124.5t123 87.5q-38 43 -56.5 77.5t-18.5 73.5q0 43 22 77.5t61 54.5t87 20t87 -19.5t61 -54t22 -77.5q0 -57 -37 -94.5t-105 -71.5l181 -186q32 76 32 182h85q0 -143 -56 -244l99 -102l-63 -55l-86 90q-42 -44 -98.5 -67
t-124.5 -23q-76 0 -135 26.5zM370 495.5q27 26.5 27 62.5q0 34 -24 57t-59 23q-36 0 -60.5 -23.5t-24.5 -58.5q0 -27 16 -53.5t47 -59.5q51 26 78 52.5zM478 136l-212 221q-62 -33 -96 -68t-34 -88q0 -61 46.5 -98t127.5 -37q104 0 168 70z" />
    <glyph glyph-name="paragraph" unicode="&#xb6;" horiz-adv-x="599" 
d="M276 -103v380h-12q-63 0 -114 25.5t-80.5 74.5t-29.5 118q0 57 26 103.5t76.5 74t121.5 27.5h245v-803h-79v734h-75v-734h-79z" />
    <glyph glyph-name="section" unicode="&#xa7;" horiz-adv-x="602" 
d="M148.5 -47.5q-59.5 45.5 -64.5 122.5h81q5 -44 43 -70.5t98 -26.5q57 0 88 21t31 61q0 24 -11.5 38t-28.5 21.5t-54 20.5l-77 26q-54 18 -84 32t-51 40.5t-21 68.5q0 41 27 75t74 54q-49 19 -75.5 47.5t-26.5 79.5q0 68 51.5 108t138.5 40q88 0 142.5 -45t64.5 -126h-81
q-7 48 -41 74t-88 26q-49 0 -78 -20.5t-29 -54.5q0 -32 22 -47t47 -23t33 -11l72 -24q81 -27 118 -59t37 -92q0 -39 -26 -72t-70 -50q49 -21 73 -51.5t24 -79.5q0 -70 -54 -109.5t-151 -39.5q-94 0 -153.5 45.5zM362 206q31 14 49.5 40t18.5 56q0 27 -12.5 43t-30.5 24
t-57 22l-77 26q-40 -18 -59 -41t-19 -53q0 -38 23 -54.5t48.5 -24.5t33.5 -11z" />
    <glyph glyph-name="copyright" unicode="&#xa9;" horiz-adv-x="890" 
d="M246 9.5q-89 49.5 -140 138.5t-51 202q0 110 49.5 199t138.5 140t202 51q110 0 199 -49.5t140 -138.5t51 -202q0 -110 -49.5 -199t-138.5 -140t-202 -51q-110 0 -199 49.5zM612 60q75 42 117.5 118t42.5 172q0 94 -41.5 169.5t-116 119t-169.5 43.5q-92 0 -167 -42
t-117.5 -118t-42.5 -172q0 -94 41.5 -169.5t116 -119t169.5 -43.5q92 0 167 42zM358 184.5q-42 24.5 -65 68t-23 99.5q0 55 23 98t64 67t93 24q70 0 116 -40.5t54 -108.5h-61q-8 43 -37 68.5t-72 25.5q-51 0 -83.5 -37.5t-32.5 -96.5q0 -61 34 -99t87 -38q41 0 69 26t35 69
h61q-7 -68 -53 -109t-114 -41q-53 0 -95 24.5z" />
    <glyph glyph-name="copyright.ss06" horiz-adv-x="882" 
d="M240.5 13q-87.5 49 -136.5 136.5t-49 200.5t49 200.5t136.5 136.5t200.5 49t200.5 -49t136.5 -136.5t49 -200.5t-49 -200.5t-136.5 -136.5t-200.5 -49t-200.5 49zM563 201q46 41 53 109h-61q-7 -43 -35 -69t-69 -26q-53 0 -87 38t-34 99q0 59 32.5 96.5t83.5 37.5
q43 0 72 -25.5t37 -68.5h61q-8 68 -54 108.5t-116 40.5q-52 0 -93 -24t-64 -67t-23 -98q0 -56 23 -99.5t65 -68t95 -24.5q68 0 114 41z" />
    <glyph glyph-name="registered" unicode="&#xae;" horiz-adv-x="615" 
d="M172 243q-61 34 -96 94.5t-35 138.5q0 75 34 136t94.5 95.5t138.5 34.5q75 0 136 -34t95.5 -94.5t34.5 -137.5q0 -75 -34 -136t-94.5 -96t-137.5 -35q-75 0 -136 34zM414 290q47 27 74 75.5t27 110.5q0 60 -26.5 108.5t-73.5 76t-107 27.5q-59 0 -106.5 -27t-74.5 -75.5
t-27 -109.5q0 -60 26.5 -108.5t74 -76.5t107.5 -28q59 0 106 27zM207 355v242h131q37 0 60 -20t23 -52q0 -23 -13.5 -40t-35.5 -25q25 -5 33 -30l24 -75h-51l-20 64q-5 17 -24 17h-77v-81h-50zM339 479q16 0 24.5 11t8.5 26t-8.5 25.5t-24.5 10.5h-82v-73h82z" />
    <glyph glyph-name="registered.ss07" horiz-adv-x="615" 
d="M172 243q-61 34 -96 94.5t-35 138.5q0 75 34 136t94.5 95.5t138.5 34.5q75 0 136 -34t95.5 -94.5t34.5 -137.5q0 -75 -34 -136t-94.5 -96t-137.5 -35q-75 0 -136 34zM207 355h50v81h77q19 0 24 -17l20 -64h51l-24 75q-8 25 -33 30q22 8 35.5 25t13.5 40q0 32 -23 52
t-60 20h-131v-242zM257 479v73h82q16 0 24.5 -10.5t8.5 -25.5t-8.5 -26t-24.5 -11h-82z" />
    <glyph glyph-name="trademark" unicode="&#x2122;" horiz-adv-x="700" 
d="M189 362h-52v289h-111v49h274v-49h-111v-289zM378 362h-53v338h53l111 -278l111 278h52v-338h-52v218l-87 -218h-49l-86 215v-215z" />
    <glyph glyph-name="degree" unicode="&#xb0;" horiz-adv-x="375" 
d="M110.5 416.5q-34.5 19.5 -54 53.5t-19.5 75t19.5 75t54 53t76.5 19t76.5 -19t54.5 -53t20 -75t-20 -75t-54.5 -53.5t-76.5 -19.5t-76.5 19.5zM250 480q25 26 25 65q0 38 -25.5 64t-62.5 26t-62 -26t-25 -64q0 -39 25 -65t62 -26q38 0 63 26z" />
    <glyph glyph-name="bar" unicode="|" horiz-adv-x="264" 
d="M174 -115h-84v865h84v-865z" />
    <glyph glyph-name="brokenbar" unicode="&#xa6;" horiz-adv-x="264" 
d="M174 370h-84v380h84v-380zM174 -115h-84v380h84v-380z" />
    <glyph glyph-name="dagger" unicode="&#x2020;" horiz-adv-x="538" 
d="M310 242h-82v311h-183v69h183v128h82v-128h183v-69h-183v-311z" />
    <glyph glyph-name="daggerdbl" unicode="&#x2021;" horiz-adv-x="548" 
d="M315 242h-82v128h-183v69h183v114h-183v69h183v128h82v-128h183v-69h-183v-114h183v-69h-183v-128z" />
    <glyph glyph-name="uni2116" unicode="&#x2116;" horiz-adv-x="1062" 
d="M766 438q-42 45 -42 115t42 114t108 44q65 0 106.5 -44t41.5 -114q0 -71 -41.5 -115.5t-106.5 -44.5q-66 0 -108 45zM169 0h-84v700h96l396 -580v580h84v-700h-96l-396 580v-580zM935 480.5q24 28.5 24 72.5t-23.5 71.5t-61.5 27.5t-62 -27.5t-24 -71.5t24 -72.5
t62 -28.5q37 0 61 28.5zM990 240h-232v70h232v-70z" />
    <glyph glyph-name="estimated" unicode="&#x212e;" horiz-adv-x="798" 
d="M228 32.5q-87 47.5 -136.5 131t-49.5 186.5q0 102 48 185.5t132 131.5t187 48q100 0 180 -43.5t124.5 -121t42.5 -176.5v-26h-581v-238q46 -45 110 -69.5t137 -24.5q111 0 191 56t108 149h33q-15 -69 -61.5 -122.5t-116.5 -83.5t-154 -30q-107 0 -194 47.5zM175 378h453
v225q-42 39 -97.5 60t-121.5 21q-69 0 -129 -23.5t-105 -67.5v-215z" />
    <glyph glyph-name="uni23CE" unicode="&#x23ce;" horiz-adv-x="927" 
d="M331 63l-54 -52l-223 224v76l220 220l53 -52l-169 -168h610v317h-343v72h421l-1 -465h-687z" />
    <glyph glyph-name="uni2600" unicode="&#x2600;" horiz-adv-x="874" 
d="M457 551h-36v182h36v-182zM379 543l-33 -14l-69 168l33 14zM601 697l-69 -168l-33 14l69 168zM310 505l-25 -25l-128 129l25 25zM721 609l-128 -129l-25 25l128 129zM261 444l-13 -33l-168 71l14 32zM798 482l-168 -71l-13 33l167 70zM362.5 221q-34.5 20 -54.5 54.5
t-20 76.5t20 76.5t54.5 54.5t76.5 20t76.5 -20t54.5 -54.5t20 -76.5t-20 -76.5t-54.5 -54.5t-76.5 -20t-76.5 20zM240 336h-185v32h185v-32zM819 336h-181v32h181v-32zM261 260l-167 -70l-14 32l168 71zM798 222l-14 -32l-167 70l13 33zM310 199l-128 -129l-25 25l128 129z
M721 95l-25 -25l-128 129l25 25zM379 161l-69 -168l-33 14l69 168zM601 7l-33 -14l-69 168l33 14zM457 -29h-36v182h36v-182z" />
    <glyph glyph-name="sun" unicode="&#x263c;" horiz-adv-x="874" 
d="M457 551h-36v182h36v-182zM379 543l-33 -14l-69 168l33 14zM601 697l-69 -168l-33 14l69 168zM310 505l-25 -25l-128 129l25 25zM721 609l-128 -129l-25 25l128 129zM261 444l-13 -33l-168 71l14 32zM798 482l-168 -71l-13 33l167 70zM362.5 221q-34.5 20 -54.5 54.5
t-20 76.5t20 76.5t54.5 54.5t76.5 20t76.5 -20t54.5 -54.5t20 -76.5t-20 -76.5t-54.5 -54.5t-76.5 -20t-76.5 20zM505.5 286.5q26.5 26.5 26.5 66.5q0 39 -26.5 65.5t-65.5 26.5q-40 0 -66.5 -26.5t-26.5 -65.5q0 -40 26.5 -66.5t66.5 -26.5q39 0 65.5 26.5zM240 336h-185
v32h185v-32zM819 336h-181v32h181v-32zM261 260l-167 -70l-14 32l168 71zM798 222l-14 -32l-167 70l13 33zM310 199l-128 -129l-25 25l128 129zM721 95l-25 -25l-128 129l25 25zM379 161l-69 -168l-33 14l69 168zM601 7l-33 -14l-69 168l33 14zM457 -29h-36v182h36v-182z
" />
    <glyph glyph-name="u1F311" unicode="&#x1f311;" horiz-adv-x="657" 
d="M183 100q-66 38 -104 104t-38 147q0 80 38 145.5t104 103t147 37.5q80 0 145.5 -37.5t103 -103t37.5 -145.5q0 -81 -37.5 -147t-103 -104t-145.5 -38q-81 0 -147 38z" />
    <glyph glyph-name="u1F312" unicode="&#x1f312;" horiz-adv-x="657" 
d="M182 99.5q-66 37.5 -103.5 103.5t-37.5 148q0 81 37.5 146.5t103.5 102.5t148 37q81 0 146.5 -37t102.5 -102.5t37 -146.5q0 -82 -37 -148t-102.5 -103.5t-146.5 -37.5q-82 0 -148 37.5zM438 162q49 27 77 77t28 112q0 61 -28 110.5t-77 76.5v-376z" />
    <glyph glyph-name="u1F313" unicode="&#x1f313;" horiz-adv-x="657" 
d="M182 99.5q-66 37.5 -103.5 103.5t-37.5 148q0 81 37.5 146.5t103.5 102.5t148 37q81 0 146.5 -37t102.5 -102.5t37 -146.5q0 -82 -37 -148t-102.5 -103.5t-146.5 -37.5q-82 0 -148 37.5zM330 134q60 0 109 28t76.5 77.5t27.5 111.5q0 61 -27.5 109.5t-76.5 76.5t-109 28
v-431z" />
    <glyph glyph-name="u1F314" unicode="&#x1f314;" horiz-adv-x="657" 
d="M182 99.5q-66 37.5 -103.5 103.5t-37.5 148q0 81 37.5 146.5t103.5 102.5t148 37q81 0 146.5 -37t102.5 -102.5t37 -146.5q0 -82 -37 -148t-102.5 -103.5t-146.5 -37.5q-82 0 -148 37.5zM439 162q49 28 76.5 77.5t27.5 111.5q0 61 -27.5 109.5t-76.5 76.5t-109 28
q-68 0 -122 -35v-361q54 -35 122 -35q60 0 109 28z" />
    <glyph glyph-name="u1F315" unicode="&#x1f315;" horiz-adv-x="657" 
d="M182 99.5q-66 37.5 -103.5 103.5t-37.5 148q0 81 37.5 146.5t103.5 102.5t148 37q81 0 146.5 -37t102.5 -102.5t37 -146.5q0 -82 -37 -148t-102.5 -103.5t-146.5 -37.5q-82 0 -148 37.5zM439 162q49 28 76.5 77.5t27.5 111.5q0 61 -27.5 109.5t-76.5 76.5t-109 28
q-61 0 -110.5 -28t-77.5 -76.5t-28 -109.5q0 -62 28 -111.5t77.5 -77.5t110.5 -28q60 0 109 28z" />
    <glyph glyph-name="u1F316" unicode="&#x1f316;" horiz-adv-x="657" 
d="M180.5 99.5q-65.5 37.5 -102.5 103.5t-37 148q0 81 37 146.5t102.5 102.5t146.5 37q82 0 148 -37t103.5 -102.5t37.5 -146.5q0 -82 -37.5 -148t-103.5 -103.5t-148 -37.5q-81 0 -146.5 37.5zM449 169v361q-54 35 -122 35q-60 0 -109 -28t-76.5 -76.5t-27.5 -109.5
q0 -62 27.5 -111.5t76.5 -77.5t109 -28q68 0 122 35z" />
    <glyph glyph-name="u1F317" unicode="&#x1f317;" horiz-adv-x="657" 
d="M180.5 99.5q-65.5 37.5 -102.5 103.5t-37 148q0 81 37 146.5t102.5 102.5t146.5 37q82 0 148 -37t103.5 -102.5t37.5 -146.5q0 -82 -37.5 -148t-103.5 -103.5t-148 -37.5q-81 0 -146.5 37.5zM327 565q-60 0 -109 -28t-76.5 -76.5t-27.5 -109.5q0 -62 27.5 -111.5
t76.5 -77.5t109 -28v431z" />
    <glyph glyph-name="u1F318" unicode="&#x1f318;" horiz-adv-x="657" 
d="M180.5 99.5q-65.5 37.5 -102.5 103.5t-37 148q0 81 37 146.5t102.5 102.5t146.5 37q82 0 148 -37t103.5 -102.5t37.5 -146.5q0 -82 -37.5 -148t-103.5 -103.5t-148 -37.5q-81 0 -146.5 37.5zM219 538q-49 -27 -77 -76.5t-28 -110.5q0 -62 28 -112t77 -77v376z" />
    <glyph glyph-name="circled" horiz-adv-x="890" 
d="M246 9.5q-89 49.5 -140 138.5t-51 202q0 110 49.5 199t138.5 140t202 51q110 0 199 -49.5t140 -138.5t51 -202q0 -110 -49.5 -199t-138.5 -140t-202 -51q-110 0 -199 49.5zM612 60q75 42 117.5 118t42.5 172q0 94 -41.5 169.5t-116 119t-169.5 43.5q-92 0 -167 -42
t-117.5 -118t-42.5 -172q0 -94 41.5 -169.5t116 -119t169.5 -43.5q92 0 167 42z" />
    <glyph glyph-name="blackcircled" horiz-adv-x="890" 
d="M246 9.5q-89 49.5 -140 138.5t-51 202q0 110 49.5 199t138.5 140t202 51q110 0 199 -49.5t140 -138.5t51 -202q0 -110 -49.5 -199t-138.5 -140t-202 -51q-110 0 -199 49.5z" />
    <glyph glyph-name="squared" horiz-adv-x="898" 
d="M810 -11h-722v722h722v-722zM150 653v-606h598v606h-598z" />
    <glyph glyph-name="blacksquared" horiz-adv-x="898" 
d="M810 -11h-722v722h722v-722z" />
    <glyph glyph-name="dieresis" unicode="&#xa8;" horiz-adv-x="401" 
d="M53.5 623.5q-18.5 18.5 -18.5 44.5t18.5 44t44.5 18t44 -18t18 -44t-18 -44.5t-44 -18.5t-44.5 18.5zM259.5 623.5q-18.5 18.5 -18.5 44.5t18.5 44t44.5 18t44 -18t18 -44t-18 -44.5t-44 -18.5t-44.5 18.5z" />
    <glyph glyph-name="dotaccent" unicode="&#x2d9;" horiz-adv-x="196" 
d="M53 623q-18 18 -18 45q0 26 18 44t45 18t45 -18t18 -44q0 -27 -18 -45t-45 -18t-45 18z" />
    <glyph glyph-name="grave" unicode="`" horiz-adv-x="372" 
d="M350 642l-47 -52l-281 227l47 52z" />
    <glyph glyph-name="acute" unicode="&#xb4;" horiz-adv-x="372" 
d="M350 817l-281 -227l-47 52l281 227z" />
    <glyph glyph-name="hungarumlaut" unicode="&#x2dd;" horiz-adv-x="446" 
d="M290 854l-206 -260l-62 36l208 259zM424 835l-206 -260l-62 36l208 259z" />
    <glyph glyph-name="circumflex" unicode="&#x2c6;" horiz-adv-x="472" 
d="M236 744l-167 -155l-51 47l189 173h59l188 -172l-51 -48z" />
    <glyph glyph-name="caron" unicode="&#x2c7;" horiz-adv-x="472" 
d="M266 607h-59l-189 173l51 47l167 -155l167 155l51 -48z" />
    <glyph glyph-name="breve" unicode="&#x2d8;" horiz-adv-x="420" 
d="M91.5 649.5q-46.5 40.5 -46.5 105.5v13h72v-13q0 -37 26.5 -60t67.5 -23t66.5 23t25.5 60v13h72v-13q0 -65 -45.5 -105.5t-118.5 -40.5t-119.5 40.5z" />
    <glyph glyph-name="ring" unicode="&#x2da;" horiz-adv-x="270" 
d="M63.5 614q-28.5 27 -28.5 68t28.5 68t71.5 27t71.5 -27t28.5 -68t-28.5 -68t-71.5 -27t-71.5 27zM167 650q13 13 13 32q0 20 -13 32.5t-32 12.5q-20 0 -32.5 -12.5t-12.5 -32.5q0 -19 12.5 -32t32.5 -13q19 0 32 13z" />
    <glyph glyph-name="tilde" unicode="&#x2dc;" horiz-adv-x="460" 
d="M268.5 651.5q-24.5 12.5 -53.5 34.5q-22 16 -35 23.5t-25 7.5q-19 0 -30.5 -20t-11.5 -52h-68q0 61 27 99t71 38q26 0 47.5 -11.5t52.5 -33.5q23 -17 37 -25t28 -8q18 0 28.5 17t10.5 52h68q0 -63 -25 -98.5t-69 -35.5q-28 0 -52.5 12.5z" />
    <glyph glyph-name="macron" unicode="&#xaf;" horiz-adv-x="414" 
d="M389 636h-364v67h364v-67z" />
    <glyph glyph-name="cedilla" unicode="&#xb8;" horiz-adv-x="182" 
d="M160 0l-70 -212l-68 13l70 211z" />
    <glyph glyph-name="uni0308" unicode="&#x308;" 
d="M-347.5 623.5q-18.5 18.5 -18.5 44.5t18.5 44t44.5 18t44 -18t18 -44t-18 -44.5t-44 -18.5t-44.5 18.5zM-141.5 623.5q-18.5 18.5 -18.5 44.5t18.5 44t44.5 18t44 -18t18 -44t-18 -44.5t-44 -18.5t-44.5 18.5z" />
    <glyph glyph-name="uni0307" unicode="&#x307;" 
d="M-143 623q-18 18 -18 45q0 26 18 44t45 18t45 -18t18 -44q0 -27 -18 -45t-45 -18t-45 18z" />
    <glyph glyph-name="gravecomb" unicode="&#x300;" 
d="M-22 642l-47 -52l-281 227l47 52z" />
    <glyph glyph-name="acutecomb" unicode="&#x301;" 
d="M-22 817l-281 -227l-47 52l281 227z" />
    <glyph glyph-name="uni030B" unicode="&#x30b;" 
d="M-156 854l-206 -260l-62 36l208 259zM-22 835l-206 -260l-62 36l208 259z" />
    <glyph glyph-name="uni0302" unicode="&#x302;" 
d="M-236 744l-167 -155l-51 47l189 173h59l188 -172l-51 -48z" />
    <glyph glyph-name="uni030C" unicode="&#x30c;" 
d="M-206 607h-59l-189 173l51 47l167 -155l167 155l51 -48z" />
    <glyph glyph-name="uni0306" unicode="&#x306;" 
d="M-328.5 649.5q-46.5 40.5 -46.5 105.5v13h72v-13q0 -37 26.5 -60t67.5 -23t66.5 23t25.5 60v13h72v-13q0 -65 -45.5 -105.5t-118.5 -40.5t-119.5 40.5z" />
    <glyph glyph-name="uni030A" unicode="&#x30a;" 
d="M-206.5 614q-28.5 27 -28.5 68t28.5 68t71.5 27t71.5 -27t28.5 -68t-28.5 -68t-71.5 -27t-71.5 27zM-103 650q13 13 13 32q0 20 -13 32.5t-32 12.5q-20 0 -32.5 -12.5t-12.5 -32.5q0 -19 12.5 -32t32.5 -13q19 0 32 13z" />
    <glyph glyph-name="tildecomb" unicode="&#x303;" 
d="M-191.5 651.5q-24.5 12.5 -53.5 34.5q-22 16 -35 23.5t-25 7.5q-19 0 -30.5 -20t-11.5 -52h-68q0 61 27 99t71 38q26 0 47.5 -11.5t52.5 -33.5q23 -17 37 -25t28 -8q18 0 28.5 17t10.5 52h68q0 -63 -25 -98.5t-69 -35.5q-28 0 -52.5 12.5z" />
    <glyph glyph-name="uni0304" unicode="&#x304;" 
d="M-25 636h-364v67h364v-67z" />
    <glyph glyph-name="uni0327" unicode="&#x327;" 
d="M-22 0l-70 -212l-68 13l70 211z" />
    <glyph glyph-name="uni0326" unicode="&#x326;" 
d="M-22 -55l-109 -334l-67 21l105 335z" />
    <glyph glyph-name="uni0328" unicode="&#x328;" 
d="M-176 -188.5q-28 23.5 -28 61.5q0 37 27.5 76t77.5 67h4v-16h41q-41 -27 -62 -54t-21 -51q0 -18 12 -28t33 -10q19 0 45 9l11 -67q-30 -11 -64 -11q-48 0 -76 23.5z" />
    <glyph glyph-name="uni0308.case" 
d="M-347.5 613.5q-18.5 18.5 -18.5 44.5t18.5 44t44.5 18t44 -18t18 -44t-18 -44.5t-44 -18.5t-44.5 18.5zM-141.5 613.5q-18.5 18.5 -18.5 44.5t18.5 44t44.5 18t44 -18t18 -44t-18 -44.5t-44 -18.5t-44.5 18.5z" />
    <glyph glyph-name="uni0307.case" 
d="M-143 613q-18 18 -18 45q0 26 18 44t45 18t45 -18t18 -44q0 -27 -18 -45t-45 -18t-45 18z" />
    <glyph glyph-name="gravecomb.case" 
d="M-22 622l-47 -52l-267 220l47 52z" />
    <glyph glyph-name="acutecomb.case" 
d="M-22 790l-267 -220l-47 52l267 220z" />
    <glyph glyph-name="uni030B.case" 
d="M-156 834l-206 -260l-62 36l208 259zM-22 815l-206 -260l-62 36l208 259z" />
    <glyph glyph-name="uni0302.case" 
d="M-227 724l-153 -143l-51 48l175 160h59l175 -160l-51 -48z" />
    <glyph glyph-name="uni030C.case" 
d="M-197 596h-59l-175 160l51 48l153 -143l154 143l51 -48z" />
    <glyph glyph-name="uni0306.case" 
d="M-328.5 639.5q-46.5 40.5 -46.5 105.5v13h72v-13q0 -37 26.5 -60t67.5 -23t66.5 23t25.5 60v13h72v-13q0 -65 -45.5 -105.5t-118.5 -40.5t-119.5 40.5z" />
    <glyph glyph-name="uni030A.case" 
d="M-206.5 604q-28.5 27 -28.5 68t28.5 68t71.5 27t71.5 -27t28.5 -68t-28.5 -68t-71.5 -27t-71.5 27zM-99 636q14 14 14 36t-14 36t-36 14t-36 -14t-14 -36t14 -36t36 -14t36 14z" />
    <glyph glyph-name="tildecomb.case" 
d="M-190.5 621.5q-23.5 12.5 -55.5 35.5q-22 16 -34.5 23t-23.5 7q-19 0 -31 -20t-12 -52h-68q0 61 27 99t71 38q26 0 47.5 -11.5t52.5 -33.5q23 -17 37 -25t28 -8q18 0 28.5 17t10.5 52h68q0 -63 -25 -98.5t-69 -35.5q-28 0 -51.5 12.5z" />
    <glyph glyph-name="uni0304.case" 
d="M-25 638h-364v67h364v-67z" />
    <glyph glyph-name="exclam.ss01" horiz-adv-x="223" 
d="M125 170h-26v580h26v-580zM86 8q-10 10 -10 25q0 16 10 26t26 10q15 0 25 -10t10 -26q0 -15 -10 -25t-25 -10q-16 0 -26 10z" />
    <glyph glyph-name="exclamdown.ss01" horiz-adv-x="223" 
d="M86 481q-10 10 -10 26q0 15 10 25t26 10q15 0 25 -10t10 -25q0 -16 -10 -26t-25 -10q-16 0 -26 10zM125 -210h-26v580h26v-580z" />
    <glyph glyph-name="question.ss01" horiz-adv-x="522" 
d="M254 190q0 39 13.5 69.5t32.5 53t51 53.5q46 43 69 77.5t23 83.5q0 69 -47 112.5t-123 43.5q-84 0 -136.5 -51.5t-58.5 -138.5h-26q7 98 67 156t154 58q58 0 102.5 -22.5t69.5 -63t25 -92.5q0 -38 -13 -68t-31 -51t-51 -52q-47 -43 -71 -79t-24 -89v-38h-26v38zM241 8
q-10 10 -10 25q0 16 10 26t26 10q15 0 25 -10t10 -26q0 -15 -10 -25t-25 -10q-16 0 -26 10z" />
    <glyph glyph-name="questiondown.ss01" horiz-adv-x="522" 
d="M281 532q10 -10 10 -25q0 -16 -10 -26t-26 -10q-15 0 -25 10t-10 26q0 15 10 25t25 10q16 0 26 -10zM268 350q0 -39 -13.5 -69.5t-32.5 -53t-51 -53.5q-46 -43 -69 -77.5t-23 -83.5q0 -69 47 -112.5t123 -43.5q84 0 136.5 51.5t58.5 138.5h26q-7 -98 -67 -156t-154 -58
q-58 0 -102.5 22.5t-69.5 63t-25 92.5q0 38 13 68t31 51t51 52q47 43 71 79t24 89v38h26v-38z" />
    <glyph glyph-name="asterisk.ss01" horiz-adv-x="492" 
d="M258 289h-24v196l-182 -105l-12 17l184 106l-184 107l11 18l183 -107v199h24v-199l183 107l11 -18l-184 -107l184 -106l-12 -17l-182 105v-196z" />
    <glyph glyph-name="numbersign.ss01" horiz-adv-x="775" 
d="M252 212l-52 -223l-25 6l50 217h-190v24h196l55 240h-188v24h194l50 217l25 -6l-49 -211h195l50 217l25 -6l-49 -211h201v-24h-206l-56 -240h199v-24h-204l-52 -223l-25 6l50 217h-194zM313 476l-56 -240h195l55 240h-194z" />
    <glyph glyph-name="slash.ss01" horiz-adv-x="219" 
d="M219 733l-184 -789l-27 6l184 789z" />
    <glyph glyph-name="backslash.ss01" horiz-adv-x="215" 
d="M215 -50l-27 -6l-184 789l27 6z" />
    <glyph glyph-name="parenleft.ss01" horiz-adv-x="258" 
d="M218 -149q-71 91 -112.5 213.5t-41.5 239.5t41.5 239.5t112.5 213.5l24 -14q-68 -86 -109 -205t-41 -234t41 -234t109 -205z" />
    <glyph glyph-name="parenright.ss01" horiz-adv-x="258" 
d="M16 -135q68 86 109 205t41 234t-41 234t-109 205l24 14q71 -91 112.5 -213.5t41.5 -239.5t-41.5 -239.5t-112.5 -213.5z" />
    <glyph glyph-name="braceleft.ss01" horiz-adv-x="368" 
d="M269 -128q-58 0 -89 31.5t-31 90.5v227q0 41 -21.5 63t-62.5 22v26q41 0 62.5 24t21.5 70v216q0 59 31 90.5t89 31.5h64v-24h-64q-46 0 -70 -25t-24 -73v-216q0 -44 -19.5 -71.5t-56.5 -35.5q37 -8 56.5 -33t19.5 -65v-227q0 -48 24 -73t70 -25h64v-24h-64z" />
    <glyph glyph-name="braceright.ss01" horiz-adv-x="368" 
d="M35 -128v24h64q46 0 70 25t24 73v227q0 40 19.5 65t56.5 33q-37 8 -56.5 35.5t-19.5 71.5v216q0 48 -24 73t-70 25h-64v24h64q58 0 89 -31.5t31 -90.5v-216q0 -46 21.5 -70t62.5 -24v-26q-41 0 -62.5 -22t-21.5 -63v-227q0 -59 -31 -90.5t-89 -31.5h-64z" />
    <glyph glyph-name="bracketleft.ss01" horiz-adv-x="342" 
d="M301 -128h-207v892h207v-23h-181v-846h181v-23z" />
    <glyph glyph-name="bracketright.ss01" horiz-adv-x="342" 
d="M248 764v-892h-207v23h181v846h-181v23h207z" />
    <glyph glyph-name="hyphen.ss01" horiz-adv-x="335" 
d="M281 301h-227v24h227v-24z" />
    <glyph glyph-name="endash.ss01" horiz-adv-x="535" 
d="M481 301h-427v24h427v-24z" />
    <glyph glyph-name="emdash.ss01" horiz-adv-x="880" 
d="M826 301h-772v24h772v-24z" />
    <glyph glyph-name="underscore.ss01" horiz-adv-x="535" 
d="M481 -31h-427v24h427v-24z" />
    <glyph glyph-name="uni301C.ss01" horiz-adv-x="1125" 
d="M695 255.5q-54 20.5 -126 60.5q-71 39 -120.5 58.5t-111.5 19.5q-133 0 -264 -104l-17 21q67 53 138.5 81t142.5 28q66 0 120 -20.5t125 -60.5q71 -39 122 -58.5t113 -19.5q70 0 126.5 30t104.5 89l21 -17q-102 -128 -253 -128q-67 0 -121 20.5z" />
    <glyph glyph-name="quotesinglbase.ss01" horiz-adv-x="183" 
d="M157 162l-106 -335l-24 7l104 335z" />
    <glyph glyph-name="quotedblbase.ss01" horiz-adv-x="304" 
d="M157 162l-106 -335l-24 7l104 335zM278 162l-106 -335l-24 7l104 335z" />
    <glyph glyph-name="quotedblleft.ss01" horiz-adv-x="304" 
d="M26 419l106 335l24 -7l-104 -335zM147 419l106 335l24 -7l-104 -335z" />
    <glyph glyph-name="quotedblright.ss01" horiz-adv-x="304" 
d="M157 747l-106 -335l-24 7l104 335zM278 747l-106 -335l-24 7l104 335z" />
    <glyph glyph-name="quoteleft.ss01" horiz-adv-x="183" 
d="M156 747l-104 -335l-26 7l106 335z" />
    <glyph glyph-name="quoteright.ss01" horiz-adv-x="183" 
d="M157 747l-106 -335l-24 7l104 335z" />
    <glyph glyph-name="quotedbl.ss01" horiz-adv-x="269" 
d="M86 418h-26v332h26v-332zM209 418h-26v332h26v-332z" />
    <glyph glyph-name="quotesingle.ss01" horiz-adv-x="146" 
d="M86 418h-26v332h26v-332z" />
    <glyph glyph-name="guillemotleft.ss01" horiz-adv-x="493" 
d="M291 65l-21 -17l-217 217v28l217 217l21 -17l-217 -214zM448 65l-21 -17l-217 217v28l217 217l21 -17l-217 -214z" />
    <glyph glyph-name="guillemotright.ss01" horiz-adv-x="493" 
d="M283 265l-217 -217l-21 17l217 214l-217 214l21 17l217 -217v-28zM440 265l-217 -217l-21 17l217 214l-217 214l21 17l217 -217v-28z" />
    <glyph glyph-name="guilsinglleft.ss01" horiz-adv-x="336" 
d="M291 65l-21 -17l-217 217v28l217 217l21 -17l-217 -214z" />
    <glyph glyph-name="guilsinglright.ss01" horiz-adv-x="336" 
d="M283 265l-217 -217l-21 17l217 214l-217 214l21 17l217 -217v-28z" />
    <glyph glyph-name="cent.ss01" horiz-adv-x="590" 
d="M284 74q-69 4 -122 40.5t-82.5 98t-29.5 139.5q0 77 29.5 138t82.5 96.5t122 39.5v116h27v-116q94 -4 156 -63t73 -153h-29q-12 83 -66 134t-134 55v-499q80 2 134 53t65 138h29q-10 -98 -72 -157t-156 -61v-124h-27v125zM284 599q-60 -4 -106.5 -36t-72.5 -87t-26 -124
q0 -70 26 -125t72.5 -88t106.5 -38v498z" />
    <glyph glyph-name="currency.ss01" horiz-adv-x="541" 
d="M496 104l-19 -19l-82 82q-52 -44 -124 -44t-124 44l-82 -82l-19 19l82 82q-45 51 -45 124q0 36 12.5 68.5t35.5 56.5l-86 86l19 19l86 -86q50 41 121 41q34 0 65 -10.5t54 -30.5l86 86l19 -19l-85 -85q23 -24 35.5 -56.5t12.5 -69.5q0 -72 -44 -124zM352.5 171
q36.5 21 57 57.5t20.5 81.5q0 44 -20.5 80.5t-57 57t-81.5 20.5t-81.5 -20.5t-57.5 -57t-21 -80.5q0 -45 21 -81.5t57.5 -57.5t81.5 -21t81.5 21z" />
    <glyph glyph-name="dollar.ss01" horiz-adv-x="640" 
d="M519 42q-66 -48 -179 -49v-128h-27v129q-116 5 -183.5 61.5t-74.5 153.5h29q5 -85 65 -134.5t164 -54.5v317l-68 20q-62 18 -98 36t-55.5 48.5t-19.5 79.5q0 54 30.5 96.5t85 66t124.5 23.5h1v120h27v-121q91 -8 152 -64t75 -142h-29q-15 77 -68 124.5t-130 55.5v-323
l73 -21q60 -18 96.5 -37t56 -49.5t19.5 -77.5q0 -82 -66 -130zM313 365v316h-2q-61 0 -109 -20.5t-74.5 -57t-26.5 -82.5q0 -42 16.5 -67t47 -39.5t87.5 -31.5zM340 19q100 1 158 41t58 110q0 41 -16.5 66.5t-47 41t-83.5 31.5l-69 20v-310z" />
    <glyph glyph-name="Euro.ss01" horiz-adv-x="814" 
d="M637 85.5q74 65.5 98 183.5h29q-22 -130 -103.5 -203t-206.5 -73q-84 0 -153 35t-114 98.5t-59 148.5h-99v24h96q-3 26 -3 53q0 29 3 54h-96v24h100q14 83 59 145.5t113.5 97t152.5 34.5q125 0 207 -74.5t103 -201.5h-29q-24 116 -97 182.5t-184 66.5q-114 0 -194 -68
t-102 -182h359v-24h-363q-3 -25 -3 -54q0 -27 3 -53h363v-24h-359q14 -77 55 -134.5t103 -89t138 -31.5q109 0 183 65.5z" />
    <glyph glyph-name="sterling.ss01" horiz-adv-x="600" 
d="M33 24q68 0 106.5 37t38.5 99q0 38 -11.5 70t-38.5 90h-95v27h84q-16 38 -25 73.5t-9 76.5q0 61 28.5 109t79.5 74.5t116 26.5q91 0 149.5 -56t71.5 -157h-28q-14 89 -65 138.5t-128 49.5q-57 0 -101.5 -23.5t-69.5 -65.5t-25 -96q0 -39 9 -75t26 -75h261v-27h-249
q25 -54 36.5 -87t11.5 -70q0 -56 -30 -93.5t-84 -45.5h312q55 0 84 30t29 87v90h28v-90q0 -69 -36.5 -105t-104.5 -36h-371v24z" />
    <glyph glyph-name="yen.ss01" horiz-adv-x="628" 
d="M327 0h-26v166h-220v24h220v95h-220v24h220l-267 391h34l246 -362l246 362h34l-267 -391h215v-24h-215v-95h215v-24h-215v-166z" />
    <glyph glyph-name="plus.ss01" horiz-adv-x="556" 
d="M291 105h-26v194h-211v24h211v205h26v-205h211v-24h-211v-194z" />
    <glyph glyph-name="minus.ss01" horiz-adv-x="526" 
d="M472 299h-418v24h418v-24z" />
    <glyph glyph-name="multiply.ss01" horiz-adv-x="498" 
d="M249 271l-181 -181l-20 18l182 182l-182 183l19 18l182 -182l182 182l19 -18l-182 -183l182 -182l-20 -18z" />
    <glyph glyph-name="divide.ss01" horiz-adv-x="566" 
d="M259 470q-10 10 -10 25q0 16 10 26t26 10q15 0 25 -10t10 -26q0 -15 -10 -25t-25 -10q-16 0 -26 10zM512 299h-458v24h458v-24zM259 112q-10 10 -10 25q0 16 10 26t26 10q15 0 25 -10t10 -26q0 -15 -10 -25t-25 -10q-16 0 -26 10z" />
    <glyph glyph-name="equal.ss01" horiz-adv-x="554" 
d="M500 387h-446v24h446v-24zM500 174h-446v24h446v-24z" />
    <glyph glyph-name="notequal.ss01" horiz-adv-x="554" 
d="M218 174l-79 -125l-19 14l70 111h-136v24h152l119 189h-271v24h287l77 122l19 -14l-68 -108h131v-24h-147l-120 -189h267v-24h-282z" />
    <glyph glyph-name="greater.ss01" horiz-adv-x="584" 
d="M532 265l-446 -232l-14 21l436 227l-436 226l14 21l446 -232v-31z" />
    <glyph glyph-name="less.ss01" horiz-adv-x="584" 
d="M512 54l-14 -21l-446 232v31l446 232l14 -21l-436 -226z" />
    <glyph glyph-name="greaterequal.ss01" horiz-adv-x="631" 
d="M565 333l-484 -161l-7 23l458 152l-458 152l7 23l484 -161v-28zM565 60h-499v24h499v-24z" />
    <glyph glyph-name="lessequal.ss01" horiz-adv-x="631" 
d="M557 195l-7 -23l-484 161v28l484 161l7 -23l-458 -152zM565 60h-499v24h499v-24z" />
    <glyph glyph-name="plusminus.ss01" horiz-adv-x="588" 
d="M307 154h-26v179h-225v24h225v171h26v-171h225v-24h-225v-179zM532 60h-476v24h476v-24z" />
    <glyph glyph-name="approxequal.ss01" horiz-adv-x="587" 
d="M346 319q-32 20 -76 59q-36 32 -58 46.5t-45 14.5q-41 0 -64 -32.5t-23 -89.5h-26q0 70 30 108.5t84 38.5q31 0 57.5 -17t61.5 -50q39 -36 68 -54.5t66 -18.5q39 0 62.5 32t23.5 87h26q0 -66 -30.5 -105t-84.5 -39q-40 0 -72 20zM346 90q-32 20 -76 59q-36 32 -58 46.5
t-45 14.5q-41 0 -64 -32.5t-23 -89.5h-26q0 70 30 108.5t84 38.5q31 0 57.5 -17t61.5 -50q39 -36 68 -54.5t66 -18.5q39 0 62.5 32t23.5 87h26q0 -66 -30.5 -105t-84.5 -39q-40 0 -72 20z" />
    <glyph glyph-name="asciitilde.ss01" horiz-adv-x="587" 
d="M346 228q-32 20 -76 59q-36 32 -58 46.5t-45 14.5q-41 0 -64 -32.5t-23 -89.5h-26q0 70 30 108.5t84 38.5q31 0 57.5 -17t61.5 -50q39 -36 68 -54.5t66 -18.5q39 0 62.5 32t23.5 87h26q0 -66 -30.5 -105t-84.5 -39q-40 0 -72 20z" />
    <glyph glyph-name="logicalnot.ss01" horiz-adv-x="552" 
d="M482 17h-26v272h-416v24h442v-296z" />
    <glyph glyph-name="asciicircum.ss01" horiz-adv-x="432" 
d="M76 432h-28l156 268h23l157 -268h-28l-140 240z" />
    <glyph glyph-name="emptyset.ss01" horiz-adv-x="726" 
d="M96 -11l-21 15l82 105q-49 43 -76.5 103.5t-27.5 131.5q0 87 40.5 158t111.5 111.5t158 40.5q101 0 180 -55l79 101l21 -15l-80 -101q52 -43 81 -105.5t29 -134.5q0 -87 -40.5 -158t-111.5 -111.5t-158 -40.5q-103 0 -186 59zM526 578q-71 49 -163 49q-79 0 -144 -37
t-102 -102t-37 -144q0 -64 25 -119.5t69 -94.5zM507 98q65 37 102 102t37 144q0 66 -26 122.5t-73 95.5l-353 -448q73 -53 169 -53q79 0 144 37z" />
    <glyph glyph-name="integral.ss01" horiz-adv-x="509" 
d="M6 -147v26h69q44 0 72.5 28t38.5 81l102 577q12 66 48.5 100.5t95.5 34.5h71v-26h-71q-46 0 -74.5 -28t-38.5 -81l-102 -577q-12 -66 -48.5 -100.5t-93.5 -34.5h-69z" />
    <glyph glyph-name="summation.ss01" horiz-adv-x="588" 
d="M522 0h-456v24l283 326l-283 326v24h456v-24h-419l265 -306v-40l-265 -306h419v-24z" />
    <glyph glyph-name="radical.ss01" horiz-adv-x="658" 
d="M395 0h-32l-176 506h-154v24h175l172 -487l221 694l28 -7z" />
    <glyph glyph-name="partialdiff.ss01" horiz-adv-x="588" 
d="M163 25q-50 32 -78 88.5t-28 129.5t30 129.5t83.5 88t122.5 31.5q61 0 112.5 -25t89.5 -71q-14 125 -85.5 210t-201.5 123l7 26q146 -39 228 -145.5t82 -270.5q0 -104 -31 -182.5t-87 -121t-130 -42.5q-64 0 -114 32zM396.5 60.5q49.5 40.5 75.5 117t26 182.5
q-33 49 -86 77.5t-116 28.5q-61 0 -109 -28t-75 -79t-27 -116t24.5 -116t69 -79t100.5 -28q68 0 117.5 40.5z" />
    <glyph glyph-name="product.ss01" horiz-adv-x="684" 
d="M235 0h-27v676h-139v24h546v-24h-139v-676h-27v676h-214v-676z" />
    <glyph glyph-name="percent.ss01" horiz-adv-x="828" 
d="M664 723l-473 -756l-24 11l473 756zM118 370q-34 23 -53 64t-19 94q0 52 19 93t53 63.5t77 22.5t77 -22.5t53 -63.5t19 -93q0 -53 -19 -94t-53 -64t-77 -23t-77 23zM282.5 414.5q33.5 43.5 33.5 113.5q0 69 -33.5 112t-88.5 43q-53 0 -86.5 -43.5t-33.5 -112.5
t33.5 -112.5t87.5 -43.5t87.5 43.5zM556 12q-34 23 -53 64t-19 94q0 52 19 93t53 63.5t77 22.5t77 -22.5t53 -63.5t19 -93q0 -53 -19 -94t-53 -64t-77 -23t-77 23zM720.5 56.5q33.5 43.5 33.5 113.5q0 69 -33.5 112t-88.5 43q-53 0 -86.5 -43.5t-33.5 -112.5t33.5 -112.5
t87.5 -43.5t87.5 43.5z" />
    <glyph glyph-name="perthousand.ss01" horiz-adv-x="1152" 
d="M664 723l-473 -756l-24 11l473 756zM118 370q-34 23 -53 64t-19 94q0 52 19 93t53 63.5t77 22.5t77 -22.5t53 -63.5t19 -93q0 -53 -19 -94t-53 -64t-77 -23t-77 23zM282.5 414.5q33.5 43.5 33.5 113.5q0 69 -33.5 112t-88.5 43q-53 0 -86.5 -43.5t-33.5 -112.5
t33.5 -112.5t87.5 -43.5t87.5 43.5zM556 12q-34 23 -53 64t-19 94q0 52 19 93t53 63.5t77 22.5t77 -22.5t53 -63.5t19 -93q0 -53 -19 -94t-53 -64t-77 -23t-77 23zM880 12q-34 23 -53 64t-19 94q0 52 19 93t53 63.5t77 22.5t77 -22.5t53 -63.5t19 -93q0 -53 -19 -94t-53 -64
t-77 -23t-77 23zM720.5 56.5q33.5 43.5 33.5 113.5q0 69 -33.5 112t-88.5 43q-53 0 -86.5 -43.5t-33.5 -112.5t33.5 -112.5t87.5 -43.5t87.5 43.5zM1044.5 56.5q33.5 43.5 33.5 113.5q0 69 -33.5 112t-88.5 43q-53 0 -86.5 -43.5t-33.5 -112.5t33.5 -112.5t87.5 -43.5
t87.5 43.5z" />
    <glyph glyph-name="arrowup.ss01" horiz-adv-x="760" 
d="M393 -70h-26v755l-294 -294l-18 19l312 311h26l312 -311l-18 -19l-294 294v-755z" />
    <glyph glyph-name="uni2197.ss01" horiz-adv-x="810" 
d="M684 633l-609 -608l-20 20l610 609h-463v24h487l21 -19v-486h-26v460z" />
    <glyph glyph-name="arrowright.ss01" horiz-adv-x="951" 
d="M891 327l-312 -312l-20 17l296 295h-795v24h795l-296 295l20 17l312 -312v-24z" />
    <glyph glyph-name="uni2198.ss01" horiz-adv-x="810" 
d="M689 22h-487v24h463l-610 609l20 20l609 -608v460h26v-486z" />
    <glyph glyph-name="arrowdown.ss01" horiz-adv-x="760" 
d="M393 -21h-26l-312 311l18 19l294 -294v755h26v-755l294 294l18 -19z" />
    <glyph glyph-name="uni2199.ss01" horiz-adv-x="810" 
d="M608 22h-487l-21 19v486h26v-460l609 608l20 -20l-610 -609h463v-24z" />
    <glyph glyph-name="arrowleft.ss01" horiz-adv-x="951" 
d="M392 32l-20 -17l-312 312v24l312 312l20 -17l-296 -295h795v-24h-795z" />
    <glyph glyph-name="uni2196.ss01" horiz-adv-x="810" 
d="M755 45l-20 -20l-609 608v-460h-26v486l21 19h487v-24h-463z" />
    <glyph glyph-name="arrowboth.ss01" horiz-adv-x="1072" 
d="M392 32l-20 -17l-312 312v24l312 312l20 -17l-296 -295h880l-296 295l20 17l312 -312v-24l-312 -312l-20 17l296 295h-880z" />
    <glyph glyph-name="uni21B0.ss01" horiz-adv-x="953" 
d="M833 0h-26v419h-716l218 -217l-20 -17l-234 234v24l234 234l20 -17l-218 -217h742v-443z" />
    <glyph glyph-name="uni21B1.ss01" horiz-adv-x="953" 
d="M146 0h-26v443h742l-218 217l20 17l234 -234v-24l-234 -234l-20 17l218 217h-716v-419z" />
    <glyph glyph-name="uni21B2.ss01" horiz-adv-x="953" 
d="M309 40l-20 -17l-234 234v24l234 234l20 -17l-218 -217h716v419h26v-443h-742z" />
    <glyph glyph-name="uni21B3.ss01" horiz-adv-x="953" 
d="M898 257l-234 -234l-20 17l218 217h-742v443h26v-419h716l-218 217l20 17l234 -234v-24z" />
    <glyph glyph-name="lozenge.ss01" horiz-adv-x="513" 
d="M268 0h-24l-204 350l204 350h24l205 -350zM70 350l186 -319l187 319l-187 318z" />
    <glyph glyph-name="at.ss01" horiz-adv-x="895" 
d="M253.5 -54q-89.5 44 -138 127t-48.5 196q0 116 51 208.5t141.5 145t206.5 52.5q106 0 188 -43.5t128 -122.5t46 -182q0 -68 -20 -122t-55.5 -84.5t-81.5 -30.5q-42 0 -65.5 25.5t-23.5 71.5q0 15 1 23h-6q-23 -57 -64 -88.5t-97 -31.5q-70 0 -113.5 47t-43.5 130
q0 65 25 119t69.5 85.5t100.5 31.5t93.5 -30.5t49.5 -82.5l17 99h23l-31 -279q-1 -6 -1 -18q0 -37 18 -57.5t50 -20.5q37 0 66 27.5t45.5 75.5t16.5 108q0 96 -42.5 169.5t-118 114t-173.5 40.5q-108 0 -192.5 -49t-132 -136t-47.5 -195q0 -105 45.5 -182t129.5 -118
t197 -41q110 0 206 44v-30q-49 -20 -99.5 -30t-111.5 -10q-119 0 -208.5 44zM526.5 166.5q45.5 50.5 56.5 133.5q2 20 2 30q0 67 -34.5 107t-94.5 40q-49 0 -87.5 -28t-60 -75.5t-21.5 -105.5q0 -73 34.5 -112.5t92.5 -39.5q67 0 112.5 50.5z" />
    <glyph glyph-name="ampersand.ss01" horiz-adv-x="695" 
d="M173 16.5q-55 23.5 -85 66.5t-30 100q0 76 46 122.5t130 87.5q-49 62 -68.5 96t-19.5 75q0 63 44.5 102.5t115.5 39.5q64 0 106.5 -38t42.5 -95q0 -45 -24 -78.5t-60 -56t-95 -52.5q95 -107 247 -252q70 100 70 253h27q0 -81 -20 -150.5t-58 -120.5l110 -102l-21 -20
l-106 100q-42 -49 -99.5 -75t-125.5 -26q-72 0 -127 23.5zM350 454q33 20 55.5 48.5t22.5 67.5q0 47 -35 79t-87 32q-59 0 -96 -32.5t-37 -84.5q0 -35 20.5 -70.5t65.5 -87.5q58 28 91 48zM415 44q53 24 91 69q-150 144 -255 261q-52 -27 -86.5 -51.5t-56.5 -59.5t-22 -81
q0 -73 58.5 -117.5t155.5 -44.5q62 0 115 24z" />
    <glyph glyph-name="paragraph.ss01" horiz-adv-x="550" 
d="M292 -103v380h-23q-63 0 -114 25.5t-80.5 74.5t-29.5 118q0 57 26 103.5t76.5 74t121.5 27.5h201v-803h-26v779h-126v-779h-26z" />
    <glyph glyph-name="section.ss01" horiz-adv-x="586" 
d="M155.5 -43.5q-58.5 44.5 -63.5 118.5h26q6 -61 56.5 -99t128.5 -38q75 0 117 27t42 80q0 41 -23 61.5t-72 40.5l-113 46q-55 23 -84.5 38t-50 40t-20.5 61q0 40 30.5 71.5t85.5 50.5q-51 21 -78 48.5t-27 74.5q0 60 48.5 95t125.5 35t130.5 -44.5t63.5 -116.5h-29
q-10 64 -54.5 99.5t-110.5 35.5q-65 0 -105.5 -27.5t-40.5 -76.5q0 -34 18 -55t41 -32.5t77 -32.5l108 -42q55 -22 83.5 -47t28.5 -71q0 -47 -36.5 -76t-98.5 -43l18 -7q57 -23 84.5 -48.5t27.5 -76.5q0 -64 -50.5 -99t-136.5 -35q-88 0 -146.5 44.5zM340 186q64 17 95.5 45
t31.5 64q0 35 -24.5 56t-70.5 40l-107 43l-32 12q-50 -17 -78 -46.5t-28 -63.5q0 -31 17.5 -52.5t43.5 -35t75 -32.5z" />
    <glyph glyph-name="copyright.ss01" horiz-adv-x="944" 
d="M273 9.5q-89 49.5 -140 138.5t-51 202q0 110 49.5 199t138.5 140t202 51q110 0 199 -49.5t140 -138.5t51 -202q0 -110 -49.5 -199t-138.5 -140t-202 -51q-110 0 -199 49.5zM656.5 33q82.5 46 130 129t47.5 188q0 103 -46 185.5t-128.5 130t-187.5 47.5q-102 0 -184.5 -46
t-130 -129t-47.5 -188q0 -103 46 -185.5t128.5 -130t187.5 -47.5q102 0 184.5 46zM389 186q-40 24 -62.5 67.5t-22.5 98.5q0 54 22 96.5t61.5 66t89.5 23.5q65 0 109 -39.5t54 -106.5h-28q-9 55 -45.5 87t-89.5 32q-64 0 -104.5 -44t-40.5 -115q0 -72 42 -117t109 -45
q52 0 87 32.5t42 87.5h28q-8 -68 -51 -108t-109 -40q-51 0 -91 24z" />
    <glyph glyph-name="registered.ss01" horiz-adv-x="554" 
d="M161.5 281q-51.5 29 -81 80.5t-29.5 116.5q0 64 29 115.5t80.5 81t116.5 29.5q64 0 115.5 -29t81 -80.5t29.5 -116.5q0 -64 -29 -115.5t-80.5 -81t-116.5 -29.5q-64 0 -115.5 29zM380 301.5q46 25.5 72 71.5t26 105q0 57 -25.5 103t-71.5 72.5t-104 26.5
q-57 0 -103 -25.5t-72 -71.5t-26 -105q0 -57 25.5 -103t71.5 -72.5t104 -26.5q57 0 103 25.5zM195 358v236h113q30 0 49 -18t19 -46q0 -21 -12.5 -38t-32.5 -23q18 -3 25 -21l30 -90h-24l-27 82q-6 17 -18 17h-99v-99h-23zM311 477q18 0 29.5 14t11.5 36q0 21 -11.5 34
t-29.5 13h-93v-97h93z" />
    <glyph glyph-name="trademark.ss01" horiz-adv-x="682" 
d="M171 362h-26v313h-124v25h274v-25h-124v-313zM352 362h-26v338h27l130 -307l132 307h26v-338h-26v277l-118 -277h-27l-118 277v-277z" />
    <glyph glyph-name="degree.ss01" horiz-adv-x="361" 
d="M83.5 453.5q-38.5 38.5 -38.5 95.5t38.5 95t96.5 38t97 -38t39 -95t-39 -95.5t-97 -38.5t-96.5 38.5zM258 471.5q31 31.5 31 77.5t-31 77t-78 31q-46 0 -77 -30.5t-31 -77.5t31 -78t77 -31q47 0 78 31.5z" />
    <glyph glyph-name="bar.ss01" horiz-adv-x="234" 
d="M131 -115h-28v865h28v-865z" />
    <glyph glyph-name="brokenbar.ss01" horiz-adv-x="234" 
d="M131 370h-28v380h28v-380zM131 -115h-28v380h28v-380z" />
    <glyph glyph-name="dagger.ss01" horiz-adv-x="516" 
d="M271 242h-26v333h-202v24h202v151h26v-151h202v-24h-202v-333z" />
    <glyph glyph-name="daggerdbl.ss01" horiz-adv-x="516" 
d="M271 242h-26v156h-202v24h202v153h-202v24h202v151h26v-151h202v-24h-202v-153h202v-24h-202v-156z" />
    <glyph glyph-name="uni2116.ss01" horiz-adv-x="1052" 
d="M757.5 438.5q-40.5 44.5 -40.5 114.5q0 68 41 110.5t105 42.5t105 -42.5t41 -110.5q0 -70 -40.5 -114.5t-105.5 -44.5t-105.5 44.5zM120 0h-27v700h40l471 -670v670h27v-700h-38l-473 676v-676zM950 455.5q33 37.5 33 96.5q0 57 -33.5 93.5t-85.5 36.5q-53 0 -87 -36.5
t-34 -93.5q0 -59 34 -96.5t87 -37.5t86 37.5zM972 301h-217v24h217v-24z" />
    <glyph glyph-name="uni23CE.ss01" horiz-adv-x="953" 
d="M309 40l-20 -17l-234 234v24l234 234l20 -17l-218 -217h716v395h-382v24h408v-443h-742z" />
    <glyph glyph-name="zero.ss01" horiz-adv-x="640" 
d="M178.5 33.5q-60.5 44.5 -93 126.5t-32.5 192q0 109 32.5 190t93 125t141.5 44t141.5 -44t93 -125t32.5 -190q0 -110 -32.5 -192t-93 -126.5t-141.5 -44.5t-141.5 44.5zM415.5 101q40.5 35 63 100t22.5 151q0 85 -22.5 149t-63 98.5t-95.5 34.5t-95.5 -34.5t-63 -98.5
t-22.5 -149q0 -86 22.5 -151t63 -100t95.5 -35t95.5 35z" />
    <glyph glyph-name="one.ss01" horiz-adv-x="371" 
d="M202 545q-49 -66 -160 -66h-12v82h12q79 0 120 33t41 96v10h83v-700h-84v545z" />
    <glyph glyph-name="two.ss01" horiz-adv-x="567" 
d="M494 409.5q-27 -42.5 -65 -71t-103 -65.5q-57 -33 -91.5 -57.5t-57.5 -59t-23 -79.5h357v-77h-446v66q0 64 28.5 111t69 78t107.5 70q57 34 89 57t53.5 55t21.5 73q0 56 -37 90t-99 34q-69 0 -114 -43.5t-46 -124.5h-88q4 78 37 133t88 83.5t124 28.5q66 0 116.5 -25
t78 -71t27.5 -105q0 -58 -27 -100.5z" />
    <glyph glyph-name="three.ss01" horiz-adv-x="606" 
d="M175.5 17.5q-60.5 28.5 -96 81.5t-39.5 124h87q5 -72 55.5 -114.5t132.5 -42.5q75 0 120 36.5t45 96.5q0 59 -44.5 92.5t-123.5 33.5h-94v69h94q62 0 101.5 33t39.5 86t-39.5 87t-102.5 34q-65 0 -110 -38.5t-55 -102.5h-87q14 100 83.5 159t173.5 59q64 0 114.5 -23
t78.5 -64.5t28 -93.5q0 -60 -36 -104t-95 -60q75 -17 116 -63t41 -113q0 -59 -31 -104.5t-87.5 -71t-130.5 -25.5q-78 0 -138.5 28.5z" />
    <glyph glyph-name="four.ss01" horiz-adv-x="619" 
d="M471 0h-84v175h-347v75l346 450h85v-448h123v-77h-123v-175zM387 583l-255 -331h255v331z" />
    <glyph glyph-name="five.ss01" horiz-adv-x="602" 
d="M130.5 49.5q-70.5 60.5 -81.5 161.5h87q8 -66 55 -105.5t116 -39.5q74 0 119.5 45t45.5 117q0 71 -45 116t-116 45q-80 0 -145 -69h-93l57 380h397v-77h-327l-36 -236q68 74 169 74q65 0 116 -29.5t79.5 -82.5t28.5 -120q0 -70 -31.5 -124.5t-88 -85t-130.5 -30.5
q-106 0 -176.5 60.5z" />
    <glyph glyph-name="six.ss01" horiz-adv-x="637" 
d="M184.5 36q-65.5 47 -98.5 129.5t-33 189.5q0 111 35.5 191.5t100.5 122.5t153 42q66 0 120 -27.5t88 -77t40 -113.5h-87q-8 62 -52.5 101.5t-108.5 39.5q-101 0 -156.5 -78t-55.5 -206q0 -14 2 -40q19 65 80 109t144 44q66 0 118 -30t81.5 -83.5t29.5 -121.5
q0 -70 -30.5 -124t-85.5 -84.5t-126 -30.5q-93 0 -158.5 47zM416 83.5q37 18.5 60 55.5t23 89q0 53 -22.5 89.5t-59 55t-78.5 18.5t-80.5 -19t-62 -56t-23.5 -89q0 -51 23 -88t61 -55.5t80 -18.5t79 18.5z" />
    <glyph glyph-name="seven.ss01" horiz-adv-x="527" 
d="M175 0h-96l327 623h-377v77h470v-77z" />
    <glyph glyph-name="eight.ss01" horiz-adv-x="622" 
d="M172.5 14q-60.5 25 -94 71.5t-33.5 108.5q0 60 36.5 105.5t101.5 69.5q-50 23 -78 63.5t-28 91.5q0 54 29.5 96.5t83 66.5t122.5 24q68 0 121 -24t82.5 -66.5t29.5 -96.5q0 -51 -27.5 -91t-77.5 -64q64 -24 100.5 -69.5t36.5 -105.5t-32.5 -106.5t-92.5 -72.5t-140 -26
q-79 0 -139.5 25zM419.5 432q41.5 34 41.5 88q0 51 -41.5 83.5t-107.5 32.5q-67 0 -109 -32.5t-42 -83.5q0 -54 42 -88t109 -34q66 0 107.5 34zM440.5 103q49.5 37 49.5 96t-49.5 96.5t-128.5 37.5q-80 0 -130 -37.5t-50 -96.5t50.5 -96t129.5 -37t128.5 37z" />
    <glyph glyph-name="nine.ss01" horiz-adv-x="616" 
d="M128.5 44.5q-67.5 55.5 -81.5 154.5h87q10 -64 52.5 -98.5t112.5 -34.5q90 0 138.5 74t48.5 207q0 11 -2 31q-14 -60 -65 -98t-125 -38q-71 0 -126.5 30t-86.5 83.5t-31 121.5t31 121.5t86.5 83t125.5 29.5q130 0 200 -97.5t70 -266.5q0 -168 -68.5 -263t-195.5 -95
q-103 0 -170.5 55.5zM370 333q36 18 58.5 54t22.5 87q0 52 -22 88.5t-57.5 54.5t-76.5 18q-42 0 -79 -18.5t-60 -55.5t-23 -88q0 -50 22.5 -86t59.5 -54t78 -18t77 18z" />
    <glyph glyph-name="dollar.ss02" horiz-adv-x="647" 
d="M540 43q-65 -52 -179 -54v-124h-67v128q-107 14 -172.5 73t-71.5 146h88q6 -55 47.5 -92.5t108.5 -49.5v261l-25 8q-7 2 -62.5 19t-95 60.5t-39.5 105.5q0 82 60 132t162 55v116h67v-119q98 -12 155 -70.5t64 -156.5h-87q-4 61 -38.5 99t-93.5 50v-234l48 -15
q60 -19 100 -38.5t68 -57.5t28 -99q0 -91 -65 -143zM176 472q20 -21 44 -30.5t74 -24.5v218q-63 -3 -100.5 -31.5t-37.5 -75.5q0 -35 20 -56zM361 65q77 1 117.5 31.5t40.5 85.5q0 48 -33.5 74t-95.5 45l-29 9v-245z" />
    <glyph glyph-name="Euro.ss02" horiz-adv-x="852" 
d="M629.5 118q62.5 52 82.5 151h87q-23 -136 -108 -208t-222 -72q-130 0 -216 69t-114 187h-111v64h101q-2 28 -2 43q0 21 1 31h-100v64h109q25 121 112 192.5t220 71.5t220 -74t110 -206h-87q-19 96 -83.5 149.5t-159.5 53.5q-94 0 -157 -49.5t-86 -137.5h315v-64h-325
q-1 -10 -1 -31q0 -15 2 -43h324v-64h-312q23 -86 85.5 -132.5t154.5 -46.5q98 0 160.5 52z" />
    <glyph glyph-name="sterling.ss02" horiz-adv-x="646" 
d="M45 77q76 0 110 30t34 80q0 25 -8 50t-23 56h-113v74h75q-35 72 -35 131q0 62 30.5 110.5t85 75.5t124.5 27q101 0 166.5 -59t76.5 -165h-87q-13 71 -53.5 109t-103.5 38q-65 0 -106.5 -38t-41.5 -98q0 -30 10.5 -61t29.5 -70h213v-74h-177q26 -57 26 -98
q0 -45 -25.5 -76.5t-69.5 -41.5h233q45 0 69 21.5t24 62.5v101h83v-101q0 -79 -45 -120t-131 -41h-371v77z" />
    <glyph glyph-name="yen.ss02" horiz-adv-x="651" 
d="M367 0h-84v107h-208v64h208v74h-208v64h208l-266 391h99l210 -311l209 311h99l-267 -391h209v-64h-209v-74h209v-64h-209v-107z" />
    </font>
</defs>
</svg>
