<svg id="Layer_1" data-name="Layer 1" xmlns="http://www.w3.org/2000/svg" viewBox="0 0 1313.21 2965.65"><defs><style>.cls-1{fill:#fff;}.cls-2{fill:#145efc;}.cls-3{fill:#dca0ff;}</style></defs><path class="cls-1" d="M32.71,336.28V2827.63S1.62,2852.31,92,2866.43s917.87,84.7,917.87,84.7,73.25-12,109.9-54.87c26.78-31.36,187.54-194.44,187.54-194.44L1292,237.25s-8.47-42-93.17-53.25-48,0-48,0l5.64-117s-71.63-43.89-203.81-38.24S778.3,48.78,772.55,67s-17.93,101-17.93,101-349.23-21.69-402.88,0S32.71,279.55,32.71,336.28Z" transform="translate(-10.81 -6.88)"/><path d="M514.21,615.68A96.27,96.27,0,0,1,491,640.06a344.51,344.51,0,0,1-33.83,20.83q-21.68,12.24-33.79,21.56a56.77,56.77,0,0,0-18,23.49l97.33,7.44-6.82,44.83L348.46,747l3.63-23.86Q356,697.41,367.76,680t26-27.45a369.67,369.67,0,0,1,36.88-22.24q17.15-9.29,26.74-15.51a70.52,70.52,0,0,0,17-15.53,45.61,45.61,0,0,0,9.32-22q2.48-16.27-4.85-27.07t-21.63-11.9q-15.54-1.18-27.65,10.14T414,580.41L369,577q6.1-27.69,20.19-46.92t33.74-28.51A82.79,82.79,0,0,1,465.24,494q22.06,1.69,37.51,12.93a61.34,61.34,0,0,1,22,29.85q6.62,18.6,3,42.11Q524.53,600.56,514.21,615.68Z" transform="translate(-10.81 -6.88)"/><path d="M636.68,723.62l51,3.9-6.81,44.83L536,761.28l6.81-44.84,51,3.9,21.16-139.2q-19.57,25.2-53.14,22.64l-1.87-.15,7.25-47.72,1.87.14q24.26,1.85,38.58-8.57t17.57-31.76l.55-3.62,42.59,3.26Z" transform="translate(-10.81 -6.88)"/><path d="M724.34,699.52a28,28,0,0,1-8.69-14.23,47.6,47.6,0,0,1-.81-20.09,54.84,54.84,0,0,1,6.9-20,36,36,0,0,1,12.85-13.1,28.08,28.08,0,0,1,16.54-3.74,25.19,25.19,0,0,1,15,5.94,28.76,28.76,0,0,1,8.71,14.12,45.94,45.94,0,0,1,.91,20,54.23,54.23,0,0,1-7,20.22,36.58,36.58,0,0,1-12.93,13.1,27.86,27.86,0,0,1-16.37,3.76A25.68,25.68,0,0,1,724.34,699.52ZM850.78,639.7,738.11,783.61l-16.08-11L834.7,628.66Zm-98.44,42q4.41-5.4,5.76-14.27,1.32-8.65-1.4-14.4t-8.22-6.16q-5.67-.43-10.14,4.76t-5.81,14.05q-1.35,8.88,1.35,14.71t8.38,6.28Q747.93,687.14,752.34,681.73Zm52.83,98.66a28.47,28.47,0,0,1-8.78-14.23,46.22,46.22,0,0,1-.92-19.89A56.47,56.47,0,0,1,802.31,726a35.83,35.83,0,0,1,12.58-13.12,27,27,0,0,1,16.19-3.78,26.27,26.27,0,0,1,15.4,6.09,29.16,29.16,0,0,1,9,14.35,45.29,45.29,0,0,1,1,19.9,53.72,53.72,0,0,1-7,20,36.57,36.57,0,0,1-12.94,13.09,28.11,28.11,0,0,1-16.54,3.75A25.35,25.35,0,0,1,805.17,780.39Zm27.89-17.59c3-3.59,5-8.34,5.84-14.26q1.32-8.65-1.4-14.4T829.29,728q-5.68-.42-10.23,4.75t-5.91,14q-1.35,8.88,1.36,14.71t8.37,6.27Q828.57,768.2,833.06,762.8Z" transform="translate(-10.81 -6.88)"/><path class="cls-2" d="M52.2,1663.33,48.64,2846.9l985.59,89.36s59.34-3.19,73.4-24.45c11.6-17.55,173.08-120.91,173.08-178.62,0-7.17,2.66,0,2.72-12.63l-6.56-1189.07c-.66-12.8-13.4-6.77-23.08,2.06L1088.85,1705.3s-6.15,4.58-29.63,2.87c-78.85-5.73-786.77-69.77-961.17-82.57C74.53,1623.87,54,1640.76,52.2,1663.33Z" transform="translate(-10.81 -6.88)"/><path class="cls-3" d="M38.89,906l27.25,616.24c2.51,41.48,17.93,37.16,59.29,41.22l930.71,83.72s42.35.26,56.08-19.12c10.75-15.15,94.37-99.86,133.13-145.78,19.51-23.13,13.68-68.32,13.68-86.12V822.82c0-16-18.75-24.32-30.31-13.46,0,0-122.31,128.78-144.34,138C1003.73,980.88,38.89,906,38.89,906Z" transform="translate(-10.81 -6.88)"/><path d="M1315.58,240.27a86.63,86.63,0,0,0-3.91-27.12c-7.05-21.83-27.79-37.56-51.6-39.16-22.26-1.5-61.48-3.75-74.17-3.91a11.89,11.89,0,0,1-2.42-.23,13.51,13.51,0,0,1-.21-3c.12-13,.13-26,.13-39,0-19.25,0-39.15.45-58.67.26-12-4.53-20.5-15.1-26.61-27.83-16.12-59-21.78-89.17-27.26-5.65-1-11.29-2-16.91-3.14-16.9-3.29-40-4.14-58.58-4.82-4-.15-7.87-.29-11.44-.44H907a6.51,6.51,0,0,0-.77,0c-6.83.72-13.67,1.29-20.51,1.87C872,9.94,858,11.13,844,13.45c-23.29,3.88-48,9.07-70.93,20.62C761,40.2,748.54,49.2,748.63,69.57c0,8.14-.3,28.77-2.16,80.72l-.05,1.51c0,.27,0,.5,0,.68H746c-28.92-1-302.75-13.85-354.08-16.37q-4.29-.21-8.5-.21c-48.15,0-87.86,20.49-123.59,42.62-17.74,11-49.95,25.89-84.05,41.67C74.43,267.1,8.08,300.14,10.89,329.77V2853.92A26.11,26.11,0,0,0,34.54,2880c135.79,13.23,1025.84,91.7,1034.82,92.49.21,0,.43,0,.65,0a34.49,34.49,0,0,0,24.86-10.65c69.74-73.23,215.35-225.63,218.22-228.53a37.87,37.87,0,0,0,10.93-26.63V2685.6C1323.93,2666.86,1315.43,355.18,1315.58,240.27Zm-217.8,2650c0-283.89.18-1739,0-2508.42,0-7.57,1.88-11.54,7.46-15.74,28.47-21.45,59.41-45.5,89.32-68.76,24.6-19.12,50-38.88,73.54-56.79,0,142.87,5.65,2221.39,7.44,2301.22.57,25.74.63,51.94.69,77.29.06,24.47.11,49.77.64,74.69.14,6.89-1.56,11.4-6.07,16.11-31.25,32.58-62.23,66-92.19,98.23-25.56,27.53-52,56-78.47,83.86a4.36,4.36,0,0,0-.35.4c-.74.89-1.4,1.65-2,2.32ZM953,77.82c-42.73,0-82.92-4.63-122.18-14.12A662.29,662.29,0,0,1,949.62,53.05a762.7,762.7,0,0,1,131.44,11.88C1035.79,73.59,993.64,77.82,953,77.82Zm-158.75,53.3c0-9.79-.06-19.9.67-29.69l.12,0c38.12,13.46,79.83,20.54,131.26,22.28,10.34.35,20.65.53,30.64.53,59.46,0,113.21-6.08,164.32-18.6,5.45-1.33,10.9-2.86,15.88-4.28-.32,13.61-1.39,63.27-1.14,81.2,0,2.67-.7,4.39-5.1,7.47-29.13,20.36-67.07,28.27-106.66,35.19-24,4.21-45.55,6.25-65.8,6.25-29.75,0-57.84-4.27-88.41-13.43-26.87-8.06-50.6-16.09-68.9-32.81-6.79-6.2-8.82-10.79-8-18.22C794.36,155,794.32,142.86,794.28,131.12ZM739.43,324.91,689.12,323c-28.88-1.09-215.71-8.44-365.84-14.35-94-3.7-175.5-6.91-199.58-7.84-4.67-.18-10.14-.58-16.33-1.19C155.85,275.78,273,219.52,332.11,191.68a99,99,0,0,1,43.09-9.26c3.09,0,6.28.12,9.48.37,11.15.83,22.41,1.18,33.3,1.51,7.77.24,15.8.49,23.64.91,26.15,1.41,52.73,2.22,78.43,3,14.15.43,28.29.86,42.43,1.38,30.42,1.14,36.64,2.25,43.23,3.43,6.84,1.22,13.92,2.49,45,3.74,10.18.41,26.43.9,43.25,1.41,20.41.61,41.52,1.24,53.78,1.8,3.76.17,4.34.57,4.86,1.22C782,238.1,816,258.59,866.33,269.68a479.42,479.42,0,0,0,102.89,11.65c61.7,0,118.37-13.37,168.44-39.74,11.78-6.21,22.39-14.8,30.91-21.7a15.85,15.85,0,0,1,10.93-3.74c.49,0,1,0,1.49,0,12,.59,19.72,1.19,26.54,1.71,4,.31,7.68.59,11.61.83,1.57.09,3.86.23,6.09.44-12,9.12-47.42,34.87-81.83,59.85-26.72,19.4-52,37.73-66.71,48.63-4.75,3.51-15.74,7.05-29.59,7.05-17.48,0-126.11-3.09-167.14-4.56Q809.69,327.62,739.43,324.91Zm311.15,71.41V2919.75c0,1.47,0,3,0,4.33-1-.06-2.22-.16-3.6-.27l-.47,0c-37.76-3-469.5-41.74-755.2-67.35C166.1,2845.2,75.67,2837.09,64.9,2836.15a67.79,67.79,0,0,1-8-.84,64.16,64.16,0,0,1-.28-7.32V349.88c0-2.66,0-5.56.14-7.38.45,0,1,0,1.75,0,1.47,0,3.18,0,5.17.12,48.73,1.62,470.51,19.21,749.6,30.86,132.44,5.52,228.12,9.52,235.29,9.77a10.73,10.73,0,0,1,2,.24,8.81,8.81,0,0,1,0,1.66c-.2,2.75-.14,5.39-.09,7.95C1050.56,394.15,1050.58,395.24,1050.58,396.32Z" transform="translate(-10.81 -6.88)"/><path d="M1082.62,1637.2c-13.95,14.82-22.69,12-22.69,12-37.41-3-482.19-44.54-765.29-70.16-124-11.22-213.64-19.33-224.32-20.26a68.48,68.48,0,0,1-7.9-.84s-42.82-7-45.61,18.61a26,26,0,0,0,23.44,26.09c134.55,13.23,1016.52,91.7,1025.41,92.49l.65,0a34,34,0,0,0,24.64-10.66c69.1-73.22,213.39-225.63,216.23-228.53A38,38,0,0,0,1318,1429.4s.28-14.67-16.57-16.63c0,0-3.24-2.62-27,22.6C1243.58,1468.08,1091.14,1628.15,1082.62,1637.2Z" transform="translate(-10.81 -6.88)"/><path d="M1077.65,878.17c-13.6,15.14-45,11.33-45,11.33-37.47-2.16-460.11-14.6-743.73-33.58C164.67,847.6,89.71,841.25,79,840.56c-2.31-.11-50.72.79-52.91,26.42a26,26,0,0,0,24,25.54C185,902.6,1053.32,943.35,1062.23,943.94h.64a34,34,0,0,0,24.39-11.23c67.36-74.82,208.45-213.15,211.23-216.12a38,38,0,0,0,10.21-26.87s-.07-14.67-17-16.24c0,0-10.88-9.77-34.07,16C1227.61,722.91,1086,868.92,1077.65,878.17Z" transform="translate(-10.81 -6.88)"/><path class="cls-1" d="M209.62,2423.87q-27.1-19.51-41-53.31t-12.05-78.23l72.06,4.36q-.28,30.11,15.32,49.88t40.79,21.3q28.14,1.7,47.6-19.71t24-53.14q4.52-31.74-8.4-54.8t-41-24.76q-30.11-1.83-58,26.6l-75.51-4.57L239.41,1993l210.27,12.74-11,77.78-153.5-9.3-30.8,111.72a122.12,122.12,0,0,1,39-29.33,93.34,93.34,0,0,1,46.06-8.82q30.6,1.86,51.93,21.66t30.27,53.29q8.94,33.5,3,75.18-6.54,46-27.81,80.21t-53.43,52q-32.14,17.82-70.15,15.51Q236.7,2443.4,209.62,2423.87Z" transform="translate(-10.81 -6.88)"/><path class="cls-1" d="M508.63,2430.38q-27.87-29.93-38-82.94t-.35-122.08q9.54-67.2,34.1-117.49t60.42-76.66q35.85-26.39,77.8-23.84,41.46,2.51,69.08,32.42t37.85,82.31q10.23,52.4.61,120.21t-34,118.75q-24.4,50.93-60.3,77.61T578,2462.82Q536.49,2460.32,508.63,2430.38Zm138.1-83.88q25.08-39.9,34.79-108.34,9.63-67.82-3.93-109.12t-46.12-43.27q-32.58-2-57.77,37t-34.82,106.77q-9.72,68.46,4,110.69t46.24,44.22Q621.65,2386.4,646.73,2346.5Z" transform="translate(-10.81 -6.88)"/><path class="cls-1" d="M769.88,2350.08q-8.6-7.73-12-21.09t-1.07-30.14a88.54,88.54,0,0,1,9.64-30.27q7.22-13.18,17.88-20.06a37.29,37.29,0,0,1,23-6.12,32.83,32.83,0,0,1,20.79,8.46q8.46,7.72,12.06,20.93t1.21,30a87.79,87.79,0,0,1-9.81,30.58q-7.34,13.17-18,20a36.94,36.94,0,0,1-22.74,6.14A33.34,33.34,0,0,1,769.88,2350.08Zm175.8-93.66L788.8,2475.89l-22.32-16.07,156.88-219.48Zm-136.85,66.1q6.13-8.23,8-21.59,1.85-13-1.91-21.58t-11.39-9q-7.89-.48-14.1,7.45t-8.12,21.28q-1.89,13.35,1.84,22t11.62,9.17Q802.69,2330.77,808.83,2322.52ZM882,2469q-8.6-7.73-12.16-21.1t-1.23-29.83a91,91,0,0,1,9.56-30.59q7.08-13.2,17.51-20.08a35.81,35.81,0,0,1,22.49-6.16,34.22,34.22,0,0,1,21.38,8.66q8.82,7.89,12.51,21.27t1.36,29.84a86.75,86.75,0,0,1-9.77,30.26q-7.33,13.18-18,20.06a37.28,37.28,0,0,1-23,6.12A33,33,0,0,1,882,2469Zm38.78-27.26q6.25-8.22,8.16-21.58,1.85-13.05-1.91-21.58t-11.4-9q-7.87-.48-14.22,7.44t-8.24,21.27q-1.89,13.36,1.84,22t11.62,9.16Q914.48,2450,920.74,2441.75Z" transform="translate(-10.81 -6.88)"/><path d="M485.83,1240.74a96.45,96.45,0,0,1-23.08,24.5,348.88,348.88,0,0,1-33.73,21q-21.63,12.35-33.69,21.72a56.8,56.8,0,0,0-17.92,23.58l97.36,7-6.59,44.87-147.44-10.54,3.5-23.88q3.78-25.68,15.46-43.14t25.9-27.58a369.38,369.38,0,0,1,36.77-22.42q17.08-9.37,26.66-15.64a70.78,70.78,0,0,0,16.91-15.61,45.83,45.83,0,0,0,9.21-22q2.39-16.29-5-27t-21.68-11.79q-15.56-1.11-27.6,10.28t-15.39,32l-45.1-3.23q6-27.72,19.95-47T394,1127a82.75,82.75,0,0,1,42.31-7.76q22.08,1.59,37.58,12.74A61.52,61.52,0,0,1,496,1161.76q6.69,18.59,3.24,42.1Q496.08,1225.57,485.83,1240.74Z" transform="translate(-10.81 -6.88)"/><path d="M538.93,1384.21A70.86,70.86,0,0,1,513.19,1354q-8.7-18.9-7.11-42.56l43.86,3.14q.09,16.45,9.6,26.64t26.3,11.39q21.15,1.51,36.1-16.8t22.14-54.36q.95-4.32,2.33-13.73a58.31,58.31,0,0,1-23.26,30q-16.35,10.71-38.75,9.11T546.06,1293q-16-12.3-22.83-32.9t-3.15-45.93q3.76-25.68,17-45A84.73,84.73,0,0,1,570.26,1140a83.6,83.6,0,0,1,43.3-8q28.31,2,46.58,20t24.71,48.94q6.43,31,.49,71.51-5.91,40.17-20.66,68.91T628,1384.55a76.07,76.07,0,0,1-48.69,12.6Q556,1395.49,538.93,1384.21Zm87.74-128.64q13.14-11.31,16.11-31.58,3-20.62-6.51-33.74t-26.65-14.33A40.16,40.16,0,0,0,579,1186.34q-13.2,11.67-16.22,32.3-2.92,19.9,6.8,32.85t26.84,14.16A40.28,40.28,0,0,0,626.67,1255.57Z" transform="translate(-10.81 -6.88)"/><path d="M711.93,1324.65a27.92,27.92,0,0,1-8.77-14.18,47.83,47.83,0,0,1-.9-20.09,54.85,54.85,0,0,1,6.8-20.06,35.94,35.94,0,0,1,12.78-13.16,28.17,28.17,0,0,1,16.53-3.83,25.26,25.26,0,0,1,15,5.87,29,29,0,0,1,8.78,14.08,46.11,46.11,0,0,1,1,20,54.42,54.42,0,0,1-6.93,20.26,36.55,36.55,0,0,1-12.87,13.16,27.81,27.81,0,0,1-16.34,3.84A25.51,25.51,0,0,1,711.93,1324.65Zm126.14-60.43-112,144.46-16.14-11,112-144.46Zm-98.23,42.51q4.38-5.42,5.69-14.3,1.28-8.67-1.47-14.39c-1.83-3.81-4.58-5.86-8.25-6.12s-7.16,1.34-10.12,4.81-4.87,8.17-5.74,14.08-.4,10.82,1.42,14.7,4.62,6,8.41,6.24S736.92,1310.35,739.84,1306.73Zm53.32,98.4a28.51,28.51,0,0,1-8.86-14.19,46.29,46.29,0,0,1-1-19.89,56.32,56.32,0,0,1,6.75-20.27,35.78,35.78,0,0,1,12.51-13.18,27,27,0,0,1,16.17-3.85,26.24,26.24,0,0,1,15.43,6,29.26,29.26,0,0,1,9.11,14.31,45.37,45.37,0,0,1,1.11,19.9,53.85,53.85,0,0,1-6.89,20,36.65,36.65,0,0,1-12.88,13.16,28,28,0,0,1-16.52,3.82A25.32,25.32,0,0,1,793.16,1405.13ZM821,1387.41q4.47-5.42,5.78-14.3,1.28-8.65-1.47-14.39t-8.25-6.11c-3.78-.28-7.19,1.33-10.21,4.79s-5,8.17-5.83,14.08-.4,10.82,1.43,14.7,4.62,6,8.4,6.24S818,1391,821,1387.41Z" transform="translate(-10.81 -6.88)"/></svg>