<svg id="Layer_1" data-name="Layer 1" xmlns="http://www.w3.org/2000/svg" viewBox="0 0 1313.21 2965.65"><defs><style>.cls-1{fill:#fff;}.cls-2{fill:#145efc;}.cls-3{fill:#dca0ff;}</style></defs><path class="cls-1" d="M36.79,338.35V2829.69s-31.09,24.69,59.26,38.8,917.87,84.71,917.87,84.71,73.24-12,109.9-54.87c26.78-31.36,187.54-194.44,187.54-194.44L1296.05,239.32s-8.47-42-93.18-53.25-48,0-48,0l5.65-117S1088.89,25.2,956.71,30.85s-174.33,20-180.08,38.23-17.94,101-17.94,101-349.23-21.68-402.87,0S36.79,281.62,36.79,338.35Z" transform="translate(-11.56 -10.53)"/><path class="cls-2" d="M53.85,2620.11l-3.53,243,978,92.41s58.88-3.3,72.83-25.29c11.52-18.14,171.75-125,171.75-184.72,0-7.41,2.64,0,2.71-13.06l-2.71-220.1c-.66-13.24-14.32-26.28-23.93-17.15l-154.07,163.84s-9.41,9.88-32.7,8.12c-78.25-5.93-789.81-72.88-962.88-86.12A42.39,42.39,0,0,0,53.85,2620.11Z" transform="translate(-11.56 -10.53)"/><path class="cls-3" d="M36.79,2018.3l.45,481.91,981.47,109.65s77.68-8.09,91.41-27.46c10.75-15.16,94.54-127.44,130.5-175.58a82.29,82.29,0,0,0,16.31-49.28V1947.18c0-16-18.75-24.32-30.31-13.46l-142.26,133.64s9,4.7-13.09,13.87C990.63,2114.8,36.79,2018.3,36.79,2018.3Z" transform="translate(-11.56 -10.53)"/><path d="M1316.34,243.91a87,87,0,0,0-3.91-27.12c-7.06-21.82-27.8-37.56-51.61-39.16-22.25-1.49-61.47-3.74-74.17-3.9a11,11,0,0,1-2.42-.24,13.51,13.51,0,0,1-.21-3c.13-13,.13-26,.14-39,0-19.25,0-39.15.45-58.67.26-12-4.54-20.5-15.1-26.61-27.84-16.12-59-21.78-89.18-27.26-5.64-1-11.29-2.05-16.9-3.15-16.91-3.28-40-4.13-58.59-4.81-4-.15-7.86-.29-11.43-.45h-85.7a6.74,6.74,0,0,0-.77,0c-6.83.71-13.67,1.29-20.51,1.87-13.63,1.15-27.73,2.34-41.63,4.65-23.3,3.89-48,9.07-70.94,20.63-12.15,6.12-24.56,15.13-24.47,35.49,0,8.15-.31,28.77-2.16,80.73l-.06,1.5c0,.28,0,.51,0,.69h-.38c-28.93-1-302.76-13.86-354.09-16.37q-4.27-.21-8.49-.21c-48.16,0-87.87,20.48-123.6,42.62-17.74,11-49.94,25.89-84,41.67C75.18,270.75,8.83,303.78,11.65,333.42V2857.57a26.1,26.1,0,0,0,23.65,26.09c135.78,13.23,1025.84,91.7,1034.81,92.49l.65,0a34.46,34.46,0,0,0,24.87-10.66C1165.36,2892.3,1311,2739.9,1313.84,2737a37.84,37.84,0,0,0,10.93-26.63v-21.12C1324.68,2670.51,1316.18,358.83,1316.34,243.91ZM57.39,1982.29c151.82,14.41,909.09,76.56,994,83.57V2592.1c-74.92-6.6-487.9-45.11-755.95-69.36-124-11.22-213.64-19.33-224.31-20.27a66.33,66.33,0,0,1-7.9-.84s-2.27-.36-5.79-.62Zm1041.22,58.51c52.57-55.06,133-136.47,174.69-178.6.69,208.33,1.36,392.07,1.92,516.77l0,.05c-25.67,27.22-135.56,142.65-176.61,185.83C1098.58,2418.09,1098.59,2237.78,1098.61,2040.8ZM1268.86,244.21c0,88.16,2.17,913.39,4.23,1551.22a81.43,81.43,0,0,0-12.73,11.27c-24.08,25.53-117.78,124.2-161.75,170.53,0-530.89,0-1166.2-.07-1591.74,0-7.56,1.88-11.54,7.45-15.73,28.48-21.45,59.41-45.5,89.32-68.76C1219.91,281.87,1245.32,262.11,1268.86,244.21ZM950.37,56.7a762.7,762.7,0,0,1,131.44,11.88c-45.26,8.66-87.42,12.89-128,12.89-42.74,0-82.92-4.64-122.19-14.13A662.37,662.37,0,0,1,950.37,56.7Zm-156.51,114c1.25-12,1.21-24.19,1.18-35.94,0-9.78-.07-19.89.67-29.69l.11,0c38.13,13.47,79.84,20.55,131.27,22.29,10.33.35,20.64.53,30.64.53,59.45,0,113.21-6.09,164.32-18.6,5.44-1.34,10.89-2.87,15.87-4.29-.32,13.62-1.38,63.28-1.14,81.21,0,2.67-.69,4.39-5.1,7.47-29.12,20.36-67.07,28.26-106.66,35.19-24,4.21-45.55,6.25-65.8,6.25-29.75,0-57.84-4.27-88.41-13.44-26.87-8.05-50.59-16.08-68.9-32.8C795.13,182.72,793.09,178.12,793.86,170.7Zm-461,24.63A99,99,0,0,1,376,186.07c3.08,0,6.27.12,9.47.36,11.16.84,22.42,1.19,33.31,1.52,7.76.24,15.79.48,23.64.91,26.15,1.4,52.72,2.21,78.43,3,14.14.43,28.29.86,42.43,1.39,30.41,1.13,36.63,2.25,43.22,3.43,6.85,1.22,13.93,2.49,45,3.74,10.18.41,26.43.9,43.26,1.4,20.4.62,41.51,1.25,53.77,1.8,3.76.17,4.35.58,4.86,1.23,29.4,36.91,63.4,57.39,113.7,68.49A479.33,479.33,0,0,0,970,285c61.71,0,118.38-13.37,168.44-39.74,11.78-6.21,22.39-14.8,30.91-21.71a15.9,15.9,0,0,1,10.93-3.74c.49,0,1,0,1.49,0,12,.6,19.72,1.19,26.54,1.72,4,.31,7.68.59,11.61.83,1.57.09,3.86.23,6.09.44-12,9.12-47.42,34.86-81.82,59.85-26.72,19.4-52,37.72-66.72,48.63-4.74,3.51-15.73,7.05-29.59,7.05-17.48,0-126.1-3.1-167.14-4.57q-70.26-2.52-140.52-5.22l-50.32-1.9C661,325.57,474.16,318.22,324,312.31l-199.59-7.85c-4.67-.18-10.13-.58-16.33-1.19C156.61,279.43,273.7,223.16,332.87,195.33ZM57.53,346.15c.45,0,1,0,1.75,0,1.47,0,3.18.06,5.17.12,48.74,1.63,470.51,19.22,749.61,30.87,132.43,5.52,228.11,9.51,235.28,9.77a9.17,9.17,0,0,1,2,.24,8.55,8.55,0,0,1,0,1.66c-.2,2.75-.15,5.39-.1,8,0,1.08,0,2.17,0,3.25V2011.49a89.09,89.09,0,0,1-20.62-.1c-37.41-3-459.64-35.36-742.74-61-124-11.23-198.82-19.33-209.49-20.27a111.76,111.76,0,0,0-21.1,1.78V353.52C57.39,350.87,57.39,348,57.53,346.15Zm993.8,2577.25c0,1.47,0,3,0,4.33-1-.06-2.23-.16-3.6-.27l-.48,0c-37.75-3-469.5-41.74-755.19-67.36-125.17-11.22-215.6-19.33-226.37-20.26a69.55,69.55,0,0,1-8-.84,62.13,62.13,0,0,1-.29-7.33V2547.92c164.22,15.66,880.57,79.47,994,89.56V2923.4Zm220.22-209.88c-31.25,32.58-62.23,65.95-92.18,98.22-25.57,27.53-52,56-78.48,83.87l-.35.39c-.73.89-1.4,1.66-2,2.33v-4.41c0-53.52,0-148.67,0-273,50.13-53.1,131.82-139.42,176.93-187,.31,62.22.59,101.8.8,111.55.58,25.74.64,51.94.7,77.28,0,24.48.11,49.78.63,74.7C1277.76,2704.3,1276.06,2708.81,1271.55,2713.52Z" transform="translate(-11.56 -10.53)"/><path class="cls-1" d="M448.34,2840.18a50.9,50.9,0,0,1-17.47-22.31q-5.79-13.92-4.64-31.85l31.44,3.08q-.36,12.17,6.3,20.45a24.82,24.82,0,0,0,17.64,9.36,25.39,25.39,0,0,0,20.95-7.1,37.11,37.11,0,0,0,10.89-21q2.22-12.75-3.24-22.31t-17.72-10.77q-13.14-1.28-25.56,9.7L434,2764.15l30.8-97.66,91.73,9-5.44,31.25-67-6.57-14.33,44.61A51.55,51.55,0,0,1,487,2733.63a43.23,43.23,0,0,1,20.18-2.72,37.78,37.78,0,0,1,22.51,9.71q9.15,8.4,12.8,22.1t.72,30.45q-3.22,18.51-12.79,31.93a60,60,0,0,1-23.74,20,58,58,0,0,1-30.77,5Q460,2848.57,448.34,2840.18Z" transform="translate(-11.56 -10.53)"/><path class="cls-1" d="M575.62,2782.31a26.65,26.65,0,0,1-8-13.79,45.54,45.54,0,0,1-.36-19.24,52.19,52.19,0,0,1,7-19A34.38,34.38,0,0,1,586.82,2718a27,27,0,0,1,15.9-3.24,24.08,24.08,0,0,1,14.21,6,27.6,27.6,0,0,1,8,13.69,44.2,44.2,0,0,1,.46,19.15,51.92,51.92,0,0,1-7.14,19.2,35,35,0,0,1-12.65,12.27,26.67,26.67,0,0,1-15.73,3.26A24.53,24.53,0,0,1,575.62,2782.31Zm122.21-54.63L587.07,2863.06l-15.16-10.89,110.76-135.38Zm-95.05,38.19q4.34-5.07,5.8-13.53,1.44-8.27-1-13.81c-1.66-3.69-4.23-5.72-7.73-6.06s-6.89,1.09-9.81,4.34-4.87,7.69-5.85,13.33-.65,10.34,1,14.1,4.27,5.82,7.89,6.18S599.89,2769.26,602.78,2765.87Zm48.52,95.49a27.25,27.25,0,0,1-8.11-13.8,44.18,44.18,0,0,1-.48-19.06,54,54,0,0,1,7-19.22A34.22,34.22,0,0,1,662,2797a25.83,25.83,0,0,1,15.56-3.28,25.12,25.12,0,0,1,14.61,6.14,27.93,27.93,0,0,1,8.35,13.92,43.37,43.37,0,0,1,.56,19.06,51.44,51.44,0,0,1-7.1,19,35,35,0,0,1-12.65,12.26,26.8,26.8,0,0,1-15.9,3.24A24.26,24.26,0,0,1,651.3,2861.36Zm27-16.26q4.41-5.07,5.89-13.52,1.44-8.26-1.05-13.81t-7.73-6.06q-5.43-.54-9.89,4.33t-5.93,13.32q-1.49,8.46,1,14.1t7.88,6.18Q673.93,2850.17,678.34,2845.1Z" transform="translate(-11.56 -10.53)"/><path d="M469.44,2285a96.61,96.61,0,0,1-23.73,23.87,346.11,346.11,0,0,1-34.28,20.1q-21.93,11.77-34.24,20.82a56.75,56.75,0,0,0-18.54,23.1l97.14,9.53L448,2427.09l-147.11-14.43,4.13-23.78q4.45-25.58,16.59-42.71t26.62-26.89a367.63,367.63,0,0,1,37.35-21.44q17.34-8.93,27.06-14.94A70.49,70.49,0,0,0,430,2267.74a45.73,45.73,0,0,0,9.79-21.76q2.82-16.21-4.27-27.17t-21.37-12.35q-15.51-1.53-27.86,9.54T370,2247.57l-45-4.41q6.69-27.55,21.19-46.48t34.35-27.78a82.8,82.8,0,0,1,42.51-6.64q22,2.16,37.23,13.73a61.48,61.48,0,0,1,21.39,30.32q6.21,18.74,2.13,42.16Q480.08,2270.1,469.44,2285Z" transform="translate(-11.56 -10.53)"/><path d="M516.09,2423.14q-17.19-18.18-23-49.34t1.18-71.16q6.76-38.92,22.81-67.58T556,2192a76.12,76.12,0,0,1,49.25-11.84q26.07,2.57,43.11,20.72t22.88,49q5.85,30.81-1,70.08t-22.78,68.31q-15.94,29-38.85,43.64t-49.28,12Q533.29,2441.32,516.09,2423.14Zm87.9-45.25q16.25-22.59,23.14-62.22,6.84-39.27-1.22-63.7t-28.54-26.44q-20.49-2-36.79,20t-23.14,61.31q-6.9,39.63,1.22,64.61t28.6,27Q587.75,2400.49,604,2377.89Z" transform="translate(-11.56 -10.53)"/><path d="M693.23,2374.84a28,28,0,0,1-8.38-14.41,47.75,47.75,0,0,1-.38-20.1,54.75,54.75,0,0,1,7.33-19.87,35.9,35.9,0,0,1,13.13-12.83,28.15,28.15,0,0,1,16.62-3.38,25.14,25.14,0,0,1,14.84,6.26,28.85,28.85,0,0,1,8.4,14.31,45.94,45.94,0,0,1,.48,20,54.29,54.29,0,0,1-7.45,20.07,36.68,36.68,0,0,1-13.22,12.81,27.76,27.76,0,0,1-16.44,3.4A25.51,25.51,0,0,1,693.23,2374.84Zm127.7-57.08L705.19,2459.22l-15.84-11.38,115.74-141.46Zm-99.32,39.9q4.53-5.29,6.06-14.14,1.51-8.64-1.09-14.43t-8.08-6.33q-5.67-.56-10.24,4.54t-6.12,13.92q-1.53,8.85,1,14.74t8.24,6.45Q717.09,2363,721.61,2357.66Zm50.7,99.78a28.54,28.54,0,0,1-8.48-14.42,46.21,46.21,0,0,1-.49-19.91,56.32,56.32,0,0,1,7.28-20.09,35.86,35.86,0,0,1,12.86-12.85,27.1,27.1,0,0,1,16.26-3.42,26.27,26.27,0,0,1,15.27,6.41,29.27,29.27,0,0,1,8.72,14.55,45.27,45.27,0,0,1,.58,19.92,53.78,53.78,0,0,1-7.41,19.86,36.52,36.52,0,0,1-13.22,12.81,28.07,28.07,0,0,1-16.61,3.39A25.33,25.33,0,0,1,772.31,2457.44Zm28.25-17q4.62-5.29,6.16-14.13,1.5-8.64-1.09-14.43t-8.09-6.33q-5.67-.55-10.33,4.53T781,2424q-1.54,8.84,1,14.73t8.24,6.45C794.06,2445.56,797.49,2444,800.56,2440.45Z" transform="translate(-11.56 -10.53)"/><path d="M234.82,1376.66l-87.1-5.47,223.92-357.07L175,1001.78l10.83-78.43,278.84,17.5-10.83,78.43Z" transform="translate(-11.56 -10.53)"/><path d="M497.05,1386.36q-30.36-20.23-46.28-55T436.17,1251l80,5q.17,30.88,17.79,51.28t45.56,22.16q31.23,2,52.48-19.87t25.74-54.34q4.49-32.52-10.19-56.27t-45.9-25.72q-33.42-2.1-63.94,26.86l-83.82-5.25,69.39-250.36,233.37,14.65-11,79.71-170.37-10.69-32.38,114.38a131.14,131.14,0,0,1,42.8-29.79,109.45,109.45,0,0,1,50.93-8.71q34,2.13,57.94,22.61t34.41,54.9q10.44,34.43,4.54,77.15-6.51,47.19-29.57,82.08t-58.42,52.94q-35.37,18-77.55,15.39Q527.41,1406.59,497.05,1386.36Z" transform="translate(-11.56 -10.53)"/><path d="M788.49,1294.22q-9.66-8-13.69-21.73t-1.66-30.92a84.31,84.31,0,0,1,10.21-31q7.78-13.48,19.51-20.45a43.34,43.34,0,0,1,25.39-6.11q13.68.85,23.19,8.84t13.71,21.57q4.19,13.59,1.82,30.77a83.6,83.6,0,0,1-10.39,31.29q-7.94,13.47-19.65,20.44a42.83,42.83,0,0,1-25.12,6.13A39.39,39.39,0,0,1,788.49,1294.22ZM982,1199.45l-170.49,224-25-16.66L957,1182.8Zm-150.71,66.79q6.68-8.4,8.57-22.09,1.85-13.37-2.46-22.15t-12.78-9.31q-8.76-.54-15.52,7.54T800.39,1242q-1.89,13.68,2.39,22.62t13,9.49Q824.56,1274.65,831.24,1266.24Zm83.43,150.83q-9.66-8-13.83-21.73T899,1364.72a87,87,0,0,1,10.11-31.31q7.65-13.48,19.1-20.47a41.58,41.58,0,0,1,24.84-6.14,40.43,40.43,0,0,1,23.85,9q9.9,8.16,14.21,21.92t2,30.62a82.74,82.74,0,0,1-10.34,31q-7.93,13.47-19.65,20.44a43.19,43.19,0,0,1-25.39,6.11A39,39,0,0,1,914.67,1417.07Zm42.57-27.66q6.81-8.4,8.7-22.09,1.84-13.36-2.45-22.15t-12.79-9.31q-8.75-.54-15.65,7.53t-8.8,21.76q-1.89,13.68,2.39,22.62t13,9.49Q950.43,1397.8,957.24,1389.41Z" transform="translate(-11.56 -10.53)"/></svg>