<?xml version="1.0" encoding="utf-8"?>
<!-- Generator: Adobe Illustrator 26.0.3, SVG Export Plug-In . SVG Version: 6.00 Build 0)  -->
<svg version="1.1" id="Layer_1" xmlns="http://www.w3.org/2000/svg" xmlns:xlink="http://www.w3.org/1999/xlink" x="0px" y="0px"
	 viewBox="0 0 374.94 841.53" style="enable-background:new 0 0 374.94 841.53;" xml:space="preserve">
<style type="text/css">
	.st0{fill:#FFFFFF;}
	.st1{fill:#145EFC;}
	.st2{fill:#DCA0FF;}
</style>
<g>
	<path class="st0" d="M9.73,95.45v701.36c0,0-8.75,6.95,16.68,10.92s258.4,23.85,258.4,23.85s20.62-3.37,30.94-15.45
		c7.54-8.83,52.8-54.74,52.8-54.74l-4.31-693.82c0,0-2.38-11.83-26.23-14.99c-23.85-3.16-13.51,0-13.51,0l1.59-32.93
		c0,0-20.17-12.35-57.38-10.76s-49.08,5.63-50.7,10.76s-5.05,28.44-5.05,28.44s-98.32-6.1-113.42,0S9.73,79.48,9.73,95.45z"/>
	<path class="st1" d="M14.53,732.18l-0.99,68.42l275.33,26.02c0,0,16.58-0.93,20.5-7.12c3.24-5.11,48.35-35.2,48.35-52
		c0-2.09,0.74,0,0.76-3.68l-0.76-61.96c-0.19-3.73-4.03-7.4-6.74-4.83l-43.37,46.12c0,0-2.65,2.78-9.21,2.29
		c-22.03-1.67-222.35-20.52-271.07-24.24C20.77,720.69,15.04,725.61,14.53,732.18z"/>
	<path class="st2" d="M9.73,562.76l0.13,135.67l276.3,30.87c0,0,21.87-2.28,25.73-7.73c3.02-4.27,26.61-35.87,36.74-49.43
		c2.98-3.99,4.59-8.86,4.59-13.87V542.74c0-4.5-5.28-6.85-8.53-3.79l-40.05,37.62c0,0,2.52,1.32-3.68,3.9
		C278.25,589.92,9.73,562.76,9.73,562.76z"/>
	<path d="M369.94,68.87c0-2.83-0.36-5.33-1.1-7.63c-1.99-6.14-7.82-10.57-14.53-11.02c-6.27-0.42-17.31-1.05-20.88-1.1
		c-0.36,0-0.57-0.04-0.68-0.07c-0.03-0.13-0.06-0.38-0.06-0.84c0.04-3.66,0.04-7.32,0.04-10.99c0-5.42,0.01-11.02,0.13-16.52
		c0.07-3.39-1.28-5.77-4.25-7.49c-7.84-4.54-16.61-6.13-25.1-7.67c-1.59-0.29-3.18-0.58-4.76-0.88c-4.76-0.93-11.27-1.16-16.49-1.36
		c-1.13-0.04-2.21-0.08-3.22-0.13c-0.03,0-0.06,0-0.09,0h-24.03c-0.07,0-0.15,0-0.22,0.01c-1.92,0.2-3.85,0.36-5.77,0.53
		c-3.84,0.32-7.81,0.66-11.72,1.31c-6.56,1.09-13.52,2.55-19.97,5.81c-3.42,1.72-6.92,4.26-6.89,9.99c0.01,2.29-0.09,8.1-0.61,22.73
		l-0.01,0.42c0,0.08-0.01,0.14-0.01,0.19c-0.03,0-0.07,0-0.11,0c-8.14-0.29-85.23-3.9-99.68-4.61c-0.8-0.04-1.6-0.06-2.39-0.06
		c-13.56,0-24.74,5.77-34.8,12c-4.99,3.09-14.06,7.29-23.66,11.73C20.54,76.42,1.86,85.72,2.65,94.06v710.59
		c0,3.82,2.86,6.98,6.66,7.35c38.23,3.73,288.79,25.82,291.32,26.04c0.06,0.01,0.12,0.01,0.18,0.01c2.63,0,5.18-1.09,7-3
		c19.63-20.61,60.62-63.52,61.43-64.33c1.95-1.95,3.08-4.68,3.08-7.5v-5.95C372.29,752,369.9,101.22,369.94,68.87z M15.53,558.25
		c42.74,4.06,255.92,21.56,279.81,23.53l0,148.14c-21.09-1.86-137.35-12.7-212.81-19.53c-34.92-3.16-60.14-5.44-63.15-5.7
		c-0.65-0.05-1.73-0.12-2.22-0.24c0,0-0.64-0.1-1.63-0.18L15.53,558.25z M308.65,574.72c14.8-15.5,37.43-38.42,49.18-50.28
		c0.19,58.65,0.38,110.37,0.54,145.48c0,0-0.01,0.01-0.01,0.01c-7.23,7.66-38.16,40.16-49.72,52.31
		C308.64,680.94,308.64,630.18,308.65,574.72z M356.58,68.95c0.01,24.82,0.61,257.14,1.19,436.7c-1.05,0.73-2.24,1.75-3.58,3.17
		c-6.78,7.19-33.16,34.96-45.53,48.01c0.01-149.46,0.01-328.31-0.02-448.1c0-2.13,0.53-3.25,2.1-4.43
		c8.02-6.04,16.72-12.81,25.15-19.36C342.8,79.55,349.95,73.99,356.58,68.95z M266.92,16.16c11.93,0,24.34,1.12,37,3.35
		c-12.74,2.44-24.61,3.63-36.04,3.63c-12.03,0-23.34-1.3-34.4-3.98C244.39,17.17,255.6,16.16,266.92,16.16z M222.86,48.26
		c0.35-3.39,0.34-6.81,0.33-10.12c-0.01-2.75-0.02-5.6,0.19-8.36c0.01,0,0.02,0.01,0.03,0.01c10.73,3.79,22.48,5.78,36.95,6.27
		c2.91,0.1,5.81,0.15,8.63,0.15c16.74,0,31.87-1.71,46.26-5.24c1.53-0.38,3.07-0.81,4.47-1.21c-0.09,3.83-0.39,17.81-0.32,22.86
		c0.01,0.75-0.19,1.24-1.44,2.1c-8.2,5.73-18.88,7.96-30.03,9.91c-6.76,1.18-12.82,1.76-18.52,1.76c-8.37,0-16.28-1.2-24.89-3.78
		c-7.56-2.27-14.24-4.53-19.4-9.23C223.21,51.64,222.64,50.34,222.86,48.26z M93.08,55.19c3.73-1.75,7.7-2.61,12.13-2.61
		c0.87,0,1.77,0.03,2.67,0.1c3.14,0.24,6.31,0.33,9.38,0.43c2.19,0.07,4.45,0.14,6.66,0.26c7.36,0.4,14.84,0.62,22.08,0.84
		c3.98,0.12,7.96,0.24,11.95,0.39c8.56,0.32,10.31,0.63,12.17,0.96c1.93,0.35,3.92,0.7,12.68,1.05c2.87,0.12,7.44,0.25,12.18,0.4
		c5.75,0.17,11.69,0.35,15.14,0.51c1.06,0.05,1.22,0.16,1.37,0.34c8.28,10.39,17.85,16.16,32.01,19.28
		c9.87,2.18,19.61,3.28,28.96,3.28c17.37,0,33.32-3.76,47.42-11.19c3.32-1.75,6.3-4.17,8.7-6.11c0.92-0.75,1.81-1.05,3.08-1.05
		c0.14,0,0.28,0,0.42,0.01c3.37,0.17,5.55,0.34,7.47,0.48c1.13,0.09,2.16,0.17,3.27,0.23c0.44,0.03,1.09,0.06,1.71,0.12
		c-3.37,2.57-13.35,9.82-23.03,16.85c-7.52,5.46-14.63,10.62-18.78,13.69c-1.34,0.99-4.43,1.98-8.33,1.98
		c-4.92,0-35.5-0.87-47.05-1.29c-13.19-0.47-26.37-0.97-39.56-1.47l-14.16-0.54c-8.13-0.31-60.73-2.38-102.99-4.04
		c-26.48-1.04-49.41-1.94-56.19-2.21c-1.31-0.05-2.85-0.16-4.6-0.34C43.46,78.86,76.42,63.02,93.08,55.19z M15.57,97.65
		c0.13-0.01,0.29-0.01,0.49-0.01c0.41,0,0.89,0.02,1.46,0.03c13.72,0.46,132.46,5.41,211.03,8.69c37.28,1.56,64.22,2.68,66.24,2.75
		c0.29,0.01,0.47,0.04,0.57,0.07c0.01,0.09,0.02,0.24,0,0.47c-0.06,0.77-0.04,1.52-0.03,2.24c0.01,0.31,0.01,0.61,0.01,0.92
		l0,453.67c-3.09,0.36-5.8-0.03-5.8-0.03c-10.53-0.85-129.4-9.95-209.1-17.16c-34.92-3.16-55.97-5.44-58.98-5.7
		c-0.28-0.02-2.93-0.04-5.94,0.5l0-444.35C15.53,98.98,15.53,98.16,15.57,97.65z M295.34,823.19c0,0.42,0,0.86-0.01,1.22
		c-0.29-0.02-0.63-0.05-1.01-0.08l-0.13-0.01c-10.63-0.85-132.17-11.75-212.6-18.96c-35.24-3.16-60.69-5.44-63.73-5.7
		c-0.66-0.05-1.74-0.12-2.24-0.24c-0.08-0.5-0.08-1.57-0.08-2.06l0-79.87c46.23,4.41,247.89,22.37,279.81,25.21l0,77.74l0,0.8
		L295.34,823.19z M357.33,764.1c-8.8,9.17-17.52,18.57-25.95,27.65c-7.2,7.75-14.64,15.76-22.09,23.61
		c-0.03,0.04-0.07,0.07-0.1,0.11c-0.21,0.25-0.39,0.47-0.56,0.65v-1.24c0-15.07,0-41.85,0.01-76.85
		c14.11-14.95,37.11-39.25,49.81-52.66c0.09,17.51,0.17,28.66,0.23,31.4c0.16,7.25,0.18,14.62,0.2,21.76
		c0.02,6.89,0.03,14.01,0.18,21.03C359.08,761.51,358.6,762.78,357.33,764.1z"/>
	<g>
		<path class="st0" d="M128.33,789.59c-1.71-1.23-2.99-2.86-3.84-4.9c-0.85-2.04-1.19-4.37-1.02-6.99l6.9,0.68
			c-0.05,1.78,0.41,3.28,1.38,4.49c0.97,1.21,2.27,1.9,3.87,2.05c1.8,0.18,3.33-0.34,4.6-1.56c1.27-1.21,2.07-2.76,2.39-4.62
			c0.32-1.87,0.09-3.5-0.71-4.9c-0.8-1.4-2.1-2.19-3.89-2.36c-1.92-0.19-3.79,0.52-5.61,2.13l-7.23-0.71l6.76-21.44l20.14,1.98
			l-1.19,6.86l-14.7-1.44l-3.15,9.79c1.12-1.08,2.38-1.9,3.79-2.45c1.41-0.55,2.89-0.75,4.43-0.6c1.95,0.19,3.6,0.9,4.94,2.13
			c1.34,1.23,2.28,2.85,2.81,4.85c0.53,2.01,0.59,4.23,0.16,6.69c-0.47,2.71-1.41,5.04-2.81,7.01c-1.4,1.97-3.14,3.43-5.21,4.4
			c-2.08,0.97-4.33,1.33-6.75,1.1C132.06,791.55,130.04,790.82,128.33,789.59z"/>
		<path class="st0" d="M156.27,776.89c-0.85-0.76-1.44-1.77-1.76-3.03c-0.32-1.26-0.35-2.67-0.08-4.22
			c0.28-1.58,0.79-2.98,1.54-4.18c0.75-1.2,1.67-2.1,2.76-2.69c1.09-0.6,2.25-0.83,3.49-0.71c1.24,0.12,2.28,0.56,3.12,1.32
			c0.84,0.76,1.43,1.76,1.77,3.01c0.34,1.25,0.37,2.65,0.1,4.2c-0.28,1.61-0.8,3.02-1.57,4.22c-0.76,1.2-1.69,2.1-2.78,2.69
			c-1.09,0.6-2.24,0.83-3.45,0.72C158.17,778.09,157.12,777.65,156.27,776.89z M183.1,764.9l-24.32,29.72l-3.33-2.39l24.32-29.72
			L183.1,764.9z M162.23,773.28c0.63-0.74,1.06-1.73,1.27-2.97c0.21-1.21,0.13-2.22-0.23-3.03c-0.36-0.81-0.93-1.26-1.7-1.33
			c-0.79-0.08-1.51,0.24-2.15,0.95c-0.64,0.71-1.07,1.69-1.29,2.93c-0.22,1.24-0.14,2.27,0.22,3.1c0.36,0.83,0.94,1.28,1.73,1.36
			C160.88,774.36,161.6,774.02,162.23,773.28z M172.88,794.24c-0.85-0.76-1.45-1.77-1.78-3.03c-0.34-1.26-0.37-2.66-0.1-4.18
			c0.28-1.61,0.79-3.02,1.53-4.22c0.74-1.2,1.64-2.1,2.7-2.7c1.06-0.6,2.2-0.84,3.42-0.72c1.26,0.12,2.33,0.57,3.21,1.35
			c0.87,0.77,1.48,1.79,1.83,3.06c0.35,1.26,0.39,2.66,0.12,4.18c-0.28,1.58-0.8,2.97-1.56,4.17c-0.76,1.2-1.69,2.1-2.78,2.69
			c-1.09,0.6-2.25,0.83-3.49,0.71C174.77,795.44,173.73,795,172.88,794.24z M178.82,790.67c0.65-0.74,1.08-1.73,1.29-2.97
			c0.21-1.21,0.13-2.22-0.23-3.03c-0.36-0.81-0.93-1.26-1.7-1.33c-0.79-0.08-1.52,0.24-2.17,0.95c-0.65,0.71-1.09,1.69-1.3,2.92
			c-0.22,1.24-0.14,2.27,0.22,3.1c0.36,0.83,0.94,1.28,1.73,1.36C177.45,791.75,178.17,791.42,178.82,790.67z"/>
	</g>
	<g>
		<path d="M132.56,639.38c-1.6,2.24-3.39,4.04-5.36,5.39c-1.97,1.35-4.55,2.87-7.74,4.54c-3.3,1.77-5.88,3.34-7.74,4.71
			c-1.85,1.36-3.25,3.1-4.19,5.22l21.95,2.15l-1.76,10.09l-33.24-3.26l0.94-5.37c0.67-3.85,1.92-7.07,3.75-9.65
			c1.83-2.58,3.83-4.6,6.01-6.08c2.18-1.47,4.99-3.08,8.44-4.84c2.61-1.34,4.65-2.47,6.11-3.37c1.46-0.9,2.77-2.05,3.91-3.42
			c1.14-1.38,1.88-3.02,2.21-4.92c0.43-2.44,0.1-4.49-0.96-6.14c-1.07-1.65-2.68-2.58-4.83-2.79c-2.34-0.23-4.44,0.49-6.29,2.16
			c-1.86,1.67-3.08,4.04-3.67,7.13l-10.17-1c1.01-4.15,2.6-7.65,4.79-10.5c2.18-2.85,4.77-4.94,7.76-6.28
			c2.99-1.33,6.19-1.84,9.6-1.5c3.32,0.33,6.12,1.36,8.41,3.1c2.29,1.74,3.9,4.03,4.83,6.85c0.93,2.82,1.1,6,0.48,9.53
			C135.25,634.39,134.17,637.14,132.56,639.38z"/>
		<path d="M143.1,670.6c-2.59-2.74-4.32-6.45-5.19-11.15c-0.87-4.69-0.78-10.05,0.27-16.08c1.02-5.86,2.74-10.95,5.15-15.27
			c2.42-4.32,5.35-7.56,8.79-9.74c3.44-2.17,7.15-3.07,11.13-2.68c3.93,0.39,7.17,1.95,9.74,4.68c2.57,2.74,4.29,6.42,5.17,11.06
			c0.88,4.64,0.81,9.92-0.22,15.83c-1.03,5.92-2.75,11.06-5.15,15.43c-2.4,4.37-5.33,7.66-8.78,9.86c-3.45,2.2-7.16,3.11-11.14,2.72
			C148.95,674.9,145.7,673.33,143.1,670.6z M162.96,660.37c2.45-3.4,4.19-8.09,5.23-14.06c1.03-5.91,0.94-10.71-0.28-14.39
			c-1.21-3.68-3.36-5.67-6.45-5.97c-3.09-0.3-5.86,1.21-8.31,4.52c-2.46,3.32-4.2,7.94-5.23,13.85c-1.04,5.97-0.95,10.84,0.28,14.6
			c1.22,3.76,3.38,5.8,6.46,6.1C157.75,665.33,160.52,663.78,162.96,660.37z"/>
		<path d="M183.13,659.68c-0.92-0.81-1.55-1.9-1.89-3.26c-0.35-1.36-0.38-2.87-0.08-4.54c0.3-1.7,0.85-3.2,1.66-4.49
			c0.81-1.29,1.8-2.26,2.97-2.9c1.17-0.64,2.42-0.9,3.75-0.77c1.33,0.13,2.45,0.6,3.35,1.42c0.9,0.81,1.54,1.89,1.9,3.23
			c0.36,1.34,0.4,2.85,0.11,4.52c-0.3,1.73-0.86,3.25-1.68,4.53c-0.82,1.29-1.82,2.25-2.99,2.9c-1.17,0.64-2.41,0.9-3.71,0.77
			C185.17,660.97,184.04,660.5,183.13,659.68z M211.98,646.79l-26.15,31.96l-3.58-2.57l26.15-31.96L211.98,646.79z M189.54,655.8
			c0.68-0.8,1.14-1.86,1.37-3.2c0.23-1.3,0.14-2.39-0.25-3.26c-0.39-0.87-1-1.35-1.83-1.43c-0.85-0.08-1.63,0.26-2.31,1.02
			c-0.69,0.77-1.15,1.82-1.38,3.15c-0.23,1.33-0.15,2.44,0.23,3.33c0.39,0.89,1.01,1.37,1.86,1.46
			C188.09,656.96,188.86,656.6,189.54,655.8z M200.99,678.34c-0.92-0.81-1.55-1.9-1.91-3.26c-0.36-1.36-0.4-2.86-0.11-4.5
			c0.3-1.73,0.85-3.25,1.64-4.54c0.79-1.29,1.76-2.26,2.91-2.9c1.14-0.64,2.37-0.9,3.67-0.77c1.36,0.13,2.51,0.62,3.45,1.45
			c0.94,0.83,1.6,1.93,1.97,3.29c0.37,1.36,0.42,2.86,0.13,4.5c-0.3,1.7-0.86,3.2-1.68,4.49c-0.82,1.29-1.82,2.25-2.99,2.9
			c-1.17,0.64-2.42,0.9-3.75,0.77C203.02,679.63,201.91,679.16,200.99,678.34z M207.38,674.51c0.69-0.8,1.16-1.86,1.39-3.19
			c0.23-1.3,0.14-2.39-0.25-3.26c-0.39-0.87-1-1.35-1.83-1.43c-0.85-0.08-1.63,0.26-2.33,1.02c-0.7,0.77-1.17,1.81-1.4,3.14
			c-0.23,1.33-0.15,2.44,0.23,3.33c0.39,0.89,1.01,1.37,1.86,1.46C205.91,675.66,206.68,675.31,207.38,674.51z"/>
	</g>
	<g>
		<path d="M81.15,371.23l-19.82-1.24l50.97-81.27l-44.76-2.81L70,268.06l63.46,3.98L131,289.89L81.15,371.23z"/>
		<path d="M140.84,373.44c-4.61-3.07-8.12-7.24-10.53-12.52c-2.42-5.28-3.52-11.37-3.32-18.29l18.2,1.14
			c0.02,4.69,1.37,8.58,4.05,11.67c2.67,3.1,6.13,4.78,10.37,5.04c4.74,0.3,8.72-1.21,11.94-4.52c3.22-3.31,5.18-7.43,5.86-12.37
			c0.68-4.93-0.09-9.2-2.32-12.81c-2.23-3.6-5.71-5.56-10.45-5.85c-5.07-0.32-9.92,1.72-14.55,6.11l-19.08-1.2l15.79-56.98
			l53.12,3.33l-2.51,18.14l-38.78-2.43l-7.37,26.03c2.84-2.94,6.08-5.2,9.74-6.78c3.65-1.58,7.52-2.24,11.59-1.98
			c5.15,0.32,9.55,2.04,13.19,5.15c3.64,3.11,6.25,7.27,7.83,12.5c1.58,5.22,1.93,11.08,1.03,17.56
			c-0.99,7.16-3.23,13.39-6.73,18.68c-3.5,5.3-7.93,9.31-13.3,12.05c-5.37,2.74-11.25,3.91-17.65,3.5
			C150.82,378.24,145.44,376.51,140.84,373.44z"/>
		<path d="M207.17,352.47c-1.46-1.21-2.5-2.86-3.11-4.95c-0.61-2.08-0.74-4.43-0.38-7.04c0.37-2.66,1.14-5.01,2.32-7.05
			c1.18-2.04,2.66-3.6,4.44-4.65c1.78-1.06,3.7-1.52,5.78-1.39c2.07,0.13,3.83,0.8,5.28,2.01c1.44,1.21,2.48,2.85,3.12,4.91
			c0.64,2.06,0.77,4.4,0.41,7c-0.37,2.71-1.16,5.08-2.36,7.12c-1.2,2.04-2.69,3.59-4.47,4.65c-1.78,1.06-3.68,1.52-5.72,1.39
			C210.4,354.35,208.63,353.68,207.17,352.47z M251.2,330.9l-38.8,50.98l-5.69-3.79l38.8-50.98L251.2,330.9z M216.9,346.1
			c1.01-1.28,1.66-2.95,1.95-5.03c0.28-2.03,0.09-3.71-0.56-5.04c-0.65-1.33-1.62-2.04-2.91-2.12c-1.33-0.08-2.51,0.49-3.53,1.71
			c-1.03,1.23-1.68,2.88-1.97,4.95c-0.29,2.08-0.11,3.79,0.54,5.15c0.65,1.36,1.64,2.08,2.97,2.16
			C214.72,347.97,215.89,347.38,216.9,346.1z M235.89,380.43c-1.46-1.21-2.51-2.86-3.15-4.95c-0.63-2.09-0.77-4.41-0.42-6.97
			c0.37-2.7,1.14-5.08,2.3-7.13c1.16-2.05,2.61-3.6,4.35-4.66c1.74-1.06,3.62-1.53,5.65-1.4c2.12,0.13,3.93,0.82,5.43,2.06
			c1.5,1.24,2.58,2.9,3.23,4.99c0.65,2.09,0.8,4.41,0.45,6.97c-0.37,2.66-1.15,5.01-2.35,7.05c-1.2,2.04-2.69,3.59-4.47,4.65
			c-1.78,1.06-3.7,1.52-5.78,1.39C239.1,382.31,237.35,381.64,235.89,380.43z M245.58,374.13c1.03-1.27,1.69-2.95,1.98-5.03
			c0.28-2.03,0.09-3.71-0.56-5.04c-0.65-1.33-1.62-2.04-2.91-2.12c-1.33-0.08-2.52,0.49-3.56,1.71c-1.05,1.23-1.72,2.88-2,4.95
			c-0.29,2.08-0.11,3.79,0.54,5.15c0.65,1.36,1.64,2.08,2.97,2.16C243.36,376,244.54,375.41,245.58,374.13z"/>
	</g>
</g>
</svg>
