<?xml version="1.0" encoding="utf-8"?>
<!-- Generator: Adobe Illustrator 26.0.3, SVG Export Plug-In . SVG Version: 6.00 Build 0)  -->
<svg version="1.1" id="Layer_1" xmlns="http://www.w3.org/2000/svg" xmlns:xlink="http://www.w3.org/1999/xlink" x="0px" y="0px"
	 viewBox="0 0 374.94 841.53" style="enable-background:new 0 0 374.94 841.53;" xml:space="preserve">
<style type="text/css">
	.st0{fill:#FFFFFF;}
	.st1{fill:#145EFC;}
	.st2{fill:#DCA0FF;}
</style>
<g>
	<path class="st0" d="M8.79,95.9v701.36c0,0-8.75,6.95,16.68,10.92s258.4,23.85,258.4,23.85s20.62-3.37,30.94-15.45
		c7.54-8.83,52.8-54.74,52.8-54.74L363.3,68.02c0,0-2.38-11.83-26.23-14.99c-23.85-3.16-13.51,0-13.51,0l1.59-32.93
		c0,0-20.17-12.35-57.38-10.76c-37.21,1.59-49.08,5.63-50.7,10.76s-5.05,28.44-5.05,28.44s-98.32-6.1-113.42,0S8.79,79.93,8.79,95.9
		z"/>
	<g>
		<path d="M141.04,170.39c-1.6,2.48-3.42,4.5-5.46,6.04c-2.04,1.55-4.72,3.3-8.05,5.25c-3.44,2.07-6.12,3.88-8.03,5.43
			c-1.91,1.55-3.32,3.49-4.21,5.8l23.58,1.17l-1.36,10.89l-35.71-1.78l0.72-5.79c0.52-4.15,1.69-7.66,3.51-10.51
			c1.82-2.85,3.86-5.12,6.12-6.81c2.26-1.68,5.18-3.55,8.78-5.61c2.72-1.57,4.84-2.88,6.37-3.92c1.52-1.04,2.86-2.33,4.01-3.86
			c1.15-1.53,1.86-3.32,2.11-5.37c0.33-2.63-0.12-4.81-1.35-6.52c-1.23-1.71-3-2.62-5.31-2.74c-2.51-0.13-4.72,0.75-6.62,2.63
			c-1.9,1.88-3.09,4.48-3.55,7.82l-10.92-0.54c0.86-4.49,2.39-8.32,4.58-11.48c2.19-3.16,4.85-5.53,7.98-7.11
			c3.13-1.58,6.53-2.28,10.19-2.1c3.57,0.18,6.62,1.14,9.15,2.88c2.54,1.75,4.38,4.1,5.52,7.08c1.14,2.97,1.48,6.36,1,10.16
			C143.66,164.91,142.64,167.91,141.04,170.39z"/>
		<path d="M171.35,195.7l12.36,0.61l-1.36,10.89l-35.11-1.75l1.36-10.89l12.36,0.61l4.22-33.8c-3.05,4.15-7.28,6.09-12.7,5.82
			l-0.45-0.02l1.45-11.59l0.45,0.02c3.92,0.19,7.01-0.58,9.27-2.32c2.26-1.74,3.61-4.34,4.04-7.79l0.11-0.88l10.32,0.51
			L171.35,195.7z"/>
		<path d="M192.39,189.31c-1.02-0.82-1.75-1.95-2.19-3.38c-0.44-1.43-0.55-3.05-0.32-4.85c0.23-1.84,0.74-3.47,1.54-4.89
			c0.8-1.42,1.8-2.51,3.02-3.25c1.22-0.75,2.54-1.08,3.98-1.01c1.43,0.07,2.65,0.52,3.66,1.34c1.01,0.82,1.74,1.94,2.2,3.36
			c0.46,1.42,0.57,3.03,0.35,4.83c-0.23,1.87-0.76,3.51-1.57,4.94c-0.81,1.42-1.83,2.5-3.04,3.25c-1.22,0.75-2.53,1.08-3.93,1.01
			C194.64,190.58,193.41,190.13,192.39,189.31z M222.58,174.03l-26.32,35.53l-3.96-2.57l26.32-35.52L222.58,174.03z M199.05,184.83
			c0.69-0.89,1.12-2.05,1.3-3.49c0.18-1.4,0.03-2.56-0.43-3.47c-0.46-0.91-1.14-1.39-2.03-1.44c-0.92-0.05-1.72,0.36-2.42,1.22
			c-0.7,0.86-1.14,2-1.32,3.44c-0.18,1.44-0.04,2.62,0.42,3.55c0.46,0.93,1.15,1.42,2.07,1.46
			C197.56,186.14,198.36,185.72,199.05,184.83z M212.46,208.35c-1.02-0.82-1.76-1.95-2.22-3.39c-0.46-1.43-0.57-3.03-0.35-4.8
			c0.23-1.87,0.74-3.52,1.53-4.94c0.78-1.42,1.77-2.51,2.96-3.25c1.19-0.75,2.49-1.09,3.89-1.02c1.46,0.07,2.72,0.53,3.76,1.37
			c1.05,0.84,1.81,1.98,2.28,3.41c0.47,1.43,0.59,3.04,0.37,4.81c-0.23,1.84-0.75,3.46-1.56,4.89c-0.81,1.42-1.83,2.5-3.04,3.25
			c-1.22,0.75-2.54,1.08-3.98,1.01C214.69,209.62,213.48,209.17,212.46,208.35z M219.09,203.92c0.7-0.89,1.14-2.05,1.32-3.49
			c0.18-1.4,0.03-2.56-0.43-3.47c-0.46-0.91-1.14-1.39-2.03-1.44c-0.92-0.05-1.73,0.36-2.44,1.21c-0.71,0.85-1.16,2-1.34,3.44
			c-0.18,1.44-0.04,2.62,0.42,3.55c0.46,0.93,1.15,1.42,2.07,1.46C217.58,205.23,218.39,204.8,219.09,203.92z"/>
	</g>
	<path class="st1" d="M14.28,469.48l-1,333.19l277.46,25.16c0,0,16.71-0.9,20.66-6.88c3.27-4.94,48.72-34.04,48.72-50.28
		c0-2.02,0.75,0,0.77-3.55l-1.85-334.74c-0.19-3.6-3.77-1.91-6.5,0.58l-46.43,48.35c0,0-1.73,1.29-8.34,0.81
		c-22.2-1.61-221.49-19.64-270.59-23.25C20.56,458.38,14.79,463.13,14.28,469.48z"/>
	<path class="st2" d="M10.53,256.27l7.67,173.48c0.71,11.68,5.05,10.46,16.69,11.6l262.01,23.57c0,0,11.92,0.07,15.79-5.38
		c3.02-4.27,26.57-28.11,37.48-41.04c5.49-6.51,3.85-19.23,3.85-24.24v-161.4c0-4.5-5.28-6.85-8.53-3.79
		c0,0-34.43,36.26-40.64,38.84C282.15,277.36,10.53,256.27,10.53,256.27z"/>
	<path d="M369.94,68.87c0-2.83-0.36-5.33-1.1-7.63c-1.99-6.14-7.82-10.57-14.53-11.02c-6.27-0.42-17.31-1.05-20.88-1.1
		c-0.36,0-0.57-0.04-0.68-0.07c-0.03-0.13-0.06-0.38-0.06-0.84c0.04-3.66,0.04-7.32,0.04-10.99c0-5.42,0.01-11.02,0.13-16.52
		c0.07-3.39-1.28-5.77-4.25-7.49c-7.84-4.54-16.61-6.13-25.1-7.67c-1.59-0.29-3.18-0.58-4.76-0.88c-4.76-0.93-11.27-1.16-16.49-1.36
		c-1.13-0.04-2.21-0.08-3.22-0.13c-0.03,0-0.06,0-0.09,0h-24.03c-0.07,0-0.15,0-0.22,0.01c-1.92,0.2-3.85,0.36-5.77,0.53
		c-3.84,0.32-7.81,0.66-11.72,1.31c-6.56,1.09-13.52,2.55-19.97,5.81c-3.42,1.72-6.92,4.26-6.89,9.99c0.01,2.29-0.09,8.1-0.61,22.73
		l-0.01,0.42c0,0.08-0.01,0.14-0.01,0.19c-0.03,0-0.07,0-0.11,0c-8.14-0.29-85.23-3.9-99.68-4.61c-0.8-0.04-1.6-0.06-2.39-0.06
		c-13.56,0-24.74,5.77-34.8,12c-4.99,3.09-14.06,7.29-23.66,11.73C20.54,76.42,1.86,85.72,2.65,94.06v710.59
		c0,3.82,2.86,6.98,6.66,7.35c38.23,3.73,288.79,25.82,291.32,26.04c0.06,0.01,0.12,0.01,0.18,0.01c2.63,0,5.18-1.09,7-3
		c19.63-20.61,60.62-63.52,61.43-64.33c1.95-1.95,3.08-4.68,3.08-7.5v-5.95C372.29,752,369.9,101.22,369.94,68.87z M308.63,814.89
		c0.01-79.92,0.05-489.57,0-706.17c0-2.13,0.53-3.25,2.1-4.43c8.02-6.04,16.72-12.81,25.15-19.36c6.92-5.38,14.08-10.95,20.7-15.99
		c0.01,40.22,1.59,625.36,2.09,647.83c0.16,7.25,0.18,14.62,0.2,21.76c0.02,6.89,0.03,14.01,0.18,21.03
		c0.04,1.94-0.44,3.21-1.71,4.53c-8.8,9.17-17.52,18.57-25.95,27.65c-7.2,7.75-14.64,15.76-22.09,23.61
		c-0.03,0.04-0.07,0.07-0.1,0.11c-0.21,0.25-0.39,0.47-0.56,0.65V814.89z M267.88,23.13c-12.03,0-23.34-1.3-34.4-3.98
		c10.91-1.99,22.12-3,33.44-3c11.93,0,24.34,1.12,37,3.35C291.18,21.94,279.31,23.13,267.88,23.13z M223.19,38.14
		c-0.01-2.75-0.02-5.6,0.19-8.36c0.01,0,0.02,0.01,0.03,0.01c10.73,3.79,22.48,5.78,36.95,6.27c2.91,0.1,5.81,0.15,8.63,0.15
		c16.74,0,31.87-1.71,46.26-5.24c1.53-0.38,3.07-0.81,4.47-1.21c-0.09,3.83-0.39,17.81-0.32,22.86c0.01,0.75-0.19,1.24-1.44,2.1
		c-8.2,5.73-18.88,7.96-30.03,9.91c-6.76,1.18-12.82,1.76-18.52,1.76c-8.37,0-16.28-1.2-24.89-3.78c-7.56-2.27-14.24-4.53-19.4-9.23
		c-1.91-1.75-2.48-3.04-2.27-5.13C223.21,44.86,223.2,41.44,223.19,38.14z M207.75,92.7l-14.16-0.54
		c-8.13-0.31-60.73-2.38-102.99-4.04c-26.48-1.04-49.41-1.94-56.19-2.21c-1.31-0.05-2.85-0.16-4.6-0.34
		c13.65-6.71,46.61-22.55,63.27-30.39c3.73-1.75,7.7-2.61,12.13-2.61c0.87,0,1.77,0.03,2.67,0.1c3.14,0.24,6.31,0.33,9.38,0.43
		c2.19,0.07,4.45,0.14,6.66,0.26c7.36,0.4,14.84,0.62,22.08,0.84c3.98,0.12,7.96,0.24,11.95,0.39c8.56,0.32,10.31,0.63,12.17,0.96
		c1.93,0.35,3.92,0.7,12.68,1.05c2.87,0.12,7.44,0.25,12.18,0.4c5.75,0.17,11.69,0.35,15.14,0.51c1.06,0.05,1.22,0.16,1.37,0.34
		c8.28,10.39,17.85,16.16,32.01,19.28c9.87,2.18,19.61,3.28,28.96,3.28c17.37,0,33.32-3.76,47.42-11.19c3.32-1.75,6.3-4.17,8.7-6.11
		c0.92-0.75,1.81-1.05,3.08-1.05c0.14,0,0.28,0,0.42,0.01c3.37,0.17,5.55,0.34,7.47,0.48c1.13,0.09,2.16,0.17,3.27,0.23
		c0.44,0.03,1.09,0.06,1.71,0.12c-3.37,2.57-13.35,9.82-23.03,16.85c-7.52,5.46-14.63,10.62-18.78,13.69
		c-1.34,0.99-4.43,1.98-8.33,1.98c-4.92,0-35.5-0.87-47.05-1.29C234.12,93.69,220.93,93.19,207.75,92.7z M295.34,112.8l0,707.64
		l0,0.8l0,1.94c0,0.42,0,0.86-0.01,1.22c-0.29-0.02-0.63-0.05-1.01-0.08l-0.13-0.01c-10.63-0.85-132.17-11.75-212.6-18.96
		c-35.24-3.16-60.69-5.44-63.73-5.7c-0.66-0.05-1.74-0.12-2.24-0.24c-0.08-0.5-0.08-1.57-0.08-2.06l0-697.63
		c0-0.75,0-1.57,0.04-2.08c0.13-0.01,0.29-0.01,0.49-0.01c0.41,0,0.89,0.02,1.46,0.03c13.72,0.46,132.46,5.41,211.03,8.69
		c37.28,1.56,64.22,2.68,66.24,2.75c0.29,0.01,0.47,0.04,0.57,0.07c0.01,0.09,0.02,0.24,0,0.47c-0.06,0.77-0.04,1.52-0.03,2.24
		C295.33,112.19,295.34,112.49,295.34,112.8z"/>
	<path d="M304.36,462.13c-3.93,4.17-6.39,3.39-6.39,3.39c-10.53-0.85-135.75-12.54-215.44-19.75c-34.92-3.16-60.14-5.44-63.15-5.7
		c-0.65-0.05-1.73-0.12-2.22-0.24c0,0-12.06-1.96-12.84,5.24c0,3.82,2.84,6.98,6.6,7.35c37.88,3.73,286.17,25.82,288.67,26.04
		c0.06,0.01,0.12,0.01,0.18,0.01c2.61,0,5.14-1.09,6.94-3c19.45-20.61,60.07-63.52,60.87-64.33c1.94-1.95,3.05-4.68,3.05-7.5
		c0,0,0.08-4.13-4.67-4.68c0,0-0.91-0.74-7.61,6.36C349.67,414.52,306.76,459.58,304.36,462.13z"/>
	<path d="M302.96,248.45c-3.83,4.26-12.67,3.19-12.67,3.19c-10.55-0.61-129.53-4.11-209.37-9.45c-34.98-2.34-56.08-4.13-59.09-4.32
		c-0.65-0.03-14.28,0.22-14.9,7.44c0.09,3.82,3,6.91,6.77,7.19c37.96,2.84,282.41,14.31,284.92,14.47c0.06,0,0.12,0.01,0.18,0
		c2.61-0.06,5.11-1.21,6.86-3.16c18.97-21.06,58.68-60.01,59.47-60.84c1.89-2,2.94-4.76,2.87-7.56c0,0-0.02-4.13-4.77-4.57
		c0,0-3.06-2.75-9.59,4.5C345.18,204.74,305.3,245.84,302.96,248.45z"/>
	<g>
		<path class="st0" d="M82.18,679.43c-3.91-2.82-6.86-6.66-8.87-11.54c-2-4.87-2.87-10.52-2.61-16.93l15.59,0.94
			c-0.04,4.34,1.06,7.94,3.32,10.79c2.25,2.85,5.19,4.39,8.83,4.61c4.06,0.25,7.49-1.18,10.3-4.26c2.81-3.09,4.54-6.92,5.19-11.5
			c0.65-4.58,0.04-8.53-1.82-11.86c-1.86-3.33-4.82-5.11-8.88-5.36c-4.34-0.26-8.53,1.66-12.56,5.76l-16.34-0.99l14.3-52.91
			l45.5,2.76l-2.39,16.83l-33.22-2.01l-6.66,24.18c2.47-2.75,5.28-4.86,8.44-6.35c3.15-1.48,6.48-2.12,9.97-1.91
			c4.41,0.27,8.16,1.83,11.24,4.69c3.08,2.86,5.26,6.7,6.55,11.53c1.29,4.83,1.51,10.25,0.65,16.27
			c-0.94,6.64-2.95,12.43-6.02,17.36c-3.07,4.93-6.92,8.68-11.56,11.25c-4.64,2.57-9.7,3.69-15.18,3.36
			C90.68,683.81,86.09,682.24,82.18,679.43z"/>
		<path class="st0" d="M146.88,680.83c-4.02-4.32-6.76-10.3-8.22-17.95c-1.46-7.65-1.49-16.45-0.07-26.42
			c1.38-9.69,3.83-18.17,7.38-25.42c3.54-7.25,7.9-12.78,13.07-16.59c5.17-3.8,10.78-5.53,16.84-5.16
			c5.98,0.36,10.96,2.7,14.95,7.02c3.98,4.32,6.71,10.25,8.19,17.81c1.48,7.56,1.52,16.23,0.13,26.01
			c-1.39,9.78-3.84,18.35-7.36,25.69c-3.52,7.35-7.87,12.95-13.05,16.79c-5.18,3.85-10.8,5.59-16.85,5.23
			C155.9,687.49,150.9,685.15,146.88,680.83z M176.77,662.68c3.62-5.76,6.13-13.57,7.53-23.44c1.39-9.78,1.11-17.65-0.85-23.61
			c-1.96-5.96-5.28-9.08-9.98-9.36c-4.7-0.28-8.87,2.38-12.5,8c-3.64,5.62-6.15,13.32-7.53,23.1c-1.4,9.87-1.12,17.86,0.86,23.95
			c1.97,6.09,5.31,9.28,10.01,9.57S173.15,668.44,176.77,662.68z"/>
		<path class="st0" d="M203.42,663.46c-1.24-1.11-2.11-2.64-2.61-4.56c-0.5-1.93-0.57-4.1-0.23-6.52c0.35-2.46,1.04-4.65,2.09-6.55
			c1.04-1.9,2.33-3.35,3.87-4.34c1.54-0.99,3.2-1.43,4.97-1.33c1.78,0.11,3.28,0.72,4.5,1.83c1.22,1.11,2.09,2.62,2.61,4.53
			c0.52,1.91,0.61,4.07,0.26,6.49c-0.36,2.51-1.06,4.71-2.12,6.62c-1.06,1.9-2.36,3.35-3.9,4.34c-1.54,0.99-3.18,1.43-4.92,1.33
			C206.16,665.18,204.65,664.57,203.42,663.46z M241.46,643.19l-33.95,47.49l-4.83-3.48l33.95-47.49L241.46,643.19z M211.84,657.5
			c0.89-1.19,1.47-2.75,1.74-4.67c0.27-1.88,0.13-3.44-0.41-4.67c-0.54-1.23-1.36-1.88-2.47-1.95c-1.14-0.07-2.15,0.47-3.05,1.61
			c-0.9,1.14-1.48,2.68-1.76,4.6c-0.27,1.93-0.14,3.52,0.4,4.77c0.54,1.25,1.38,1.91,2.51,1.98
			C209.95,659.24,210.96,658.69,211.84,657.5z M227.67,689.19c-1.24-1.11-2.12-2.64-2.63-4.57c-0.51-1.93-0.6-4.08-0.27-6.46
			c0.36-2.51,1.05-4.72,2.07-6.62c1.02-1.9,2.29-3.35,3.79-4.35c1.5-0.99,3.13-1.44,4.87-1.33c1.81,0.11,3.35,0.73,4.63,1.87
			c1.27,1.14,2.17,2.67,2.71,4.6c0.53,1.93,0.63,4.08,0.29,6.46c-0.35,2.46-1.05,4.65-2.11,6.55c-1.06,1.9-2.36,3.35-3.9,4.34
			c-1.54,0.99-3.2,1.43-4.97,1.33C230.4,690.92,228.91,690.31,227.67,689.19z M236.06,683.3c0.9-1.19,1.49-2.74,1.77-4.67
			c0.27-1.88,0.13-3.44-0.41-4.67c-0.54-1.23-1.37-1.88-2.47-1.95c-1.14-0.07-2.16,0.47-3.08,1.61c-0.92,1.14-1.51,2.68-1.78,4.6
			c-0.27,1.93-0.14,3.52,0.4,4.77c0.54,1.25,1.38,1.91,2.51,1.98C234.14,685.04,235.16,684.48,236.06,683.3z"/>
	</g>
	<g>
		<path d="M131.43,352.65c-1.75,2.59-3.71,4.67-5.9,6.26c-2.19,1.59-5.06,3.38-8.62,5.37c-3.68,2.11-6.55,3.96-8.61,5.55
			c-2.06,1.6-3.58,3.61-4.58,6.03l24.89,1.78l-1.69,11.47l-37.69-2.69l0.9-6.1c0.64-4.38,1.96-8.05,3.95-11.03
			c1.99-2.97,4.2-5.32,6.62-7.05c2.42-1.73,5.56-3.64,9.4-5.73c2.91-1.6,5.18-2.93,6.82-4c1.63-1.07,3.07-2.4,4.32-3.99
			c1.25-1.59,2.04-3.47,2.35-5.63c0.41-2.78-0.02-5.08-1.27-6.91c-1.26-1.83-3.11-2.84-5.54-3.01c-2.65-0.19-5,0.69-7.06,2.63
			c-2.05,1.94-3.37,4.67-3.93,8.18l-11.53-0.82c1.02-4.73,2.72-8.73,5.1-12.02c2.38-3.29,5.25-5.73,8.59-7.33
			c3.34-1.6,6.95-2.26,10.82-1.98c3.76,0.27,6.96,1.36,9.61,3.26c2.64,1.9,4.53,4.44,5.67,7.6c1.14,3.17,1.42,6.75,0.83,10.76
			C134.32,346.92,133.18,350.07,131.43,352.65z"/>
		<path d="M145.01,389.33c-2.91-1.92-5.1-4.49-6.58-7.71c-1.48-3.22-2.09-6.85-1.82-10.88l11.21,0.8c0.02,2.81,0.83,5.08,2.45,6.81
			c1.62,1.74,3.86,2.71,6.72,2.91c3.6,0.26,6.68-1.17,9.23-4.29c2.55-3.12,4.43-7.75,5.66-13.9c0.16-0.74,0.36-1.9,0.6-3.51
			c-1.18,3.28-3.16,5.84-5.95,7.66c-2.79,1.83-6.09,2.6-9.9,2.33c-3.82-0.27-7.09-1.46-9.8-3.55c-2.72-2.09-4.66-4.9-5.84-8.41
			c-1.17-3.51-1.44-7.42-0.81-11.74c0.64-4.38,2.09-8.22,4.34-11.51c2.25-3.3,5.08-5.77,8.48-7.43c3.4-1.66,7.09-2.34,11.07-2.06
			c4.82,0.34,8.79,2.05,11.91,5.1c3.11,3.06,5.22,7.23,6.32,12.51c1.1,5.28,1.14,11.38,0.13,18.28c-1.01,6.84-2.77,12.72-5.28,17.62
			c-2.52,4.9-5.64,8.59-9.38,11.06c-3.74,2.47-7.89,3.55-12.45,3.22C151.35,392.35,147.91,391.25,145.01,389.33z M167.44,356.44
			c2.24-1.93,3.61-4.62,4.12-8.07c0.52-3.51-0.04-6.39-1.67-8.62c-1.63-2.23-3.9-3.46-6.81-3.66c-2.97-0.21-5.58,0.68-7.82,2.67
			c-2.25,1.99-3.63,4.74-4.15,8.26c-0.5,3.39,0.08,6.19,1.74,8.4c1.66,2.21,3.94,3.41,6.86,3.62
			C162.62,359.23,165.2,358.37,167.44,356.44z"/>
		<path d="M189.23,374.1c-1.06-0.89-1.81-2.1-2.24-3.63c-0.43-1.52-0.51-3.24-0.23-5.14c0.28-1.93,0.86-3.64,1.74-5.13
			c0.87-1.48,1.96-2.61,3.27-3.37c1.3-0.76,2.71-1.09,4.22-0.98c1.51,0.11,2.79,0.61,3.84,1.5c1.04,0.89,1.79,2.09,2.24,3.6
			c0.45,1.51,0.54,3.21,0.26,5.11c-0.29,1.97-0.88,3.7-1.77,5.18c-0.89,1.48-1.99,2.6-3.29,3.36c-1.3,0.76-2.7,1.09-4.18,0.98
			C191.58,375.5,190.29,375,189.23,374.1z M221.48,358.65l-28.62,36.93l-4.13-2.8l28.62-36.93L221.48,358.65z M196.37,369.52
			c0.75-0.92,1.23-2.14,1.45-3.65c0.22-1.48,0.09-2.7-0.38-3.68c-0.47-0.97-1.17-1.5-2.11-1.56c-0.97-0.07-1.83,0.34-2.59,1.23
			c-0.76,0.89-1.25,2.09-1.47,3.6c-0.22,1.51-0.1,2.77,0.36,3.76c0.47,0.99,1.18,1.52,2.15,1.59
			C194.76,370.87,195.62,370.44,196.37,369.52z M210,394.67c-1.06-0.89-1.82-2.1-2.26-3.63c-0.45-1.53-0.54-3.22-0.26-5.08
			c0.29-1.97,0.86-3.7,1.72-5.18c0.86-1.48,1.93-2.61,3.2-3.37c1.27-0.76,2.65-1.09,4.13-0.98c1.54,0.11,2.86,0.62,3.95,1.53
			c1.09,0.91,1.86,2.13,2.33,3.66c0.46,1.53,0.56,3.22,0.28,5.09c-0.28,1.93-0.87,3.64-1.76,5.13c-0.89,1.48-1.99,2.6-3.29,3.36
			c-1.3,0.76-2.71,1.09-4.22,0.98C212.33,396.07,211.06,395.57,210,394.67z M217.1,390.14c0.76-0.92,1.25-2.14,1.48-3.65
			c0.22-1.48,0.09-2.7-0.38-3.68c-0.47-0.97-1.17-1.5-2.11-1.56c-0.97-0.07-1.84,0.34-2.61,1.23c-0.77,0.89-1.27,2.09-1.49,3.6
			c-0.22,1.51-0.1,2.77,0.36,3.76c0.46,0.99,1.18,1.52,2.15,1.59C215.47,391.49,216.34,391.07,217.1,390.14z"/>
	</g>
</g>
</svg>
