<?xml version="1.0" encoding="UTF-8"?><svg id="Logo_and_Tagline" xmlns="http://www.w3.org/2000/svg" viewBox="0 0 171 165"><defs><style>.cls-1{fill:#fff;}</style></defs><path class="cls-1" d="m8.93,147.75v-15.91h-3.44v-3.7h3.44v-2.44c0-3.7,2.18-5.7,6.25-5.7h4.25v3.7h-3.96c-1.41,0-2.18.81-2.18,2.29v2.15h5.7v3.7h-5.7v15.91h-4.37Zm10.58-9.99c0-6.4,4.33-10.21,10.06-10.21,6.33,0,10.03,4.44,10.03,10.21,0,6.62-4.18,10.54-10.03,10.54-6.36,0-10.06-4.48-10.06-10.54Zm15.65,0c0-3.89-2.18-6.48-5.59-6.48s-5.62,2.59-5.62,6.48c0,4.29,2.41,6.81,5.62,6.81,3.52,0,5.59-2.89,5.59-6.81Zm7.47,9.99v-19.61h3.51l.52,3.85c1.26-2.67,3.55-4.07,6.81-4.07h.74v4.25h-.74c-4.07,0-6.48,2.18-6.48,5.88v9.69h-4.37Zm25.97-3.48l-.41,3.48h-3.52v-27.75h4.37v10.69c1.41-1.92,3.74-3.14,6.51-3.14,5.18,0,8.84,4.22,8.84,10.29s-3.66,10.47-8.88,10.47c-3.11,0-5.7-1.55-6.92-4.03Zm11.32-6.44c0-3.88-2.18-6.59-5.37-6.59s-5.51,2.66-5.51,6.48c0,4.03,2.29,6.88,5.51,6.88s5.37-2.78,5.37-6.77Zm6.66.19c0-6.48,4.26-10.47,9.73-10.47s9.25,3.88,9.36,10.25v1.04h-14.73c.3,3.44,2.44,5.77,5.77,5.77,2.26,0,3.96-1.11,4.63-3.07h4.25c-1,4.22-4.29,6.77-8.92,6.77-5.99,0-10.1-4.29-10.1-10.29Zm14.58-2.26c-.55-2.81-2.29-4.51-4.85-4.51s-4.51,1.7-5.18,4.51h10.03Zm15.54,11.99c-4.25,0-6.55-2.11-6.55-5.99v-9.92h-3.44v-3.7h3.44v-6.7h4.37v6.7h6.81v-6.7h4.37v6.7h5.07v3.7h-5.07v9.62c0,1.67.85,2.59,2.48,2.59h2.22v3.7h-2.52c-4.25,0-6.55-2.11-6.55-5.99v-9.92h-6.81v9.62c0,1.67.85,2.59,2.48,2.59h2.22v3.7h-2.52Zm15.1-9.73c0-6.48,4.25-10.47,9.73-10.47s9.25,3.88,9.36,10.25v1.04h-14.73c.3,3.44,2.44,5.77,5.77,5.77,2.26,0,3.96-1.11,4.62-3.07h4.26c-1,4.22-4.29,6.77-8.92,6.77-5.99,0-10.1-4.29-10.1-10.29Zm14.58-2.26c-.56-2.81-2.29-4.51-4.85-4.51s-4.51,1.7-5.18,4.51h10.03Zm7.55,11.99v-19.61h3.51l.52,3.85c1.26-2.67,3.55-4.07,6.81-4.07h.74v4.25h-.74c-4.07,0-6.48,2.18-6.48,5.88v9.69h-4.37ZM1.45,164.95c26.13-4.51,52.76-6.16,79.24-6.77,28.65-.65,57.54-.13,86.01,3.36,2.22.27,6.25-4.19,3.19-4.61-28.31-3.86-57.05-4.38-85.57-3.55-27.04.79-54.32,2.58-81.01,7.19-2.11.36-5.15,4.94-1.86,4.37h0ZM130.83,33.51c-2.14-1.38-5.54-2.61-10.26-2.61-9.87,0-15.25,7.07-17.13,16.05-2.68,12.79,3.04,18.23,9.94,18.23,3.2,0,4.46-.88,4.46-.88l2.46-11.89h-7.55l1.57-7.55h18.07l-5.48,25.76s-5.3,2.37-14.41,2.37c-14.22,0-23.31-11.13-20.07-26.41,3.22-15.2,14.27-23.52,28.24-23.52,3.95,0,8.88.67,12.16,2.17l-2.02,8.28Zm-49.46,38.47l10.03-47.83h-10.84l-10.04,47.83h10.84Zm-12.32-38.47c-2.67-1.27-6.43-2.5-10.11-2.5s-7.49.87-8.21,4.62c-.7,3.66,2.58,5.82,8.08,8.86,8.91,4.93,9.7,10.65,8.58,16.03-1.83,8.76-9.84,12.52-19.29,12.42-8.81-.09-14.95-3.11-14.95-3.11l2.09-8.35c2.02,1.21,7.46,3.6,13.14,3.6,5.17,0,7.39-1.94,7.98-4.78.78-3.75-1.02-6.14-6.09-8.96-6.76-3.76-12.17-7.86-10.55-15.6,2.03-9.71,11.19-12.68,18.92-12.68,4.38,0,8.92.57,12.58,2.1l-2.16,8.35Zm93.25,16.49c0,27.61-34.38,50-76.8,50S8.7,77.61,8.7,50,43.09,0,85.5,0s76.8,22.39,76.8,50ZM85.5,6.82C46.6,6.82,15.07,26.15,15.07,50s31.53,43.18,70.43,43.18,70.43-19.33,70.43-43.18S124.4,6.82,85.5,6.82Z"/></svg>