<svg width="51" height="49" viewBox="0 0 51 49" fill="none" xmlns="http://www.w3.org/2000/svg">
<g clip-path="url(#clip0_562_1693)">
<path d="M37.1752 27.6754L45.6379 19.5449C46.3568 18.8533 46.5501 17.7775 46.1163 16.8777L44.401 13.3379C44.0291 12.5695 43.2607 12.0687 42.408 12.039L33.6676 11.7366C33.2091 11.7217 32.7554 11.8432 32.3663 12.0861L15.1657 22.8368C14.7269 23.1094 14.3948 23.5234 14.2188 24.0092L8.98596 38.5129C8.50507 39.844 9.32556 41.2867 10.7137 41.5569L29.4759 45.2007C30.2989 45.3594 31.1417 45.0619 31.6821 44.4199L35.9333 39.3532C36.2803 38.9392 36.4712 38.4137 36.4712 37.8733V29.3387C36.4687 28.7091 36.724 28.1092 37.1752 27.6754Z" fill="#DCA0FF"/>
<path d="M25.9462 12.9636C25.8917 12.9561 25.8396 12.9438 25.7876 12.9338C25.7355 12.976 25.6661 13.0206 25.5942 13.0627C25.8471 13.4023 25.9388 13.1569 25.9462 12.9636Z" fill="#040404"/>
<path d="M50.0749 46.0311C46.5426 42.588 43.0276 39.1276 39.525 35.6522C41.9344 32.8165 44.3439 29.9782 46.7533 27.1424C47.5044 26.2575 48.2555 25.375 49.0065 24.4901C49.4279 23.9943 49.7105 23.2011 49.3808 22.5938C48.9768 21.8477 48.5727 21.104 48.1662 20.3579C46.6864 17.3982 45.2065 14.4384 43.7266 11.4762C43.5531 11.1292 43.0921 11.2135 42.7673 11.3845C38.3253 11.1515 33.8832 10.916 29.4412 10.683C28.2835 10.6211 26.6574 10.1997 25.6238 10.8318C23.4424 12.1654 21.3428 13.6675 19.2309 15.1152C18.5938 14.4583 17.9567 13.8014 17.3197 13.142C13.3833 9.05939 9.47916 4.94454 5.67168 0.74045C4.76195 -0.263475 3.059 2.14099 3.82744 2.98627C8.05879 7.65885 12.3769 12.2546 16.7545 16.7983C13.1949 19.2127 9.64772 21.6444 6.1377 24.1307C5.88486 24.3091 5.70639 24.5992 5.60475 24.9065C4.91068 25.8311 4.54877 27.2689 4.20422 28.1687C2.76154 31.9464 1.40562 35.7663 0.11911 39.601C-0.061844 40.1364 -0.126293 40.8751 0.550426 41.0487C5.37174 42.2881 10.2947 43.1928 15.1829 44.115C19.9968 45.0222 24.947 46.1501 29.8551 46.3781C30.3558 46.4004 30.7847 46.0608 31.0697 45.6072C33.261 43.0268 35.4523 40.4463 37.6436 37.8658C39.9216 40.1166 42.2022 42.3624 44.4827 44.6058C45.7295 45.8328 46.9764 47.0573 48.2282 48.2794C49.2098 49.2337 50.8805 46.8169 50.0749 46.0311ZM38.2187 34.3583C35.5713 31.7258 32.9338 29.0834 30.3038 26.4285C33.8931 22.8392 37.4825 19.2498 41.0693 15.663C41.4635 15.2689 41.8601 14.8722 42.2542 14.4781C43.6101 17.1875 44.9636 19.8968 46.3195 22.6087C46.5624 23.0573 46.8078 23.5085 47.0507 23.9571C44.1084 27.4225 41.1635 30.8904 38.2187 34.3583ZM25.2569 13.2486C25.3213 13.2065 25.4626 13.1371 25.594 13.0602C25.5618 13.0181 25.5296 12.9685 25.4924 12.9065C25.5023 12.9239 25.6882 12.914 25.7031 12.9164C25.7304 12.9239 25.7576 12.9264 25.7849 12.9313C25.8245 12.8991 25.8568 12.8669 25.8716 12.8346C25.9187 12.7256 25.951 12.8322 25.9435 12.9611C26.593 13.0627 27.3416 13.0007 27.9786 13.0354C30.7673 13.1817 33.5535 13.3279 36.3422 13.4767C37.6907 13.5485 39.0392 13.618 40.3852 13.6898C36.9099 17.1652 33.4345 20.6405 29.9617 24.1133C29.6345 24.4405 29.3073 24.7677 28.9801 25.0949C26.1394 22.2195 23.311 19.3316 20.4951 16.4289C22.084 15.3655 23.6704 14.3071 25.2569 13.2486ZM26.8954 27.1548C22.5475 26.4335 18.1972 25.7171 13.8444 25.0181C12.2728 24.7652 10.6888 24.4504 9.0999 24.2249C12.0547 22.16 15.0293 20.1224 18.0162 18.1046C20.9537 21.1437 23.9158 24.1579 26.8954 27.1548ZM7.00281 25.9402C7.00033 25.9402 7.00033 25.9402 7.00033 25.9402C7.00281 25.9303 7.00281 25.9303 7.00281 25.9402ZM2.4269 38.5401C3.38868 35.7142 4.39261 32.9007 5.42876 30.1022C5.84024 28.9941 6.25421 27.8861 6.69792 26.7929C11.5663 27.4225 16.41 28.3174 21.2511 29.1131C22.7805 29.3659 24.31 29.6163 25.8394 29.8716C26.1741 32.2439 26.8979 34.6334 27.4011 36.966C27.8721 39.1474 28.3455 41.3288 28.8165 43.5101C24.5876 43.116 20.3463 42.174 16.2042 41.3932C11.6085 40.5281 6.97555 39.6704 2.4269 38.5401ZM32.0761 41.5915C31.7514 41.9733 31.4267 42.355 31.102 42.7367C30.0881 38.0493 29.0743 33.3593 28.0604 28.6719C28.1175 28.6149 28.1745 28.5578 28.234 28.4983C30.926 31.2003 33.6304 33.8898 36.3397 36.5694C34.9169 38.2451 33.4965 39.9183 32.0761 41.5915Z" fill="#040404"/>
</g>
<defs>
<clipPath id="clip0_562_1693">
<rect width="50.288" height="48" fill="white" transform="translate(0 0.5)"/>
</clipPath>
</defs>
</svg>
