<svg width="69" height="48" viewBox="0 0 69 48" fill="none" xmlns="http://www.w3.org/2000/svg">
<g id="Frame" clip-path="url(#clip0_562_1653)">
<g id="Group">
<path id="Vector" d="M52.4473 35.9658C50.2285 39.6675 46.0056 42.099 41.6671 42.1809C37.3287 42.2629 33.0177 39.9872 30.6613 36.3701C27.8616 38.0284 24.3848 38.2169 21.175 37.6514C17.2659 36.9629 13.4835 35.1653 10.8408 32.2258C8.19808 29.2862 6.78587 25.1282 7.5842 21.268C8.38252 17.4078 11.5593 14.0366 15.4711 13.3591C16.2859 8.70659 19.8701 4.63875 24.4068 3.21541C28.9435 1.79208 34.2345 3.07881 37.5957 6.4227C41.9507 3.53778 47.8886 3.19355 52.5519 5.55394C57.2152 7.91433 60.4223 12.8864 60.626 18.0771C64.0588 18.9185 66.3299 22.6695 65.9224 26.1554C65.515 29.6414 62.7869 32.6219 59.4725 33.8485C57.5483 34.5616 55.4479 34.7473 53.408 34.5206" fill="#145EFC"/>
</g>
<g id="Group_2">
<g id="Group_3">
<path id="Vector_2" d="M51.613 38.9355C49.229 42.7793 44.6841 45.1151 40.1529 44.9976C35.5391 44.8774 31.2529 42.4378 28.6983 38.6514C28.4588 38.2935 27.9771 38.3536 27.6522 38.5393C20.5912 42.5307 9.99549 39.1185 5.30465 32.928C2.94546 29.8163 1.61859 25.5436 2.76928 21.7052C3.78233 18.3285 6.65079 15.8425 10.1056 15.1704C10.8571 15.0256 11.416 14.0776 11.5426 13.4056C12.4207 8.78317 15.9224 4.91749 20.4756 3.56518C25.3536 2.11726 30.9006 3.52421 34.5426 7.0402C34.8427 7.32978 35.217 7.39262 35.5887 7.15221C40.5465 3.96678 47.1121 3.63621 52.2984 6.5184C57.0829 9.17657 60.3009 14.2907 60.5872 19.7245C60.6093 20.1698 60.7717 20.4485 61.2094 20.5687C65.2946 21.6888 67.7281 26.5653 66.1783 30.4665C64.3008 35.1927 58.7896 36.7363 54.1291 36.2828C52.8545 36.1598 51.5331 39.1404 52.9921 39.2824C59.4365 39.908 65.8397 36.8483 68.2704 30.6605C70.2993 25.4944 67.9786 19.1153 62.3435 17.5691C62.55 17.8504 62.7592 18.1318 62.9657 18.4132C62.6491 12.392 59.2962 6.65227 53.9474 3.67993C48.2517 0.513619 40.9732 0.958924 35.5391 4.45033C35.8887 4.48858 36.2383 4.52682 36.5852 4.56234C32.2357 0.357899 25.6344 -1.21569 19.9057 1.00537C14.3808 3.1472 10.3203 8.23405 9.22745 13.9875C9.70644 13.4001 10.1854 12.81 10.6644 12.2227C3.67772 13.5777 -0.73784 20.8965 0.101777 27.6745C1.05977 35.4113 7.48765 40.7549 14.8075 42.5334C19.1102 43.577 23.779 43.4541 27.6963 41.2412C27.3467 41.203 26.997 41.1647 26.6502 41.1292C29.6178 45.5331 34.8812 48.3005 40.2492 47.9754C45.6889 47.6476 50.5008 44.4758 53.328 39.9217C53.628 39.4381 53.9336 38.3754 53.295 38.0093C52.6398 37.6296 51.9048 38.4683 51.613 38.9355Z" fill="#040404"/>
</g>
</g>
<g id="Group_4">
<g id="Group_5">
<path id="Vector_3" d="M28.2855 19.1427C27.2724 15.2661 23.0881 13.2746 19.4213 15.0476C16.6409 16.3917 14.7745 19.2547 14.2818 22.2271C13.7917 25.183 14.4552 28.016 16.7731 30.0158C20.0765 32.8652 24.5911 30.6332 26.9145 27.7183C27.3027 27.232 27.8092 26.213 27.3302 25.6283C26.8512 25.0437 26.0502 25.571 25.6978 26.0135C23.9057 28.2619 20.6326 29.2727 18.3422 27.0763C16.9493 25.7403 16.3409 24.0657 16.5308 22.1424C16.7125 20.2983 17.5797 18.7084 19.2754 17.8478C22.0585 16.4354 25.2463 18.2549 25.9923 21.0988C26.408 22.6861 28.5965 20.3311 28.2855 19.1427Z" fill="#040404"/>
</g>
</g>
<g id="Group_6">
<g id="Group_7">
<path id="Vector_4" d="M45.2044 21.1013C44.6538 17.4515 42.0194 14.5174 38.0525 14.848C34.4518 15.1485 31.1952 18.211 30.4822 21.7024C29.772 25.1746 31.6659 29.9555 35.14 31.2914C36.9624 31.9935 38.9362 31.5318 40.6347 30.7013C44.1748 28.9693 45.6889 25.1801 45.2485 21.4237C45.02 19.4895 42.7186 21.4729 42.8672 22.735C43.1811 25.4151 42.4763 27.4449 39.7896 28.3136C39.4317 28.4284 39.0601 28.5213 38.6884 28.5868C38.5618 28.6087 37.8653 28.6661 38.2728 28.6551C36.7202 28.6934 35.3492 27.8902 34.4243 26.6827C33.403 25.3495 32.6432 23.3606 32.7285 21.6641C32.8111 20.0222 34.2398 18.7382 35.6988 18.1754C37.2542 17.5744 38.994 17.752 40.4145 18.6126C42.0607 19.6097 42.6415 21.2461 42.9113 23.0547C43.0297 23.8415 43.9794 23.541 44.3813 23.2186C45.009 22.7159 45.32 21.8772 45.2044 21.1013Z" fill="#040404"/>
</g>
</g>
<g id="Group_8">
<g id="Group_9">
<path id="Vector_5" d="M48.9676 25.3878C48.5656 25.6801 49.5567 25.3687 49.686 25.3605C50.0769 25.3331 50.4128 25.314 50.7789 25.4725C51.8498 25.9342 51.2772 26.3139 50.7101 26.9231C49.5594 28.1607 48.3922 29.3873 47.236 30.6167C46.6469 31.2423 46.2092 33.0836 47.5636 32.9416C49.4796 32.7394 51.3928 32.7585 53.3088 32.947C54.5833 33.0727 55.9047 30.0922 54.4457 29.9474C52.3288 29.7398 50.2366 29.7698 48.1224 29.9938C48.2325 30.7697 48.3399 31.5428 48.45 32.3187C49.6695 31.0238 50.9166 29.7507 52.1085 28.4312C52.9729 27.4722 53.807 26.2948 53.8346 24.9561C53.8951 22.0794 50.1871 21.7379 48.3151 23.1039C47.1644 23.9481 47.2278 26.6581 48.9676 25.3878Z" fill="#040404"/>
</g>
</g>
</g>
<defs>
<clipPath id="clip0_562_1653">
<rect width="69" height="48" fill="white"/>
</clipPath>
</defs>
</svg>
