<svg width="156" height="154" viewBox="0 0 156 154" fill="none" xmlns="http://www.w3.org/2000/svg">
<g id="Ebene_1" clip-path="url(#clip0_562_2055)">
<path id="Vector" d="M149.379 43.0141L140.199 88.7341C139.628 91.5517 136.734 91.6663 134.946 90.0065C132.598 87.8451 132.239 84.1599 132.821 81.2478L142.001 35.5279C142.573 32.7103 145.466 32.5957 147.262 34.2578C149.602 36.4169 149.969 40.1044 149.379 43.0141Z" fill="#145EFC"/>
<path id="Vector_2" d="M99.05 36.5747C104.593 53.0448 108.497 70.0229 110.705 87.2619C110.988 89.4894 110.01 93.0558 107.185 92.6946C104.361 92.3334 103.041 88.0291 102.741 85.7081C100.843 70.7132 97.4769 55.9416 92.6913 41.6063C91.8921 39.236 90.9839 35.1591 93.444 33.3576C95.7119 31.6678 98.4056 34.5511 99.0582 36.577L99.05 36.5747Z" fill="#145EFC"/>
<path id="Vector_3" d="M42.6813 62.3193C54.5446 72.7106 67.6312 81.5922 78.5518 92.9908C80.5817 95.1207 81.6625 98.9117 80.6668 101.755C79.7833 104.277 77.3708 105.074 75.4137 103.028C64.4768 91.6242 51.4095 82.6774 39.5351 72.3538C35.8347 69.1301 36.9644 57.3419 42.665 62.3145L42.6813 62.3193Z" fill="#145EFC"/>
<path id="Vector_4" d="M53.3353 133.267C38.5542 126.324 23.5669 120.082 8.34263 114.284C5.53305 113.209 4.09013 110.198 3.90896 107.291C3.80522 105.657 4.58032 100.764 7.43064 101.851C23.3528 107.925 39.0501 114.402 54.5009 121.658C58.8094 123.687 59.2923 136.074 53.3353 133.267Z" fill="#145EFC"/>
</g>
<defs>
<clipPath id="clip0_562_2055">
<rect width="126" height="122" fill="white" transform="matrix(-0.959363 -0.282174 -0.282174 0.959363 155.652 36.2559)"/>
</clipPath>
</defs>
</svg>
