<svg width="51" height="48" viewBox="0 0 51 48" fill="none" xmlns="http://www.w3.org/2000/svg">
<g id="Frame" clip-path="url(#clip0_562_1679)">
<g id="Group">
<path id="Vector" d="M16.2297 46.1637C18.0053 46.0646 19.7785 45.9632 21.5541 45.864C20.9096 39.0188 20.263 32.1713 19.6186 25.3261C19.569 24.7876 19.5149 24.24 19.2986 23.7466C18.7759 22.5479 17.1243 22.273 16.6804 23.6429C16.2095 25.0963 16.4348 27.1579 16.3559 28.6834C16.1666 32.3921 16.0788 36.1054 16.099 39.8164C16.1058 41.9299 16.1509 44.0479 16.2297 46.1637Z" fill="#E5DFD9"/>
<path id="Vector_2" d="M13.7985 19.4969C13.5349 19.569 13.4064 19.5848 13.1969 19.4902C12.7034 20.5176 11.4507 21.0133 10.4502 21.5767C8.42911 22.71 6.65584 24.2782 5.28589 26.1461C8.17675 26.1619 11.0676 25.4319 13.6025 24.0417C14.7178 23.4288 15.8264 22.674 17.0972 22.5861C18.1787 22.5117 19.2265 22.9353 20.2291 23.3544C23.1853 24.5847 26.1415 25.8149 29.0955 27.0474C29.7962 27.3381 30.515 27.6355 31.2743 27.6513C32.0337 27.6671 32.8471 27.3449 33.1963 26.6711C33.5568 25.9772 33.3248 25.0962 32.8403 24.4833C32.3559 23.8704 31.6574 23.4693 30.9792 23.084C28.1762 21.491 25.3732 19.8958 22.5702 18.3027C21.7568 17.8408 20.9186 17.3587 20.3508 16.6128C19.4563 15.4412 19.3909 13.8572 19.3617 12.3858C19.3256 10.6283 19.2918 8.87309 19.2558 7.11559C19.2287 5.74339 19.0868 4.22473 18.706 2.90435C18.528 2.28923 18.2193 1.66959 17.5073 2.22614C16.8268 2.75789 17.0837 4.27204 17.0476 5.03813C16.998 6.04532 16.9507 7.0525 16.8966 8.05968C16.82 9.51525 16.7637 10.9798 16.6173 12.4309C16.5497 13.0911 16.7254 13.767 16.7547 14.434C16.784 15.1212 16.7412 15.8152 16.5384 16.4754C16.3446 17.1018 16.0111 17.6809 15.6011 18.1923C14.9792 18.9652 14.1658 19.5938 13.2397 19.9521" fill="#E5DFD9"/>
<path id="Vector_3" d="M37.5452 46.3621C38.701 46.2968 39.8592 46.2314 41.0151 46.1661C40.5937 41.7047 40.1746 37.2411 39.7533 32.7798C39.7195 32.4305 39.6857 32.0723 39.5437 31.7501C39.2035 30.9682 38.1265 30.788 37.8358 31.6825C37.5294 32.6311 37.6758 33.974 37.624 34.9677C37.5001 37.3853 37.4438 39.8053 37.455 42.2252C37.4663 43.6042 37.4956 44.9831 37.5452 46.3621Z" fill="#E5DFD9"/>
<path id="Vector_4" d="M48.3717 32.2321C48.0563 31.8333 47.6011 31.5719 47.1572 31.3196C45.3299 30.2808 43.5025 29.2421 41.6752 28.2034C41.1457 27.9015 40.5982 27.5883 40.2286 27.1016C39.6451 26.3377 39.6022 25.3058 39.5842 24.3459C39.5617 23.2013 39.5392 22.0566 39.5166 20.9098C39.4986 20.0152 39.4062 19.0261 39.1584 18.1654C39.0435 17.7643 38.8407 17.361 38.3765 17.7237C37.9326 18.0707 38.1016 19.0576 38.0768 19.5556C38.0453 20.2113 38.0137 20.8692 37.9777 21.5249C37.9326 22.3541 37.8853 23.1832 37.8222 24.0124C37.7726 24.6749 37.7546 25.3734 37.6397 26.0313C37.4527 27.0993 36.975 28.1155 36.263 28.9334C36.0918 29.1294 35.9498 29.2984 35.711 29.3818C35.4902 29.4584 35.3347 29.5305 35.1161 29.6612C34.6858 29.9181 34.2126 30.0916 33.7755 30.3372C32.4596 31.0762 31.3014 32.0992 30.4092 33.3159C32.2929 33.3272 34.1765 32.8495 35.8304 31.946C36.5582 31.5471 37.2792 31.0537 38.1084 30.9974C38.8136 30.9478 39.4963 31.2249 40.1498 31.4976C42.0763 32.2997 44.0028 33.1018 45.9292 33.904C46.3844 34.0933 46.8553 34.287 47.3488 34.2983C47.8422 34.3096 48.374 34.0978 48.6015 33.6584C48.8381 33.2055 48.6872 32.6309 48.3717 32.2321Z" fill="#E5DFD9"/>
<path id="Vector_5" d="M50.0052 45.5981C47.1392 45.3705 44.2686 45.1902 41.398 45.0528C41.0059 40.7334 40.4787 36.4253 40.0956 32.1036C41.5129 32.6985 42.9279 33.2911 44.3452 33.8859C45.3343 34.3005 46.9183 35.2671 48.0021 34.8706C48.8786 34.5506 49.2775 33.4939 49.0093 32.6444C48.6466 31.4953 47.2135 30.6683 46.2942 30.0149C44.8792 29.0055 43.365 28.1222 41.763 27.4463C41.1839 27.2007 40.5733 27.061 40.4336 26.3715C40.3773 26.0966 40.3908 25.7879 40.3705 25.5107C40.2579 23.9853 40.1452 22.4599 40.0326 20.9367C39.9379 19.684 39.8861 18.2397 39.2439 17.1221C38.6536 16.0946 37.5788 16.0067 36.8803 17.0004C36.1616 18.0234 36.3148 19.8056 36.1976 21.0088C36.0173 22.8565 35.8371 24.7064 35.623 26.5495C35.4518 27.3922 34.1359 28.0343 33.4983 28.5165C32.7299 29.0956 31.9706 29.6837 31.2068 30.2673C30.5443 30.7742 29.8819 31.2767 29.2127 31.7724C28.593 32.2298 27.827 32.6331 27.338 33.237C26.8446 33.8476 26.7274 34.9291 27.7684 34.9832C28.4128 35.017 29.1879 34.6745 29.8053 34.51C30.6818 34.2757 31.5515 34.0256 32.4145 33.7507C33.6605 33.3541 34.866 32.8832 36.0692 32.3965C36.0511 32.4303 36.0376 32.4641 36.0309 32.4979C35.2738 36.5785 34.8615 40.6816 34.7893 44.823C30.5916 44.7238 26.3917 44.7171 22.1962 44.8094C21.5946 37.962 20.7429 31.1393 20.1413 24.294C22.0633 25.1007 23.9852 25.9051 25.9072 26.7117C27.4822 27.3719 29.7467 28.7509 31.5087 28.681C33.149 28.6157 34.2666 26.9032 33.8881 25.3463C33.4104 23.3837 30.9341 21.989 29.4064 20.9165C27.4011 19.5082 25.2718 18.2644 23.0254 17.2866C22.1376 16.899 20.9074 16.712 20.6685 15.6214C20.6054 15.3285 20.6212 14.9973 20.6009 14.6999C20.4252 12.316 20.2494 9.93435 20.0714 7.55046C19.9475 5.86507 19.8596 4.14362 19.3369 2.52356C18.7465 0.69847 17.1152 -1.11311 15.4095 0.849435C14.6412 1.73494 14.6119 2.85479 14.4925 3.96787C14.3618 5.18009 14.2424 6.39457 14.1252 7.60679C13.8616 10.3287 13.5935 13.0505 13.2758 15.7656C13.0617 16.9643 11.4957 17.6741 10.5899 18.3523C9.49489 19.1725 8.4111 20.0039 7.32505 20.8376C5.27238 22.4126 3.01017 23.8344 1.05213 25.5153C0.114801 26.3196 -0.818025 28.6359 1.20535 28.7171C2.27562 28.7599 3.59825 28.1853 4.62346 27.9082C5.91455 27.5589 7.19887 27.1849 8.47193 26.7771C10.3218 26.1867 12.1492 25.5265 13.9427 24.7852C13.9292 24.8213 13.9157 24.8551 13.9089 24.8911C12.6561 31.6147 12.0162 38.3923 11.9847 45.224C9.83062 45.3525 7.67655 45.5012 5.52474 45.6792C4.92539 45.7287 4.48827 46.2177 4.28548 46.763C4.17282 47.0649 4.04889 48.0473 4.65275 47.9977C19.4518 46.7742 34.3297 46.7472 49.1332 47.9166C50.1134 47.9955 51.1183 45.6859 50.0052 45.5981ZM14.4046 16.3898C15.3284 15.5291 17.0904 15.9414 18.1066 16.4056C19.4631 17.0252 20.3328 18.2261 20.0173 19.7831C19.774 20.9886 18.8795 21.6668 17.8565 21.829C17.8272 21.8313 17.7957 21.8358 17.7664 21.8403C16.9845 21.9417 16.1328 21.7524 15.4411 21.268C13.9765 20.2428 13.1248 17.8904 14.4046 16.3898ZM24.6725 19.9634C26.653 21.0314 28.5322 22.2864 30.3077 23.6699C31.1031 24.2873 32.2613 25.0128 32.6105 26.0132C33.1851 27.6626 31.1617 27.0677 30.3573 26.7568C28.9783 26.225 27.6242 25.6121 26.261 25.0421C24.2083 24.1814 22.1556 23.3206 20.1007 22.4599C19.8574 22.3585 19.614 22.2459 19.3662 22.1422C19.8574 21.8177 20.2877 21.3987 20.6167 20.8939C21.144 20.085 21.331 19.1973 21.2296 18.3636C21.4256 18.4402 21.6239 18.5146 21.8177 18.5957C22.791 18.999 23.7419 19.4609 24.6725 19.9634ZM15.716 3.30768C15.7385 3.1094 15.734 2.77818 15.7971 2.57539C15.9053 2.23515 16.223 1.57497 16.6961 1.51864C17.1152 1.46907 17.5839 2.20361 17.7484 2.50103C18.3567 3.59609 18.5505 4.95928 18.6835 6.18277C18.7736 7.00969 18.8232 7.84338 18.884 8.67256C19.0462 10.8559 19.2062 13.037 19.3684 15.2204C19.3797 15.3601 19.3865 15.5065 19.3932 15.6552C19.3121 15.6079 19.2332 15.5606 19.1499 15.52C17.692 14.8058 15.8917 14.63 14.4677 15.3894C14.9386 11.3674 15.2766 7.3319 15.716 3.30768ZM5.51798 26.2205C4.90962 26.3895 4.299 26.5517 3.68613 26.7095C3.30759 26.8063 2.21479 27.2818 1.85202 27.1623C0.682609 26.7816 2.31167 26.0177 2.67895 25.7518C3.19268 25.3801 3.70415 25.0038 4.21563 24.6252C6.24577 23.1133 8.2376 21.5541 10.2565 20.0287C11.0406 19.4384 11.9103 18.8999 12.6606 18.269C12.5119 19.6975 13.1023 21.1688 14.3753 22.1174C14.7291 22.3811 15.1144 22.5726 15.5177 22.7033C14.666 23.0818 13.8075 23.4446 12.94 23.7848C10.5133 24.7266 8.03031 25.5265 5.51798 26.2205ZM15.4884 24.4179C15.5109 24.2918 15.4952 24.2016 15.4569 24.134C15.5447 24.0957 15.6349 24.0574 15.7227 24.0169C16.5699 23.6361 17.3158 23.1877 18.2621 23.5031C18.3973 23.5482 18.5302 23.6045 18.6632 23.6631C18.5438 23.8186 18.4694 23.9853 18.4829 24.1476C19.0665 31.0604 19.9295 37.9439 20.5559 44.8522C18.2261 44.9176 15.8962 45.01 13.5664 45.1339C13.5732 38.1715 14.2131 31.2654 15.4884 24.4179ZM36.3734 26.9415C37.0426 26.3625 38.2953 26.6982 38.9736 27.07C39.8478 27.5454 40.2962 28.5143 39.9244 29.4831C39.7058 30.0532 39.3341 30.3709 38.9037 30.4948C38.9037 30.4948 38.9037 30.4948 38.9014 30.4948C38.6942 30.4723 38.5004 30.4993 38.3111 30.5512C36.815 30.4363 35.1273 28.5616 36.3734 26.9415ZM43.0135 29.2668C44.192 29.9022 45.3163 30.6368 46.3843 31.4434C46.8643 31.8062 47.5763 32.223 47.912 32.7413C48.2297 33.2347 48.0742 33.9625 47.4141 33.9197C47.2022 33.9062 46.871 33.7575 46.657 33.6741C45.6723 33.2978 44.708 32.8562 43.7346 32.4484C42.448 31.9076 41.1592 31.3691 39.8726 30.8283C39.7802 30.79 39.6856 30.7472 39.5909 30.7066C39.8951 30.5061 40.1632 30.2515 40.3683 29.9451C40.7761 29.3434 40.9 28.7644 40.8234 28.2416C40.8302 28.2439 40.8347 28.2461 40.8415 28.2484C41.5783 28.5729 42.3083 28.886 43.0135 29.2668ZM37.2115 18.4289C37.2589 18.0008 37.1935 17.7597 37.5585 17.4848C38.0002 17.1536 38.2052 17.3992 38.4936 17.8296C38.9195 18.4672 39.0366 19.391 39.1268 20.1369C39.2034 20.7633 39.2372 21.3941 39.2822 22.0228C39.3859 23.4401 39.4918 24.8551 39.5977 26.2723C39.6045 26.3534 39.6067 26.4391 39.6112 26.5269C38.6829 25.9411 37.4076 25.7789 36.3959 26.3129C36.4004 26.2768 36.4049 26.2453 36.4049 26.216C36.7068 23.6226 36.9276 21.0224 37.2115 18.4289ZM30.1928 33.4668C29.7917 33.575 29.3884 33.6966 28.9828 33.7823C28.5435 33.8746 27.6963 34.2644 28.0252 33.5524C28.1356 33.3158 28.8657 32.9508 29.0842 32.7908C29.4245 32.5407 29.7647 32.2884 30.1027 32.036C31.4253 31.0446 32.7254 30.0239 34.048 29.0325C34.4559 28.7261 34.8592 28.4579 35.2175 28.1628C35.1161 29.1767 35.5937 30.2267 36.5243 30.8103C36.7001 30.9207 36.8893 31.0063 37.0831 31.0694C36.3891 31.3758 35.6884 31.6688 34.9786 31.9369C33.4081 32.5295 31.8084 33.0274 30.1928 33.4668ZM37.0628 32.1892C37.0786 32.1036 37.0673 32.045 37.0381 32C37.0944 31.9774 37.1485 31.9549 37.2048 31.9324C37.7929 31.6913 38.3201 31.4502 38.9375 31.6214C39.0028 31.6395 39.0704 31.6642 39.1358 31.6913C39.0547 31.7927 39.0051 31.9053 39.0141 32.0112C39.3836 36.3487 39.9154 40.6726 40.321 45.0055C38.8203 44.9401 37.3197 44.8838 35.8191 44.8432C35.8731 40.5937 36.2855 36.3779 37.0628 32.1892Z" fill="#040404"/>
</g>
</g>
<defs>
<clipPath id="clip0_562_1679">
<rect width="50.4943" height="48" fill="white"/>
</clipPath>
</defs>
</svg>
