<svg width="38" height="49" viewBox="0 0 38 49" fill="none" xmlns="http://www.w3.org/2000/svg">
<g clip-path="url(#clip0_562_1703)">
<path d="M31.2849 14.9183C30.4542 13.4132 29.0859 12.475 27.3755 12.2306C25.6652 11.9863 25.262 12.4041 24.3629 11.9643C24.1332 11.8519 23.8913 11.7298 23.7545 11.5147C23.6323 11.3217 23.6103 11.0847 23.603 10.8575C23.5492 9.29127 23.967 7.64199 23.344 6.20529C22.8602 5.09112 21.7778 4.2848 20.5903 4.01115C19.4004 3.73749 18.1274 3.96228 17.0377 4.50959L17.1158 4.41186C15.2418 6.64266 14.0372 7.68109 12.7178 10.2759C11.7233 12.2331 11.9017 15.3362 10.9879 17.3324C10.5798 18.2242 10.1302 19.3042 10.68 20.1154C10.8828 20.4159 11.1956 20.6212 11.4717 20.8582C12.6225 21.8502 16.7151 23.1843 16.8715 24.6918C17.0254 26.1994 16.764 31.7019 17.1867 32.7574C17.2527 32.9187 17.3309 33.0921 17.4823 33.1777C17.607 33.2461 17.756 33.2461 17.9002 33.2436C21.3722 33.1679 21.9097 33.0311 25.3769 32.8356C25.802 31.0421 24.5901 29.1925 24.9053 27.3771C25.0886 26.3167 25.8191 25.3662 26.8014 24.9142C27.4366 24.621 28.1574 24.5281 28.7634 24.1763C29.2814 23.8757 31.2874 22.0994 31.7785 19.854C32.2696 17.6085 31.8591 15.9592 31.2849 14.9183Z" fill="#C8C846"/>
<path d="M35.5532 27.2036C38.2727 24.3547 38.2507 19.6121 35.0572 17.352C36.4182 15.5805 37.007 13.4279 35.9393 11.1996C34.7885 8.80019 32.4086 7.10693 29.8529 7.77886C29.8455 6.28596 29.7087 4.74908 28.9879 3.42966C28.1327 1.86835 26.393 1.01072 24.7047 0.656435C21.0396 -0.110783 17.6702 2.06382 15.3979 4.74908C13.0498 7.52475 11.1366 10.7036 10.0225 14.1707C8.92784 17.5719 8.29256 21.1148 7.85276 24.6552C7.7257 25.6765 7.61086 26.7028 7.51557 27.729C5.72702 25.5739 3.78699 23.4726 1.56352 21.8356C0.747437 21.2345 -0.586643 23.4164 0.280753 24.0566C3.01977 26.0773 5.30432 28.8505 7.41295 31.504C8.14352 32.4227 9.10865 30.5926 9.13308 30.0209C9.309 25.8207 9.86609 21.5815 10.797 17.4839C11.4934 14.4224 12.5049 11.5881 14.2177 8.94434C15.9256 6.31039 18.0269 3.54694 21.3133 2.95076C23.0481 2.63556 25.0541 3.08026 26.4444 4.18955C28.0668 5.48453 28.0277 7.82284 27.9935 9.70423C27.9837 10.2735 28.4601 10.4837 28.9366 10.2491C30.8375 9.30841 32.7971 10.6181 33.8258 12.1989C34.2754 12.8904 34.7616 13.7944 34.7029 14.6545C34.637 15.6343 33.8869 16.3942 33.1929 17.0026C32.824 17.3275 32.0372 18.6494 32.8044 19.0061C35.5068 20.2645 37.0535 24.1274 34.2094 26.1603C31.7611 27.9122 28.2256 27.3698 26.5836 24.8165C25.9679 23.8611 24.8317 25.7425 24.8635 26.2996C24.971 28.1981 24.9881 30.1015 24.9881 32.0049C24.3333 31.9951 23.6785 31.9853 23.0236 31.9756C22.2369 31.9658 21.2791 31.8265 20.4239 31.8803C20.4361 29.8181 20.4874 27.7534 20.6462 25.6961C20.7049 24.9313 19.8912 24.9313 19.4685 25.3174C18.0709 26.5928 16.3019 27.0204 14.4547 26.6954C13.4847 26.5244 12.4267 28.8407 13.5727 29.0435C15.3881 29.3636 17.184 28.9775 18.7135 28.0491C18.6085 29.9133 18.5743 31.785 18.5694 33.6517C18.5694 34.0549 18.8528 34.3994 19.278 34.2919C18.9334 34.3798 19.2926 34.2992 19.4441 34.3016C19.7104 34.3065 19.9768 34.3016 20.2431 34.3041C20.9565 34.309 21.67 34.3187 22.3835 34.3261C23.4121 34.3383 24.4432 34.3554 25.4719 34.3701C26.2684 34.3823 26.8377 33.3878 26.8377 32.6841C26.8402 31.3134 26.8426 29.9402 26.8231 28.5695C29.4937 30.2408 33.2882 29.5737 35.5532 27.2036Z" fill="#040404"/>
<path d="M17.0006 37.092C14.4741 36.7988 11.8964 37.5074 9.36992 37.0798C8.39746 36.9161 7.34193 39.2324 8.48787 39.4278C8.71021 39.4645 8.935 39.4914 9.15979 39.5134C9.18667 39.572 9.22332 39.6258 9.26975 39.6746C9.66801 40.0778 9.55562 40.7302 9.57761 41.2628C9.5996 41.8443 9.62159 42.4234 9.64114 43.0049C9.6167 43.1638 9.62159 43.3079 9.6558 43.4301C9.70711 44.7886 9.75598 46.1496 9.80729 47.5081C9.86348 49.0205 11.6936 47.4641 11.6569 46.4819C11.6227 45.5729 11.5909 44.664 11.5567 43.7551C12.148 43.7551 12.7393 43.7551 13.3331 43.7551C14.3324 43.7551 15.3122 41.407 14.2151 41.407C13.3013 41.407 12.385 41.407 11.4712 41.407C11.4541 40.8743 11.5079 40.1951 11.4737 39.5378C13.0276 39.4572 14.5841 39.2641 16.121 39.4425C17.1056 39.5525 18.1392 37.2215 17.0006 37.092Z" fill="#040404"/>
<path d="M23.5271 40.3391C22.7476 40.2219 21.4698 40.7203 20.8785 39.9507C20.705 39.7259 20.6757 39.8065 20.9176 39.5548C21.0984 39.3691 21.5821 39.3325 21.8167 39.3154C22.5204 39.2641 23.1337 39.4986 23.6077 40.0264C24.3871 40.8938 25.858 38.8218 25.1983 38.0888C23.8789 36.6179 21.5577 36.6057 20.143 37.9935C18.782 39.3276 18.1272 41.6732 20.2578 42.5406C21.1179 42.89 21.9902 42.482 22.838 42.7508C23.6786 43.0171 24.6559 44.3927 24.4116 45.3407C24.2014 46.1593 22.6866 46.1935 22.0659 46.1641C20.6415 46.0957 19.2243 45.1795 19.2512 43.6304C19.2609 43.0488 18.7772 42.8729 18.308 43.0855C17.7607 43.3323 17.4113 44.0873 17.4015 44.6566C17.3551 47.3076 19.7521 48.7492 22.2028 48.4682C24.1159 48.2483 25.6626 47.0535 26.1464 45.1208C26.6082 43.281 25.5844 40.6495 23.5271 40.3391Z" fill="#040404"/>
<path d="M37.3099 44.3611C36.787 44.0581 36.2446 44.73 36.0027 45.0867C34.522 47.2638 31.0671 45.226 30.3805 43.3006C29.926 42.0276 30.2363 40.7815 31.4189 40.0583C32.4378 39.4352 34.5757 39.1958 35.0229 40.6569C35.4016 41.9006 37.0851 40.0485 36.8041 39.1274C36.0931 36.7891 33.1366 36.9283 31.3847 37.9423C29.4227 39.0785 28.135 41.3533 28.3476 43.628C28.5626 45.9224 30.1581 47.623 32.3645 48.1434C34.5806 48.6687 36.1175 47.6401 37.3368 45.8515C37.586 45.4899 37.7937 44.642 37.3099 44.3611Z" fill="#040404"/>
</g>
<defs>
<clipPath id="clip0_562_1703">
<rect width="37.6035" height="48" fill="white" transform="translate(0 0.5)"/>
</clipPath>
</defs>
</svg>
