<svg width="37" height="21" viewBox="0 0 37 21" fill="none" xmlns="http://www.w3.org/2000/svg">
<g id="Arrow" clip-path="url(#clip0_160_493)">
<path id="Vector" d="M0.811053 9.52634C10.5739 9.93333 20.4306 10.2498 30.1662 10.9945C32.3058 11.1603 35.3261 7.39182 32.4934 7.43101C22.4764 7.57874 12.3836 7.31344 2.36658 7.12954C1.09856 7.10843 -1.24987 9.43589 0.804994 9.52332" fill="#145EFC"/>
<path id="Vector_2" d="M16.9019 2.9149C22.5611 4.97098 27.8965 7.76872 33.3681 10.2559C33.4679 9.54743 33.5708 8.83593 33.6707 8.12746C29.0677 11.5191 24.4707 14.9167 19.9161 18.3777C17.7705 20.0057 20.2188 21.2387 21.9135 20.0057C26.5286 16.6322 31.1013 13.2014 35.665 9.75548C36.3399 9.24899 37.1025 8.12147 35.9676 7.64514C30.4295 5.23332 24.9458 2.57121 19.2322 0.575436C17.9702 0.132264 15.1558 2.29689 16.8959 2.92999" fill="#145EFC"/>
</g>
<defs>
<clipPath id="clip0_160_493">
<rect width="36.5517" height="20" fill="white" transform="translate(0 0.5)"/>
</clipPath>
</defs>
</svg>
