<svg width="184" height="71" viewBox="0 0 184 71" fill="none" xmlns="http://www.w3.org/2000/svg">
<g id="Layer_1" clip-path="url(#clip0_562_1953)">
<path id="Vector" d="M177.909 58.3831C173.918 46.1142 168.083 34.4112 163.885 22.187C162.016 16.7335 157.79 22.5749 158.815 26.1494C160.673 32.6597 162.698 39.3623 165.094 45.9196C145.116 27.3014 117.596 16.0656 90.7895 13.2431C59.9539 9.99815 28.7779 18.7636 3.28281 36.1088C0.684559 37.8705 2.08501 45.7044 4.96232 43.8062C29.9973 27.3449 59.8898 19.8954 89.7219 22.6835C117.966 25.2925 142.618 37.6314 163.967 55.5139C156.215 55.5642 148.474 56.116 140.794 57.1659C137.371 57.6154 137.833 65.8661 141.221 65.5233C152.695 64.4431 164.254 64.6423 175.683 66.117C179.067 66.5394 178.419 59.9483 177.909 58.3831Z" fill="#145EFC"/>
</g>
<defs>
<clipPath id="clip0_562_1953">
<rect width="177.97" height="47.82" fill="white" transform="translate(6.70068 0.578613) rotate(7.11609)"/>
</clipPath>
</defs>
</svg>
